<svg width="1657" height="469" viewBox="0 0 1657 469" fill="none" xmlns="http://www.w3.org/2000/svg">
<path fill-rule="evenodd" clip-rule="evenodd" d="M732.395 203.365H739.929L736.18 227.468L732.395 203.365Z" fill="#4F86D8"/>
<path fill-rule="evenodd" clip-rule="evenodd" d="M739.93 203.365H747.465L743.697 227.468L739.93 203.365Z" fill="#4F86D8"/>
<path fill-rule="evenodd" clip-rule="evenodd" d="M747.464 203.365H754.999L751.213 227.468L747.464 203.365Z" fill="#4F86D8"/>
<path fill-rule="evenodd" clip-rule="evenodd" d="M756.506 203.365H764.041L760.291 227.468L756.506 203.365Z" fill="#4F86D8"/>
<path fill-rule="evenodd" clip-rule="evenodd" d="M764.042 203.365H771.577L767.809 227.468L764.042 203.365Z" fill="#4F86D8"/>
<path fill-rule="evenodd" clip-rule="evenodd" d="M771.576 203.365H779.111L775.326 227.468L771.576 203.365Z" fill="#4F86D8"/>
<path fill-rule="evenodd" clip-rule="evenodd" d="M780.618 203.365H788.153L784.404 227.468L780.618 203.365Z" fill="#4F86D8"/>
<path fill-rule="evenodd" clip-rule="evenodd" d="M788.153 203.365H795.688L791.921 227.468L788.153 203.365Z" fill="#4F86D8"/>
<path fill-rule="evenodd" clip-rule="evenodd" d="M795.688 203.365H803.222L799.437 227.468L795.688 203.365Z" fill="#4F86D8"/>
<path fill-rule="evenodd" clip-rule="evenodd" d="M804.729 203.365H812.264L808.497 227.468L804.729 203.365Z" fill="#4F86D8"/>
<path fill-rule="evenodd" clip-rule="evenodd" d="M877.065 247.051H881.586L879.326 256.09L877.065 247.051Z" fill="#4F86D8"/>
<path fill-rule="evenodd" clip-rule="evenodd" d="M881.586 247.051H886.107L883.846 256.09L881.586 247.051Z" fill="#4F86D8"/>
<path fill-rule="evenodd" clip-rule="evenodd" d="M886.107 247.051H890.628L888.35 256.09L886.107 247.051Z" fill="#4F86D8"/>
<path fill-rule="evenodd" clip-rule="evenodd" d="M890.628 247.051H895.149L892.888 256.09L890.628 247.051Z" fill="#4F86D8"/>
<path fill-rule="evenodd" clip-rule="evenodd" d="M895.148 247.051H899.669L897.409 256.09L895.148 247.051Z" fill="#4F86D8"/>
<path fill-rule="evenodd" clip-rule="evenodd" d="M899.671 247.051H904.192L901.913 256.09L899.671 247.051Z" fill="#4F86D8"/>
<path fill-rule="evenodd" clip-rule="evenodd" d="M905.698 247.051H910.219L907.959 256.09L905.698 247.051Z" fill="#4F86D8"/>
<path fill-rule="evenodd" clip-rule="evenodd" d="M910.219 247.051H914.74L912.498 256.09L910.219 247.051Z" fill="#4F86D8"/>
<path d="M855.968 171.731H812.266V174.744H855.968V171.731Z" fill="#4F86D8"/>
<path fill-rule="evenodd" clip-rule="evenodd" d="M732.399 201.859H813.772V441.378H730.888V201.859H732.399ZM810.75 204.893H733.91V438.344H810.75V204.893Z" fill="#4F86D8"/>
<path fill-rule="evenodd" clip-rule="evenodd" d="M855.973 135.577H937.345V441.378H854.461V135.577H855.973ZM934.359 138.609H857.485V438.346H934.359V138.609Z" fill="#4F86D8"/>
<path fill-rule="evenodd" clip-rule="evenodd" d="M851.477 135.577H857.474V153.654H849.939V135.577H851.477ZM854.437 138.602H853.015V150.628H854.437V138.602Z" fill="#4F86D8"/>
<path fill-rule="evenodd" clip-rule="evenodd" d="M935.83 135.577H941.866V153.654H934.331V135.577H935.869H935.83ZM938.791 138.602H937.368V150.628H938.791V138.602Z" fill="#4F86D8"/>
<path fill-rule="evenodd" clip-rule="evenodd" d="M919.253 135.577H925.289V153.654H917.754V135.577H919.292H919.253ZM922.213 138.602H920.791V150.628H922.213V138.602Z" fill="#4F86D8"/>
<path fill-rule="evenodd" clip-rule="evenodd" d="M902.676 135.577H908.712V153.654H901.177V135.577H902.715H902.676ZM905.636 138.602H904.214V150.628H905.636V138.602Z" fill="#4F86D8"/>
<path fill-rule="evenodd" clip-rule="evenodd" d="M884.632 135.577H890.629V153.654H883.094V135.577H884.632ZM887.592 138.602H886.169V150.628H887.592V138.602Z" fill="#4F86D8"/>
<path fill-rule="evenodd" clip-rule="evenodd" d="M868.053 135.577H874.051V153.654H866.516V135.577H868.053ZM871.014 138.602H869.591V150.628H871.014V138.602Z" fill="#4F86D8"/>
<path fill-rule="evenodd" clip-rule="evenodd" d="M849.923 138.056C847.67 135.194 843.774 132.141 838.999 129.508C834.607 127.104 829.527 125.12 824.332 124.052L815.279 122.22L824.446 121.075C832.2 120.083 838.923 119.053 844.576 117.221C850.038 115.466 854.43 112.948 857.677 109.094C866.577 98.4857 890.908 18.85 894.842 5.91449L896.637 0L898.471 5.91449C902.443 18.9264 926.736 98.4476 935.636 109.055C938.883 112.909 943.275 115.39 948.737 117.183C954.352 119.015 961.113 120.083 968.867 121.037L978.034 122.182L968.981 124.013C963.787 125.082 958.706 127.066 954.314 129.47C949.539 132.065 945.681 135.156 943.39 138.017L942.931 138.59H850.382L849.923 138.017V138.056ZM840.489 126.875C845.263 129.508 849.274 132.637 851.833 135.613H941.518C944.077 132.637 948.088 129.508 952.862 126.875C955.46 125.463 958.286 124.166 961.266 123.098C956.3 122.334 951.831 121.419 947.82 120.121C941.824 118.175 936.935 115.39 933.306 111.078C924.635 100.775 902.825 30.5645 896.676 10.4553C890.488 30.5645 868.678 100.775 860.045 111.078C856.417 115.428 851.528 118.175 845.531 120.121C841.558 121.419 837.051 122.334 832.086 123.098C835.065 124.166 837.891 125.425 840.489 126.875Z" fill="#4F86D8"/>
<path d="M967.484 120.513H824.32V123.526H967.484V120.513Z" fill="#4F86D8"/>
<path fill-rule="evenodd" clip-rule="evenodd" d="M878.559 165.706H914.74V203.366H877.065V165.706H878.597H878.559ZM911.677 168.764H880.09V200.307H911.677V168.764Z" fill="#4F86D8"/>
<path fill-rule="evenodd" clip-rule="evenodd" d="M895.903 203.366C890.696 203.366 885.986 201.261 882.579 197.855C879.171 194.448 877.065 189.741 877.065 184.536C877.065 179.331 879.171 174.623 882.579 171.217C885.986 167.811 890.696 165.706 895.903 165.706C901.11 165.706 905.819 167.811 909.227 171.217C912.634 174.623 914.74 179.331 914.74 184.536C914.74 189.741 912.634 194.448 909.227 197.855C905.819 201.261 901.11 203.366 895.903 203.366ZM884.723 195.673C887.594 198.543 891.538 200.304 895.903 200.304C900.268 200.304 904.211 198.543 907.083 195.673C909.954 192.803 911.715 188.86 911.715 184.497C911.715 180.134 909.954 176.192 907.083 173.322C904.249 170.451 900.268 168.691 895.903 168.691C891.538 168.691 887.594 170.451 884.723 173.322C881.851 176.192 880.09 180.134 880.09 184.497C880.09 188.86 881.851 192.803 884.723 195.673Z" fill="#4F86D8"/>
<path fill-rule="evenodd" clip-rule="evenodd" d="M878.595 176.25H914.74V192.821H877.065V176.25H878.595ZM911.68 179.27H880.125V189.801H911.68V179.27Z" fill="#4F86D8"/>
<path fill-rule="evenodd" clip-rule="evenodd" d="M887.614 201.836V165.706H904.191V203.366H887.614V201.836ZM890.635 168.764V200.307H901.17V168.764H890.635Z" fill="#4F86D8"/>
<path fill-rule="evenodd" clip-rule="evenodd" d="M756.559 287.627H765.533V265.857C765.533 265.391 765.154 264.924 764.511 264.535C763.64 263.991 762.428 263.68 761.065 263.68C759.702 263.68 758.49 264.03 757.619 264.535C756.976 264.924 756.597 265.391 756.597 265.857V287.627H756.559ZM767.048 290.737H753.492V265.896C753.492 264.302 754.439 262.903 755.991 261.931C757.316 261.114 759.096 260.609 761.027 260.609C762.958 260.609 764.738 261.114 766.063 261.931C767.615 262.903 768.562 264.302 768.562 265.896V290.737H767.048Z" fill="#4F86D8"/>
<path fill-rule="evenodd" clip-rule="evenodd" d="M777.658 287.627H786.632V265.857C786.632 265.391 786.253 264.924 785.609 264.535C784.738 263.991 783.527 263.68 782.164 263.68C780.801 263.68 779.589 264.03 778.718 264.535C778.074 264.924 777.696 265.391 777.696 265.857V287.627H777.658ZM788.146 290.737H774.591V265.896C774.591 264.302 775.537 262.903 777.09 261.931C778.415 261.114 780.195 260.609 782.126 260.609C784.057 260.609 785.836 261.114 787.162 261.931C788.714 262.903 789.661 264.302 789.661 265.896V290.737H788.146Z" fill="#4F86D8"/>
<path fill-rule="evenodd" clip-rule="evenodd" d="M751.976 290.66H791.215V267.291C791.215 262.347 789.45 258.987 786.521 256.824C782.916 254.159 777.584 253.154 771.576 253.154C765.569 253.154 760.237 254.159 756.669 256.824C753.74 258.987 751.976 262.347 751.976 267.291V290.66ZM792.717 293.75H748.972V267.291C748.972 261.227 751.225 257.055 754.905 254.313C759.072 251.223 765.043 250.064 771.576 250.064C778.11 250.064 784.08 251.223 788.248 254.313C791.928 257.055 794.181 261.227 794.181 267.291V293.75H792.679H792.717Z" fill="#4F86D8"/>
<path fill-rule="evenodd" clip-rule="evenodd" d="M751.042 290.737L771.596 309.269L792.111 290.737L794.181 292.9L771.596 313.333L748.972 292.9L751.042 290.737Z" fill="#4F86D8"/>
<path fill-rule="evenodd" clip-rule="evenodd" d="M755.07 430.836H788.082V404.758C788.082 400.317 786.231 396.291 783.223 393.393C780.215 390.458 776.088 388.652 771.576 388.652C767.064 388.652 762.899 390.458 759.93 393.393C756.922 396.328 755.07 400.355 755.07 404.758V430.836ZM789.624 433.846H751.985V404.758C751.985 399.489 754.183 394.71 757.731 391.248C761.279 387.786 766.177 385.641 771.576 385.641C776.975 385.641 781.873 387.786 785.421 391.248C788.969 394.71 791.167 399.489 791.167 404.758V433.846H789.624Z" fill="#4F86D8"/>
<path fill-rule="evenodd" clip-rule="evenodd" d="M748.983 438.365H795.716V406.015C795.716 402.4 794.884 399.01 793.409 395.96C791.859 392.796 789.628 390.01 786.868 387.825C785.696 386.921 784.297 386.055 782.785 385.151C779.344 383.042 775.45 380.67 772.349 376.377C769.249 380.67 765.354 383.042 761.876 385.151C760.364 386.055 758.965 386.921 757.792 387.825C755.032 390.01 752.802 392.796 751.251 395.96C749.777 399.01 748.945 402.437 748.945 406.015V438.365H748.983ZM772.349 441.378H745.958V406.015C745.958 401.948 746.903 398.107 748.567 394.642C750.306 391.064 752.839 387.938 755.94 385.453C757.225 384.436 758.738 383.532 760.326 382.553C763.993 380.331 768.19 377.77 771.064 372.837L772.349 370.577L773.635 372.837C776.508 377.77 780.705 380.331 784.335 382.553C785.923 383.532 787.397 384.436 788.721 385.453C791.821 387.901 794.354 391.064 796.094 394.642C797.757 398.107 798.703 401.948 798.703 406.015V441.378H772.311H772.349Z" fill="#4F86D8"/>
<path d="M797.194 403.718H747.464V406.731H797.194V403.718Z" fill="#4F86D8"/>
<path d="M773.084 388.654H770.07V406.731H773.084V388.654Z" fill="#4F86D8"/>
<path fill-rule="evenodd" clip-rule="evenodd" d="M880.151 430.836H913.162V404.758C913.162 400.317 911.311 396.291 908.303 393.393C905.295 390.458 901.168 388.652 896.656 388.652C892.144 388.652 887.979 390.458 885.01 393.393C882.04 396.328 880.151 400.355 880.151 404.758V430.836ZM914.704 433.846H877.065V404.758C877.065 399.489 879.264 394.71 882.812 391.248C886.36 387.786 891.257 385.641 896.656 385.641C902.055 385.641 906.953 387.786 910.501 391.248C914.049 394.71 916.247 399.489 916.247 404.758V433.846H914.704Z" fill="#4F86D8"/>
<path fill-rule="evenodd" clip-rule="evenodd" d="M872.555 438.365H919.288V406.015C919.288 402.4 918.456 399.01 916.981 395.96C915.431 392.796 913.2 390.009 910.44 387.825C909.268 386.921 907.869 386.055 906.357 385.151C902.916 383.042 898.984 380.67 895.884 376.376C892.783 380.67 888.889 383.042 885.448 385.151C883.936 386.055 882.537 386.921 881.365 387.825C878.605 390.009 876.374 392.796 874.824 395.96C873.349 399.01 872.517 402.437 872.517 406.015V438.365H872.555ZM895.921 441.378H869.53V406.015C869.53 401.948 870.476 398.106 872.139 394.642C873.878 391.064 876.412 387.938 879.512 385.452C880.798 384.436 882.31 383.532 883.898 382.553C887.566 380.331 891.762 377.77 894.598 372.836L895.884 370.577L897.169 372.836C900.043 377.77 904.24 380.331 907.907 382.553C909.495 383.532 910.97 384.436 912.293 385.452C915.393 387.9 917.927 391.064 919.666 394.642C921.33 398.106 922.275 401.948 922.275 406.015V441.378H895.884H895.921Z" fill="#4F86D8"/>
<path d="M920.768 403.718H871.037V406.731H920.768V403.718Z" fill="#4F86D8"/>
<path d="M896.657 388.654H893.643V406.731H896.657V388.654Z" fill="#4F86D8"/>
<path fill-rule="evenodd" clip-rule="evenodd" d="M772.33 323.878C775.005 323.878 777.483 324.941 779.253 326.648C781.024 328.356 782.125 330.709 782.125 333.327V358.526H762.534V333.327C762.534 330.747 763.636 328.356 765.406 326.648C767.176 324.941 769.615 323.878 772.33 323.878ZM777.011 328.812C775.791 327.635 774.139 326.914 772.33 326.914C770.52 326.914 768.868 327.635 767.648 328.812C766.429 329.988 765.681 331.582 765.681 333.327V355.49H778.939V333.327C778.939 331.582 778.191 329.95 776.972 328.812H777.011Z" fill="#4F86D8"/>
<path fill-rule="evenodd" clip-rule="evenodd" d="M895.903 323.878C898.578 323.878 901.056 324.941 902.826 326.648C904.597 328.356 905.698 330.709 905.698 333.327V358.526H886.107V333.327C886.107 330.747 887.209 328.356 888.979 326.648C890.749 324.941 893.188 323.878 895.903 323.878ZM900.584 328.812C899.365 327.635 897.712 326.914 895.903 326.914C894.093 326.914 892.441 327.635 891.221 328.812C890.002 329.988 889.255 331.582 889.255 333.327V355.49H902.512V333.327C902.512 331.582 901.764 329.95 900.545 328.812H900.584Z" fill="#4F86D8"/>
<path fill-rule="evenodd" clip-rule="evenodd" d="M812.251 210.897H857.474V441.378H810.758V210.897H812.289H812.251ZM854.411 213.928H813.783V438.348H854.411V213.928Z" fill="#4F86D8"/>
<path fill-rule="evenodd" clip-rule="evenodd" d="M730.76 204.189C728.792 201.383 725.423 198.312 721.298 195.734C717.514 193.345 713.124 191.411 708.62 190.349L700.748 188.529L708.734 187.392C715.432 186.444 721.298 185.382 726.18 183.562C730.911 181.818 734.696 179.353 737.496 175.561C743.665 167.181 754.565 114.513 760.166 87.4401C761.831 79.4774 763.004 73.7139 763.496 71.8938L765.01 66.282L776.742 113.262H785.333L791.426 92.597L813.301 176.13C814.096 179.126 816.026 181.439 819.319 183.221C822.801 185.117 827.796 186.444 834.419 187.43L842.405 188.567L834.533 190.387C830.029 191.411 825.639 193.383 821.855 195.771C817.729 198.35 814.361 201.383 812.393 204.227L811.939 204.872H779.051V160.735H764.518V204.872H731.138L730.684 204.227L730.76 204.189ZM722.888 193.193C727.051 195.771 730.533 198.881 732.728 201.838H761.566V157.702H782.154V201.838H810.463C812.696 198.881 816.178 195.809 820.303 193.193C822.649 191.714 825.223 190.387 827.91 189.325C823.822 188.415 820.492 187.316 817.881 185.875C813.831 183.676 811.409 180.756 810.387 176.888L791.275 103.859L787.604 116.334H774.396L765.048 78.9086L763.118 88.1227C757.479 115.424 746.466 168.509 739.918 177.419C736.739 181.742 732.463 184.548 727.202 186.482C723.72 187.771 719.784 188.681 715.47 189.439C718.081 190.501 720.579 191.79 722.888 193.231V193.193Z" fill="#4F86D8"/>
<path fill-rule="evenodd" clip-rule="evenodd" d="M708.282 186.794H762.971V189.807H708.282V186.794ZM780.716 186.794H834.869V189.807H780.716V186.794Z" fill="#4F86D8"/>
<path fill-rule="evenodd" clip-rule="evenodd" d="M813.642 248.422H854.629V238.149H813.642V248.422ZM856.052 251.571H810.758V235H857.474V251.571H856.052Z" fill="#4F86D8"/>
<path fill-rule="evenodd" clip-rule="evenodd" d="M834.116 323.878C836.791 323.878 839.269 324.941 841.039 326.648C842.81 328.356 843.911 330.709 843.911 333.327V358.526H824.32V333.327C824.32 330.747 825.422 328.356 827.192 326.648C828.962 324.941 831.401 323.878 834.116 323.878ZM838.797 328.812C837.578 327.635 835.925 326.914 834.116 326.914C832.306 326.914 830.615 327.635 829.434 328.774C828.215 329.95 827.467 331.544 827.467 333.29V355.452H840.725V333.29C840.725 331.544 839.977 329.912 838.758 328.774L838.797 328.812Z" fill="#4F86D8"/>
<path fill-rule="evenodd" clip-rule="evenodd" d="M813.999 370.57H854.271V358.494H813.999V370.57ZM855.873 373.59H810.758V355.513H857.474V373.59H855.873Z" fill="#4F86D8"/>
<path fill-rule="evenodd" clip-rule="evenodd" d="M830.536 257.596H837.696C839.387 257.596 840.961 258.279 842.102 259.342C843.242 260.442 843.911 261.922 843.911 263.592V292.243H824.32V263.592C824.32 261.96 825.028 260.442 826.13 259.38C827.271 258.279 828.805 257.596 830.536 257.596ZM837.696 260.632H830.536C829.71 260.632 828.923 260.973 828.372 261.505C827.821 262.036 827.467 262.795 827.467 263.592V289.207H840.725V263.592C840.725 262.795 840.371 262.036 839.82 261.505C839.269 260.973 838.482 260.632 837.656 260.632H837.696Z" fill="#4F86D8"/>
<path fill-rule="evenodd" clip-rule="evenodd" d="M818.292 331.398L834.135 304.294L849.939 331.398L847.266 332.916L834.135 310.406L820.965 332.916L818.292 331.398Z" fill="#4F86D8"/>
<path fill-rule="evenodd" clip-rule="evenodd" d="M762.579 156.667H782.125V203.365H761.027V156.667H762.579ZM779.023 159.67H764.13V200.362H779.023V159.67Z" fill="#4F86D8"/>
<path d="M780.618 174.744H762.534V177.756H780.618V174.744Z" fill="#4F86D8"/>
<path d="M773.084 158.173H770.07V201.859H773.084V158.173Z" fill="#4F86D8"/>
<path fill-rule="evenodd" clip-rule="evenodd" d="M890.629 257.596C892.229 257.596 894.221 259.424 895.704 261.746C897.071 263.84 898.164 266.467 898.164 268.333V292.243H883.094V268.333C883.094 266.429 884.187 263.84 885.553 261.746C887.037 259.424 889.028 257.596 890.629 257.596ZM893.088 263.345C892.112 261.822 891.097 260.642 890.629 260.642C890.16 260.642 889.145 261.86 888.169 263.345C887.076 265.02 886.217 267.038 886.217 268.333V289.197H895.04V268.333C895.04 267.038 894.181 265.02 893.088 263.345Z" fill="#4F86D8"/>
<path fill-rule="evenodd" clip-rule="evenodd" d="M901.177 257.596C902.778 257.596 904.769 259.424 906.253 261.746C907.619 263.878 908.712 266.467 908.712 268.333V292.244H893.643V268.333C893.643 266.467 894.736 263.84 896.102 261.746C897.586 259.424 899.577 257.596 901.177 257.596ZM903.637 263.345C902.661 261.822 901.646 260.642 901.177 260.642C900.709 260.642 899.694 261.861 898.718 263.345C897.625 265.021 896.766 267.039 896.766 268.333V289.198H905.589V268.333C905.589 267.039 904.73 265.021 903.637 263.345Z" fill="#4F86D8"/>
<path fill-rule="evenodd" clip-rule="evenodd" d="M877.08 245.544H916.246V292.243H875.558V245.544H877.08ZM913.201 248.594H878.603V289.193H913.201V248.594Z" fill="#4F86D8"/>
<path fill-rule="evenodd" clip-rule="evenodd" d="M874.121 302.782H919.19V292.25H874.121V302.782ZM920.733 305.801H871.037V289.231H922.275V305.801H920.733Z" fill="#4F86D8"/>
<path fill-rule="evenodd" clip-rule="evenodd" d="M895.903 248.558H865.01L873.156 245.634C878.458 243.697 882.685 240.848 886.143 237.241C889.601 233.633 892.291 229.304 894.52 224.481L895.903 221.442L897.286 224.481C899.515 229.304 902.205 233.633 905.663 237.241C909.121 240.811 913.309 243.697 918.65 245.634L926.796 248.558H895.903ZM880.533 245.52H911.311C908.352 243.773 905.74 241.684 903.473 239.329C900.437 236.177 898.016 232.57 895.941 228.582C893.866 232.57 891.407 236.215 888.41 239.329C886.143 241.684 883.53 243.773 880.572 245.52H880.533Z" fill="#4F86D8"/>
<path fill-rule="evenodd" clip-rule="evenodd" d="M751.042 290.737L771.596 309.269L792.111 290.737L794.181 292.9L771.596 313.333L748.972 292.9L751.042 290.737Z" fill="#4F86D8"/>
<path fill-rule="evenodd" clip-rule="evenodd" d="M872.461 302.789L895.168 315.752L917.874 302.789L919.261 305.603L895.168 319.359L871.037 305.603L872.461 302.789Z" fill="#4F86D8"/>
<path fill-rule="evenodd" clip-rule="evenodd" d="M821.298 438.296H845.463V413.14C845.463 409.75 844.11 406.63 841.93 404.396C839.751 402.161 836.707 400.774 833.399 400.774C830.092 400.774 827.048 402.161 824.869 404.396C822.689 406.63 821.336 409.75 821.336 413.14V438.296H821.298ZM846.966 441.378H818.292V413.14C818.292 408.903 819.983 405.012 822.726 402.238C825.47 399.426 829.228 397.692 833.362 397.692C837.496 397.692 841.291 399.426 843.997 402.238C846.741 405.05 848.432 408.903 848.432 413.14V441.378H846.929H846.966Z" fill="#4F86D8"/>
<path fill-rule="evenodd" clip-rule="evenodd" d="M821.298 438.333H845.463V413.442C845.463 410.625 845.012 407.961 844.185 405.563C843.358 403.127 842.156 400.996 840.69 399.321C840.089 398.636 839.337 397.989 838.51 397.266C836.819 395.819 834.94 394.183 833.362 391.48C831.746 394.145 829.867 395.781 828.213 397.266C827.424 397.951 826.672 398.598 826.071 399.321C824.606 400.996 823.403 403.127 822.576 405.563C821.749 407.961 821.298 410.625 821.298 413.442V438.333ZM833.362 441.378H818.292V413.442C818.292 410.283 818.818 407.276 819.72 404.573C820.697 401.757 822.088 399.245 823.816 397.304C824.53 396.466 825.395 395.743 826.259 394.982C828.213 393.307 830.468 391.328 831.971 387.56L833.362 384.135L834.752 387.56C836.293 391.328 838.51 393.269 840.465 394.982C841.367 395.743 842.193 396.466 842.907 397.304C844.636 399.283 846.027 401.757 847.004 404.573C847.906 407.276 848.432 410.283 848.432 413.442V441.378H833.362Z" fill="#4F86D8"/>
<path d="M846.926 412.756H819.8V415.769H846.926V412.756Z" fill="#4F86D8"/>
<path d="M834.87 399.199H831.856V412.756H834.87V399.199Z" fill="#4F86D8"/>
<path d="M767.056 36.1541H764.042V72.3079H767.056V36.1541Z" fill="#4F86D8"/>
<path d="M792.675 61.7629H789.661V97.9168H792.675V61.7629Z" fill="#4F86D8"/>
<path fill-rule="evenodd" clip-rule="evenodd" d="M812.254 210.897H857.474V238.013H810.758V210.897H812.254ZM854.521 213.857H813.75V235.053H854.521V213.857Z" fill="#4F86D8"/>
<path fill-rule="evenodd" clip-rule="evenodd" d="M812.288 227.468H857.474V238.013H810.758V227.468H812.288ZM854.375 230.377H813.819V235.104H854.375V230.377Z" fill="#4F86D8"/>
<path fill-rule="evenodd" clip-rule="evenodd" d="M901.177 257.596C902.778 257.596 904.769 259.424 906.253 261.746C907.619 263.878 908.712 266.467 908.712 268.333V292.244H893.643V268.333C893.643 266.467 894.736 263.84 896.102 261.746C897.586 259.424 899.577 257.596 901.177 257.596ZM903.637 263.345C902.661 261.822 901.646 260.642 901.177 260.642C900.709 260.642 899.694 261.861 898.718 263.345C897.625 265.021 896.766 267.039 896.766 268.333V289.198H905.589V268.333C905.589 267.039 904.73 265.021 903.637 263.345Z" fill="#4F86D8"/>
<path fill-rule="evenodd" clip-rule="evenodd" d="M950.907 326.891C952.508 326.891 954.499 328.719 955.982 331.041C957.349 333.173 958.442 335.762 958.442 337.628V361.539H943.372V337.628C943.372 335.762 944.465 333.135 945.832 331.041C947.315 328.719 949.306 326.891 950.907 326.891ZM953.367 332.64C952.391 331.117 951.376 329.937 950.907 329.937C950.439 329.937 949.423 331.155 948.447 332.64C947.354 334.316 946.495 336.333 946.495 337.628V358.493H955.319V337.628C955.319 336.333 954.46 334.316 953.367 332.64Z" fill="#4F86D8"/>
<path fill-rule="evenodd" clip-rule="evenodd" d="M937.432 379.62C943.596 379.211 951.465 376.426 957.668 372.452C962.629 369.258 966.467 365.396 967.281 361.496H937.471V379.62H937.432ZM959.373 374.903C952.163 379.508 942.782 382.628 935.882 382.628H934.331V358.525H970.499V360.011C970.499 365.507 965.769 370.818 959.373 374.903Z" fill="#4F86D8"/>
<path fill-rule="evenodd" clip-rule="evenodd" d="M968.911 361.539H934.331V310.321H970.499V361.539H968.95H968.911ZM937.429 358.515H967.362V313.344H937.429V358.515Z" fill="#4F86D8"/>
<path fill-rule="evenodd" clip-rule="evenodd" d="M937.269 273.055C941.122 281.539 945.777 289.182 951.843 295.564C957.871 301.907 965.234 306.99 974.505 310.391L982.555 313.333H934.331V266.635L937.231 273.055H937.269ZM949.63 297.665C944.785 292.545 940.817 286.698 937.421 280.278V310.314H966.645C960.007 306.99 954.437 302.71 949.668 297.665H949.63Z" fill="#4F86D8"/>
<path d="M968.992 314.84H935.838V317.853H968.992V314.84Z" fill="#4F86D8"/>
<path d="M967.485 363.044H935.838V366.057H967.485V363.044Z" fill="#4F86D8"/>
<path fill-rule="evenodd" clip-rule="evenodd" d="M935.877 379.679C940.745 378.415 944.757 376.079 947.6 373.398C950.599 370.564 952.313 367.309 952.313 364.551H955.429C955.429 368.151 953.365 372.173 949.742 375.581C946.549 378.607 942.07 381.211 936.656 382.628L935.838 379.679H935.877Z" fill="#4F86D8"/>
<path fill-rule="evenodd" clip-rule="evenodd" d="M895.149 84.3589C896.711 84.3589 898.702 86.0159 900.185 88.1249C901.591 90.0456 902.684 92.4558 902.684 94.2259V115.994H887.614V94.2259C887.614 92.4935 888.707 90.0832 890.113 88.1249C891.596 86.0159 893.588 84.3589 895.149 84.3589ZM897.648 89.8196C896.672 88.4639 895.657 87.3717 895.149 87.3717C894.642 87.3717 893.627 88.4639 892.651 89.8196C891.557 91.326 890.738 93.0584 890.738 94.1882V112.943H899.561V94.1882C899.561 93.0584 898.702 91.2884 897.648 89.8196Z" fill="#4F86D8"/>
<path d="M106.996 323.878H103.982V329.904H106.996V323.878Z" fill="#4F86D8"/>
<path d="M162.754 323.878H159.74V329.904H162.754V323.878Z" fill="#4F86D8"/>
<path fill-rule="evenodd" clip-rule="evenodd" d="M128.094 287.724H105.489V302.788C109.704 293.797 118.209 287.88 128.094 287.724Z" fill="#4F86D8"/>
<path fill-rule="evenodd" clip-rule="evenodd" d="M162.755 287.724H140.15C150.11 287.88 158.54 293.758 162.755 302.788V287.724Z" fill="#4F86D8"/>
<path d="M348.114 326.891H343.593V334.423H348.114V326.891Z" fill="#4F86D8"/>
<path d="M390.31 326.891H385.789V334.423H390.31V326.891Z" fill="#4F86D8"/>
<path d="M629.92 323.878H626.906V329.904H629.92V323.878Z" fill="#4F86D8"/>
<path d="M574.161 323.878H571.147V329.904H574.161V323.878Z" fill="#4F86D8"/>
<path fill-rule="evenodd" clip-rule="evenodd" d="M605.809 287.724H628.413V302.788C624.198 293.796 615.731 287.88 605.809 287.724Z" fill="#4F86D8"/>
<path fill-rule="evenodd" clip-rule="evenodd" d="M571.147 287.724H593.752C583.793 287.88 575.363 293.758 571.147 302.788V287.724Z" fill="#4F86D8"/>
<path fill-rule="evenodd" clip-rule="evenodd" d="M376.747 201.859H357.156V224.61C357.156 225.315 357.752 225.909 358.46 225.909H365.015C366.021 225.909 366.654 226.392 366.914 227.468C367.287 226.392 368.069 225.909 369 225.909H375.183C376.039 225.909 376.747 225.204 376.747 224.35V201.859ZM367.548 212.696C367.548 212.696 367.361 212.808 367.287 212.882H367.25H367.175V212.808C367.175 212.808 367.175 212.733 367.175 212.696H367.25C367.25 212.696 367.361 212.511 367.399 212.437C367.548 212.177 367.659 211.917 367.808 211.62C367.92 211.36 368.032 211.063 368.143 210.803C368.143 210.803 368.143 210.729 368.181 210.692C368.181 210.692 368.181 210.618 368.218 210.581C368.292 210.432 368.292 210.284 368.33 210.135V210.061H368.404L368.479 209.764H368.628L368.777 209.504V209.393L368.851 209.245C368.926 209.282 368.963 209.319 369 209.356C369 209.282 369.037 209.208 369.075 209.133V209.022C369.075 209.022 369.186 209.022 369.261 209.022L369.335 208.948C369.335 208.948 369.41 208.836 369.447 208.799V208.725H369.559H369.633L369.745 208.539V208.465H369.857C369.857 208.465 369.894 208.391 369.931 208.354V208.28V208.131H370.043H370.117L370.229 207.946V207.871H370.341H370.453L370.602 207.537C370.676 207.537 370.713 207.537 370.788 207.575C370.788 207.575 371.086 207.278 371.235 207.129C371.235 207.129 371.272 207.092 371.309 207.055C371.347 207.018 371.421 206.981 371.458 206.944C371.496 206.758 371.533 206.61 371.57 206.424C371.57 206.387 371.57 206.313 371.57 206.276H371.645C371.645 206.276 371.719 206.276 371.793 206.276C371.868 206.276 371.905 206.238 371.98 206.201H372.054C372.054 206.201 372.24 206.053 372.352 205.979L372.464 205.904C372.464 205.904 372.65 205.793 372.762 205.719V205.83V205.867L373.246 205.385L373.321 205.311C373.321 205.311 373.395 205.199 373.432 205.162L373.507 205.051C373.507 205.051 373.581 204.939 373.581 204.865C373.618 204.754 373.656 204.642 373.693 204.531C373.805 204.234 373.879 203.937 373.954 203.64C373.954 203.603 373.954 203.566 373.954 203.492C373.954 203.343 373.991 203.232 374.028 203.084L374.252 202.601C374.252 202.601 374.252 202.861 374.252 203.009C374.252 203.306 374.289 203.64 374.326 203.937C374.326 204.049 374.326 204.16 374.401 204.271C374.401 204.271 374.401 204.383 374.438 204.383C374.475 204.383 374.475 204.383 374.512 204.42H374.587C374.587 204.42 374.699 204.457 374.773 204.457H374.848C374.959 204.457 375.071 204.457 375.146 204.457C375.146 204.457 375.257 204.457 375.295 204.457C375.481 204.457 375.704 204.383 375.89 204.346C375.592 204.531 375.257 204.754 374.922 204.902H374.848L374.661 205.051L374.363 205.236C374.363 205.236 374.289 205.273 374.252 205.311C374.214 205.311 374.177 205.348 374.14 205.385L374.028 205.459C374.028 205.459 373.73 205.719 373.618 205.867C373.507 206.016 373.395 206.164 373.283 206.35H373.544L373.507 206.572C373.507 206.572 373.321 206.684 373.209 206.721H373.134L372.985 206.758C372.911 206.869 372.799 206.981 372.725 207.129C372.538 207.352 372.352 207.612 372.203 207.834C372.24 207.834 372.278 207.834 372.315 207.834C372.315 207.834 372.427 207.834 372.501 207.871V208.02H372.427C372.278 208.094 372.129 208.168 371.98 208.243L371.793 208.317C371.793 208.317 371.607 208.539 371.496 208.651C371.309 208.836 371.16 209.022 371.011 209.245C370.751 209.542 370.49 209.838 370.229 210.135C370.192 210.173 370.117 210.247 370.08 210.284C370.229 210.284 370.378 210.284 370.527 210.284C370.676 210.284 370.825 210.284 370.937 210.247L370.825 210.395C370.751 210.469 370.713 210.507 370.639 210.544C370.415 210.692 370.155 210.841 369.894 210.952C369.82 210.952 369.745 210.989 369.671 211.026C369.559 211.026 369.41 211.1 369.261 211.1L369.037 211.286L368.926 211.36C368.851 211.434 368.814 211.472 368.739 211.546L368.516 211.806C368.516 211.806 368.516 211.991 368.516 212.065C368.441 212.065 368.367 211.991 368.292 211.954C368.255 211.954 368.181 212.028 368.143 212.065C368.106 212.102 368.032 212.14 367.994 212.177C367.808 212.325 367.585 212.474 367.399 212.585L367.548 212.696ZM366.095 212.659C365.909 212.511 365.685 212.399 365.499 212.251C365.462 212.214 365.387 212.177 365.35 212.14C365.313 212.14 365.276 212.065 365.201 212.028C365.127 212.065 365.052 212.102 364.978 212.14C364.978 212.065 364.978 211.991 364.978 211.917L364.754 211.657C364.68 211.583 364.642 211.509 364.568 211.472L364.456 211.397L364.233 211.212C364.233 211.212 363.972 211.175 363.823 211.137C363.749 211.137 363.674 211.1 363.6 211.063C363.339 210.952 363.115 210.841 362.855 210.655C362.78 210.618 362.706 210.544 362.669 210.507L362.557 210.358C362.557 210.358 362.855 210.358 362.966 210.395C363.115 210.395 363.264 210.395 363.413 210.395C363.376 210.358 363.302 210.284 363.264 210.247C363.004 209.95 362.743 209.653 362.482 209.356C362.333 209.17 362.147 208.985 361.998 208.762C361.886 208.651 361.812 208.539 361.7 208.428L361.514 208.354C361.514 208.354 361.216 208.205 361.067 208.131H361.03V207.946C361.067 207.946 361.141 207.909 361.179 207.946C361.179 207.946 361.253 207.946 361.29 207.909C361.104 207.686 360.918 207.426 360.769 207.203C360.695 207.092 360.583 206.981 360.508 206.832H360.359L360.285 206.795C360.173 206.758 360.099 206.721 359.987 206.647L359.95 206.424H360.21C360.21 206.424 359.987 206.09 359.875 205.941C359.763 205.793 359.614 205.682 359.465 205.533L359.354 205.459C359.354 205.459 359.279 205.385 359.242 205.385C359.205 205.385 359.167 205.385 359.13 205.311L358.832 205.125L358.646 204.977H358.572C358.236 204.791 357.938 204.568 357.603 204.383C357.789 204.42 358.013 204.457 358.199 204.494C358.236 204.494 358.311 204.494 358.348 204.494C358.348 204.494 358.572 204.494 358.646 204.494H358.721C358.795 204.494 358.87 204.494 358.907 204.494H358.981C358.981 204.494 359.019 204.457 359.056 204.42C359.056 204.42 359.056 204.383 359.093 204.346C359.093 204.346 359.167 204.086 359.167 203.974C359.167 203.677 359.205 203.381 359.242 203.047C359.242 202.898 359.242 202.787 359.242 202.638L359.465 203.121C359.465 203.121 359.503 203.381 359.54 203.529C359.54 203.566 359.54 203.603 359.54 203.678C359.614 203.974 359.689 204.271 359.801 204.568C359.838 204.68 359.875 204.791 359.912 204.902C359.912 204.976 359.987 205.014 359.987 205.088L360.061 205.199C360.061 205.199 360.136 205.311 360.173 205.348L360.248 205.422L360.732 205.904H360.769V205.756C360.881 205.83 360.918 205.83 361.067 205.941L361.179 206.016C361.253 206.09 361.365 206.127 361.477 206.201H361.551C361.626 206.201 361.663 206.238 361.737 206.276C361.775 206.276 361.812 206.276 361.886 206.276H361.961C361.961 206.276 361.961 206.387 361.961 206.424C361.961 206.61 362.035 206.758 362.073 206.944C362.11 206.981 362.184 207.018 362.222 207.055C362.222 207.055 362.259 207.092 362.296 207.129C362.445 207.278 362.594 207.426 362.743 207.575C362.743 207.575 362.855 207.575 362.929 207.537L363.078 207.871H363.19H363.302V207.946L363.413 208.131H363.488L363.637 208.094V208.243V208.317C363.637 208.317 363.711 208.391 363.711 208.428H363.823V208.502L363.935 208.688H364.009H364.121V208.762C364.121 208.762 364.196 208.874 364.233 208.911L364.307 208.985C364.307 208.985 364.419 208.985 364.456 208.985V209.096C364.456 209.096 364.494 209.245 364.531 209.319C364.568 209.282 364.642 209.245 364.68 209.208V209.356L364.754 209.467L364.903 209.727H365.052L365.127 210.024H365.201V210.135C365.201 210.135 365.276 210.432 365.313 210.581C365.313 210.581 365.313 210.655 365.35 210.692C365.35 210.692 365.35 210.766 365.387 210.803C365.499 211.063 365.611 211.36 365.723 211.62C365.834 211.88 365.983 212.177 366.132 212.437C366.169 212.511 366.207 212.585 366.281 212.659H366.356C366.356 212.659 366.356 212.771 366.356 212.808V212.845L366.281 212.882H366.244C366.244 212.882 366.058 212.733 365.983 212.696L366.095 212.659ZM366.579 213.698C366.579 213.698 366.616 213.513 366.654 213.401L366.728 213.327H366.803C366.803 213.327 366.84 213.327 366.877 213.364V213.439C366.877 213.439 366.877 213.624 366.877 213.698C366.952 213.995 367.026 214.292 367.138 214.552C367.212 214.849 367.324 215.109 367.436 215.369C367.436 215.369 367.436 215.443 367.436 215.48C367.436 215.48 367.436 215.554 367.436 215.591C367.473 215.74 367.585 215.888 367.659 215.999V216.111L367.585 216.185L367.697 216.445L367.585 216.519L367.659 216.816V216.927L367.771 217.039C367.697 217.039 367.622 217.039 367.585 217.039C367.585 217.113 367.659 217.187 367.697 217.261L367.771 217.373C367.771 217.373 367.697 217.447 367.659 217.447V217.558C367.659 217.558 367.659 217.67 367.697 217.744V217.818L367.659 217.892H367.622L367.659 218.115V218.189V218.263C367.659 218.301 367.659 218.338 367.659 218.375V218.449H367.697L367.808 218.56L367.697 218.635H367.622L367.659 218.894V218.969V219.043L367.548 219.117L367.659 219.451C367.659 219.451 367.548 219.525 367.51 219.525C367.51 219.748 367.51 219.934 367.51 220.156C367.51 220.156 367.51 220.231 367.51 220.268C367.51 220.342 367.51 220.379 367.473 220.453C367.548 220.602 367.659 220.787 367.734 220.936C367.734 220.973 367.771 221.01 367.808 221.047L367.734 221.121C367.734 221.121 367.659 221.196 367.659 221.233C367.659 221.307 367.585 221.344 367.585 221.418V221.492C367.585 221.604 367.51 221.715 367.51 221.826V221.975H367.473C367.436 222.123 367.399 222.16 367.361 222.309L367.287 222.198H367.212V222.866L367.138 222.94C367.138 223.014 367.138 223.051 367.138 223.125V223.237C367.138 223.237 367.175 223.348 367.212 223.422C367.212 223.534 367.287 223.645 367.324 223.756C367.436 224.016 367.585 224.313 367.734 224.573C367.734 224.61 367.771 224.647 367.808 224.684C367.883 224.796 367.957 224.907 368.032 225.018L368.181 225.538C368.181 225.538 367.995 225.352 367.92 225.241C367.697 225.018 367.473 224.796 367.25 224.61C367.175 224.536 367.063 224.462 366.989 224.424H366.952C366.952 224.424 366.914 224.424 366.877 224.424C366.877 224.424 366.84 224.424 366.803 224.424H366.728C366.728 224.424 366.616 224.499 366.542 224.573L366.505 224.647C366.43 224.721 366.356 224.796 366.281 224.87C366.281 224.87 366.207 224.944 366.17 225.018C366.058 225.167 365.909 225.352 365.797 225.501C365.909 225.167 365.983 224.796 366.132 224.462V224.387L366.207 224.165L366.318 223.831C366.318 223.831 366.318 223.756 366.356 223.719C366.356 223.682 366.356 223.608 366.393 223.571V223.459C366.393 223.459 366.467 223.088 366.43 222.903C366.43 222.717 366.393 222.532 366.356 222.309L366.132 222.495L366.021 222.309C366.021 222.309 366.095 222.086 366.132 221.975V221.901L366.281 221.789C366.281 221.641 366.281 221.492 366.244 221.344C366.244 221.047 366.207 220.75 366.17 220.453C366.132 220.453 366.095 220.453 366.058 220.527C366.058 220.527 365.946 220.602 365.909 220.639L365.834 220.49C365.872 220.268 365.946 220.119 366.021 219.971L366.132 219.785C366.132 219.785 366.132 219.488 366.132 219.34C366.132 219.08 366.132 218.82 366.132 218.56C366.132 218.152 366.132 217.781 366.132 217.373C366.132 217.298 366.132 217.224 366.132 217.15C366.021 217.261 365.946 217.373 365.834 217.447C365.723 217.558 365.648 217.67 365.536 217.781V217.595C365.536 217.521 365.536 217.41 365.574 217.336C365.648 217.076 365.723 216.816 365.834 216.556C365.834 216.482 365.909 216.408 365.946 216.371C366.021 216.259 366.095 216.148 366.207 216.037L366.244 215.703V215.591C366.244 215.517 366.244 215.406 366.244 215.331V214.997C366.207 214.923 366.132 214.886 366.095 214.812C366.17 214.812 366.244 214.775 366.318 214.738C366.318 214.7 366.318 214.626 366.356 214.589C366.356 214.515 366.356 214.478 366.356 214.404C366.393 214.181 366.467 213.921 366.505 213.698H366.579Z" fill="#4F86D8"/>
<path fill-rule="evenodd" clip-rule="evenodd" d="M373.169 192.793L371.479 198.134C371.479 198.134 371.591 198.257 371.629 198.421C371.629 198.627 371.366 198.668 371.366 198.668C371.366 198.668 371.291 198.997 371.366 199.12C371.441 199.243 371.516 199.284 371.516 199.407C371.516 199.531 371.516 199.654 371.253 199.818C370.614 200.188 368.097 200.311 366.632 200.352C365.167 200.352 363.363 200.106 362.913 199.983C362.462 199.859 362.462 199.695 362.462 199.531C362.462 199.366 362.612 199.202 362.612 199.202V198.873C362.612 198.873 362.574 198.873 362.499 198.873C362.424 198.873 362.349 198.791 362.311 198.668C362.311 198.545 362.462 198.339 362.462 198.339L360.621 193.039C360.621 193.039 360.621 193.039 360.583 193.039C360.358 193.039 360.17 192.834 360.17 192.588C360.17 192.341 360.358 192.136 360.583 192.136C360.809 192.136 360.996 192.341 360.996 192.588C360.996 192.67 360.996 192.752 360.921 192.834C361.259 193.45 361.861 193.861 362.387 194.067C362.875 194.231 363.626 194.519 363.626 194.519C363.626 194.519 363.814 193.902 363.889 193.656C363.889 193.491 363.889 193.368 363.852 193.204C363.739 193.163 363.664 193.081 363.626 192.916C363.589 192.711 363.702 192.505 363.889 192.464C364.077 192.423 364.265 192.546 364.303 192.752C364.303 192.875 364.303 192.998 364.227 193.081C364.227 193.245 364.265 193.368 364.303 193.491C364.34 193.574 364.415 193.656 364.491 193.738C364.829 194.19 365.167 194.477 365.167 194.477C365.167 194.477 365.43 194.231 365.881 193.943C365.993 193.861 366.106 193.779 366.181 193.697C366.519 193.327 366.745 192.834 366.745 192.177C366.594 192.095 366.519 191.93 366.519 191.766C366.519 191.519 366.707 191.314 366.933 191.314C367.158 191.314 367.346 191.519 367.346 191.766C367.346 191.93 367.271 192.095 367.12 192.177C367.12 192.588 367.196 192.916 367.346 193.204C367.421 193.327 367.534 193.491 367.684 193.615C368.135 194.067 368.473 194.231 368.736 194.354C368.849 194.272 369.149 193.984 369.45 193.491C369.45 193.45 369.525 193.409 369.525 193.368C369.525 193.245 369.562 193.081 369.6 192.916C369.525 192.834 369.487 192.711 369.487 192.588C369.487 192.382 369.675 192.218 369.863 192.259C370.051 192.259 370.201 192.464 370.164 192.67C370.164 192.793 370.088 192.916 369.976 192.957C369.976 193.163 369.976 193.368 369.976 193.532C370.051 193.902 370.276 194.436 370.276 194.436C370.276 194.436 370.464 194.354 370.802 194.19C371.14 194.025 371.366 193.943 371.554 193.902C372.08 193.656 372.606 193.204 372.944 192.588C372.906 192.505 372.869 192.423 372.869 192.341C372.869 192.095 373.019 191.889 373.282 191.848C373.507 191.848 373.695 192.012 373.733 192.3C373.733 192.546 373.583 192.752 373.32 192.793C373.32 192.793 373.244 192.793 373.207 192.793H373.169ZM370.915 199.284C370.915 199.284 369.487 198.914 367.12 198.914C364.753 198.914 363.138 199.407 363.138 199.407C363.1 199.407 363.025 199.654 363.063 199.695C363.1 199.695 364.04 200.024 365.505 200.065C366.97 200.065 368.435 200.024 369.375 199.942C370.314 199.859 370.915 199.654 370.99 199.613C370.99 199.572 371.028 199.366 370.877 199.325L370.915 199.284Z" fill="#4F86D8"/>
<path fill-rule="evenodd" clip-rule="evenodd" d="M355.649 248.557C356.487 248.557 357.449 248.132 357.742 247.739C357.91 247.51 358.161 247.182 358.287 246.92C358.412 246.691 358.496 246.134 358.663 245.938V245.545L355.649 248.557Z" fill="#4F86D8"/>
<path fill-rule="evenodd" clip-rule="evenodd" d="M375.24 245.718C375.628 247.034 376.274 248.557 378.254 248.557V248.419L375.326 245.545L375.24 245.718Z" fill="#4F86D8"/>
<path fill-rule="evenodd" clip-rule="evenodd" d="M354.505 250.026C355.278 249.608 355.142 249.267 355.551 248.773L355.642 248.013C355.733 247.216 354.824 246.115 354.642 245.545L354.505 245.621V250.064V250.026Z" fill="#4F86D8"/>
<path fill-rule="evenodd" clip-rule="evenodd" d="M379.339 247.093C378.616 248.005 378.254 248.668 378.254 250.078L379.158 251.239L379.279 251.322L379.399 251.405L379.52 251.488L379.64 251.571L379.761 247.052H379.58L379.46 247.134L379.339 247.093Z" fill="#4F86D8"/>
<path fill-rule="evenodd" clip-rule="evenodd" d="M355.649 251.57C357.744 251.57 357.965 250.174 358.59 248.815L358.663 248.558L355.649 251.57Z" fill="#4F86D8"/>
<path fill-rule="evenodd" clip-rule="evenodd" d="M379.761 253.292L380.29 254.583L380.412 254.502L381.268 250.064C380.616 250.548 379.761 252.081 379.761 253.292Z" fill="#4F86D8"/>
<path fill-rule="evenodd" clip-rule="evenodd" d="M375.24 248.595L375.314 248.781C375.975 250.157 376.159 251.57 378.254 251.57L375.35 248.558H375.24V248.595Z" fill="#4F86D8"/>
<path fill-rule="evenodd" clip-rule="evenodd" d="M353.595 254.542L353.686 254.46C354.143 253.967 354.143 253.515 354.143 252.611C354.143 251.872 353.092 250.393 352.636 250.064L353.503 254.583L353.64 254.501L353.595 254.542Z" fill="#4F86D8"/>
<path fill-rule="evenodd" clip-rule="evenodd" d="M378.254 252.21L378.307 252.819C378.492 253.153 378.465 253.579 378.809 253.975C379.047 254.249 379.364 254.553 379.761 254.584L378.254 251.571V252.179V252.21Z" fill="#4F86D8"/>
<path fill-rule="evenodd" clip-rule="evenodd" d="M354.169 256.09C354.58 256.09 354.881 255.593 355.101 255.186C355.429 254.644 355.402 254.056 355.594 253.559L355.649 251.887V251.571L354.142 255.864V255.999L354.169 256.09Z" fill="#4F86D8"/>
<path fill-rule="evenodd" clip-rule="evenodd" d="M379.808 255.841L379.949 256.09L382.775 253.077C382.304 253.17 381.079 253.822 380.703 254.04C380.043 254.475 379.761 254.972 379.761 255.81L379.808 255.841Z" fill="#4F86D8"/>
<path fill-rule="evenodd" clip-rule="evenodd" d="M355.455 256.09L355.553 256.028L355.65 255.567V255.352C355.65 254.337 353.754 253.446 352.636 253.077L355.455 256.059V256.09Z" fill="#4F86D8"/>
<path fill-rule="evenodd" clip-rule="evenodd" d="M378.442 254.71L378.254 256.948C378.405 257.244 378.48 257.751 378.781 258.258C379.007 258.595 379.346 259.018 379.761 259.102L378.555 254.583L378.442 254.667V254.71Z" fill="#4F86D8"/>
<path fill-rule="evenodd" clip-rule="evenodd" d="M355.649 259.102C356.516 258.891 356.629 258.089 357.043 257.54L357.156 256.99L356.968 254.667L356.855 254.583L355.649 259.102Z" fill="#4F86D8"/>
<path fill-rule="evenodd" clip-rule="evenodd" d="M381.169 258.091L381.104 258.181H381.038L380.973 258.271H380.907L380.842 258.361C380.252 258.765 379.826 259.485 379.761 260.609H379.859L382.775 257.596L381.137 258.136L381.169 258.091Z" fill="#4F86D8"/>
<path fill-rule="evenodd" clip-rule="evenodd" d="M354.142 260.52C353.947 259.413 353.721 258.837 353.072 258.394L353.008 258.305H352.943L352.878 258.216H352.813L352.748 258.128L351.128 257.596L354.045 260.609L354.109 260.476L354.142 260.52Z" fill="#4F86D8"/>
<path fill-rule="evenodd" clip-rule="evenodd" d="M357.203 262.075C357.533 261.873 357.863 261.672 358.098 261.389C358.428 260.986 358.475 260.703 358.663 260.421C358.663 259.412 358.663 258.161 358.192 257.596L357.156 262.115L357.203 262.075Z" fill="#4F86D8"/>
<path fill-rule="evenodd" clip-rule="evenodd" d="M376.836 260.421C377.323 261.147 377.19 261.591 378.254 262.115L377.279 257.596C377.102 257.838 376.747 259.13 376.747 259.533V259.937C376.747 260.179 376.791 260.179 376.836 260.421Z" fill="#4F86D8"/>
<path fill-rule="evenodd" clip-rule="evenodd" d="M355.618 260.549C355.554 260.048 354.88 259.436 354.335 259.353L353.598 259.158L353.053 259.102L352.636 259.158C352.764 259.297 353.854 259.798 354.143 259.937C354.399 260.076 354.688 260.187 354.944 260.326C355.105 260.41 355.554 260.743 355.65 260.549H355.618Z" fill="#4F86D8"/>
<path fill-rule="evenodd" clip-rule="evenodd" d="M380.295 259.13L379.573 259.321C378.788 259.486 378.568 260.006 378.254 260.554L378.348 260.609L381.268 259.184L380.766 259.102L380.295 259.157V259.13Z" fill="#4F86D8"/>
<path fill-rule="evenodd" clip-rule="evenodd" d="M375.303 263.741C375.805 264.177 375.931 264.772 376.747 265.128L376.622 260.609C375.68 261.045 375.24 262.591 375.24 263.741H375.303Z" fill="#4F86D8"/>
<path fill-rule="evenodd" clip-rule="evenodd" d="M358.726 265.128C359.103 264.971 359.354 264.775 359.605 264.5C359.919 264.185 360.044 263.792 360.17 263.635C360.17 262.26 359.668 261.434 358.789 260.609L358.663 265.128H358.726Z" fill="#4F86D8"/>
<path fill-rule="evenodd" clip-rule="evenodd" d="M358.62 263.55C358.198 262.904 357.987 262.689 357.226 262.366L357.099 262.295L356.465 262.187C356.254 262.187 356.212 262.115 355.958 262.115H355.663L354.902 262.187L354.142 262.295L358.578 263.622L358.663 263.55H358.62Z" fill="#4F86D8"/>
<path fill-rule="evenodd" clip-rule="evenodd" d="M378.924 262.22L378.212 262.325L378.128 262.396C377.542 262.536 377.04 263.131 376.747 263.517L376.831 263.622L381.268 262.36L381.101 262.255L380.473 262.185C380.263 262.185 380.222 262.115 379.97 262.115H379.426C379.175 262.115 379.175 262.15 378.924 262.185V262.22Z" fill="#4F86D8"/>
<path fill-rule="evenodd" clip-rule="evenodd" d="M372.286 265.89L372.527 266.634L373.733 262.129C373.461 261.922 372.226 264.113 372.226 265.312V265.394C372.226 265.642 372.256 265.642 372.286 265.89Z" fill="#4F86D8"/>
<path fill-rule="evenodd" clip-rule="evenodd" d="M369.247 266.428V266.635L372.226 263.746L372.156 263.622C371.981 263.746 371.35 263.869 371.104 263.952C370.754 264.117 370.509 264.241 370.193 264.489C369.738 264.901 369.212 265.562 369.212 266.428H369.247Z" fill="#4F86D8"/>
<path fill-rule="evenodd" clip-rule="evenodd" d="M361.382 266.634L361.611 266.227L361.677 265.942C361.677 264.68 361.677 264.395 361.251 263.622C360.956 263.133 360.563 262.441 360.17 262.115L361.415 266.594L361.382 266.634Z" fill="#4F86D8"/>
<path fill-rule="evenodd" clip-rule="evenodd" d="M375.294 265.232C374.719 265.388 373.856 266.011 373.732 266.635L378.253 265.855L377.514 265.492L376.404 265.128H375.664L375.335 265.232H375.294Z" fill="#4F86D8"/>
<path fill-rule="evenodd" clip-rule="evenodd" d="M356.184 265.53L355.649 265.781C355.773 266.132 357.458 266.233 357.828 266.283C358.526 266.384 359.513 266.635 360.17 266.635C359.924 266.032 359.184 265.279 358.526 265.229L358.198 265.128H357.581L356.225 265.53H356.184Z" fill="#4F86D8"/>
<path fill-rule="evenodd" clip-rule="evenodd" d="M366.198 266.342C366.091 264.584 364.531 263.998 363.184 263.622C363.255 263.873 365.878 266.551 366.127 266.635L366.198 266.342Z" fill="#4F86D8"/>
<path fill-rule="evenodd" clip-rule="evenodd" d="M358.744 268.047L358.663 268.141H358.744L363.184 267.341C362.982 267.011 362.256 266.635 361.771 266.635H361.246C360.56 266.635 359.026 267.623 358.744 268.047Z" fill="#4F86D8"/>
<path fill-rule="evenodd" clip-rule="evenodd" d="M370.719 267.319L375.24 268.141C374.962 267.639 373.376 266.635 372.583 266.635H372.067C371.591 266.635 370.917 267.045 370.758 267.319H370.719Z" fill="#4F86D8"/>
<path fill-rule="evenodd" clip-rule="evenodd" d="M362.008 267.802L361.925 267.877L361.842 267.953L361.759 268.028L361.676 268.141L366.197 267.124C365.948 266.823 365.118 266.635 364.538 266.635C363.75 266.635 362.256 267.425 361.966 267.84L362.008 267.802Z" fill="#4F86D8"/>
<path fill-rule="evenodd" clip-rule="evenodd" d="M367.745 267.162L372.143 268.141H372.225L372.061 267.99L371.978 267.915L371.896 267.84C371.609 267.425 370.129 266.635 369.348 266.635C368.773 266.635 367.951 266.86 367.704 267.124L367.745 267.162Z" fill="#4F86D8"/>
<path fill-rule="evenodd" clip-rule="evenodd" d="M355.649 248.557H355.77L358.663 245.545C358.02 245.676 356.935 246.232 356.533 246.527C355.81 247.084 355.649 247.411 355.649 248.525V248.557Z" fill="#4F86D8"/>
<path fill-rule="evenodd" clip-rule="evenodd" d="M375.319 245.836V245.901L375.397 245.739L378.019 248.428V248.557H378.254C378.254 247.359 378.098 247.164 377.354 246.549C376.767 246.063 376.023 245.836 375.24 245.545L375.319 245.869V245.836Z" fill="#4F86D8"/>
<path fill-rule="evenodd" clip-rule="evenodd" d="M380.054 245.769H380.179L380.096 249.84L380.305 250.064L381.1 249.018L381.184 248.757L381.268 248.197V248.085C381.268 247.002 380.514 246.217 380.305 245.545H380.179L380.096 245.806L380.054 245.769Z" fill="#4F86D8"/>
<path fill-rule="evenodd" clip-rule="evenodd" d="M354.142 248.712C354.142 248.712 354.338 249.137 354.535 249.33C354.666 249.485 354.928 249.678 355.124 249.832L355.255 249.91L355.387 249.987L355.518 250.064H355.649V245.545C355.124 246.008 354.142 247.36 354.142 248.133V248.326C354.142 248.558 354.207 248.558 354.273 248.789L354.142 248.712Z" fill="#4F86D8"/>
<path fill-rule="evenodd" clip-rule="evenodd" d="M357.635 248.85L357.564 248.922H357.493L357.422 248.993C356.465 249.208 355.649 250.282 355.649 251.57H355.756L358.663 248.635C358.557 248.385 357.848 248.814 357.6 248.886L357.635 248.85Z" fill="#4F86D8"/>
<path fill-rule="evenodd" clip-rule="evenodd" d="M352.674 253.025C352.984 253.492 353.254 254.427 353.988 254.583L354.065 254.388L353.95 254.466L353.215 250.181L353.022 250.064C352.984 250.687 352.636 251.311 352.636 252.129V252.324L352.713 253.025H352.674Z" fill="#4F86D8"/>
<path fill-rule="evenodd" clip-rule="evenodd" d="M375.31 248.768H375.413L378.15 251.57H378.254C378.254 250.379 377.527 249.328 376.626 249.118L376.557 249.048H376.487L376.418 248.978H376.349L376.28 248.908L375.24 248.558V248.733L375.31 248.768Z" fill="#4F86D8"/>
<path fill-rule="evenodd" clip-rule="evenodd" d="M379.761 254.468L379.883 254.583C380.942 253.932 380.616 253.817 381.186 252.975L381.268 252.4V252.132C381.268 251.29 380.901 250.715 380.86 250.064L380.738 250.141L379.883 254.353L379.761 254.43V254.468Z" fill="#4F86D8"/>
<path fill-rule="evenodd" clip-rule="evenodd" d="M378.254 251.788L380.938 256.09H381.08L381.174 255.873C381.174 255.655 381.268 255.612 381.268 255.351V255.047C381.268 253.787 379.996 252.527 379.054 252.049L378.301 251.571V251.788H378.254Z" fill="#4F86D8"/>
<path fill-rule="evenodd" clip-rule="evenodd" d="M356.261 251.973C355.413 252.51 354.236 253.45 354.142 254.658L354.236 256.09L354.565 256V255.866L357.061 251.615V251.929L357.156 251.571L356.308 252.018L356.261 251.973Z" fill="#4F86D8"/>
<path fill-rule="evenodd" clip-rule="evenodd" d="M379.761 257.453C380 257.984 381.483 256.879 381.674 256.702C382.392 255.906 382.248 255.287 382.631 254.713L382.775 253.077L382.631 253.165L379.761 257.453Z" fill="#4F86D8"/>
<path fill-rule="evenodd" clip-rule="evenodd" d="M351.269 254.685C351.599 255.163 351.552 255.945 352.211 256.597C352.965 257.335 353.2 257.205 354.142 257.596V257.379L351.41 253.164L351.128 253.077L351.316 254.685H351.269Z" fill="#4F86D8"/>
<path fill-rule="evenodd" clip-rule="evenodd" d="M356.611 255.178L356.547 255.257C355.938 256.367 355.649 256.367 355.649 258.309L356.034 259.102L357.06 254.861L357.156 254.94V254.583L356.611 255.217V255.178Z" fill="#4F86D8"/>
<path fill-rule="evenodd" clip-rule="evenodd" d="M351.283 258.044C351.812 259.347 352.371 260.609 353.893 260.609C354.049 260.609 354.049 260.609 354.142 260.528V260.243L354.08 260.365L351.283 257.596H351.128V257.678L351.283 258.003V258.044Z" fill="#4F86D8"/>
<path fill-rule="evenodd" clip-rule="evenodd" d="M378.315 254.976L378.408 254.897L379.392 259.102L379.761 258.316C379.761 256.509 379.484 256.43 378.931 255.369L378.869 255.29L378.807 255.212L378.746 255.133L378.684 255.055L378.623 254.976L378.561 254.897L378.254 254.583V254.897L378.315 254.976Z" fill="#4F86D8"/>
<path fill-rule="evenodd" clip-rule="evenodd" d="M379.761 260.403C379.761 260.403 380.04 260.609 380.227 260.609C381.47 260.609 382.184 259.082 382.619 258.009L382.775 257.679V257.596H382.619L379.854 260.403H379.761Z" fill="#4F86D8"/>
<path fill-rule="evenodd" clip-rule="evenodd" d="M355.649 260.976L356.165 262.115L356.284 262.039L357.156 257.786V257.596C356.879 257.672 356.244 258.66 356.086 258.963C355.768 259.533 355.649 260.065 355.649 260.938V260.976Z" fill="#4F86D8"/>
<path fill-rule="evenodd" clip-rule="evenodd" d="M352.806 259.389C353.698 260.537 354.336 262.115 356.205 262.115H356.29C356.63 262.115 356.673 261.972 357.013 261.972C357.225 261.876 357.183 261.828 357.013 261.589C356.885 261.924 356.29 261.35 356.078 261.206C355.78 260.967 355.355 260.776 355.016 260.537C354.676 260.298 353.188 259.437 353.018 259.198L353.571 259.102H352.636L352.763 259.437L352.806 259.389Z" fill="#4F86D8"/>
<path fill-rule="evenodd" clip-rule="evenodd" d="M376.786 257.752L377.636 262.115H377.752L378.254 260.83C378.254 260.051 378.1 259.427 377.79 258.96C377.597 258.648 377.056 257.713 376.747 257.596V257.791L376.786 257.752Z" fill="#4F86D8"/>
<path fill-rule="evenodd" clip-rule="evenodd" d="M378.298 261.622V261.955L379.307 262.098C379.966 262.24 381.019 261.479 381.326 261.147C381.941 260.529 382.16 260.053 382.643 259.435L382.775 259.102H381.765L382.468 259.245L378.386 261.717L378.254 261.622H378.298Z" fill="#4F86D8"/>
<path fill-rule="evenodd" clip-rule="evenodd" d="M357.156 262.304C357.759 262.831 357.458 263.17 358.543 263.622L358.663 259.291L358.543 259.103C357.638 259.517 357.156 261.212 357.156 262.304Z" fill="#4F86D8"/>
<path fill-rule="evenodd" clip-rule="evenodd" d="M354.34 262.115H354.142V262.176L354.221 262.236L354.3 262.296L354.38 262.356C355.331 262.838 355.688 263.622 357.512 263.622C358.028 263.622 358.187 263.471 358.583 263.411L358.663 263.351V263.2L358.583 263.26L354.419 262.145L354.34 262.115Z" fill="#4F86D8"/>
<path fill-rule="evenodd" clip-rule="evenodd" d="M376.747 263.17V263.381C377.03 263.531 377.433 263.622 377.877 263.622H378.16C379.29 263.622 380.784 262.688 381.268 262.175L380.945 262.115L381.107 262.206L376.828 263.29L376.747 263.2V263.17Z" fill="#4F86D8"/>
<path fill-rule="evenodd" clip-rule="evenodd" d="M375.24 259.328L375.361 263.622C376.446 263.17 376.205 262.831 376.747 262.303C376.747 261.211 376.205 259.517 375.361 259.102L375.24 259.366V259.328Z" fill="#4F86D8"/>
<path fill-rule="evenodd" clip-rule="evenodd" d="M360.189 264.515C360.431 264.915 360.293 265.315 360.708 265.835C360.95 266.155 361.296 266.554 361.677 266.634V266.514L360.362 262.115C360.085 262.555 360.189 263.795 360.189 264.515Z" fill="#4F86D8"/>
<path fill-rule="evenodd" clip-rule="evenodd" d="M372.226 266.512V266.634C372.681 266.512 372.927 266.146 373.207 265.82C373.592 265.332 373.522 264.884 373.733 264.477L373.627 262.115L372.226 266.553V266.512Z" fill="#4F86D8"/>
<path fill-rule="evenodd" clip-rule="evenodd" d="M373.846 265.774L373.732 265.86L373.808 265.989C374.15 266.247 374.606 266.635 375.138 266.635H375.632C376.468 266.635 377.57 265.731 378.101 265.343L378.253 265.214L378.063 265.128L373.884 265.774H373.846Z" fill="#4F86D8"/>
<path fill-rule="evenodd" clip-rule="evenodd" d="M355.765 265.343C356.384 265.774 357.388 266.635 358.354 266.635H358.625C359.398 266.635 359.707 266.333 360.17 265.989V265.86C359.552 265.86 358.663 265.645 357.968 265.559C357.62 265.559 355.997 265.429 355.92 265.128H355.649L355.765 265.343Z" fill="#4F86D8"/>
<path fill-rule="evenodd" clip-rule="evenodd" d="M361.743 263.934C362.011 264.287 362.245 265.186 362.647 265.695C363.049 266.204 363.451 266.634 364.254 266.634H364.69V266.165L364.623 266.439C364.388 266.36 361.877 263.856 361.843 263.621H361.676L361.743 263.934Z" fill="#4F86D8"/>
<path fill-rule="evenodd" clip-rule="evenodd" d="M369.212 266.517V266.635H369.775C370.504 266.635 370.901 266.126 371.299 265.656C371.729 265.148 371.895 264.326 372.16 263.935L372.226 263.622H371.994L372.06 263.739L369.245 266.478L369.212 266.517Z" fill="#4F86D8"/>
<path fill-rule="evenodd" clip-rule="evenodd" d="M358.853 267.341L358.663 267.576L358.929 267.67C359.233 267.858 360.107 268.141 360.563 268.141H361.322C362.082 268.141 362.652 267.482 363.032 266.964L363.184 266.729L363.032 266.635L358.853 267.482H358.777L358.853 267.341Z" fill="#4F86D8"/>
<path fill-rule="evenodd" clip-rule="evenodd" d="M370.719 266.771C371.337 267.274 371.53 268.141 372.921 268.141C373.501 268.141 374.66 267.821 375.046 267.593L375.24 267.456L370.835 266.635L370.719 266.771Z" fill="#4F86D8"/>
<path fill-rule="evenodd" clip-rule="evenodd" d="M367.821 268.141H367.704L367.821 268.476C368.289 268.852 368.717 269.648 369.692 269.648H370.744C371.134 269.648 371.718 269.438 372.03 269.355H372.225L371.913 269.02L372.069 269.187H371.991L367.821 268.141Z" fill="#4F86D8"/>
<path fill-rule="evenodd" clip-rule="evenodd" d="M361.982 269.062L361.676 269.313H361.906L363.438 269.648H363.936C365.316 269.648 365.43 268.936 366.043 268.476L366.197 268.141H366.043L361.867 269.229L361.944 269.104L361.982 269.062Z" fill="#4F86D8"/>
<path fill-rule="evenodd" clip-rule="evenodd" d="M366.951 268.141C367.353 268.141 367.704 267.789 367.704 267.388C367.704 266.986 367.353 266.635 366.951 266.635C366.549 266.635 366.197 266.986 366.197 267.388C366.197 267.789 366.549 268.141 366.951 268.141Z" fill="#4F86D8"/>
<path fill-rule="evenodd" clip-rule="evenodd" d="M366.951 235.202L332.059 250.511V254.945H322.757V250.701C310.569 253.164 294.699 257.408 281.259 264.077C272.298 268.51 264.401 274.043 259.541 280.826H268.274V285.373H316.834V299.052C284.068 299.052 247.809 300.909 215.499 298.673V235.202H235.394V238.196L335.894 199.583V199.242H331.907V193.141L366.951 177.756L402.033 193.141V199.242H398.008V199.583L498.508 238.196V235.202H518.403V298.673C486.055 300.909 449.834 299.052 417.068 299.052V285.373H465.629V280.826H474.361C469.501 274.081 461.642 268.548 452.644 264.077C439.241 257.446 423.333 253.164 411.145 250.701V254.945H401.843V250.511L366.951 235.202ZM329.933 248.162L366.951 231.906C379.594 237.438 392.237 243.008 404.881 248.541V251.951H408.146V247.063L409.968 247.404C422.573 249.867 439.621 254.262 454.01 261.386C464.452 266.578 473.488 273.171 478.499 281.583L479.866 283.857H468.704V288.404H420.143V296.059H512.822L515.404 295.869V238.272H501.584V242.629L395.009 201.705V196.286H399.034V195.187L366.989 181.129L334.945 195.187V196.286H338.931V201.705L232.357 242.629V238.272H218.536V295.869L221.118 296.059H313.797V288.404H265.236V283.857H254.074L255.441 281.583C260.415 273.209 269.451 266.578 279.93 261.386C294.319 254.262 311.405 249.829 323.972 247.404L325.794 247.063V251.951H329.06V248.541L329.971 248.162H329.933Z" fill="#4F86D8"/>
<path fill-rule="evenodd" clip-rule="evenodd" d="M78.3679 250.064H102.475V271.154H76.8564V250.064H78.3679ZM99.4523 253.154H79.8793V268.102H99.4523V253.154Z" fill="#4F86D8"/>
<path fill-rule="evenodd" clip-rule="evenodd" d="M167.28 250.064H191.387V271.154H165.769V250.064H167.28ZM188.364 253.154H168.791V268.102H188.364V253.154Z" fill="#4F86D8"/>
<path fill-rule="evenodd" clip-rule="evenodd" d="M110.072 364.493H159.678V326.102C159.678 319.307 156.871 313.088 152.41 308.596C147.911 304.105 141.72 301.302 134.875 301.302C128.03 301.302 121.839 304.105 117.34 308.596C112.841 313.088 110.072 319.269 110.072 326.102V364.493ZM161.216 367.564H106.996V326.102C106.996 318.463 110.149 311.476 115.187 306.446C120.224 301.417 127.223 298.269 134.875 298.269C142.528 298.269 149.526 301.417 154.564 306.446C159.601 311.476 162.755 318.463 162.755 326.102V367.564H161.216Z" fill="#4F86D8"/>
<path fill-rule="evenodd" clip-rule="evenodd" d="M122.029 363.049H146.252V328.564C146.252 325.179 144.875 322.133 142.68 319.914C140.484 317.696 137.47 316.304 134.122 316.304C130.773 316.304 127.759 317.696 125.563 319.914C123.368 322.133 121.991 325.179 121.991 328.564V363.049H122.029ZM147.74 366.058H119.052V328.564C119.052 324.352 120.763 320.554 123.48 317.808C126.196 315.063 129.991 313.333 134.122 313.333C138.252 313.333 142.047 315.063 144.764 317.808C147.48 320.554 149.191 324.39 149.191 328.564V366.058H147.703H147.74Z" fill="#4F86D8"/>
<path d="M161.247 325.385H108.503V328.397H161.247V325.385Z" fill="#4F86D8"/>
<path d="M135.628 299.776H132.614V314.84H135.628V299.776Z" fill="#4F86D8"/>
<path fill-rule="evenodd" clip-rule="evenodd" d="M116.71 305.801L126.587 315.916L124.409 317.853L114.531 307.774L116.71 305.801Z" fill="#4F86D8"/>
<path d="M151.965 305.357L141.657 316.346L143.858 318.404L154.166 307.415L151.965 305.357Z" fill="#4F86D8"/>
<path fill-rule="evenodd" clip-rule="evenodd" d="M162.62 323.84C162.62 316.008 159.394 308.867 154.247 303.684C149.101 298.501 141.919 295.315 134.084 295.315C126.249 295.315 119.105 298.54 113.921 303.723C108.736 308.906 105.548 316.046 105.548 323.878H102.476C102.476 315.202 106.047 307.293 111.77 301.534C117.492 295.776 125.404 292.244 134.122 292.244C142.84 292.244 150.714 295.814 156.475 301.534C162.197 307.255 165.769 315.163 165.769 323.878H162.697L162.62 323.84Z" fill="#4F86D8"/>
<path fill-rule="evenodd" clip-rule="evenodd" d="M103.796 322.372H108.504V331.41H102.476V322.372H103.83H103.796ZM105.794 325.311H105.151V328.471H105.794V325.311Z" fill="#4F86D8"/>
<path fill-rule="evenodd" clip-rule="evenodd" d="M159.588 322.371H164.261V331.41H158.233V322.371H159.588ZM161.586 325.311H160.943V328.47H161.586V325.311Z" fill="#4F86D8"/>
<path fill-rule="evenodd" clip-rule="evenodd" d="M128.094 289.321H127.833C123.317 289.438 119.136 290.834 115.553 293.201C111.858 295.644 108.797 299.174 106.819 303.442L106.409 304.295H103.982V286.218H128.094V289.321ZM116.076 289.321H106.968V297.312C108.909 294.636 111.298 292.386 113.985 290.601C114.657 290.136 115.366 289.709 116.113 289.321H116.076Z" fill="#4F86D8"/>
<path fill-rule="evenodd" clip-rule="evenodd" d="M161.314 289.321H152.206C152.915 289.709 153.625 290.136 154.296 290.563C156.984 292.347 159.335 294.597 161.276 297.274V289.283L161.314 289.321ZM140.449 289.321H140.15V286.218H164.262V304.295H161.836L161.425 303.442C159.41 299.174 156.387 295.644 152.692 293.162C149.146 290.795 144.928 289.438 140.412 289.321H140.449Z" fill="#4F86D8"/>
<path fill-rule="evenodd" clip-rule="evenodd" d="M108.534 382.628H162.755V432.34H106.996V382.628H108.534ZM159.678 385.683H110.072V429.323H159.678V385.683Z" fill="#4F86D8"/>
<path fill-rule="evenodd" clip-rule="evenodd" d="M200.437 382.628H250.159V432.34H198.922V382.628H200.437ZM247.13 385.683H201.951V429.323H247.13V385.683Z" fill="#4F86D8"/>
<path fill-rule="evenodd" clip-rule="evenodd" d="M266.745 382.628H316.468V432.34H265.23V382.628H266.745ZM313.438 385.683H268.26V429.323H313.438V385.683Z" fill="#4F86D8"/>
<path fill-rule="evenodd" clip-rule="evenodd" d="M58.8393 268.141H194.38C195.221 268.141 195.908 268.809 195.908 269.626C195.908 269.849 195.87 270.072 195.756 270.257L192.852 277.72C192.623 278.314 192.05 278.686 191.439 278.686H61.5135C60.673 278.686 59.9854 278.017 59.9854 277.201V274.787L57.4641 270.369C57.0438 269.663 57.3112 268.735 58.0753 268.364C58.3045 268.252 58.5719 268.178 58.8011 268.178L58.8393 268.141ZM192.203 271.111H61.3989L62.8123 273.599C62.9652 273.822 63.0416 274.119 63.0416 274.379V275.715H190.407L192.203 271.111Z" fill="#4F86D8"/>
<path fill-rule="evenodd" clip-rule="evenodd" d="M78.3734 375.096H191.387V385.641H76.8564V375.096H78.3734ZM188.353 378.036H79.8904V382.702H188.353V378.036Z" fill="#4F86D8"/>
<path fill-rule="evenodd" clip-rule="evenodd" d="M200.463 319.359H251.666V369.07H198.922V319.359H200.463ZM248.623 322.39H202.004V366.039H248.623V322.39Z" fill="#4F86D8"/>
<path fill-rule="evenodd" clip-rule="evenodd" d="M266.739 319.359H316.468V369.071H265.23V319.359H266.739ZM313.452 322.39H268.247V366.039H313.452V322.39Z" fill="#4F86D8"/>
<path d="M167.276 254.583H100.969V257.596H167.276V254.583Z" fill="#4F86D8"/>
<path fill-rule="evenodd" clip-rule="evenodd" d="M76.8905 259.157C74.6558 259.308 72.3466 259.763 70.0747 260.52C67.691 261.353 65.3819 262.527 63.2961 264.042V268.435H76.8905V259.119V259.157ZM69.1063 257.68C72.1977 256.62 75.3635 256.09 78.3803 256.09H79.8701V271.502H60.3165V262.603L60.9125 262.149C63.4451 260.179 66.2385 258.703 69.1436 257.68H69.1063ZM63.2589 279.189V438.349H76.8533V279.189H63.2589ZM60.2793 439.863V276.16H79.8329V441.378H60.2793V439.863Z" fill="#4F86D8"/>
<path fill-rule="evenodd" clip-rule="evenodd" d="M76.8848 378.128C74.6459 378.128 72.4069 378.204 70.1307 378.317C67.8171 378.431 65.5408 378.621 63.2272 378.886V383.661C65.4662 383.396 67.7051 383.206 69.9814 383.092C72.3323 382.979 74.6086 382.941 76.8475 382.941V378.128H76.8848ZM69.9814 375.286C72.7428 375.134 75.5415 375.096 78.3775 375.096H79.8701V385.973H78.3775C75.5788 385.973 72.7801 385.973 70.1307 386.124C67.4439 386.238 64.7199 386.465 61.9958 386.882L60.2793 387.147V376.233L61.5853 376.082C64.4214 375.703 67.22 375.475 69.9814 375.324V375.286Z" fill="#4F86D8"/>
<path fill-rule="evenodd" clip-rule="evenodd" d="M337.542 378.036H191.411V382.702H337.542V378.036ZM189.893 375.096H340.58V385.641H188.374V375.096H189.893Z" fill="#4F86D8"/>
<path fill-rule="evenodd" clip-rule="evenodd" d="M313.435 299.805H191.407V438.336H313.473V299.805H313.435ZM203.727 296.762H316.468V441.378H188.374V296.762H203.765H203.727Z" fill="#4F86D8"/>
<path d="M248.653 286.218H189.881V289.231H248.653V286.218Z" fill="#4F86D8"/>
<path fill-rule="evenodd" clip-rule="evenodd" d="M315.021 283.205H339.563L342.2 285.058H391.742L394.38 283.205H420.45V439.872H313.454V283.205H314.983H315.021ZM338.607 286.23H316.55V436.847H417.43V286.23H395.374L392.736 288.082H341.283L338.645 286.23H338.607Z" fill="#4F86D8"/>
<path fill-rule="evenodd" clip-rule="evenodd" d="M322.557 283.205H342.086V439.872H320.988V283.205H322.557ZM338.949 286.23H324.126V436.847H338.949V286.23Z" fill="#4F86D8"/>
<path fill-rule="evenodd" clip-rule="evenodd" d="M324.126 269.693H338.949V256.007H324.126V269.693ZM340.517 272.66H320.988V253.077H342.086V272.66H340.517Z" fill="#4F86D8"/>
<path fill-rule="evenodd" clip-rule="evenodd" d="M324.126 262.077H338.949V256.09H324.126V262.077ZM340.517 265.128H320.988V253.077H342.086V265.128H340.517Z" fill="#4F86D8"/>
<path fill-rule="evenodd" clip-rule="evenodd" d="M308.344 269.647H351.067V272.529H382.797V269.647H427.984L419.416 287.323H395.079L392.463 289.231H341.438L338.823 287.323H314.485L305.918 269.647H308.344ZM348.034 272.762H310.77L316.305 284.247H339.732L342.348 286.155H391.478L394.093 284.247H417.521L423.094 272.762H385.829V275.643H348.072V272.762H348.034Z" fill="#4F86D8"/>
<path fill-rule="evenodd" clip-rule="evenodd" d="M78.3734 382.628H191.387V441.378H76.8564V382.628H78.3734ZM188.353 385.678H79.8904V438.328H188.353V385.678Z" fill="#4F86D8"/>
<path d="M191.388 277.18H188.374V298.269H191.388V277.18Z" fill="#4F86D8"/>
<path fill-rule="evenodd" clip-rule="evenodd" d="M250.221 281.699H269.75V299.776H248.652V281.699H250.221ZM266.613 284.705H251.79V296.807H266.613V284.705Z" fill="#4F86D8"/>
<path fill-rule="evenodd" clip-rule="evenodd" d="M189.89 296.762H316.468V305.801H188.374V296.762H189.89ZM313.435 299.714H191.407V302.85H313.473V299.714H313.435Z" fill="#4F86D8"/>
<path fill-rule="evenodd" clip-rule="evenodd" d="M342.162 334.423V325.009C342.162 318.064 344.971 311.736 349.451 307.184C353.968 302.592 360.156 299.776 366.989 299.776C373.822 299.776 380.048 302.631 384.528 307.184C389.045 311.775 391.816 318.064 391.816 325.009V334.423H388.78V325.009C388.78 318.913 386.312 313.357 382.364 309.344C378.416 305.332 372.949 302.824 366.951 302.824C360.953 302.824 355.487 305.332 351.539 309.344C347.59 313.357 345.123 318.913 345.123 325.009V334.423H342.086H342.162Z" fill="#4F86D8"/>
<path fill-rule="evenodd" clip-rule="evenodd" d="M349.69 364.541H384.175V324.251C384.175 319.602 382.249 315.369 379.089 312.308C375.968 309.246 371.653 307.319 366.913 307.319C362.174 307.319 357.858 309.208 354.737 312.308C351.616 315.369 349.651 319.602 349.651 324.251V364.541H349.69ZM385.716 367.564H346.607V324.251C346.607 318.77 348.881 313.782 352.58 310.153C356.24 306.525 361.326 304.295 366.952 304.295C372.577 304.295 377.625 306.525 381.324 310.153C385.023 313.782 387.296 318.733 387.296 324.251V367.564H385.755H385.716Z" fill="#4F86D8"/>
<path fill-rule="evenodd" clip-rule="evenodd" d="M358.626 364.556H375.24V326.122C375.24 323.828 374.298 321.759 372.791 320.255C371.284 318.751 369.212 317.811 366.914 317.811C364.616 317.811 362.544 318.751 361.037 320.255C359.53 321.759 358.588 323.828 358.588 326.122V364.556H358.626ZM376.747 367.564H355.649V326.122C355.649 323.038 356.93 320.218 358.965 318.149C361.037 316.118 363.862 314.84 366.952 314.84C370.041 314.84 372.904 316.118 374.939 318.149C376.973 320.18 378.254 323.038 378.254 326.122V367.564H376.747Z" fill="#4F86D8"/>
<path d="M385.788 328.397H348.113V331.41H385.788V328.397Z" fill="#4F86D8"/>
<path d="M369.211 305.801H366.197V316.346H369.211V305.801Z" fill="#4F86D8"/>
<path fill-rule="evenodd" clip-rule="evenodd" d="M382.774 316.202L373.507 320.865L372.226 317.996L381.494 313.333L382.774 316.202Z" fill="#4F86D8"/>
<path fill-rule="evenodd" clip-rule="evenodd" d="M352.432 313.333L361.677 317.95L360.373 320.865L351.128 316.249L352.432 313.333Z" fill="#4F86D8"/>
<path fill-rule="evenodd" clip-rule="evenodd" d="M345.883 292.244C348.249 294.995 351.417 297.281 355.081 298.831C358.631 300.342 362.676 301.195 366.951 301.195C371.226 301.195 375.271 300.342 378.821 298.831C382.485 297.242 385.653 294.995 388.019 292.244L390.309 294.259C387.638 297.359 384.126 299.916 380.004 301.66C376.073 303.326 371.646 304.295 366.951 304.295C362.256 304.295 357.829 303.326 353.898 301.66C349.814 299.916 346.264 297.359 343.593 294.259L345.883 292.244Z" fill="#4F86D8"/>
<path fill-rule="evenodd" clip-rule="evenodd" d="M654.024 253.154H634.451V268.102H654.024V253.154ZM632.939 250.064H657.046V271.154H631.428V250.064H632.939Z" fill="#4F86D8"/>
<path fill-rule="evenodd" clip-rule="evenodd" d="M565.112 253.154H545.538V268.102H565.112V253.154ZM544.027 250.064H568.134V271.154H542.516V250.064H544.027Z" fill="#4F86D8"/>
<path fill-rule="evenodd" clip-rule="evenodd" d="M626.876 367.564H572.655V326.102C572.655 318.463 575.809 311.476 580.846 306.446C585.884 301.417 592.882 298.269 600.535 298.269C608.187 298.269 615.186 301.417 620.223 306.446C625.261 311.476 628.414 318.463 628.414 326.102V367.564H626.876ZM575.732 364.493H625.337V326.102C625.337 319.307 622.53 313.088 618.07 308.596C613.609 304.105 607.379 301.302 600.573 301.302C593.767 301.302 587.537 304.105 583.038 308.596C578.539 313.088 575.77 319.269 575.77 326.102V364.493H575.732Z" fill="#4F86D8"/>
<path fill-rule="evenodd" clip-rule="evenodd" d="M613.399 366.057H584.711V328.564C584.711 324.352 586.423 320.553 589.139 317.808C591.855 315.063 595.651 313.333 599.781 313.333C603.911 313.333 607.706 315.063 610.423 317.808C613.139 320.553 614.851 324.389 614.851 328.564V366.057H613.362H613.399ZM587.688 363.049H611.911V328.564C611.911 325.179 610.534 322.133 608.339 319.914C606.144 317.695 603.13 316.304 599.781 316.304C596.432 316.304 593.418 317.695 591.223 319.914C589.027 322.133 587.651 325.179 587.651 328.564V363.049H587.688Z" fill="#4F86D8"/>
<path d="M626.906 325.385H574.161V328.397H626.906V325.385Z" fill="#4F86D8"/>
<path d="M601.287 299.776H598.273V314.84H601.287V299.776Z" fill="#4F86D8"/>
<path d="M617.623 305.357L607.315 316.346L609.517 318.404L619.824 307.415L617.623 305.357Z" fill="#4F86D8"/>
<path fill-rule="evenodd" clip-rule="evenodd" d="M583.876 305.801L593.753 315.916L591.575 317.853L581.697 307.774L583.876 305.801Z" fill="#4F86D8"/>
<path fill-rule="evenodd" clip-rule="evenodd" d="M569.641 323.84C569.641 315.174 573.212 307.275 578.935 301.523C584.657 295.81 592.569 292.244 601.287 292.244C610.006 292.244 617.879 295.81 623.64 301.523C629.362 307.237 632.934 315.136 632.934 323.84H629.862C629.862 316.018 626.635 308.885 621.489 303.709C616.343 298.532 609.161 295.35 601.326 295.35C593.491 295.35 586.347 298.571 581.162 303.747C575.978 308.924 572.79 316.056 572.79 323.878H569.717L569.641 323.84Z" fill="#4F86D8"/>
<path fill-rule="evenodd" clip-rule="evenodd" d="M628.717 325.311H628.074V328.47H628.717V325.311ZM626.719 322.371H631.426V331.41H625.398V322.371H626.753H626.719Z" fill="#4F86D8"/>
<path fill-rule="evenodd" clip-rule="evenodd" d="M572.993 325.311H572.35V328.471H572.993V325.311ZM570.995 322.372H575.669V331.41H569.641V322.372H570.995Z" fill="#4F86D8"/>
<path fill-rule="evenodd" clip-rule="evenodd" d="M605.846 286.218H629.92V304.295H627.498L627.088 303.442C625.076 299.174 622.057 295.644 618.368 293.201C614.827 290.834 610.616 289.438 606.107 289.321H605.809V286.218H605.846ZM626.939 289.321H617.846C618.554 289.709 619.262 290.136 619.97 290.601C622.653 292.386 625.001 294.636 626.976 297.312V289.321H626.939Z" fill="#4F86D8"/>
<path fill-rule="evenodd" clip-rule="evenodd" d="M571.134 286.218H593.752V289.236H593.491C588.938 289.349 584.757 290.707 581.211 292.97C577.516 295.347 574.493 298.78 572.477 302.967L569.641 308.814V286.218H571.134ZM581.734 289.236H572.627V297.007C574.568 294.404 576.919 292.216 579.606 290.48C580.278 290.028 580.987 289.651 581.697 289.273L581.734 289.236Z" fill="#4F86D8"/>
<path fill-rule="evenodd" clip-rule="evenodd" d="M625.337 385.683H575.732V429.323H625.337V385.683ZM574.193 382.628H628.414V432.34H572.655V382.628H574.193Z" fill="#4F86D8"/>
<path fill-rule="evenodd" clip-rule="evenodd" d="M531.95 385.683H486.772V429.323H531.95V385.683ZM485.257 382.628H534.98V432.34H483.742V382.628H485.257Z" fill="#4F86D8"/>
<path fill-rule="evenodd" clip-rule="evenodd" d="M465.644 385.683H420.465V429.323H465.644V385.683ZM418.95 382.628H468.673V432.34H417.436V382.628H418.95Z" fill="#4F86D8"/>
<path fill-rule="evenodd" clip-rule="evenodd" d="M674.035 271.149H543.246L545.042 275.753H672.392V274.416C672.392 274.119 672.469 273.859 672.622 273.636L674.035 271.149ZM541.03 268.178H676.634C676.863 268.178 677.13 268.252 677.36 268.364C678.086 268.772 678.353 269.663 677.971 270.369L675.449 274.787V277.201C675.449 278.018 674.761 278.686 673.921 278.686H543.972C543.361 278.686 542.788 278.315 542.559 277.721L539.655 270.258C539.578 270.072 539.502 269.849 539.502 269.626C539.502 268.809 540.19 268.141 541.03 268.141V268.178Z" fill="#4F86D8"/>
<path fill-rule="evenodd" clip-rule="evenodd" d="M654.013 378.036H545.55V382.702H654.013V378.036ZM544.033 375.096H657.047V385.641H542.516V375.096H544.033Z" fill="#4F86D8"/>
<path fill-rule="evenodd" clip-rule="evenodd" d="M533.443 322.39H486.824V366.039H533.443V322.39ZM485.283 319.359H536.487V369.071H483.742V319.359H485.283Z" fill="#4F86D8"/>
<path fill-rule="evenodd" clip-rule="evenodd" d="M465.657 322.39H420.452V366.039H465.657V322.39ZM418.944 319.359H468.673V369.07H417.436V319.359H418.944Z" fill="#4F86D8"/>
<path d="M632.934 254.583H566.627V257.596H632.934V254.583Z" fill="#4F86D8"/>
<path fill-rule="evenodd" clip-rule="evenodd" d="M655.522 256.09C658.539 256.09 661.705 256.62 664.796 257.68C667.701 258.665 670.494 260.142 673.027 262.149L673.623 262.603V271.502H654.07V256.09H655.559H655.522ZM663.828 260.52C661.556 259.725 659.247 259.271 657.012 259.157V268.472H670.606V264.08C668.521 262.527 666.211 261.353 663.828 260.558V260.52ZM673.586 277.674V441.378H654.032V276.16H673.586V277.674ZM670.606 438.349V279.189H657.012V438.349H670.606Z" fill="#4F86D8"/>
<path fill-rule="evenodd" clip-rule="evenodd" d="M655.525 375.096C658.324 375.096 661.122 375.096 663.921 375.286C666.72 375.438 669.518 375.666 672.317 376.047L673.623 376.199V387.147L671.906 386.881C669.182 386.463 666.458 386.235 663.772 386.121C661.122 386.007 658.324 385.969 655.525 385.969H654.032V375.096H655.525ZM663.772 378.29C661.495 378.176 659.256 378.099 657.018 378.099V382.928C659.256 382.928 661.533 382.966 663.884 383.08C666.123 383.194 668.399 383.346 670.638 383.65V378.86C668.361 378.594 666.048 378.404 663.734 378.29H663.772Z" fill="#4F86D8"/>
<path fill-rule="evenodd" clip-rule="evenodd" d="M394.842 375.096H545.529V385.641H393.323V375.096H394.842ZM542.492 378.036H396.361V382.702H542.492V378.036Z" fill="#4F86D8"/>
<path fill-rule="evenodd" clip-rule="evenodd" d="M418.952 296.763H545.529V441.378C502.844 441.378 460.121 441.378 417.436 441.378V296.763H418.952ZM530.176 299.805H420.468V438.336H542.535V299.805H530.176Z" fill="#4F86D8"/>
<path d="M544.022 286.218H485.25V289.231H544.022V286.218Z" fill="#4F86D8"/>
<path fill-rule="evenodd" clip-rule="evenodd" d="M411.284 286.23H396.46V436.847H411.284V286.23ZM394.892 283.205H414.421V439.872H393.323V283.205H394.892Z" fill="#4F86D8"/>
<path fill-rule="evenodd" clip-rule="evenodd" d="M412.852 272.66H393.323V253.077H414.421V272.66H412.852ZM396.46 269.693H411.284V256.007H396.46V269.693Z" fill="#4F86D8"/>
<path fill-rule="evenodd" clip-rule="evenodd" d="M412.852 265.128H393.323V253.077H414.421V265.128H412.852ZM396.46 262.077H411.284V256.09H396.46V262.077Z" fill="#4F86D8"/>
<path fill-rule="evenodd" clip-rule="evenodd" d="M402.287 251.733V250.315L367.63 235.235L332.972 250.315V251.733H341.608V268.456H351.828V271.218H367.592H383.356V268.456H393.576V251.733H402.212H402.287ZM405.304 249.344V254.682H396.668V271.404H386.448V274.167H367.667H348.886V271.404H338.666V254.682H330.03V248.374C342.588 242.924 355.147 237.437 367.705 231.987C380.263 237.437 392.821 242.924 405.38 248.374V249.344H405.304Z" fill="#4F86D8"/>
<path fill-rule="evenodd" clip-rule="evenodd" d="M654.013 385.678H545.55V438.328H654.013V385.678ZM544.033 382.628H657.047V441.378H542.516V382.628H544.033Z" fill="#4F86D8"/>
<path d="M545.53 277.18H542.516V298.269H545.53V277.18Z" fill="#4F86D8"/>
<path fill-rule="evenodd" clip-rule="evenodd" d="M483.62 284.705H468.796V296.807H483.62V284.705ZM467.228 281.699H486.757V299.776H465.659V281.699H467.228Z" fill="#4F86D8"/>
<path fill-rule="evenodd" clip-rule="evenodd" d="M542.535 299.714H420.468V302.85H542.535V299.714ZM418.952 296.763H545.529V305.801H417.436V296.763H418.952Z" fill="#4F86D8"/>
<path fill-rule="evenodd" clip-rule="evenodd" d="M393.283 369.104H340.621V387.114H393.283V369.104ZM339.093 366.058H396.338V390.16H337.565V366.058H339.093Z" fill="#4F86D8"/>
<path fill-rule="evenodd" clip-rule="evenodd" d="M384.304 397.697H349.599V438.36H384.304V397.697ZM348.103 394.679H387.296V441.378H346.607V394.679H348.103Z" fill="#4F86D8"/>
<path fill-rule="evenodd" clip-rule="evenodd" d="M232.099 239.525H218.49V296.795H232.099V239.525ZM216.995 236.506H235.09V299.776H215.499V236.506H216.995Z" fill="#4F86D8"/>
<path fill-rule="evenodd" clip-rule="evenodd" d="M222.757 237.748C222.833 237.131 222.757 236.515 222.489 235.976C222.221 235.36 221.723 234.743 221.073 234.166C220.231 233.395 218.815 232.972 217.666 232.586C215.638 231.932 213.992 231.392 213.992 229.467C213.992 227.849 215.638 226.963 217.973 226.539C220.422 226.077 223.79 225.962 226.048 225.962C228.306 225.962 231.712 226.077 234.124 226.539C236.458 226.963 238.104 227.849 238.104 229.467C238.104 231.431 236.458 231.932 234.43 232.586C233.243 232.972 231.866 233.395 231.024 234.166C230.335 234.743 229.875 235.36 229.607 235.976C229.34 236.554 229.263 237.131 229.34 237.786L229.569 239.519H222.45L222.68 237.786L222.757 237.748ZM225.283 234.705C225.551 235.244 225.704 235.822 225.78 236.438H226.354C226.431 235.86 226.584 235.283 226.852 234.743C227.311 233.703 228.038 232.741 229.072 231.855C230.411 230.661 232.133 230.121 233.588 229.659L233.856 229.582H233.664C231.483 229.159 228.306 229.043 226.125 229.043C223.943 229.043 220.728 229.159 218.585 229.544H218.355L218.623 229.621C220.078 230.083 221.762 230.622 223.139 231.816C224.134 232.702 224.9 233.665 225.359 234.705H225.283ZM217.054 229.467C217.054 229.659 217.36 229.582 217.781 229.544C217.322 229.467 217.054 229.274 217.054 229.467ZM235.119 229.467C235.119 229.467 234.851 229.467 234.392 229.544C234.813 229.544 235.119 229.659 235.119 229.467Z" fill="#4F86D8"/>
<path fill-rule="evenodd" clip-rule="evenodd" d="M500.308 236.506H518.403V299.776H498.812V236.506H500.308ZM515.412 239.525H501.803V296.795H515.412V239.525Z" fill="#4F86D8"/>
<path fill-rule="evenodd" clip-rule="evenodd" d="M509.706 236.468C509.783 235.889 509.936 235.309 510.204 234.73C510.663 233.687 511.39 232.721 512.423 231.833C513.763 230.635 515.485 230.095 516.939 229.631L517.207 229.554H517.016C514.835 229.129 511.658 229.013 509.476 229.013C507.295 229.013 504.08 229.129 501.937 229.515H501.745L502.013 229.593C503.468 230.056 505.152 230.597 506.529 231.794C507.524 232.683 508.29 233.648 508.749 234.691C509.017 235.232 509.17 235.811 509.247 236.429H509.821L509.706 236.468ZM512.997 236.004C512.73 236.584 512.653 237.163 512.73 237.781L512.959 239.519H505.84L506.07 237.781C506.147 237.163 506.07 236.545 505.802 236.004C505.534 235.386 505.037 234.768 504.386 234.189C503.544 233.416 502.128 232.992 500.98 232.605C498.951 231.949 497.306 231.447 497.306 229.477C497.306 227.854 498.951 226.966 501.286 226.541C503.735 226.078 507.103 225.962 509.362 225.962C511.62 225.962 515.026 226.078 517.437 226.541C519.772 226.966 521.417 227.854 521.417 229.477C521.417 231.447 519.772 231.949 517.743 232.605C516.557 232.992 515.179 233.416 514.337 234.189C513.648 234.768 513.189 235.386 512.921 236.004H512.997ZM517.743 229.554C518.164 229.554 518.47 229.67 518.47 229.477C518.47 229.283 518.203 229.477 517.743 229.554ZM501.133 229.554C500.674 229.477 500.406 229.283 500.406 229.477C500.406 229.67 500.712 229.593 501.133 229.554Z" fill="#4F86D8"/>
<path d="M369.211 396.186H366.197V439.872H369.211V396.186Z" fill="#4F86D8"/>
<path d="M485.25 311.827H467.166V314.84H485.25V311.827Z" fill="#4F86D8"/>
<path d="M268.244 311.827H250.16V314.84H268.244V311.827Z" fill="#4F86D8"/>
<path fill-rule="evenodd" clip-rule="evenodd" d="M367.705 247.089C369.794 247.089 371.659 247.946 373.039 249.289C374.382 250.631 375.24 252.533 375.24 254.621C375.24 256.709 374.382 258.573 373.039 259.915C371.659 261.295 369.794 262.115 367.705 262.115C365.616 262.115 363.751 261.258 362.371 259.915C360.991 258.536 360.17 256.671 360.17 254.583C360.17 252.495 361.028 250.631 362.371 249.251C363.714 247.872 365.616 247.051 367.705 247.051V247.089ZM370.913 251.414C370.092 250.594 368.936 250.072 367.705 250.072C366.474 250.072 365.318 250.594 364.497 251.414C363.676 252.234 363.154 253.353 363.154 254.621C363.154 255.888 363.676 257.007 364.497 257.827C365.318 258.648 366.437 259.17 367.705 259.17C368.973 259.17 370.092 258.648 370.913 257.827C371.733 257.007 372.256 255.851 372.256 254.621C372.256 253.39 371.733 252.234 370.913 251.414Z" fill="#4F86D8"/>
<path d="M1520.55 438.365H0V441.378H1520.55V438.365Z" fill="#4F86D8"/>
<path d="M1656.18 465.481H738.423V468.494H1656.18V465.481Z" fill="#4F86D8"/>
<path d="M378.253 465.481H108.503V468.494H378.253V465.481Z" fill="#4F86D8"/>
</svg>
