<svg width="530" height="380" viewBox="0 0 530 380" fill="none" xmlns="http://www.w3.org/2000/svg">
<g clip-path="url(#clip0_593_31803)">
<path fill-rule="evenodd" clip-rule="evenodd" d="M331.059 164.423H337.15L334.119 183.91L331.059 164.423Z" fill="#4F86D8"/>
<path fill-rule="evenodd" clip-rule="evenodd" d="M337.151 164.423H343.242L340.196 183.91L337.151 164.423Z" fill="#4F86D8"/>
<path fill-rule="evenodd" clip-rule="evenodd" d="M343.241 164.423H349.332L346.272 183.91L343.241 164.423Z" fill="#4F86D8"/>
<path fill-rule="evenodd" clip-rule="evenodd" d="M350.551 164.423H356.642L353.611 183.91L350.551 164.423Z" fill="#4F86D8"/>
<path fill-rule="evenodd" clip-rule="evenodd" d="M356.643 164.423H362.734L359.688 183.91L356.643 164.423Z" fill="#4F86D8"/>
<path fill-rule="evenodd" clip-rule="evenodd" d="M362.733 164.423H368.825L365.765 183.91L362.733 164.423Z" fill="#4F86D8"/>
<path fill-rule="evenodd" clip-rule="evenodd" d="M370.043 164.423H376.134L373.103 183.91L370.043 164.423Z" fill="#4F86D8"/>
<path fill-rule="evenodd" clip-rule="evenodd" d="M376.134 164.423H382.225L379.18 183.91L376.134 164.423Z" fill="#4F86D8"/>
<path fill-rule="evenodd" clip-rule="evenodd" d="M382.225 164.423H388.316L385.256 183.91L382.225 164.423Z" fill="#4F86D8"/>
<path fill-rule="evenodd" clip-rule="evenodd" d="M389.534 164.423H395.625L392.58 183.91L389.534 164.423Z" fill="#4F86D8"/>
<path fill-rule="evenodd" clip-rule="evenodd" d="M448.01 199.744H451.664L449.837 207.051L448.01 199.744Z" fill="#4F86D8"/>
<path fill-rule="evenodd" clip-rule="evenodd" d="M451.664 199.744H455.319L453.492 207.051L451.664 199.744Z" fill="#4F86D8"/>
<path fill-rule="evenodd" clip-rule="evenodd" d="M455.319 199.744H458.974L457.132 207.051L455.319 199.744Z" fill="#4F86D8"/>
<path fill-rule="evenodd" clip-rule="evenodd" d="M458.974 199.744H462.628L460.801 207.051L458.974 199.744Z" fill="#4F86D8"/>
<path fill-rule="evenodd" clip-rule="evenodd" d="M462.628 199.744H466.283L464.455 207.051L462.628 199.744Z" fill="#4F86D8"/>
<path fill-rule="evenodd" clip-rule="evenodd" d="M466.283 199.744H469.938L468.096 207.051L466.283 199.744Z" fill="#4F86D8"/>
<path fill-rule="evenodd" clip-rule="evenodd" d="M471.156 199.744H474.811L472.984 207.051L471.156 199.744Z" fill="#4F86D8"/>
<path fill-rule="evenodd" clip-rule="evenodd" d="M474.811 199.744H478.465L476.653 207.051L474.811 199.744Z" fill="#4F86D8"/>
<path d="M430.955 138.846H395.626V141.282H430.955V138.846Z" fill="#4F86D8"/>
<path fill-rule="evenodd" clip-rule="evenodd" d="M331.062 163.205H396.843V356.859H329.841V163.205H331.062ZM394.4 165.658H332.284V354.406H394.4V165.658Z" fill="#4F86D8"/>
<path fill-rule="evenodd" clip-rule="evenodd" d="M430.958 109.615H496.739V356.859H429.736V109.615H430.958ZM494.325 112.067H432.181V354.407H494.325V112.067Z" fill="#4F86D8"/>
<path fill-rule="evenodd" clip-rule="evenodd" d="M427.324 109.615H432.172V124.231H426.081V109.615H427.324ZM429.717 112.061H428.567V121.785H429.717V112.061Z" fill="#4F86D8"/>
<path fill-rule="evenodd" clip-rule="evenodd" d="M495.515 109.615H500.394V124.231H494.303V109.615H495.546H495.515ZM497.908 112.061H496.758V121.785H497.908V112.061Z" fill="#4F86D8"/>
<path fill-rule="evenodd" clip-rule="evenodd" d="M482.113 109.615H486.993V124.231H480.901V109.615H482.144H482.113ZM484.506 112.061H483.356V121.785H484.506V112.061Z" fill="#4F86D8"/>
<path fill-rule="evenodd" clip-rule="evenodd" d="M468.713 109.615H473.592V124.231H467.501V109.615H468.744H468.713ZM471.106 112.061H469.956V121.785H471.106V112.061Z" fill="#4F86D8"/>
<path fill-rule="evenodd" clip-rule="evenodd" d="M454.126 109.615H458.974V124.231H452.883V109.615H454.126ZM456.519 112.061H455.369V121.785H456.519V112.061Z" fill="#4F86D8"/>
<path fill-rule="evenodd" clip-rule="evenodd" d="M440.725 109.615H445.573V124.231H439.481V109.615H440.725ZM443.117 112.061H441.968V121.785H443.117V112.061Z" fill="#4F86D8"/>
<path fill-rule="evenodd" clip-rule="evenodd" d="M426.068 111.619C424.247 109.306 421.097 106.837 417.237 104.709C413.686 102.765 409.58 101.161 405.38 100.297L398.062 98.8162L405.473 97.8906C411.741 97.0885 417.176 96.2555 421.746 94.7747C426.161 93.3555 429.712 91.3193 432.336 88.2034C439.531 79.6268 459.2 15.2405 462.38 4.78192L463.831 0L465.314 4.78192C468.525 15.3022 488.163 79.5959 495.357 88.1725C497.982 91.2885 501.533 93.2938 505.948 94.7438C510.487 96.2247 515.953 97.0885 522.221 97.8598L529.631 98.7853L522.313 100.266C518.114 101.13 514.007 102.734 510.456 104.678C506.597 106.776 503.478 109.275 501.625 111.589L501.255 112.051H426.439L426.068 111.589V111.619ZM418.442 102.58C422.301 104.709 425.543 107.239 427.612 109.645H500.112C502.181 107.239 505.423 104.709 509.283 102.58C511.383 101.438 513.668 100.39 516.076 99.5257C512.062 98.9087 508.449 98.1683 505.207 97.1193C500.36 95.5459 496.407 93.2938 493.474 89.8076C486.465 81.4778 468.834 24.7118 463.862 8.45321C458.86 24.7118 441.229 81.4778 434.251 89.8076C431.317 93.3247 427.365 95.5459 422.517 97.1193C419.306 98.1683 415.663 98.9087 411.649 99.5257C414.057 100.39 416.342 101.408 418.442 102.58Z" fill="#4F86D8"/>
<path d="M521.103 97.436H405.371V99.8719H521.103V97.436Z" fill="#4F86D8"/>
<path fill-rule="evenodd" clip-rule="evenodd" d="M449.217 133.975H478.466V164.423H448.01V133.975H449.248H449.217ZM475.989 136.448H450.455V161.95H475.989V136.448Z" fill="#4F86D8"/>
<path fill-rule="evenodd" clip-rule="evenodd" d="M463.238 164.423C459.028 164.423 455.221 162.721 452.467 159.967C449.712 157.213 448.01 153.407 448.01 149.199C448.01 144.991 449.712 141.185 452.467 138.431C455.221 135.677 459.028 133.975 463.238 133.975C467.447 133.975 471.254 135.677 474.009 138.431C476.763 141.185 478.466 144.991 478.466 149.199C478.466 153.407 476.763 157.213 474.009 159.967C471.254 162.721 467.447 164.423 463.238 164.423ZM454.2 158.204C456.521 160.524 459.709 161.948 463.238 161.948C466.766 161.948 469.954 160.524 472.275 158.204C474.597 155.883 476.02 152.696 476.02 149.168C476.02 145.64 474.597 142.453 472.275 140.132C469.985 137.812 466.766 136.388 463.238 136.388C459.709 136.388 456.521 137.812 454.2 140.132C451.879 142.453 450.455 145.64 450.455 149.168C450.455 152.696 451.879 155.883 454.2 158.204Z" fill="#4F86D8"/>
<path fill-rule="evenodd" clip-rule="evenodd" d="M449.247 142.5H478.466V155.897H448.01V142.5H449.247ZM475.992 144.941H450.483V153.456H475.992V144.941Z" fill="#4F86D8"/>
<path fill-rule="evenodd" clip-rule="evenodd" d="M456.537 163.187V133.975H469.938V164.423H456.537V163.187ZM458.979 136.448V161.95H467.496V136.448H458.979Z" fill="#4F86D8"/>
<path fill-rule="evenodd" clip-rule="evenodd" d="M350.594 232.55H357.848V214.948C357.848 214.571 357.542 214.194 357.021 213.88C356.317 213.44 355.338 213.188 354.236 213.188C353.134 213.188 352.155 213.471 351.451 213.88C350.93 214.194 350.624 214.571 350.624 214.948V232.55H350.594ZM359.072 235.064H348.114V214.98C348.114 213.691 348.879 212.559 350.134 211.774C351.206 211.114 352.644 210.705 354.205 210.705C355.766 210.705 357.205 211.114 358.276 211.774C359.531 212.559 360.297 213.691 360.297 214.98V235.064H359.072Z" fill="#4F86D8"/>
<path fill-rule="evenodd" clip-rule="evenodd" d="M367.649 232.55H374.903V214.948C374.903 214.571 374.597 214.194 374.077 213.88C373.373 213.44 372.393 213.188 371.292 213.188C370.19 213.188 369.21 213.471 368.506 213.88C367.986 214.194 367.68 214.571 367.68 214.948V232.55H367.649ZM376.128 235.064H365.17V214.98C365.17 213.691 365.935 212.559 367.19 211.774C368.261 211.114 369.7 210.705 371.261 210.705C372.822 210.705 374.261 211.114 375.332 211.774C376.587 212.559 377.352 213.691 377.352 214.98V235.064H376.128Z" fill="#4F86D8"/>
<path fill-rule="evenodd" clip-rule="evenodd" d="M346.888 235.002H378.609V216.108C378.609 212.11 377.182 209.393 374.815 207.645C371.9 205.49 367.59 204.678 362.733 204.678C357.877 204.678 353.566 205.49 350.683 207.645C348.315 209.393 346.888 212.11 346.888 216.108V235.002ZM379.823 237.5H344.46V216.108C344.46 211.205 346.281 207.832 349.256 205.615C352.625 203.116 357.452 202.179 362.733 202.179C368.015 202.179 372.841 203.116 376.211 205.615C379.186 207.832 381.007 211.205 381.007 216.108V237.5H379.793H379.823Z" fill="#4F86D8"/>
<path fill-rule="evenodd" clip-rule="evenodd" d="M346.134 235.064L362.749 250.047L379.333 235.064L381.007 236.813L362.749 253.333L344.46 236.813L346.134 235.064Z" fill="#4F86D8"/>
<path fill-rule="evenodd" clip-rule="evenodd" d="M349.39 348.335H376.076V327.251C376.076 323.661 374.58 320.405 372.148 318.062C369.717 315.689 366.381 314.229 362.733 314.229C359.086 314.229 355.719 315.689 353.318 318.062C350.887 320.436 349.39 323.691 349.39 327.251V348.335ZM377.323 350.769H346.896V327.251C346.896 322.991 348.673 319.127 351.541 316.328C354.41 313.529 358.369 311.795 362.733 311.795C367.098 311.795 371.057 313.529 373.925 316.328C376.793 319.127 378.57 322.991 378.57 327.251V350.769H377.323Z" fill="#4F86D8"/>
<path fill-rule="evenodd" clip-rule="evenodd" d="M344.469 354.423H382.247V328.268C382.247 325.345 381.574 322.604 380.382 320.138C379.129 317.58 377.326 315.327 375.095 313.561C374.147 312.83 373.016 312.13 371.794 311.399C369.012 309.694 365.864 307.776 363.358 304.304C360.851 307.776 357.703 309.694 354.891 311.399C353.669 312.13 352.538 312.83 351.59 313.561C349.359 315.327 347.556 317.58 346.303 320.138C345.111 322.604 344.438 325.375 344.438 328.268V354.423H344.469ZM363.358 356.859H342.023V328.268C342.023 324.979 342.788 321.873 344.132 319.072C345.538 316.179 347.586 313.652 350.093 311.643C351.132 310.82 352.354 310.09 353.638 309.298C356.603 307.502 359.996 305.431 362.319 301.442L363.358 299.615L364.397 301.442C366.72 305.431 370.113 307.502 373.047 309.298C374.331 310.09 375.523 310.82 376.592 311.643C379.099 313.622 381.147 316.179 382.553 319.072C383.897 321.873 384.661 324.979 384.661 328.268V356.859H363.327H363.358Z" fill="#4F86D8"/>
<path d="M383.443 326.41H343.241V328.846H383.443V326.41Z" fill="#4F86D8"/>
<path d="M363.952 314.231H361.516V328.846H363.952V314.231Z" fill="#4F86D8"/>
<path fill-rule="evenodd" clip-rule="evenodd" d="M450.504 348.335H477.19V327.251C477.19 323.661 475.693 320.405 473.262 318.062C470.83 315.689 467.494 314.229 463.847 314.229C460.199 314.229 456.832 315.689 454.432 318.062C452.031 320.436 450.504 323.691 450.504 327.251V348.335ZM478.437 350.769H448.01V327.251C448.01 322.991 449.787 319.127 452.655 316.328C455.523 313.529 459.482 311.795 463.847 311.795C468.211 311.795 472.171 313.529 475.039 316.328C477.907 319.127 479.684 322.991 479.684 327.251V350.769H478.437Z" fill="#4F86D8"/>
<path fill-rule="evenodd" clip-rule="evenodd" d="M444.363 354.423H482.141V328.267C482.141 325.344 481.469 322.604 480.277 320.138C479.024 317.58 477.22 315.327 474.989 313.561C474.042 312.83 472.911 312.13 471.688 311.399C468.907 309.694 465.728 307.775 463.222 304.304C460.715 307.775 457.567 309.694 454.786 311.399C453.563 312.13 452.432 312.83 451.485 313.561C449.254 315.327 447.45 317.58 446.197 320.138C445.005 322.604 444.333 325.375 444.333 328.267V354.423H444.363ZM463.252 356.859H441.918V328.267C441.918 324.979 442.682 321.873 444.027 319.072C445.433 316.179 447.481 313.652 449.987 311.642C451.026 310.82 452.249 310.09 453.533 309.298C456.497 307.501 459.89 305.431 462.182 301.442L463.222 299.615L464.261 301.442C466.584 305.431 469.977 307.501 472.941 309.298C474.225 310.09 475.417 310.82 476.487 311.642C478.993 313.622 481.041 316.179 482.447 319.072C483.792 321.873 484.556 324.979 484.556 328.267V356.859H463.222H463.252Z" fill="#4F86D8"/>
<path d="M483.338 326.41H443.137V328.846H483.338V326.41Z" fill="#4F86D8"/>
<path d="M463.846 314.231H461.41V328.846H463.846V314.231Z" fill="#4F86D8"/>
<path fill-rule="evenodd" clip-rule="evenodd" d="M363.342 261.859C365.505 261.859 367.508 262.718 368.939 264.099C370.371 265.48 371.261 267.382 371.261 269.499V289.872H355.424V269.499C355.424 267.412 356.314 265.48 357.745 264.099C359.176 262.718 361.148 261.859 363.342 261.859ZM367.127 265.848C366.141 264.897 364.805 264.314 363.342 264.314C361.88 264.314 360.544 264.897 359.558 265.848C358.572 266.799 357.968 268.087 357.968 269.499V287.417H368.685V269.499C368.685 268.087 368.081 266.768 367.095 265.848H367.127Z" fill="#4F86D8"/>
<path fill-rule="evenodd" clip-rule="evenodd" d="M463.238 261.859C465.4 261.859 467.404 262.718 468.835 264.099C470.266 265.479 471.156 267.382 471.156 269.499V289.872H455.319V269.499C455.319 267.412 456.21 265.479 457.641 264.099C459.072 262.718 461.044 261.859 463.238 261.859ZM467.022 265.848C466.036 264.896 464.701 264.313 463.238 264.313C461.775 264.313 460.439 264.896 459.453 265.848C458.468 266.799 457.863 268.087 457.863 269.499V287.417H468.58V269.499C468.58 268.087 467.976 266.768 466.99 265.848H467.022Z" fill="#4F86D8"/>
<path fill-rule="evenodd" clip-rule="evenodd" d="M395.615 170.513H432.172V356.859H394.407V170.513H395.646H395.615ZM429.696 172.963H396.853V354.409H429.696V172.963Z" fill="#4F86D8"/>
<path fill-rule="evenodd" clip-rule="evenodd" d="M329.738 165.089C328.147 162.821 325.424 160.337 322.089 158.253C319.03 156.321 315.481 154.758 311.84 153.899L305.477 152.428L311.932 151.508C317.347 150.742 322.089 149.883 326.036 148.412C329.86 147.002 332.919 145.009 335.183 141.943C340.17 135.168 348.981 92.5854 353.509 70.6963C354.855 64.2584 355.804 59.5985 356.202 58.127L357.425 53.5897L366.909 91.5737H373.854L378.78 74.8657L396.463 142.403C397.106 144.825 398.666 146.695 401.328 148.136C404.142 149.669 408.181 150.742 413.535 151.539L419.99 152.459L413.627 153.93C409.986 154.758 406.437 156.352 403.378 158.283C400.043 160.368 397.32 162.821 395.729 165.12L395.362 165.641H368.776V129.956H357.028V165.641H330.044L329.676 165.12L329.738 165.089ZM323.374 156.199C326.739 158.283 329.554 160.797 331.329 163.188H354.641V127.504H371.284V163.188H394.169C395.974 160.797 398.789 158.314 402.123 156.199C404.02 155.003 406.1 153.93 408.273 153.072C404.969 152.336 402.276 151.447 400.165 150.282C396.892 148.504 394.934 146.143 394.108 143.016L378.658 83.9708L375.69 94.0569H365.013L357.456 63.7985L355.896 71.2481C351.337 93.3212 342.434 136.241 337.141 143.445C334.572 146.94 331.114 149.209 326.862 150.772C324.047 151.815 320.865 152.55 317.378 153.164C319.489 154.022 321.508 155.064 323.374 156.229V156.199Z" fill="#4F86D8"/>
<path fill-rule="evenodd" clip-rule="evenodd" d="M311.567 151.025H355.777V153.461H311.567V151.025ZM370.122 151.025H413.899V153.461H370.122V151.025Z" fill="#4F86D8"/>
<path fill-rule="evenodd" clip-rule="evenodd" d="M396.739 200.852H429.872V192.546H396.739V200.852ZM431.022 203.397H394.407V190H432.172V203.397H431.022Z" fill="#4F86D8"/>
<path fill-rule="evenodd" clip-rule="evenodd" d="M413.29 261.859C415.452 261.859 417.456 262.718 418.887 264.099C420.318 265.479 421.208 267.382 421.208 269.499V289.872H405.371V269.499C405.371 267.412 406.262 265.479 407.693 264.099C409.124 262.718 411.095 261.859 413.29 261.859ZM417.074 265.848C416.088 264.896 414.752 264.313 413.29 264.313C411.827 264.313 410.459 264.896 409.505 265.817C408.519 266.768 407.915 268.057 407.915 269.468V287.386H418.632V269.468C418.632 268.057 418.028 266.737 417.042 265.817L417.074 265.848Z" fill="#4F86D8"/>
<path fill-rule="evenodd" clip-rule="evenodd" d="M397.028 299.61H429.583V289.846H397.028V299.61ZM430.878 302.051H394.407V287.436H432.172V302.051H430.878Z" fill="#4F86D8"/>
<path fill-rule="evenodd" clip-rule="evenodd" d="M410.396 208.269H416.183C417.551 208.269 418.823 208.821 419.745 209.68C420.667 210.57 421.208 211.767 421.208 213.117V236.282H405.371V213.117C405.371 211.797 405.943 210.57 406.834 209.711C407.756 208.821 408.996 208.269 410.396 208.269ZM416.183 210.724H410.396C409.728 210.724 409.092 211 408.647 211.429C408.201 211.859 407.915 212.473 407.915 213.117V233.827H418.632V213.117C418.632 212.473 418.346 211.859 417.901 211.429C417.456 211 416.82 210.724 416.152 210.724H416.183Z" fill="#4F86D8"/>
<path fill-rule="evenodd" clip-rule="evenodd" d="M400.498 267.939L413.305 246.025L426.081 267.939L423.92 269.166L413.305 250.967L402.659 269.166L400.498 267.939Z" fill="#4F86D8"/>
<path fill-rule="evenodd" clip-rule="evenodd" d="M355.46 126.667H371.261V164.423H354.206V126.667H355.46ZM368.753 129.095H356.714V161.995H368.753V129.095Z" fill="#4F86D8"/>
<path d="M370.043 141.282H355.424V143.718H370.043V141.282Z" fill="#4F86D8"/>
<path d="M363.952 127.885H361.516V163.205H363.952V127.885Z" fill="#4F86D8"/>
<path fill-rule="evenodd" clip-rule="evenodd" d="M458.974 208.269C460.268 208.269 461.878 209.747 463.077 211.624C464.181 213.318 465.065 215.442 465.065 216.95V236.282H452.883V216.95C452.883 215.411 453.767 213.318 454.871 211.624C456.07 209.747 457.68 208.269 458.974 208.269ZM460.962 212.917C460.173 211.686 459.353 210.732 458.974 210.732C458.595 210.732 457.775 211.717 456.986 212.917C456.102 214.272 455.408 215.903 455.408 216.95V233.819H462.54V216.95C462.54 215.903 461.846 214.272 460.962 212.917Z" fill="#4F86D8"/>
<path fill-rule="evenodd" clip-rule="evenodd" d="M467.501 208.269C468.795 208.269 470.405 209.747 471.604 211.625C472.709 213.349 473.592 215.442 473.592 216.95V236.282H461.41V216.95C461.41 215.442 462.294 213.318 463.398 211.625C464.598 209.747 466.207 208.269 467.501 208.269ZM469.489 212.918C468.7 211.686 467.88 210.732 467.501 210.732C467.122 210.732 466.302 211.717 465.513 212.918C464.629 214.272 463.935 215.904 463.935 216.95V233.819H471.067V216.95C471.067 215.904 470.373 214.272 469.489 212.918Z" fill="#4F86D8"/>
<path fill-rule="evenodd" clip-rule="evenodd" d="M448.022 198.525H479.683V236.282H446.791V198.525H448.022ZM477.222 200.991H449.253V233.816H477.222V200.991Z" fill="#4F86D8"/>
<path fill-rule="evenodd" clip-rule="evenodd" d="M445.63 244.802H482.063V236.288H445.63V244.802ZM483.31 247.244H443.137V233.846H484.556V247.244H483.31Z" fill="#4F86D8"/>
<path fill-rule="evenodd" clip-rule="evenodd" d="M463.237 200.962H438.264L444.849 198.597C449.135 197.031 452.552 194.728 455.348 191.812C458.143 188.895 460.318 185.394 462.119 181.495L463.237 179.038L464.356 181.495C466.157 185.394 468.332 188.895 471.127 191.812C473.923 194.698 477.308 197.031 481.626 198.597L488.211 200.962H463.237ZM450.813 198.505H475.693C473.301 197.093 471.189 195.404 469.357 193.5C466.903 190.952 464.946 188.035 463.268 184.811C461.591 188.035 459.603 190.983 457.18 193.5C455.348 195.404 453.235 197.093 450.844 198.505H450.813Z" fill="#4F86D8"/>
<path fill-rule="evenodd" clip-rule="evenodd" d="M346.134 235.064L362.749 250.047L379.333 235.064L381.007 236.813L362.749 253.333L344.46 236.813L346.134 235.064Z" fill="#4F86D8"/>
<path fill-rule="evenodd" clip-rule="evenodd" d="M444.288 244.808L462.643 255.288L480.999 244.808L482.12 247.083L462.643 258.205L443.137 247.083L444.288 244.808Z" fill="#4F86D8"/>
<path fill-rule="evenodd" clip-rule="evenodd" d="M402.928 354.367H422.463V334.028C422.463 331.288 421.369 328.765 419.607 326.958C417.845 325.152 415.384 324.03 412.711 324.03C410.037 324.03 407.577 325.152 405.815 326.958C404.052 328.765 402.959 331.288 402.959 334.028V354.367H402.928ZM423.678 356.859H400.498V334.028C400.498 330.602 401.865 327.456 404.083 325.214C406.301 322.94 409.339 321.539 412.68 321.539C416.022 321.539 419.091 322.94 421.278 325.214C423.496 327.488 424.863 330.602 424.863 334.028V356.859H423.647H423.678Z" fill="#4F86D8"/>
<path fill-rule="evenodd" clip-rule="evenodd" d="M402.928 354.397H422.463V334.272C422.463 331.995 422.098 329.841 421.43 327.902C420.761 325.933 419.789 324.209 418.604 322.855C418.118 322.302 417.511 321.778 416.842 321.194C415.475 320.024 413.956 318.701 412.68 316.516C411.374 318.67 409.855 319.994 408.518 321.194C407.88 321.748 407.273 322.271 406.787 322.855C405.602 324.209 404.63 325.933 403.961 327.902C403.293 329.841 402.928 331.995 402.928 334.272V354.397ZM412.68 356.859H400.498V334.272C400.498 331.718 400.923 329.287 401.652 327.102C402.442 324.825 403.566 322.794 404.964 321.224C405.541 320.547 406.24 319.963 406.939 319.347C408.518 317.993 410.341 316.393 411.556 313.347L412.68 310.577L413.804 313.347C415.05 316.393 416.842 317.963 418.422 319.347C419.151 319.963 419.82 320.547 420.397 321.224C421.794 322.825 422.918 324.825 423.708 327.102C424.437 329.287 424.863 331.718 424.863 334.272V356.859H412.68Z" fill="#4F86D8"/>
<path d="M423.645 333.718H401.717V336.154H423.645V333.718Z" fill="#4F86D8"/>
<path d="M413.899 322.756H411.463V333.718H413.899V322.756Z" fill="#4F86D8"/>
<path d="M359.079 29.231H356.643V58.4617H359.079V29.231Z" fill="#4F86D8"/>
<path d="M379.789 49.936H377.353V79.1668H379.789V49.936Z" fill="#4F86D8"/>
<path fill-rule="evenodd" clip-rule="evenodd" d="M395.617 170.513H432.172V192.436H394.407V170.513H395.617ZM429.785 172.906H396.826V190.043H429.785V172.906Z" fill="#4F86D8"/>
<path fill-rule="evenodd" clip-rule="evenodd" d="M395.645 183.91H432.172V192.436H394.407V183.91H395.645ZM429.667 186.262H396.882V190.084H429.667V186.262Z" fill="#4F86D8"/>
<path fill-rule="evenodd" clip-rule="evenodd" d="M467.501 208.269C468.795 208.269 470.405 209.747 471.604 211.625C472.709 213.349 473.592 215.442 473.592 216.95V236.282H461.41V216.95C461.41 215.442 462.294 213.318 463.398 211.625C464.598 209.747 466.207 208.269 467.501 208.269ZM469.489 212.918C468.7 211.686 467.88 210.732 467.501 210.732C467.122 210.732 466.302 211.717 465.513 212.918C464.629 214.272 463.935 215.904 463.935 216.95V233.819H471.067V216.95C471.067 215.904 470.373 214.272 469.489 212.918Z" fill="#4F86D8"/>
<path fill-rule="evenodd" clip-rule="evenodd" d="M507.703 264.295C508.996 264.295 510.606 265.773 511.805 267.65C512.91 269.374 513.794 271.467 513.794 272.976V292.308H501.611V272.976C501.611 271.467 502.495 269.343 503.6 267.65C504.799 265.773 506.409 264.295 507.703 264.295ZM509.691 268.943C508.902 267.712 508.081 266.758 507.703 266.758C507.324 266.758 506.503 267.743 505.714 268.943C504.83 270.298 504.136 271.929 504.136 272.976V289.845H511.269V272.976C511.269 271.929 510.575 270.298 509.691 268.943Z" fill="#4F86D8"/>
<path fill-rule="evenodd" clip-rule="evenodd" d="M496.81 306.927C501.792 306.596 508.154 304.344 513.168 301.132C517.179 298.549 520.281 295.426 520.939 292.274H496.841V306.927H496.81ZM514.547 303.113C508.718 306.837 501.134 309.359 495.556 309.359H494.303V289.872H523.54V291.073C523.54 295.517 519.717 299.81 514.547 303.113Z" fill="#4F86D8"/>
<path fill-rule="evenodd" clip-rule="evenodd" d="M522.257 292.308H494.303V250.897H523.54V292.308H522.288H522.257ZM496.807 289.863H521.005V253.342H496.807V289.863Z" fill="#4F86D8"/>
<path fill-rule="evenodd" clip-rule="evenodd" d="M496.677 220.768C499.792 227.627 503.555 233.807 508.459 238.966C513.332 244.095 519.284 248.205 526.779 250.954L533.286 253.334H494.303V215.577L496.647 220.768H496.677ZM506.67 240.666C502.753 236.525 499.546 231.798 496.801 226.607V250.893H520.425C515.059 248.205 510.556 244.744 506.701 240.666H506.67Z" fill="#4F86D8"/>
<path d="M522.322 254.551H495.521V256.987H522.322V254.551Z" fill="#4F86D8"/>
<path d="M521.103 293.525H495.521V295.961H521.103V293.525Z" fill="#4F86D8"/>
<path fill-rule="evenodd" clip-rule="evenodd" d="M495.552 306.975C499.488 305.953 502.731 304.064 505.029 301.897C507.453 299.605 508.839 296.973 508.839 294.744H511.357C511.357 297.654 509.689 300.906 506.761 303.662C504.179 306.108 500.558 308.213 496.182 309.359L495.521 306.975H495.552Z" fill="#4F86D8"/>
<path fill-rule="evenodd" clip-rule="evenodd" d="M462.628 68.2051C463.891 68.2051 465.5 69.5448 466.7 71.25C467.836 72.8028 468.719 74.7515 468.719 76.1826V93.782H456.537V76.1826C456.537 74.782 457.421 72.8333 458.557 71.25C459.756 69.5448 461.366 68.2051 462.628 68.2051ZM464.648 72.6201C463.859 71.524 463.039 70.641 462.628 70.641C462.218 70.641 461.397 71.524 460.608 72.6201C459.725 73.8381 459.062 75.2387 459.062 76.1522V91.3157H466.195V76.1522C466.195 75.2387 465.5 73.8076 464.648 72.6201Z" fill="#4F86D8"/>
<path d="M20.4112 264.295H16.7565V270.385H20.4112V264.295Z" fill="#4F86D8"/>
<path d="M54.5216 264.295H50.8669V270.385H54.5216V264.295Z" fill="#4F86D8"/>
<path d="M248.22 261.859H245.784V266.731H248.22V261.859Z" fill="#4F86D8"/>
<path d="M203.145 261.859H200.709V266.731H203.145V261.859Z" fill="#4F86D8"/>
<path fill-rule="evenodd" clip-rule="evenodd" d="M228.728 232.628H247.002V244.808C243.594 237.538 236.749 232.754 228.728 232.628Z" fill="#4F86D8"/>
<path fill-rule="evenodd" clip-rule="evenodd" d="M200.709 232.628H218.982C210.931 232.754 204.116 237.506 200.709 244.808V232.628Z" fill="#4F86D8"/>
<path fill-rule="evenodd" clip-rule="evenodd" d="M43.5576 163.205H27.7206V181.6C27.7206 182.17 28.2023 182.65 28.7744 182.65H34.0734C34.8864 182.65 35.3982 183.04 35.609 183.91C35.9101 183.04 36.5423 182.65 37.295 182.65H42.293C42.9855 182.65 43.5576 182.08 43.5576 181.39V163.205ZM36.1208 171.967C36.1208 171.967 35.9703 172.057 35.9101 172.117H35.8799H35.8197V172.057C35.8197 172.057 35.8197 171.997 35.8197 171.967H35.8799C35.8799 171.967 35.9703 171.817 36.0004 171.757C36.1208 171.547 36.2111 171.337 36.3316 171.097C36.4219 170.887 36.5122 170.647 36.6025 170.437C36.6025 170.437 36.6025 170.377 36.6326 170.347C36.6326 170.347 36.6327 170.287 36.6628 170.257C36.723 170.137 36.723 170.017 36.7531 169.897V169.837H36.8133L36.8735 169.597H36.994L37.1144 169.387V169.297L37.1746 169.177C37.2348 169.207 37.2649 169.237 37.295 169.267C37.295 169.207 37.3251 169.147 37.3552 169.087V168.997C37.3552 168.997 37.4456 168.997 37.5058 168.997L37.566 168.936C37.566 168.936 37.6262 168.846 37.6563 168.816V168.756H37.7467H37.8069L37.8972 168.606V168.546H37.9875C37.9875 168.546 38.0176 168.486 38.0477 168.456V168.396V168.276H38.1381H38.1983L38.2886 168.126V168.066H38.3789H38.4693L38.5897 167.796C38.6499 167.796 38.68 167.796 38.7402 167.826C38.7402 167.826 38.9811 167.586 39.1015 167.466C39.1015 167.466 39.1316 167.436 39.1618 167.406C39.1919 167.376 39.2521 167.346 39.2822 167.316C39.3123 167.166 39.3424 167.046 39.3725 166.896C39.3725 166.866 39.3725 166.806 39.3725 166.776H39.4327C39.4327 166.776 39.4929 166.776 39.5532 166.776C39.6134 166.776 39.6435 166.746 39.7037 166.716H39.7639C39.7639 166.716 39.9145 166.596 40.0048 166.536L40.0951 166.476C40.0951 166.476 40.2457 166.386 40.336 166.326V166.416V166.446L40.7274 166.056L40.7876 165.996C40.7876 165.996 40.8478 165.906 40.8779 165.876L40.9381 165.786C40.9381 165.786 40.9983 165.696 40.9983 165.636C41.0285 165.546 41.0586 165.456 41.0887 165.366C41.179 165.126 41.2392 164.885 41.2994 164.645C41.2994 164.615 41.2994 164.585 41.2994 164.525C41.2994 164.405 41.3295 164.315 41.3597 164.195L41.5403 163.805C41.5403 163.805 41.5403 164.015 41.5403 164.135C41.5403 164.375 41.5704 164.645 41.6005 164.885C41.6005 164.976 41.6005 165.066 41.6607 165.156C41.6607 165.156 41.6607 165.246 41.6908 165.246C41.721 165.246 41.7209 165.246 41.7511 165.276H41.8113C41.8113 165.276 41.9016 165.306 41.9618 165.306H42.022C42.1124 165.306 42.2027 165.306 42.2629 165.306C42.2629 165.306 42.3532 165.306 42.3833 165.306C42.5339 165.306 42.7145 165.246 42.8651 165.216C42.6242 165.366 42.3532 165.546 42.0822 165.666H42.022L41.8715 165.786L41.6306 165.936C41.6306 165.936 41.5704 165.966 41.5403 165.996C41.5102 165.996 41.4801 166.026 41.45 166.056L41.3597 166.116C41.3597 166.116 41.1188 166.326 41.0285 166.446C40.9381 166.566 40.8478 166.686 40.7575 166.836H40.9683L40.9381 167.016C40.9381 167.016 40.7876 167.106 40.6973 167.136H40.6371L40.5166 167.166C40.4564 167.256 40.3661 167.346 40.3059 167.466C40.1553 167.646 40.0048 167.856 39.8844 168.036C39.9145 168.036 39.9446 168.036 39.9747 168.036C39.9747 168.036 40.065 168.036 40.1252 168.066V168.186H40.065C39.9446 168.246 39.8241 168.306 39.7037 168.366L39.5532 168.426C39.5532 168.426 39.4026 168.606 39.3123 168.696C39.1617 168.846 39.0413 168.997 38.9209 169.177C38.7101 169.417 38.4994 169.657 38.2886 169.897C38.2585 169.927 38.1983 169.987 38.1682 170.017C38.2886 170.017 38.409 170.017 38.5295 170.017C38.6499 170.017 38.7703 170.017 38.8607 169.987L38.7703 170.107C38.7101 170.167 38.68 170.197 38.6198 170.227C38.4392 170.347 38.2284 170.467 38.0176 170.557C37.9574 170.557 37.8972 170.587 37.837 170.617C37.7467 170.617 37.6262 170.677 37.5058 170.677L37.3251 170.827L37.2348 170.887C37.1746 170.947 37.1445 170.977 37.0843 171.037L36.9036 171.247C36.9036 171.247 36.9036 171.397 36.9036 171.457C36.8434 171.457 36.7832 171.397 36.723 171.367C36.6929 171.367 36.6326 171.427 36.6025 171.457C36.5724 171.487 36.5122 171.517 36.4821 171.547C36.3316 171.667 36.1509 171.787 36.0004 171.877L36.1208 171.967ZM34.9466 171.937C34.796 171.817 34.6154 171.727 34.4648 171.607C34.4347 171.577 34.3745 171.547 34.3444 171.517C34.3143 171.517 34.2842 171.457 34.224 171.427C34.1638 171.457 34.1035 171.487 34.0433 171.517C34.0433 171.457 34.0433 171.397 34.0433 171.337L33.8627 171.127C33.8025 171.067 33.7724 171.007 33.7121 170.977L33.6218 170.917L33.4412 170.767C33.4412 170.767 33.2304 170.737 33.11 170.707C33.0498 170.707 32.9896 170.677 32.9293 170.647C32.7186 170.557 32.5379 170.467 32.3272 170.317C32.2669 170.287 32.2067 170.227 32.1766 170.197L32.0863 170.077C32.0863 170.077 32.3271 170.077 32.4175 170.107C32.5379 170.107 32.6583 170.107 32.7788 170.107C32.7487 170.077 32.6885 170.017 32.6583 169.987C32.4476 169.747 32.2368 169.507 32.0261 169.267C31.9056 169.117 31.7551 168.967 31.6347 168.786C31.5443 168.696 31.4841 168.606 31.3938 168.516L31.2433 168.456C31.2433 168.456 31.0024 168.336 30.882 168.276H30.8519V168.126C30.882 168.126 30.9422 168.096 30.9723 168.126C30.9723 168.126 31.0325 168.126 31.0626 168.096C30.9121 167.916 30.7615 167.706 30.6411 167.526C30.5809 167.436 30.4906 167.346 30.4303 167.226H30.3099L30.2497 167.196C30.1593 167.166 30.0991 167.136 30.0088 167.076L29.9787 166.896H30.1895C30.1895 166.896 30.0088 166.626 29.9185 166.506C29.8282 166.386 29.7077 166.296 29.5873 166.176L29.497 166.116C29.497 166.116 29.4367 166.056 29.4066 166.056C29.3765 166.056 29.3464 166.056 29.3163 165.996L29.0754 165.846L28.9249 165.726H28.8647C28.5937 165.576 28.3529 165.396 28.0819 165.246C28.2324 165.276 28.4131 165.306 28.5636 165.336C28.5937 165.336 28.6539 165.336 28.684 165.336C28.684 165.336 28.8647 165.336 28.9249 165.336H28.9851C29.0453 165.336 29.1056 165.336 29.1357 165.336H29.1959C29.1959 165.336 29.226 165.306 29.2561 165.276C29.2561 165.276 29.2561 165.246 29.2862 165.216C29.2862 165.216 29.3464 165.006 29.3464 164.916C29.3464 164.675 29.3765 164.435 29.4066 164.165C29.4066 164.045 29.4066 163.955 29.4066 163.835L29.5873 164.225C29.5873 164.225 29.6174 164.435 29.6475 164.555C29.6475 164.585 29.6475 164.615 29.6475 164.675C29.7077 164.916 29.7679 165.156 29.8583 165.396C29.8884 165.486 29.9185 165.576 29.9486 165.666C29.9486 165.726 30.0088 165.756 30.0088 165.816L30.069 165.906C30.069 165.906 30.1292 165.996 30.1593 166.026L30.2196 166.086L30.611 166.476H30.6411V166.356C30.7314 166.416 30.7615 166.416 30.882 166.506L30.9723 166.566C31.0325 166.626 31.1228 166.656 31.2131 166.716H31.2734C31.3336 166.716 31.3637 166.746 31.4239 166.776C31.454 166.776 31.4841 166.776 31.5443 166.776H31.6046C31.6046 166.776 31.6046 166.866 31.6046 166.896C31.6046 167.046 31.6648 167.166 31.6949 167.316C31.725 167.346 31.7852 167.376 31.8153 167.406C31.8153 167.406 31.8454 167.436 31.8755 167.466C31.996 167.586 32.1164 167.706 32.2368 167.826C32.2368 167.826 32.3272 167.826 32.3874 167.796L32.5078 168.066H32.5981H32.6885V168.126L32.7788 168.276H32.839L32.9594 168.246V168.366V168.426C32.9594 168.426 33.0197 168.486 33.0197 168.516H33.11V168.576L33.2003 168.726H33.2605H33.3508V168.786C33.3508 168.786 33.4111 168.876 33.4412 168.906L33.5014 168.967C33.5014 168.967 33.5917 168.967 33.6218 168.967V169.057C33.6218 169.057 33.6519 169.177 33.682 169.237C33.7122 169.207 33.7723 169.177 33.8025 169.147V169.267L33.8627 169.357L33.9831 169.567H34.1036L34.1638 169.807H34.224V169.897C34.224 169.897 34.2842 170.137 34.3143 170.257C34.3143 170.257 34.3143 170.317 34.3444 170.347C34.3444 170.347 34.3444 170.407 34.3745 170.437C34.4648 170.647 34.5552 170.887 34.6455 171.097C34.7358 171.307 34.8562 171.547 34.9767 171.757C35.0068 171.817 35.0369 171.877 35.0971 171.937H35.1573C35.1573 171.937 35.1573 172.027 35.1573 172.057V172.087L35.0971 172.117H35.067C35.067 172.117 34.9165 171.997 34.8563 171.967L34.9466 171.937ZM35.338 172.777C35.338 172.777 35.3681 172.627 35.3982 172.537L35.4584 172.477H35.5186C35.5186 172.477 35.5488 172.477 35.5789 172.507V172.567C35.5789 172.567 35.5789 172.717 35.5789 172.777C35.6391 173.018 35.6993 173.258 35.7896 173.468C35.8498 173.708 35.9402 173.918 36.0305 174.128C36.0305 174.128 36.0305 174.188 36.0305 174.218C36.0305 174.218 36.0305 174.278 36.0305 174.308C36.0606 174.428 36.1509 174.548 36.2111 174.638V174.728L36.1509 174.788L36.2412 174.998L36.1509 175.058L36.2111 175.298V175.388L36.3015 175.478C36.2412 175.478 36.181 175.478 36.1509 175.478C36.1509 175.538 36.2111 175.598 36.2412 175.658L36.3015 175.748C36.3015 175.748 36.2412 175.808 36.2111 175.808V175.898C36.2111 175.898 36.2111 175.988 36.2412 176.048V176.108L36.2111 176.168H36.181L36.2111 176.348V176.408V176.468C36.2111 176.498 36.2111 176.528 36.2111 176.558V176.618H36.2412L36.3316 176.708L36.2412 176.768H36.181L36.2111 176.978V177.039V177.099L36.1208 177.159L36.2111 177.429C36.2111 177.429 36.1208 177.489 36.0907 177.489C36.0907 177.669 36.0907 177.819 36.0907 177.999C36.0907 177.999 36.0907 178.059 36.0907 178.089C36.0907 178.149 36.0907 178.179 36.0606 178.239C36.1208 178.359 36.2111 178.509 36.2713 178.629C36.2713 178.659 36.3015 178.689 36.3316 178.719L36.2713 178.779C36.2713 178.779 36.2111 178.839 36.2111 178.869C36.2111 178.929 36.1509 178.959 36.1509 179.019V179.079C36.1509 179.169 36.0907 179.259 36.0907 179.349V179.469H36.0606C36.0305 179.589 36.0004 179.619 35.9703 179.739L35.9101 179.649H35.8498V180.189L35.7896 180.249C35.7896 180.309 35.7896 180.339 35.7896 180.399V180.489C35.7896 180.489 35.8197 180.579 35.8498 180.639C35.8498 180.729 35.9101 180.819 35.9402 180.909C36.0305 181.12 36.1509 181.36 36.2713 181.57C36.2713 181.6 36.3015 181.63 36.3316 181.66C36.3918 181.75 36.452 181.84 36.5122 181.93L36.6326 182.35C36.6326 182.35 36.4821 182.2 36.4219 182.11C36.2412 181.93 36.0606 181.75 35.8799 181.6C35.8197 181.54 35.7294 181.48 35.6692 181.45H35.6391C35.6391 181.45 35.609 181.45 35.5789 181.45C35.5789 181.45 35.5487 181.45 35.5186 181.45H35.4584C35.4584 181.45 35.3681 181.51 35.3079 181.57L35.2778 181.63C35.2176 181.69 35.1573 181.75 35.0971 181.81C35.0971 181.81 35.0369 181.87 35.0068 181.93C34.9165 182.05 34.796 182.2 34.7057 182.32C34.796 182.05 34.8562 181.75 34.9767 181.48V181.42L35.0369 181.24L35.1272 180.969C35.1272 180.969 35.1272 180.909 35.1573 180.879C35.1573 180.849 35.1574 180.789 35.1875 180.759V180.669C35.1875 180.669 35.2477 180.369 35.2176 180.219C35.2176 180.069 35.1875 179.919 35.1573 179.739L34.9767 179.889L34.8864 179.739C34.8864 179.739 34.9466 179.559 34.9767 179.469V179.409L35.0971 179.319C35.0971 179.199 35.0971 179.079 35.067 178.959C35.067 178.719 35.0369 178.479 35.0068 178.239C34.9767 178.239 34.9466 178.239 34.9165 178.299C34.9165 178.299 34.8261 178.359 34.796 178.389L34.7358 178.269C34.7659 178.089 34.8261 177.969 34.8864 177.849L34.9767 177.699C34.9767 177.699 34.9767 177.459 34.9767 177.339C34.9767 177.129 34.9767 176.918 34.9767 176.708C34.9767 176.378 34.9767 176.078 34.9767 175.748C34.9767 175.688 34.9767 175.628 34.9767 175.568C34.8864 175.658 34.8262 175.748 34.7358 175.808C34.6455 175.898 34.5853 175.988 34.495 176.078V175.928C34.495 175.868 34.495 175.778 34.5251 175.718C34.5853 175.508 34.6455 175.298 34.7358 175.088C34.7358 175.028 34.796 174.968 34.8262 174.938C34.8864 174.848 34.9466 174.758 35.0369 174.668L35.067 174.398V174.308C35.067 174.248 35.067 174.158 35.067 174.098V173.828C35.0369 173.768 34.9767 173.738 34.9466 173.678C35.0068 173.678 35.067 173.648 35.1272 173.618C35.1272 173.588 35.1272 173.528 35.1573 173.498C35.1573 173.438 35.1573 173.408 35.1573 173.348C35.1875 173.168 35.2477 172.957 35.2778 172.777H35.338Z" fill="#4F86D8"/>
<path fill-rule="evenodd" clip-rule="evenodd" d="M40.6655 155.875L39.2988 160.193C39.2988 160.193 39.3899 160.293 39.4202 160.426C39.4202 160.592 39.2076 160.625 39.2076 160.625C39.2076 160.625 39.1469 160.891 39.2076 160.991C39.2684 161.09 39.3291 161.123 39.3291 161.223C39.3291 161.323 39.3291 161.422 39.1165 161.555C38.6002 161.854 36.5653 161.954 35.3809 161.987C34.1964 161.987 32.7385 161.788 32.3741 161.688C32.0096 161.589 32.0096 161.456 32.0096 161.323C32.0096 161.19 32.1311 161.057 32.1311 161.057V160.791C32.1311 160.791 32.1007 160.791 32.04 160.791C31.9793 160.791 31.9185 160.725 31.8882 160.625C31.8882 160.526 32.0096 160.36 32.0096 160.36L30.5214 156.075C30.5214 156.075 30.5214 156.075 30.4911 156.075C30.3088 156.075 30.157 155.908 30.157 155.709C30.157 155.51 30.3088 155.344 30.4911 155.344C30.6733 155.344 30.8252 155.51 30.8252 155.709C30.8252 155.776 30.8251 155.842 30.7644 155.908C31.0377 156.407 31.5237 156.739 31.9489 156.905C32.3437 157.038 32.9511 157.27 32.9511 157.27C32.9511 157.27 33.103 156.772 33.1637 156.573C33.1637 156.44 33.1637 156.34 33.1334 156.207C33.0423 156.174 32.9815 156.108 32.9511 155.975C32.9208 155.809 33.0119 155.643 33.1637 155.61C33.3156 155.576 33.4675 155.676 33.4978 155.842C33.4978 155.942 33.4978 156.041 33.4371 156.108C33.4371 156.241 33.4675 156.34 33.4978 156.44C33.5282 156.506 33.589 156.573 33.6497 156.639C33.923 157.005 34.1964 157.237 34.1964 157.237C34.1964 157.237 34.409 157.038 34.7734 156.805C34.8645 156.739 34.9557 156.672 35.0164 156.606C35.2897 156.307 35.472 155.908 35.472 155.377C35.3505 155.311 35.2897 155.178 35.2897 155.045C35.2897 154.846 35.4416 154.679 35.6238 154.679C35.806 154.679 35.9579 154.846 35.9579 155.045C35.9579 155.178 35.8972 155.311 35.7757 155.377C35.7757 155.709 35.8364 155.975 35.9579 156.207C36.0186 156.307 36.1098 156.44 36.2313 156.54C36.5957 156.905 36.8691 157.038 37.0817 157.137C37.1728 157.071 37.4157 156.839 37.6587 156.44C37.6587 156.407 37.7195 156.374 37.7195 156.34C37.7195 156.241 37.7498 156.108 37.7802 155.975C37.7194 155.908 37.6891 155.809 37.6891 155.709C37.6891 155.543 37.8409 155.41 37.9928 155.443C38.1446 155.443 38.2661 155.61 38.2358 155.776C38.2358 155.875 38.175 155.975 38.0839 156.008C38.0839 156.174 38.0839 156.34 38.0839 156.473C38.1447 156.772 38.3269 157.204 38.3269 157.204C38.3269 157.204 38.4787 157.137 38.7521 157.005C39.0254 156.872 39.2077 156.805 39.3595 156.772C39.7847 156.573 40.2099 156.207 40.4833 155.709C40.4529 155.643 40.4225 155.576 40.4225 155.51C40.4225 155.311 40.544 155.144 40.7566 155.111C40.9388 155.111 41.0907 155.244 41.1211 155.477C41.1211 155.676 40.9996 155.842 40.787 155.875C40.787 155.875 40.7262 155.875 40.6959 155.875H40.6655ZM38.8432 161.124C38.8432 161.124 37.6891 160.825 35.7757 160.825C33.8623 160.825 32.5563 161.223 32.5563 161.223C32.526 161.223 32.4652 161.422 32.4956 161.456C32.5259 161.456 33.2852 161.721 34.4697 161.755C35.6542 161.755 36.8387 161.721 37.598 161.655C38.3572 161.589 38.8432 161.422 38.9039 161.389C38.9039 161.356 38.9343 161.19 38.8128 161.157L38.8432 161.124Z" fill="#4F86D8"/>
<path fill-rule="evenodd" clip-rule="evenodd" d="M26.5027 200.961C27.1795 200.961 27.9578 200.617 28.1947 200.299C28.33 200.114 28.5331 199.849 28.6346 199.638C28.7361 199.452 28.8038 199.002 28.9391 198.843V198.526L26.5027 200.961Z" fill="#4F86D8"/>
<path fill-rule="evenodd" clip-rule="evenodd" d="M42.3396 198.665C42.6529 199.729 43.175 200.961 44.7761 200.961V200.849L42.4092 198.526L42.3396 198.665Z" fill="#4F86D8"/>
<path fill-rule="evenodd" clip-rule="evenodd" d="M25.5781 202.149C26.2031 201.811 26.0928 201.535 26.4236 201.136L26.4971 200.521C26.5707 199.877 25.8355 198.986 25.6884 198.526L25.5781 198.587V202.179V202.149Z" fill="#4F86D8"/>
<path fill-rule="evenodd" clip-rule="evenodd" d="M45.6533 199.777C45.0685 200.515 44.7761 201.051 44.7761 202.191L45.5071 203.129L45.6045 203.197L45.702 203.264L45.7994 203.331L45.8969 203.398L45.9944 199.744H45.8482L45.7507 199.811L45.6533 199.777Z" fill="#4F86D8"/>
<path fill-rule="evenodd" clip-rule="evenodd" d="M26.5027 203.397C28.1963 203.397 28.3746 202.269 28.8797 201.169L28.9391 200.962L26.5027 203.397Z" fill="#4F86D8"/>
<path fill-rule="evenodd" clip-rule="evenodd" d="M45.994 204.789L46.422 205.833L46.5208 205.768L47.2122 202.179C46.6855 202.571 45.994 203.811 45.994 204.789Z" fill="#4F86D8"/>
<path fill-rule="evenodd" clip-rule="evenodd" d="M42.3396 200.992L42.399 201.142C42.9338 202.255 43.0824 203.397 44.7761 203.397L42.4287 200.962H42.3396V200.992Z" fill="#4F86D8"/>
<path fill-rule="evenodd" clip-rule="evenodd" d="M24.8414 205.8L24.9152 205.734C25.2844 205.335 25.2844 204.97 25.2844 204.239C25.2844 203.641 24.4353 202.445 24.0662 202.179L24.7675 205.833L24.8783 205.767L24.8414 205.8Z" fill="#4F86D8"/>
<path fill-rule="evenodd" clip-rule="evenodd" d="M44.7761 203.914L44.8189 204.406C44.9685 204.677 44.9471 205.022 45.2249 205.341C45.4173 205.563 45.6738 205.809 45.9944 205.833L44.7761 203.398V203.89V203.914Z" fill="#4F86D8"/>
<path fill-rule="evenodd" clip-rule="evenodd" d="M25.3062 207.051C25.6385 207.051 25.8821 206.649 26.0593 206.32C26.3251 205.882 26.3029 205.407 26.458 205.005L26.5023 203.653V203.397L25.2841 206.869V206.978L25.3062 207.051Z" fill="#4F86D8"/>
<path fill-rule="evenodd" clip-rule="evenodd" d="M46.0321 206.85L46.1463 207.051L48.4305 204.615C48.0498 204.691 47.06 205.218 46.7554 205.394C46.2224 205.745 45.994 206.147 45.994 206.825L46.0321 206.85Z" fill="#4F86D8"/>
<path fill-rule="evenodd" clip-rule="evenodd" d="M26.3454 207.051L26.424 207.002L26.5026 206.629V206.455C26.5026 205.634 24.97 204.914 24.0662 204.615L26.3454 207.026V207.051Z" fill="#4F86D8"/>
<path fill-rule="evenodd" clip-rule="evenodd" d="M44.9284 205.936L44.7761 207.745C44.8979 207.984 44.9589 208.394 45.2025 208.804C45.3852 209.077 45.6593 209.419 45.9944 209.487L45.0198 205.833L44.9284 205.901V205.936Z" fill="#4F86D8"/>
<path fill-rule="evenodd" clip-rule="evenodd" d="M26.5027 209.487C27.2032 209.316 27.2945 208.667 27.6296 208.223L27.7209 207.78L27.5687 205.901L27.4773 205.833L26.5027 209.487Z" fill="#4F86D8"/>
<path fill-rule="evenodd" clip-rule="evenodd" d="M47.1328 208.669L47.0798 208.742H47.0269L46.9739 208.815H46.9209L46.868 208.887C46.3913 209.214 46.047 209.796 45.994 210.705H46.0735L48.4305 208.269L47.1063 208.705L47.1328 208.669Z" fill="#4F86D8"/>
<path fill-rule="evenodd" clip-rule="evenodd" d="M25.2841 210.633C25.1269 209.738 24.9435 209.272 24.4196 208.914L24.3672 208.842H24.3148L24.2624 208.771H24.21L24.1576 208.699L22.8477 208.269L25.2055 210.705L25.2579 210.598L25.2841 210.633Z" fill="#4F86D8"/>
<path fill-rule="evenodd" clip-rule="evenodd" d="M27.7587 211.89C28.0251 211.727 28.2916 211.564 28.482 211.336C28.7485 211.01 28.7865 210.781 28.9388 210.553C28.9388 209.737 28.9388 208.726 28.5581 208.269L27.7206 211.923L27.7587 211.89Z" fill="#4F86D8"/>
<path fill-rule="evenodd" clip-rule="evenodd" d="M43.6292 210.553C44.0233 211.14 43.9158 211.499 44.7757 211.923L43.9875 208.269C43.8441 208.465 43.5575 209.509 43.5575 209.835V210.161C43.5575 210.357 43.5933 210.357 43.6292 210.553Z" fill="#4F86D8"/>
<path fill-rule="evenodd" clip-rule="evenodd" d="M26.4767 210.656C26.4249 210.252 25.8806 209.757 25.4399 209.689L24.8437 209.532L24.4031 209.487L24.0662 209.532C24.1698 209.644 25.0511 210.049 25.2844 210.162C25.4917 210.274 25.725 210.364 25.9324 210.476C26.062 210.544 26.4249 210.814 26.5026 210.656H26.4767Z" fill="#4F86D8"/>
<path fill-rule="evenodd" clip-rule="evenodd" d="M46.4258 209.509L45.8421 209.664C45.2076 209.797 45.0299 210.218 44.7761 210.661L44.8523 210.705L47.2126 209.553L46.8065 209.487L46.4258 209.531V209.509Z" fill="#4F86D8"/>
<path fill-rule="evenodd" clip-rule="evenodd" d="M42.3903 213.237C42.7964 213.59 42.8979 214.071 43.5578 214.359L43.4563 210.705C42.6949 211.058 42.3396 212.308 42.3396 213.237H42.3903Z" fill="#4F86D8"/>
<path fill-rule="evenodd" clip-rule="evenodd" d="M28.99 214.359C29.2945 214.232 29.4976 214.073 29.7006 213.851C29.9544 213.597 30.0559 213.279 30.1574 213.152C30.1574 212.04 29.7514 211.372 29.0407 210.705L28.9392 214.359H28.99Z" fill="#4F86D8"/>
<path fill-rule="evenodd" clip-rule="evenodd" d="M28.9046 213.083C28.5631 212.561 28.3923 212.387 27.7775 212.126L27.675 212.068L27.1626 211.981C26.9919 211.981 26.9577 211.923 26.7528 211.923H26.5137L25.8989 211.981L25.2841 212.068L28.8704 213.141L28.9387 213.083H28.9046Z" fill="#4F86D8"/>
<path fill-rule="evenodd" clip-rule="evenodd" d="M45.3172 212.008L44.7419 212.093L44.6742 212.15C44.2005 212.263 43.7944 212.745 43.5575 213.056L43.6252 213.141L47.2122 212.121L47.0768 212.036L46.5692 211.98C46.4 211.98 46.3662 211.923 46.1632 211.923H45.7232C45.5202 211.923 45.5202 211.951 45.3172 211.98V212.008Z" fill="#4F86D8"/>
<path fill-rule="evenodd" clip-rule="evenodd" d="M39.9518 214.975L40.1467 215.577L41.1213 211.934C40.902 211.767 39.9031 213.538 39.9031 214.507V214.574C39.9031 214.775 39.9274 214.775 39.9518 214.975Z" fill="#4F86D8"/>
<path fill-rule="evenodd" clip-rule="evenodd" d="M37.4948 215.41V215.577L39.9029 213.241L39.8462 213.141C39.7046 213.241 39.1946 213.341 38.9963 213.408C38.713 213.541 38.5147 213.642 38.2597 213.842C37.8914 214.175 37.4664 214.709 37.4664 215.41H37.4948Z" fill="#4F86D8"/>
<path fill-rule="evenodd" clip-rule="evenodd" d="M31.1369 215.577L31.3222 215.248L31.3752 215.017C31.3752 213.997 31.3752 213.766 31.0309 213.141C30.7926 212.746 30.4748 212.186 30.157 211.923L31.1633 215.544L31.1369 215.577Z" fill="#4F86D8"/>
<path fill-rule="evenodd" clip-rule="evenodd" d="M42.3836 214.443C41.9185 214.569 41.2208 215.073 41.1211 215.577L44.7758 214.947L44.1777 214.653L43.2807 214.359H42.6826L42.4168 214.443H42.3836Z" fill="#4F86D8"/>
<path fill-rule="evenodd" clip-rule="evenodd" d="M26.9346 214.684L26.5027 214.887C26.6024 215.171 27.9646 215.252 28.2636 215.293C28.8284 215.374 29.6258 215.577 30.1574 215.577C29.958 215.09 29.36 214.481 28.8284 214.44L28.5626 214.359H28.0642L26.9678 214.684H26.9346Z" fill="#4F86D8"/>
<path fill-rule="evenodd" clip-rule="evenodd" d="M35.03 215.34C34.944 213.919 33.6827 213.445 32.5935 213.141C32.6508 213.344 34.772 215.509 34.9726 215.577L35.03 215.34Z" fill="#4F86D8"/>
<path fill-rule="evenodd" clip-rule="evenodd" d="M29.0045 216.719L28.9392 216.795H29.0045L32.5939 216.148C32.4307 215.881 31.8434 215.577 31.4518 215.577H31.0276C30.4729 215.577 29.2329 216.376 29.0045 216.719Z" fill="#4F86D8"/>
<path fill-rule="evenodd" clip-rule="evenodd" d="M38.6843 216.13L42.339 216.795C42.1146 216.389 40.8322 215.577 40.1911 215.577H39.7743C39.3896 215.577 38.8446 215.909 38.7164 216.13H38.6843Z" fill="#4F86D8"/>
<path fill-rule="evenodd" clip-rule="evenodd" d="M31.643 216.521L31.5759 216.582L31.5089 216.643L31.4418 216.703L31.3748 216.795L35.0294 215.973C34.8283 215.729 34.1577 215.577 33.6883 215.577C33.0512 215.577 31.8442 216.216 31.6095 216.551L31.643 216.521Z" fill="#4F86D8"/>
<path fill-rule="evenodd" clip-rule="evenodd" d="M36.281 216.003L39.8361 216.795H39.9025L39.7696 216.673L39.7032 216.612L39.6367 216.551C39.4041 216.216 38.2081 215.577 37.5768 215.577C37.1116 215.577 36.4471 215.759 36.2478 215.973L36.281 216.003Z" fill="#4F86D8"/>
<path fill-rule="evenodd" clip-rule="evenodd" d="M26.5027 200.961H26.6001L28.9391 198.526C28.4194 198.631 27.5422 199.082 27.2174 199.32C26.6326 199.77 26.5027 200.035 26.5027 200.935V200.961Z" fill="#4F86D8"/>
<path fill-rule="evenodd" clip-rule="evenodd" d="M42.4029 198.761V198.814L42.4662 198.683L44.5862 200.857V200.961H44.7761C44.7761 199.992 44.6495 199.835 44.0483 199.337C43.5736 198.945 42.9724 198.761 42.3396 198.526L42.4029 198.787V198.761Z" fill="#4F86D8"/>
<path fill-rule="evenodd" clip-rule="evenodd" d="M46.2309 198.707H46.3324L46.2647 201.998L46.4339 202.179L47.0769 201.334L47.1446 201.123L47.2122 200.67V200.579C47.2122 199.703 46.6031 199.069 46.4339 198.526H46.3324L46.2647 198.737L46.2309 198.707Z" fill="#4F86D8"/>
<path fill-rule="evenodd" clip-rule="evenodd" d="M25.2841 201.086C25.2841 201.086 25.4429 201.43 25.6018 201.586C25.7078 201.711 25.9197 201.867 26.0786 201.992L26.1845 202.055L26.2905 202.117L26.3964 202.179H26.5023V198.526C26.0785 198.9 25.2841 199.993 25.2841 200.618V200.774C25.2841 200.962 25.337 200.962 25.39 201.149L25.2841 201.086Z" fill="#4F86D8"/>
<path fill-rule="evenodd" clip-rule="evenodd" d="M28.1079 201.198L28.0506 201.256H27.9932L27.9359 201.314C27.162 201.487 26.5027 202.356 26.5027 203.397H26.5887L28.9391 201.024C28.8532 200.822 28.2799 201.169 28.0792 201.227L28.1079 201.198Z" fill="#4F86D8"/>
<path fill-rule="evenodd" clip-rule="evenodd" d="M24.0974 204.573C24.3473 204.951 24.5659 205.707 25.1594 205.833L25.2219 205.676L25.1282 205.739L24.5347 202.274L24.3785 202.179C24.3473 202.683 24.0662 203.187 24.0662 203.849V204.006L24.1286 204.573H24.0974Z" fill="#4F86D8"/>
<path fill-rule="evenodd" clip-rule="evenodd" d="M42.3956 201.132H42.4796L44.692 203.397H44.7761C44.7761 202.434 44.1879 201.585 43.4598 201.415L43.4038 201.358H43.3478L43.2918 201.301H43.2358L43.1798 201.245L42.3396 200.962V201.103L42.3956 201.132Z" fill="#4F86D8"/>
<path fill-rule="evenodd" clip-rule="evenodd" d="M45.994 205.74L46.0928 205.833C46.9488 205.307 46.6854 205.214 47.1464 204.533L47.2122 204.068V203.852C47.2122 203.17 46.9159 202.706 46.883 202.179L46.7842 202.241L46.0928 205.648L45.994 205.709V205.74Z" fill="#4F86D8"/>
<path fill-rule="evenodd" clip-rule="evenodd" d="M44.7761 203.573L46.9461 207.051H47.0603L47.1365 206.876C47.1365 206.7 47.2126 206.665 47.2126 206.454V206.208C47.2126 205.189 46.1847 204.171 45.4233 203.784L44.8142 203.398V203.573H44.7761Z" fill="#4F86D8"/>
<path fill-rule="evenodd" clip-rule="evenodd" d="M26.9972 203.723C26.312 204.157 25.3602 204.917 25.2841 205.894L25.3602 207.051L25.6267 206.979V206.87L27.6444 203.434V203.687L27.7205 203.397L27.0353 203.759L26.9972 203.723Z" fill="#4F86D8"/>
<path fill-rule="evenodd" clip-rule="evenodd" d="M45.994 208.154C46.1874 208.583 47.3863 207.689 47.541 207.546C48.1211 206.903 48.0051 206.402 48.3145 205.938L48.4305 204.615L48.3145 204.687L45.994 208.154Z" fill="#4F86D8"/>
<path fill-rule="evenodd" clip-rule="evenodd" d="M22.9619 205.915C23.2283 206.302 23.1903 206.934 23.7233 207.461C24.3324 208.058 24.5227 207.953 25.2841 208.269V208.094L23.0761 204.686L22.8477 204.615L22.9999 205.915H22.9619Z" fill="#4F86D8"/>
<path fill-rule="evenodd" clip-rule="evenodd" d="M27.2803 206.314L27.2284 206.378C26.736 207.275 26.5027 207.275 26.5027 208.846L26.8137 209.487L27.6431 206.057L27.7209 206.122V205.833L27.2803 206.346V206.314Z" fill="#4F86D8"/>
<path fill-rule="evenodd" clip-rule="evenodd" d="M22.9733 208.631C23.4003 209.685 23.8524 210.705 25.0832 210.705C25.2088 210.705 25.2088 210.705 25.2841 210.639V210.409L25.2339 210.508L22.9733 208.269H22.8477V208.335L22.9733 208.598V208.631Z" fill="#4F86D8"/>
<path fill-rule="evenodd" clip-rule="evenodd" d="M44.8258 206.151L44.9004 206.087L45.696 209.487L45.9944 208.852C45.9944 207.39 45.7706 207.326 45.3231 206.469L45.2734 206.405L45.2236 206.342L45.1739 206.278L45.1242 206.214L45.0745 206.151L45.0247 206.087L44.7761 205.833V206.087L44.8258 206.151Z" fill="#4F86D8"/>
<path fill-rule="evenodd" clip-rule="evenodd" d="M45.994 210.538C45.994 210.538 46.2201 210.705 46.3708 210.705C47.3755 210.705 47.9532 209.47 48.3049 208.603L48.4305 208.336V208.269H48.3049L46.0694 210.538H45.994Z" fill="#4F86D8"/>
<path fill-rule="evenodd" clip-rule="evenodd" d="M26.5027 211.002L26.9194 211.923L27.0156 211.862L27.7209 208.423V208.269C27.4965 208.331 26.9836 209.129 26.8553 209.375C26.5989 209.835 26.5027 210.265 26.5027 210.971V211.002Z" fill="#4F86D8"/>
<path fill-rule="evenodd" clip-rule="evenodd" d="M24.2036 209.719C24.925 210.647 25.4403 211.923 26.9518 211.923H27.0205C27.2954 211.923 27.3297 211.807 27.6046 211.807C27.7763 211.729 27.742 211.691 27.6046 211.498C27.5015 211.768 27.0205 211.304 26.8488 211.188C26.6083 210.995 26.2648 210.84 25.99 210.647C25.7151 210.454 24.5128 209.758 24.3754 209.564L24.8219 209.487H24.0662L24.1692 209.758L24.2036 209.719Z" fill="#4F86D8"/>
<path fill-rule="evenodd" clip-rule="evenodd" d="M43.5887 208.395L44.276 211.923H44.3697L44.7757 210.884C44.7757 210.254 44.6508 209.75 44.4009 209.372C44.2447 209.12 43.8074 208.364 43.5575 208.269V208.427L43.5887 208.395Z" fill="#4F86D8"/>
<path fill-rule="evenodd" clip-rule="evenodd" d="M44.8116 211.524V211.793L45.6277 211.909C46.1599 212.024 47.0115 211.409 47.2599 211.14C47.7566 210.64 47.9341 210.256 48.3244 209.756L48.4308 209.487H47.6147L48.1824 209.602L44.8826 211.601L44.7761 211.524H44.8116Z" fill="#4F86D8"/>
<path fill-rule="evenodd" clip-rule="evenodd" d="M27.7206 212.075C28.2079 212.502 27.9642 212.776 28.8413 213.141L28.9388 209.639L28.8413 209.487C28.1104 209.822 27.7206 211.192 27.7206 212.075Z" fill="#4F86D8"/>
<path fill-rule="evenodd" clip-rule="evenodd" d="M25.4444 211.923H25.2841V211.972L25.3482 212.021L25.4123 212.069L25.4764 212.118C26.2458 212.508 26.5343 213.141 28.009 213.141C28.4258 213.141 28.5541 213.019 28.8746 212.971L28.9387 212.922V212.8L28.8746 212.849L25.5085 211.947L25.4444 211.923Z" fill="#4F86D8"/>
<path fill-rule="evenodd" clip-rule="evenodd" d="M43.5575 212.776V212.946C43.7859 213.068 44.1122 213.141 44.4712 213.141H44.6996C45.6132 213.141 46.8206 212.386 47.2122 211.972L46.9511 211.923L47.0817 211.996L43.6228 212.873L43.5575 212.8V212.776Z" fill="#4F86D8"/>
<path fill-rule="evenodd" clip-rule="evenodd" d="M42.3396 209.67L42.4371 213.141C43.3142 212.775 43.1193 212.501 43.5578 212.075C43.5578 211.192 43.1193 209.822 42.4371 209.487L42.3396 209.7V209.67Z" fill="#4F86D8"/>
<path fill-rule="evenodd" clip-rule="evenodd" d="M30.1724 213.863C30.3682 214.187 30.2563 214.51 30.592 214.93C30.7878 215.189 31.0675 215.512 31.3752 215.577V215.48L30.3123 211.923C30.0885 212.279 30.1724 213.281 30.1724 213.863Z" fill="#4F86D8"/>
<path fill-rule="evenodd" clip-rule="evenodd" d="M39.9031 215.478V215.577C40.2714 215.478 40.4697 215.182 40.6963 214.918C41.008 214.523 40.9513 214.161 41.1213 213.832L41.0363 211.923L39.9031 215.511V215.478Z" fill="#4F86D8"/>
<path fill-rule="evenodd" clip-rule="evenodd" d="M41.2132 214.881L41.1211 214.95L41.1825 215.055C41.4589 215.264 41.8275 215.577 42.2574 215.577H42.6567C43.3323 215.577 44.223 214.846 44.6529 214.533L44.7758 214.428L44.6222 214.359L41.2439 214.881H41.2132Z" fill="#4F86D8"/>
<path fill-rule="evenodd" clip-rule="evenodd" d="M26.5964 214.533C27.0962 214.881 27.9083 215.577 28.6892 215.577H28.9079C29.5326 215.577 29.7825 215.333 30.1574 215.055V214.951C29.6576 214.951 28.9391 214.777 28.3769 214.707C28.0958 214.707 26.7838 214.603 26.7213 214.359H26.5027L26.5964 214.533Z" fill="#4F86D8"/>
<path fill-rule="evenodd" clip-rule="evenodd" d="M31.4289 213.394C31.6455 213.679 31.835 214.406 32.1598 214.817C32.4847 215.229 32.8096 215.577 33.4593 215.577H33.8112V215.197L33.7571 215.418C33.5676 215.355 31.5372 213.331 31.5101 213.141H31.3748L31.4289 213.394Z" fill="#4F86D8"/>
<path fill-rule="evenodd" clip-rule="evenodd" d="M37.4664 215.482V215.577H37.9216C38.5106 215.577 38.8319 215.166 39.1532 214.786C39.5013 214.375 39.6352 213.71 39.8494 213.394L39.9029 213.141H39.7155L39.769 213.236L37.4932 215.45L37.4664 215.482Z" fill="#4F86D8"/>
<path fill-rule="evenodd" clip-rule="evenodd" d="M29.0928 216.148L28.9392 216.338L29.1542 216.414C29.3999 216.566 30.1063 216.795 30.4748 216.795H31.089C31.7033 216.795 32.1639 216.262 32.471 215.843L32.5939 215.653L32.471 215.577L29.0928 216.262H29.0313L29.0928 216.148Z" fill="#4F86D8"/>
<path fill-rule="evenodd" clip-rule="evenodd" d="M38.6843 215.688C39.1841 216.093 39.3403 216.795 40.4648 216.795C40.9334 216.795 41.8705 216.536 42.1828 216.352L42.339 216.241L38.778 215.577L38.6843 215.688Z" fill="#4F86D8"/>
<path fill-rule="evenodd" clip-rule="evenodd" d="M36.3423 216.795H36.2478L36.3423 217.066C36.7204 217.37 37.0669 218.013 37.8546 218.013H38.7053C39.0203 218.013 39.4929 217.844 39.745 217.776H39.9025L39.6505 217.506L39.7765 217.641H39.7135L36.3423 216.795Z" fill="#4F86D8"/>
<path fill-rule="evenodd" clip-rule="evenodd" d="M31.6225 217.539L31.3748 217.742H31.5606L32.7995 218.013H33.2021C34.3171 218.013 34.41 217.438 34.9056 217.066L35.0294 216.795H34.9056L31.5296 217.675L31.5916 217.573L31.6225 217.539Z" fill="#4F86D8"/>
<path fill-rule="evenodd" clip-rule="evenodd" d="M35.639 216.795C35.9639 216.795 36.2481 216.511 36.2481 216.186C36.2481 215.861 35.9639 215.577 35.639 215.577C35.3141 215.577 35.0299 215.861 35.0299 216.186C35.0299 216.511 35.3141 216.795 35.639 216.795Z" fill="#4F86D8"/>
<path fill-rule="evenodd" clip-rule="evenodd" d="M35.6391 190.164L7.4327 202.541V206.125H-0.086937V202.694C-9.93921 204.685 -22.7687 208.117 -33.6338 213.509C-40.8772 217.093 -47.2612 221.566 -51.1899 227.05H-44.1306V230.727H-4.87498V241.787C-31.3625 241.787 -60.6738 243.288 -86.7931 241.48V190.164H-70.7102V192.584L10.5326 161.365V161.089H7.30993V156.157L35.6391 143.718L63.9989 156.157V161.089H60.7455V161.365L141.988 192.584V190.164H158.071V241.48C131.921 243.288 102.641 241.787 76.1531 241.787V230.727H115.409V227.05H122.468C118.539 221.597 112.186 217.124 104.912 213.509C94.0775 208.147 81.2173 204.685 71.3651 202.694V206.125H63.8454V202.541L35.6391 190.164ZM5.71393 200.641L35.6391 187.498C45.8596 191.971 56.0802 196.475 66.3008 200.948V203.705H68.9404V199.753L70.4136 200.029C80.6035 202.02 94.3844 205.574 106.017 211.334C114.457 215.531 121.762 220.862 125.813 227.663L126.918 229.501H117.895V233.178H78.6391V239.366H153.559L155.646 239.213V192.645H144.474V196.168L58.3208 163.08V158.699H61.5742V157.811L35.6697 146.445L9.76534 157.811V158.699H12.988V163.08L-73.1657 196.168V192.645H-84.3377V239.213L-82.2506 239.366H-7.33035V233.178H-46.586V229.501H-55.6096L-54.5046 227.663C-50.4839 220.892 -43.1791 215.531 -34.708 211.334C-23.0756 205.574 -9.26398 201.989 0.895218 200.029L2.36844 199.753V203.705H5.008V200.948L5.74461 200.641H5.71393Z" fill="#4F86D8"/>
<path fill-rule="evenodd" clip-rule="evenodd" d="M11.865 305.646H-106.266V309.418H11.865V305.646ZM-107.493 303.269H14.3203V311.795H-108.721V303.269H-107.493Z" fill="#4F86D8"/>
<path fill-rule="evenodd" clip-rule="evenodd" d="M-6.3407 228.974H13.4983L15.6305 230.472H55.6794L57.8116 228.974H78.8867V355.641H-7.60767V228.974H-6.37161H-6.3407ZM12.7258 231.42H-5.10462V353.196H76.4454V231.42H58.6151L56.4828 232.917H14.8889L12.7567 231.42H12.7258Z" fill="#4F86D8"/>
<path fill-rule="evenodd" clip-rule="evenodd" d="M-0.248918 228.974H15.5383V355.641H-1.51697V228.974H-0.248918ZM13.0022 231.42H1.01913V353.196H13.0022V231.42Z" fill="#4F86D8"/>
<path fill-rule="evenodd" clip-rule="evenodd" d="M1.01913 218.05H13.0022V206.984H1.01913V218.05ZM14.2702 220.449H-1.51697V204.615H15.5383V220.449H14.2702Z" fill="#4F86D8"/>
<path fill-rule="evenodd" clip-rule="evenodd" d="M1.01913 211.892H13.0022V207.051H1.01913V211.892ZM14.2702 214.359H-1.51697V204.615H15.5383V214.359H14.2702Z" fill="#4F86D8"/>
<path fill-rule="evenodd" clip-rule="evenodd" d="M-11.7381 218.013H22.7988V220.342H48.4485V218.013H84.9773L78.0515 232.304H58.3775L56.263 233.846H15.015L12.9004 232.304H-6.77358L-13.6993 218.013H-11.7381ZM20.3472 220.531H-9.7768L-5.30264 229.817H13.6359L15.7504 231.359H55.4662L57.5807 229.817H76.5193L81.0241 220.531H50.9001V222.86H20.3778V220.531H20.3472Z" fill="#4F86D8"/>
<path fill-rule="evenodd" clip-rule="evenodd" d="M15.5992 270.385V262.773C15.5992 257.158 17.8702 252.042 21.4914 248.361C25.1433 244.649 30.1455 242.372 35.6693 242.372C41.1932 242.372 46.2261 244.68 49.8473 248.361C53.4992 252.073 55.7394 257.158 55.7394 262.773V270.385H53.2844V262.773C53.2844 257.844 51.2896 253.352 48.0981 250.108C44.9065 246.864 40.4874 244.836 35.6387 244.836C30.7899 244.836 26.3708 246.864 23.1792 250.108C19.9877 253.352 17.9929 257.844 17.9929 262.773V270.385H15.5378H15.5992Z" fill="#4F86D8"/>
<path fill-rule="evenodd" clip-rule="evenodd" d="M21.6847 294.735H49.5621V262.16C49.5621 258.402 48.0047 254.979 45.4506 252.504C42.9276 250.029 39.439 248.47 35.6078 248.47C31.7767 248.47 28.2881 249.998 25.7651 252.504C23.2421 254.979 21.6536 258.402 21.6536 262.16V294.735H21.6847ZM50.808 297.179H19.1929V262.16C19.1929 257.729 21.0306 253.696 24.0208 250.762C26.9799 247.829 31.0914 246.026 35.639 246.026C40.1866 246.026 44.267 247.829 47.2572 250.762C50.2474 253.696 52.0851 257.699 52.0851 262.16V297.179H50.8392H50.808Z" fill="#4F86D8"/>
<path fill-rule="evenodd" clip-rule="evenodd" d="M28.9087 294.747H42.3397V263.673C42.3397 261.818 41.5783 260.146 40.3601 258.93C39.1418 257.714 37.4668 256.953 35.609 256.953C33.7512 256.953 32.0761 257.714 30.8579 258.93C29.6396 260.146 28.8782 261.818 28.8782 263.673V294.747H28.9087ZM43.5579 297.18H26.5027V263.673C26.5027 261.18 27.5382 258.899 29.1828 257.227C30.8579 255.585 33.142 254.551 35.6394 254.551C38.1368 254.551 40.4514 255.585 42.096 257.227C43.7407 258.869 44.7761 261.18 44.7761 263.673V297.18H43.5579Z" fill="#4F86D8"/>
<path d="M50.8666 265.513H20.4109V267.949H50.8666V265.513Z" fill="#4F86D8"/>
<path d="M37.4664 247.244H35.0299V255.769H37.4664V247.244Z" fill="#4F86D8"/>
<path fill-rule="evenodd" clip-rule="evenodd" d="M48.4307 255.653L40.9386 259.423L39.9031 257.103L47.3952 253.333L48.4307 255.653Z" fill="#4F86D8"/>
<path fill-rule="evenodd" clip-rule="evenodd" d="M23.902 253.333L31.3753 257.066L30.321 259.423L22.8477 255.691L23.902 253.333Z" fill="#4F86D8"/>
<path fill-rule="evenodd" clip-rule="evenodd" d="M18.6077 236.282C20.5206 238.506 23.0815 240.355 26.0435 241.608C28.9129 242.83 32.1834 243.519 35.639 243.519C39.0947 243.519 42.3652 242.83 45.2346 241.608C48.1966 240.324 50.7574 238.506 52.6704 236.282L54.5216 237.911C52.3618 240.418 49.5233 242.485 46.1911 243.895C43.0131 245.242 39.4341 246.026 35.639 246.026C31.844 246.026 28.265 245.242 25.087 243.895C21.7856 242.485 18.9162 240.418 16.7565 237.911L18.6077 236.282Z" fill="#4F86D8"/>
<path fill-rule="evenodd" clip-rule="evenodd" d="M267.705 204.678H251.882V216.764H267.705V204.678ZM250.66 202.179H270.148V219.231H249.438V202.179H250.66Z" fill="#4F86D8"/>
<path fill-rule="evenodd" clip-rule="evenodd" d="M195.829 204.678H180.007V216.763H195.829V204.678ZM178.785 202.179H198.273V219.231H177.563V202.179H178.785Z" fill="#4F86D8"/>
<path fill-rule="evenodd" clip-rule="evenodd" d="M245.759 297.179H201.927V263.657C201.927 257.48 204.477 251.831 208.549 247.765C212.621 243.699 218.279 241.154 224.465 241.154C230.651 241.154 236.308 243.699 240.381 247.765C244.453 251.831 247.002 257.48 247.002 263.657V297.179H245.759ZM204.414 294.696H244.515V263.657C244.515 258.163 242.246 253.135 238.64 249.503C235.034 245.872 229.998 243.606 224.496 243.606C218.994 243.606 213.958 245.872 210.321 249.503C206.684 253.135 204.445 258.132 204.445 263.657V294.696H204.414Z" fill="#4F86D8"/>
<path fill-rule="evenodd" clip-rule="evenodd" d="M234.865 295.961H211.674V265.647C211.674 262.242 213.057 259.171 215.253 256.951C217.449 254.732 220.517 253.333 223.856 253.333C227.195 253.333 230.263 254.732 232.459 256.951C234.655 259.171 236.038 262.272 236.038 265.647V295.961H234.835H234.865ZM214.08 293.529H233.662V265.647C233.662 262.911 232.549 260.448 230.774 258.654C229 256.86 226.563 255.735 223.856 255.735C221.149 255.735 218.712 256.86 216.938 258.654C215.163 260.448 214.05 262.911 214.05 265.647V293.529H214.08Z" fill="#4F86D8"/>
<path d="M245.783 263.077H203.145V265.513H245.783V263.077Z" fill="#4F86D8"/>
<path d="M225.074 242.372H222.637V254.551H225.074V242.372Z" fill="#4F86D8"/>
<path d="M238.279 246.884L229.947 255.769L231.726 257.433L240.059 248.548L238.279 246.884Z" fill="#4F86D8"/>
<path fill-rule="evenodd" clip-rule="evenodd" d="M210.998 247.244L218.983 255.421L217.222 256.987L209.237 248.838L210.998 247.244Z" fill="#4F86D8"/>
<path fill-rule="evenodd" clip-rule="evenodd" d="M199.491 261.828C199.491 254.821 202.378 248.435 207.004 243.785C211.63 239.165 218.026 236.282 225.074 236.282C232.122 236.282 238.486 239.165 243.143 243.785C247.769 248.404 250.657 254.79 250.657 261.828H248.173C248.173 255.503 245.565 249.737 241.405 245.552C237.244 241.366 231.438 238.793 225.105 238.793C218.771 238.793 212.996 241.397 208.805 245.583C204.614 249.768 202.037 255.534 202.037 261.859H199.553L199.491 261.828Z" fill="#4F86D8"/>
<path fill-rule="evenodd" clip-rule="evenodd" d="M247.248 263.017H246.728V265.572H247.248V263.017ZM245.633 260.641H249.438V267.948H244.565V260.641H245.66H245.633Z" fill="#4F86D8"/>
<path fill-rule="evenodd" clip-rule="evenodd" d="M202.201 263.017H201.681V265.572H202.201V263.017ZM200.586 260.641H204.364V267.949H199.491V260.641H200.586Z" fill="#4F86D8"/>
<path fill-rule="evenodd" clip-rule="evenodd" d="M228.758 231.41H248.22V246.026H246.262L245.93 245.336C244.304 241.886 241.863 239.032 238.881 237.056C236.019 235.143 232.615 234.013 228.969 233.919H228.728V231.41H228.758ZM245.81 233.919H238.459C239.031 234.233 239.604 234.578 240.176 234.954C242.345 236.397 244.243 238.216 245.84 240.38V233.919H245.81Z" fill="#4F86D8"/>
<path fill-rule="evenodd" clip-rule="evenodd" d="M200.698 231.41H218.983V233.85H218.771C215.09 233.942 211.711 235.04 208.845 236.87C205.857 238.791 203.413 241.566 201.784 244.952L199.491 249.679V231.41H200.698ZM209.267 233.85H201.905V240.133C203.474 238.029 205.375 236.26 207.547 234.857C208.09 234.491 208.664 234.186 209.237 233.881L209.267 233.85Z" fill="#4F86D8"/>
<path fill-rule="evenodd" clip-rule="evenodd" d="M244.515 311.828H204.414V347.112H244.515V311.828ZM203.171 309.359H247.002V349.551H201.927V309.359H203.171Z" fill="#4F86D8"/>
<path fill-rule="evenodd" clip-rule="evenodd" d="M169.022 311.829H132.501V347.113H169.022V311.829ZM131.276 309.359H171.471V349.551H130.052V309.359H131.276Z" fill="#4F86D8"/>
<path fill-rule="evenodd" clip-rule="evenodd" d="M115.42 311.828H78.8988V347.112H115.42V311.828ZM77.6742 309.359H117.87V349.551H76.4497V309.359H77.6742Z" fill="#4F86D8"/>
<path fill-rule="evenodd" clip-rule="evenodd" d="M283.882 219.227H178.154L179.605 222.949H282.554V221.868C282.554 221.628 282.616 221.418 282.739 221.238L283.882 219.227ZM176.362 216.825H285.982C286.168 216.825 286.384 216.885 286.569 216.975C287.156 217.305 287.372 218.026 287.063 218.596L285.025 222.169V224.12C285.025 224.78 284.469 225.321 283.789 225.321H178.741C178.246 225.321 177.783 225.02 177.598 224.54L175.25 218.506C175.188 218.356 175.127 218.176 175.127 217.996C175.127 217.335 175.683 216.795 176.362 216.795V216.825Z" fill="#4F86D8"/>
<path fill-rule="evenodd" clip-rule="evenodd" d="M267.696 305.646H180.016V309.418H267.696V305.646ZM178.79 303.269H270.149V311.795H177.563V303.269H178.79Z" fill="#4F86D8"/>
<path fill-rule="evenodd" clip-rule="evenodd" d="M170.229 260.656H132.543V295.947H170.229V260.656ZM131.297 258.205H172.69V298.398H130.052V258.205H131.297Z" fill="#4F86D8"/>
<path fill-rule="evenodd" clip-rule="evenodd" d="M115.431 260.656H78.888V295.947H115.431V260.656ZM77.6688 258.205H117.87V298.397H76.4497V258.205H77.6688Z" fill="#4F86D8"/>
<path d="M250.657 205.833H197.055V208.269H250.657V205.833Z" fill="#4F86D8"/>
<path fill-rule="evenodd" clip-rule="evenodd" d="M268.916 207.051C271.355 207.051 273.914 207.48 276.413 208.337C278.762 209.133 281.02 210.327 283.067 211.95L283.549 212.317V219.512H267.742V207.051H268.946H268.916ZM275.63 210.633C273.794 209.99 271.927 209.623 270.121 209.531V217.063H281.11V213.511C279.424 212.256 277.557 211.307 275.63 210.664V210.633ZM283.519 224.503V356.859H267.712V223.278H283.519V224.503ZM281.11 354.41V225.727H270.121V354.41H281.11Z" fill="#4F86D8"/>
<path fill-rule="evenodd" clip-rule="evenodd" d="M268.919 303.269C271.181 303.269 273.443 303.269 275.706 303.423C277.968 303.546 280.231 303.73 282.493 304.038L283.549 304.161V313.013L282.161 312.798C279.959 312.459 277.757 312.275 275.585 312.183C273.443 312.091 271.181 312.06 268.919 312.06H267.712V303.269H268.919ZM275.585 305.851C273.745 305.759 271.935 305.697 270.125 305.697V309.601C271.935 309.601 273.775 309.632 275.676 309.724C277.486 309.816 279.326 309.939 281.136 310.185V306.312C279.296 306.097 277.425 305.943 275.555 305.851H275.585Z" fill="#4F86D8"/>
<path fill-rule="evenodd" clip-rule="evenodd" d="M58.1854 303.269H179.999V311.795H56.9578V303.269H58.1854ZM177.544 305.646H59.4131V309.418H177.544V305.646Z" fill="#4F86D8"/>
<path fill-rule="evenodd" clip-rule="evenodd" d="M77.6755 239.936H179.999V356.859C145.493 356.859 110.956 356.859 76.4497 356.859V239.936H77.6755ZM167.588 242.395H78.9013V354.399H177.578V242.395H167.588Z" fill="#4F86D8"/>
<path d="M178.781 231.41H131.27V233.846H178.781V231.41Z" fill="#4F86D8"/>
<path fill-rule="evenodd" clip-rule="evenodd" d="M71.4769 231.42H59.4939V353.196H71.4769V231.42ZM58.2258 228.974H74.013V355.641H56.9578V228.974H58.2258Z" fill="#4F86D8"/>
<path fill-rule="evenodd" clip-rule="evenodd" d="M72.7449 220.449H56.9578V204.615H74.013V220.449H72.7449ZM59.4939 218.05H71.4769V206.984H59.4939V218.05Z" fill="#4F86D8"/>
<path fill-rule="evenodd" clip-rule="evenodd" d="M72.7449 214.359H56.9578V204.615H74.013V214.359H72.7449ZM59.4939 211.892H71.4769V207.051H59.4939V211.892Z" fill="#4F86D8"/>
<path fill-rule="evenodd" clip-rule="evenodd" d="M64.2044 203.529V202.382L36.1875 190.19L8.17065 202.382V203.529H15.152V217.049H23.4138V219.282H36.157H48.9003V217.049H57.162V203.529H64.1434H64.2044ZM66.6433 201.597V205.913H59.6619V219.433H51.4001V221.667H36.218H21.0358V219.433H12.7741V205.913H5.79272V200.813C15.9446 196.407 26.0966 191.97 36.2485 187.564C46.4004 191.97 56.5523 196.407 66.7042 200.813V201.597H66.6433Z" fill="#4F86D8"/>
<path fill-rule="evenodd" clip-rule="evenodd" d="M267.696 311.825H180.016V354.393H267.696V311.825ZM178.79 309.359H270.149V356.859H177.563V309.359H178.79Z" fill="#4F86D8"/>
<path d="M180 224.103H177.563V241.154H180V224.103Z" fill="#4F86D8"/>
<path fill-rule="evenodd" clip-rule="evenodd" d="M129.952 230.187H117.969V239.971H129.952V230.187ZM116.701 227.756H132.489V242.372H115.433V227.756H116.701Z" fill="#4F86D8"/>
<path fill-rule="evenodd" clip-rule="evenodd" d="M177.578 242.322H78.9013V244.857H177.578V242.322ZM77.6755 239.936H179.999V247.243H76.4497V239.936H77.6755Z" fill="#4F86D8"/>
<path fill-rule="evenodd" clip-rule="evenodd" d="M56.9248 298.424H14.3533V312.986H56.9248V298.424ZM13.1184 295.961H59.3945V315.449H11.8835V295.961H13.1184Z" fill="#4F86D8"/>
<path fill-rule="evenodd" clip-rule="evenodd" d="M49.6666 321.542H21.6114V354.419H49.6666V321.542ZM20.4021 319.103H52.0851V356.859H19.1929V319.103H20.4021Z" fill="#4F86D8"/>
<path fill-rule="evenodd" clip-rule="evenodd" d="M143.443 191.218H158.071V242.372H142.234V191.218H143.443ZM155.653 193.658H144.652V239.962H155.653V193.658Z" fill="#4F86D8"/>
<path fill-rule="evenodd" clip-rule="evenodd" d="M151.041 191.187C151.102 190.718 151.226 190.25 151.443 189.782C151.814 188.938 152.402 188.158 153.237 187.439C154.32 186.471 155.712 186.034 156.888 185.659L157.105 185.597H156.95C155.186 185.253 152.619 185.16 150.855 185.16C149.091 185.16 146.493 185.253 144.76 185.566H144.605L144.822 185.628C145.998 186.003 147.359 186.44 148.473 187.408C149.277 188.126 149.896 188.907 150.267 189.75C150.484 190.188 150.607 190.656 150.669 191.156H151.133L151.041 191.187ZM153.701 190.812C153.485 191.281 153.423 191.749 153.485 192.249L153.67 193.654H147.916L148.101 192.249C148.163 191.749 148.101 191.249 147.885 190.812C147.668 190.312 147.266 189.813 146.74 189.344C146.059 188.72 144.915 188.376 143.986 188.064C142.347 187.533 141.016 187.127 141.016 185.534C141.016 184.223 142.347 183.504 144.234 183.161C146.214 182.786 148.937 182.693 150.762 182.693C152.588 182.693 155.341 182.786 157.29 183.161C159.178 183.504 160.508 184.223 160.508 185.534C160.508 187.127 159.178 187.533 157.538 188.064C156.579 188.376 155.465 188.72 154.784 189.344C154.227 189.813 153.856 190.312 153.64 190.812H153.701ZM157.538 185.597C157.878 185.597 158.126 185.691 158.126 185.534C158.126 185.378 157.909 185.534 157.538 185.597ZM144.11 185.597C143.739 185.534 143.522 185.378 143.522 185.534C143.522 185.691 143.77 185.628 144.11 185.597Z" fill="#4F86D8"/>
<path d="M37.4664 320.32H35.0299V355.641H37.4664V320.32Z" fill="#4F86D8"/>
<path d="M131.27 252.115H116.651V254.551H131.27V252.115Z" fill="#4F86D8"/>
<path fill-rule="evenodd" clip-rule="evenodd" d="M36.2481 199.774C37.9368 199.774 39.4445 200.467 40.5602 201.552C41.6457 202.638 42.3393 204.175 42.3393 205.863C42.3393 207.552 41.6457 209.059 40.5602 210.144C39.4445 211.26 37.9368 211.923 36.2481 211.923C34.5595 211.923 33.0518 211.23 31.9361 210.144C30.8204 209.029 30.157 207.522 30.157 205.833C30.157 204.145 30.8505 202.638 31.9361 201.522C33.0216 200.407 34.5595 199.744 36.2481 199.744V199.774ZM38.8414 203.271C38.178 202.608 37.2432 202.185 36.2481 202.185C35.2531 202.185 34.3183 202.608 33.6549 203.271C32.9915 203.934 32.5693 204.838 32.5693 205.863C32.5693 206.888 32.9915 207.793 33.6549 208.456C34.3183 209.119 35.2229 209.541 36.2481 209.541C37.2734 209.541 38.178 209.119 38.8414 208.456C39.5048 207.793 39.9269 206.858 39.9269 205.863C39.9269 204.869 39.5048 203.934 38.8414 203.271Z" fill="#4F86D8"/>
<path d="M968.194 354.423H-261V356.859H968.194V354.423Z" fill="#4F86D8"/>
<path d="M1077.84 376.346H335.933V378.782H1077.84V376.346Z" fill="#4F86D8"/>
<path d="M44.7761 376.346H-173.287V378.782H44.7761V376.346Z" fill="#4F86D8"/>
</g>
<defs>
<clipPath id="clip0_593_31803">
<rect width="1831" height="380" fill="white" transform="translate(-261)"/>
</clipPath>
</defs>
</svg>
