<?xml version="1.0" encoding="utf-8"?><svg viewBox="0 0 1920 362" xmlns="http://www.w3.org/2000/svg" xmlns:xlink="http://www.w3.org/1999/xlink"><style>:root>svg{display:none}:root>svg:target{display:block}</style><svg fill="none" viewBox="0 0 20 21" id="agriculture" xmlns="http://www.w3.org/2000/svg"><path d="M5.69 14.734C2.156 8.84 6.87 4.127 15.709 4.717c.59 8.838-4.125 13.552-10.017 10.017ZM4.167 16.257l4.714-4.714"/></svg><svg fill="none" viewBox="0 0 20 20" id="arrow-black-down" xmlns="http://www.w3.org/2000/svg"><path d="M15.833 7.5 10 13.333 4.167 7.5"/></svg><svg fill="none" viewBox="0 0 12 12" id="arrow-caret-down" xmlns="http://www.w3.org/2000/svg"><path d="M9.75 4.5 6 8.25 2.25 4.5"/></svg><svg fill="none" viewBox="0 0 20 20" id="arrow-white-down" xmlns="http://www.w3.org/2000/svg"><path d="M15.833 7.5 10 13.333 4.167 7.5" stroke="#fff" stroke-width="1.5" stroke-linecap="round" stroke-linejoin="round"/></svg><svg fill="none" viewBox="0 0 20 20" id="bullet" xmlns="http://www.w3.org/2000/svg"><path stroke="#2D6FD0" stroke-width="2" d="M4 15h12"/></svg><svg fill="none" viewBox="0 0 20 21" id="chemical-petrochemical-industry" xmlns="http://www.w3.org/2000/svg"><path d="M12.706 2.5v7.385l4.857 5.624c.236.273.384.6.425.945.041.345-.025.694-.192 1.006a1.919 1.919 0 0 1-.75.76 2.181 2.181 0 0 1-1.08.28H4.034c-.382 0-.756-.096-1.08-.28a1.92 1.92 0 0 1-.75-.76 1.701 1.701 0 0 1-.192-1.006 1.76 1.76 0 0 1 .425-.945l4.857-5.624V2.5m-2.03 0h9.471"/></svg><svg fill="none" viewBox="0 0 24 24" id="close-modal" xmlns="http://www.w3.org/2000/svg"><path d="M18 18 6 6M18 6 6 18"/></svg><svg fill="none" viewBox="0 0 20 21" id="construction-materials-industry" xmlns="http://www.w3.org/2000/svg"><path d="m14.453 3.397-3.279 3.278.442 2.21 2.21.441 3.278-3.278a5.002 5.002 0 0 1-7.021 6.33L5.7 17.452A1.875 1.875 0 0 1 3.049 14.8l5.073-4.382a5.002 5.002 0 0 1 6.33-7.022Z"/></svg><svg fill="none" viewBox="0 0 24 24" id="entrance" xmlns="http://www.w3.org/2000/svg"><path d="M18 20a6 6 0 1 0-12 0"/><path d="M12 14a4 4 0 1 0 0-8 4 4 0 0 0 0 8Z"/><path d="M12 22c5.523 0 10-4.477 10-10S17.523 2 12 2 2 6.477 2 12s4.477 10 10 10Z"/></svg><svg fill="none" viewBox="0 0 20 21" id="file-icon" xmlns="http://www.w3.org/2000/svg"><path d="m3.78 10.053 5.745-5.745a4.375 4.375 0 0 1 6.187 6.187l-6.629 6.63A2.917 2.917 0 0 1 4.958 13l6.63-6.63a1.458 1.458 0 1 1 2.062 2.063l-5.745 5.745"/></svg><svg fill="none" viewBox="0 0 20 21" id="forestry" xmlns="http://www.w3.org/2000/svg"><path d="m12.188 8.833 3.247 5.196a.417.417 0 0 1-.353.638H4.918a.417.417 0 0 1-.353-.638l3.247-5.196M10 14.667V18m-1.667 0h3.334M6.232 8.196l3.415-5.464a.417.417 0 0 1 .706 0l3.415 5.464a.417.417 0 0 1-.353.637h-6.83a.417.417 0 0 1-.353-.637Z"/></svg><svg fill="none" viewBox="0 0 278 268" id="gover-icon" xmlns="http://www.w3.org/2000/svg"><path d="m124.816 268 82.433-135.513 70.751.336v4.371L183.22 268h-58.404Zm82.433-132.487L124.816 0h58.404L278 130.806v4.371l-70.751.336ZM0 268l82.432-135.513 70.752.336v4.371L58.404 268H0Zm82.432-132.487L0 0h58.403l94.781 130.806v4.371l-70.752.336Z" fill="#F5F6F6" fill-opacity=".05"/></svg><svg fill="none" viewBox="0 0 20 21" id="healthcare" xmlns="http://www.w3.org/2000/svg"><path d="M2.5 10.5h3.125l1.25-1.875 2.5 3.75 1.25-1.875H12.5"/><path d="M2.196 8a5.515 5.515 0 0 1-.009-.312A4.063 4.063 0 0 1 10 6.122a4.063 4.063 0 0 1 7.813 1.566C17.813 13 10 17.375 10 17.375S6.88 15.627 4.583 13"/></svg><svg fill="none" viewBox="0 0 24 24" id="house" xmlns="http://www.w3.org/2000/svg"><path d="M20.25 20.25v-9.417a.75.75 0 0 0-.245-.555l-7.501-6.82a.75.75 0 0 0-1.01 0l-7.499 6.82a.75.75 0 0 0-.245.555v9.418M1.5 20.25h21"/><path d="M14.249 20.25v-6h-4.5v6"/></svg><svg fill="none" viewBox="0 0 20 21" id="housing-communal-services" xmlns="http://www.w3.org/2000/svg"><path d="M11.25 17.998V3.623a.625.625 0 0 0-.626-.625h-7.5a.625.625 0 0 0-.625.625v14.375"/><path d="M17.5 17.998V8.623a.625.625 0 0 0-.626-.625H11.25M5 6.123h2.5M6.25 12.373h2.5M5 15.498h2.5M13.75 14.248H15M13.75 11.123H15"/></svg><svg fill="none" viewBox="0 0 32 33" id="icon-succes" xmlns="http://www.w3.org/2000/svg"><path d="M16 28.5c6.627 0 12-5.373 12-12s-5.373-12-12-12-12 5.373-12 12 5.373 12 12 12Z" stroke="#00893F" stroke-width="1.5" stroke-miterlimit="10" stroke-linecap="round" stroke-linejoin="round"/><path d="m20 13.833-5.333 5.333L12 16.5" stroke="#00893F" stroke-width="1.5" stroke-linecap="round" stroke-linejoin="round"/></svg><svg fill="none" viewBox="0 0 20 21" id="information-technology" xmlns="http://www.w3.org/2000/svg"><path d="M3.75 15.5h12.5c.69 0 1.25-.56 1.25-1.25V5.5c0-.69-.56-1.25-1.25-1.25H3.75c-.69 0-1.25.56-1.25 1.25v8.75c0 .69.56 1.25 1.25 1.25ZM12.5 18h-5M2.5 12.375h15M10 15.5V18"/></svg><svg fill="none" viewBox="0 0 32 32" id="list" xmlns="http://www.w3.org/2000/svg"><path d="M5 16h22M5 8h22M5 24h22"/></svg><svg fill="none" viewBox="0 0 39 64" id="logo-sm" xmlns="http://www.w3.org/2000/svg"><path fill-rule="evenodd" clip-rule="evenodd" d="M18.76 38.935c-.119.423-.237.852-.326 1.282l-.067.33c-.022.099-.044.205-.081.303-.156.035-.296.084-.444.127.088.112.185.232.281.345v.035l.022.591c0 .162 0 .324-.015.479l-.022.232-.096.549-.044.028a4.707 4.707 0 0 0-.711.943c-.245.45-.422.93-.548 1.415a1.909 1.909 0 0 0-.074.457v.057l.06.352c.184-.197.377-.395.57-.584.192-.19.384-.388.584-.57v.394c0 .71.022 1.421.052 2.132.015.465.022.93.03 1.394 0 .274.007.542.022.816l-.208.338a7.011 7.011 0 0 0-.392.859l-.03.077.163.24c.111-.043.215-.07.296-.155l.038-.021c.073-.036.148-.07.229-.099.044.535.096 1.063.148 1.598.022.267.052.535.082.802l-.178.204-.096.141a2.048 2.048 0 0 0-.237.535l-.015.07.2.31.437-.303c.037.352.081.704.118 1.056.03.338 0 .676-.052 1.014l-.044.21c-.022.092-.052.177-.082.268l-.096.218-.222.606-.119.415-.059.134c-.259.62-.459 1.267-.659 1.907.237-.288.474-.584.726-.866.067-.077.14-.154.207-.225v-.014c.148-.14.289-.281.437-.408l.111-.092v-.014c.111-.07.215-.14.34-.197l.119-.042c.052 0 .104-.014.163-.014.052 0 .104.014.155.021l.111.042c.2.085.37.212.533.345.452.38.889.767 1.326 1.154.185.17.362.338.548.514l-.319-.908c-.155-.21-.31-.422-.459-.64-.052-.07-.096-.14-.148-.211-.274-.493-.555-.979-.8-1.485a8.5 8.5 0 0 1-.244-.599 5.547 5.547 0 0 1-.096-.33l-.045-.226a2.484 2.484 0 0 1-.022-.33v-.162l.119-1.24h.118l.119.177.192-.591.082-.247.014-.042c.06-.19.119-.38.178-.577l.044-.12c.045-.112.104-.211.178-.317.052-.07.104-.14.163-.204l.119-.112c-.052-.078-.104-.148-.156-.225-.178-.282-.348-.57-.518-.852.022-.12.044-.24.074-.36.007-.063.015-.126.015-.19.022-.372.037-.745.059-1.118l.06-.014c.103-.057.206-.113.31-.162l-.252-.634.193-.14.126-.134-.097-.134-.096-.394.156-.07.23-.141-.223-.176-.03-.035-.051-.12c-.015-.07-.015-.14-.023-.211l.045-.014.066-.028.156-.113-.081-.148-.09-.373.104-.05.148-.112-.074-.133c-.03-.113-.044-.226-.059-.338l-.015-.198c.082-.049.17-.098.252-.154l-.14-.19c-.075-.12-.141-.247-.208-.373.133-.007.274-.028.407-.036l-.14-.225-.097-.211-.133-.542.215-.155-.26-.492.112-.106-.074-.169.059-.014c-.148-.253-.304-.507-.415-.774l-.066-.204c-.023-.064-.045-.12-.067-.183-.192-.507-.407-1.007-.585-1.514-.178-.52-.37-1.034-.496-1.57-.03-.147-.066-.302-.059-.457l.022-.126a1.187 1.187 0 0 0-.163-.092l-.044-.021-.067-.014h-.096l-.111.056-.044.085c-.045.176-.097.359-.148.535m-.97-1.887c-.4-.246-.8-.492-1.185-.76-.096-.07-.192-.134-.296-.204a2.307 2.307 0 0 0-.281-.176c-.14.07-.282.12-.43.176-.014-.14-.037-.282-.044-.422l-.022-.029-.422-.45a5.605 5.605 0 0 0-.363-.352l-.193-.162-.473-.352h-.052a4.247 4.247 0 0 1-.785-.133 4.28 4.28 0 0 1-.43-.127 8.341 8.341 0 0 1-1.45-.718c-.134-.092-.274-.183-.393-.296-.014-.014-.03-.028-.037-.042l-.222-.295c.281.035.57.063.852.091.28.028.57.056.858.07-.096-.091-.192-.19-.288-.288a64.111 64.111 0 0 1-1.525-1.626c-.326-.359-.667-.704-1-1.056-.192-.204-.392-.408-.577-.62l-.4-.126a8.139 8.139 0 0 1-.918-.401l-.082-.042-.051-.282c.11-.035.214-.077.333-.063h.044a3.16 3.16 0 0 0 .245-.07c-.356-.423-.704-.852-1.06-1.282a22.97 22.97 0 0 1-.525-.647l-.281-.05-.178-.049a2.41 2.41 0 0 1-.57-.253l-.066-.042-.082-.36.548-.034-.681-.86a4.642 4.642 0 0 0-.785-.717l-.185-.134a1.79 1.79 0 0 0-.252-.148c-.074-.035-.155-.07-.23-.105l-.606-.317-.385-.24L2.74 23c-.652-.302-1.274-.668-1.896-1.02.392.07.777.148 1.17.204l.318.042h.015a6.2 6.2 0 0 0 .622.05h.148l.015.014c.133-.014.266-.022.392-.057l.126-.042c.044-.028.089-.056.126-.084.037-.036.066-.07.103-.113l.052-.099c.089-.183.126-.38.148-.584.06-.556.104-1.112.14-1.668.016-.24.023-.471.03-.71l.43.872c.037.253.081.507.126.753.014.084.037.162.044.246.156.535.304 1.07.496 1.591.074.204.163.394.26.591.051.106.11.204.17.303l.133.19c.074.091.14.176.222.26l.126.12.992.859.089-.07-.037-.205c.222.12.296.162.577.324l.244.134.045.028.555.317.118.063c.119.056.237.099.363.127.089.02.178.042.267.049h.17c.015.099.03.19.052.274.074.317.155.634.244.95.104.071.207.149.318.219.052.042.104.084.156.134.289.267.57.534.866.795l.06-.021.355-.063.274.619.244-.014.192.02.023.156.214.352.17-.043.282-.035-.037.268v.042l.052.12c.037.063.089.112.133.169l.037-.014.067-.022h.2l.044.155.207.338.111-.021h.193l.044.14c.06.106.133.198.207.29l.126.154.296-.042.037.225c.03.134.074.275.126.401.104-.077.222-.147.333-.218l.06.254.081.21.296.486.274-.014.17.521h.163l.067.176.052-.028c.074.274.14.563.259.83.03.064.066.127.096.19.03.057.06.12.081.176.23.493.437.993.674 1.479.244.492.481.999.777 1.47.082.127.17.268.29.374l.11.084c-.014.056-.03.113-.052.169l-.022.042-.037.05-.074.056-.126.028-.096-.035c-.163-.106-.333-.204-.503-.31v.035Zm2.91.078c.399-.247.799-.493 1.184-.76.096-.07.192-.134.288-.205.09-.063.185-.126.282-.175.14.07.281.12.43.175.014-.14.036-.281.043-.422l.023-.028.422-.45c.118-.127.237-.24.362-.352l.193-.162.474-.352h.052c.266-.014.525-.07.784-.134.148-.035.289-.077.43-.127.51-.19.992-.436 1.45-.718.134-.091.275-.183.393-.295.015-.014.03-.028.037-.042l.222-.296c-.281.035-.57.063-.851.091-.282.029-.57.057-.859.07.096-.098.192-.19.289-.288a64.281 64.281 0 0 0 1.525-1.626c.326-.352.666-.704 1-1.055.192-.204.392-.409.577-.62l.4-.127c.318-.112.621-.253.918-.4l.08-.043.053-.281c-.111-.036-.215-.078-.333-.064h-.045a3.162 3.162 0 0 1-.244-.07c.355-.422.703-.852 1.058-1.281.178-.211.356-.43.526-.648l.282-.049.177-.05c.2-.063.392-.14.57-.253l.067-.042.081-.359-.548-.035.681-.859c.23-.267.496-.506.785-.718l.185-.133c.082-.057.163-.106.252-.148.074-.035.156-.07.23-.106l.607-.316.385-.24.14-.063c.652-.303 1.274-.669 1.895-1.02-.392.07-.777.147-1.17.203-.103.015-.214.029-.318.043h-.014a6.172 6.172 0 0 1-.622.049h-.148l-.015.014c-.133-.014-.267-.021-.393-.056l-.125-.043a1.855 1.855 0 0 1-.126-.084c-.037-.035-.067-.07-.104-.113l-.052-.098a1.749 1.749 0 0 1-.148-.584 42.23 42.23 0 0 1-.14-1.668c-.015-.24-.023-.472-.03-.711l-.43.872c-.036.254-.08.507-.125.753-.015.085-.037.162-.045.247-.155.535-.303 1.07-.496 1.59a5.997 5.997 0 0 1-.259.592c-.052.105-.11.204-.17.302l-.133.19c-.074.092-.141.176-.222.26l-.126.12-.992.86-.09-.071.038-.204c-.222.12-.289.162-.578.323l-.244.134-.044.021-.556.317-.118.063a2.206 2.206 0 0 1-.363.127c-.089.021-.178.042-.266.05h-.17c-.015.098-.03.19-.052.274-.074.317-.156.633-.245.95-.103.07-.207.148-.318.218a2.573 2.573 0 0 0-.155.134c-.29.267-.57.535-.867.795l-.059-.02-.355-.064-.274.626-.244-.014-.193.021-.022.155-.215.352-.17-.042-.281-.035.037.267v.042l-.052.12c-.037.063-.09.113-.134.169l-.037-.014-.066-.021h-.2l-.044.155-.208.338-.11-.022h-.193l-.045.141c-.059.106-.133.197-.207.289l-.126.155-.296-.043-.037.226c-.03.133-.074.274-.126.4-.104-.077-.222-.147-.333-.217l-.06.253-.08.211-.297.486-.274-.014-.17.52h-.163l-.067.176-.051-.028c-.074.275-.14.563-.26.83-.029.064-.066.128-.096.19-.03.057-.059.12-.081.177-.23.493-.437.992-.674 1.478-.244.493-.481 1-.777 1.471-.082.127-.17.267-.289.373l-.11.084c.014.057.029.113.05.17l.023.042.037.049.074.056.126.028.096-.035c.163-.105.333-.204.504-.31l.007.036ZM39 17.468H0v41.295c0 1.31 1.177 2.379 2.613 2.379H15.68c2.014 0 3.243.894 3.798 2.858.718-1.95 2.265-2.858 4.116-2.858h12.304c1.703 0 3.087-1.267 3.087-2.808v-40.88l.015.014ZM27.38 12.759s-2.797-.59-7.451-.57c-4.647.021-7.844.783-7.844.783-.081.014-.207.398-.133.446.074.055 1.924.522 4.817.57 2.893.055 5.75-.069 7.622-.227 1.865-.158 3.041-.432 3.174-.556.037-.069.096-.418-.185-.446Zm4.455-10.343-3.36 8.572s.237.172.296.488c.06.308-.525.398-.525.398s-.133.521 0 .748c.133.226.31.24.31.432s-.021.398-.51.66c-1.273.569-6.252.795-9.146.83-2.893.034-6.445-.399-7.348-.57-.895-.172-.895-.453-.88-.714.022-.26.333-.556.333-.556l-.037-.556s-.06-.034-.156-.034-.31-.124-.37-.35c-.059-.227.274-.535.274-.535L7.09 2.745h-.103c-.46 0-.829-.33-.829-.734 0-.405.37-.734.829-.734.458 0 .828.329.828.734a.656.656 0 0 1-.125.391c.703.961 1.827 1.647 2.863 1.977.97.281 2.464.741 2.464.741s.356-.981.489-1.407c0-.233-.045-.48-.104-.741a.633.633 0 0 1-.407-.433c-.081-.329.156-.652.526-.72.37-.069.732.137.806.46a.554.554 0 0 1-.163.535c.037.233.09.453.163.659.096.123.215.268.355.419a10.14 10.14 0 0 0 1.332 1.194s.51-.398 1.406-.851c.23-.117.43-.254.6-.398.65-.618 1.087-1.38 1.095-2.45-.267-.124-.444-.371-.444-.653 0-.405.37-.734.829-.734.458 0 .828.33.828.734 0 .282-.177.529-.444.652 0 .66.163 1.202.444 1.661.178.22.393.44.644.632.88.693 1.584.988 2.109 1.194.215-.103.8-.57 1.428-1.373.06-.075.111-.144.155-.22.06-.226.104-.466.119-.727a.575.575 0 0 1-.215-.521c.052-.33.392-.563.762-.522.37.041.637.35.585.68a.603.603 0 0 1-.37.46c-.052.329-.052.638-.022.926.148.618.555 1.434.555 1.434s.355-.158 1.014-.398a9.667 9.667 0 0 1 1.48-.46c1.02-.37 2.108-1.098 2.76-2.086a.657.657 0 0 1-.148-.384c-.023-.405.333-.749.791-.77.46-.02.844.296.866.7.022.406-.333.749-.792.77-.074 0-.14 0-.207-.014l-.022.034.015.014Z" fill="#fff"/></svg><svg fill="none" viewBox="0 0 20 21" id="manufacturing-industries" xmlns="http://www.w3.org/2000/svg"><path d="m10.074 10.5-.083 8.032M17.179 14.198V6.802a.625.625 0 0 0-.318-.544L10.3 2.548a.625.625 0 0 0-.615 0L3.12 6.259a.625.625 0 0 0-.317.544v7.396a.625.625 0 0 0 .317.544l6.563 3.71a.625.625 0 0 0 .615 0l6.562-3.71a.624.624 0 0 0 .318-.544Z"/><path d="m17.093 6.487-7.019 4.014L2.89 6.486"/><path d="M13.83 12.102v-3.75L6.58 4.302"/></svg><svg fill="none" viewBox="0 0 24 24" id="map-pinned" xmlns="http://www.w3.org/2000/svg"><path d="M18 8c0 4.5-6 9-6 9s-6-4.5-6-9a6 6 0 1 1 12 0Z"/><path d="M12 10a2 2 0 1 0 0-4 2 2 0 0 0 0 4ZM8.835 14H5a1 1 0 0 0-.9.7l-2 6c-.1.1-.1.2-.1.3 0 .6.4 1 1 1h18c.6 0 1-.4 1-1 0-.1 0-.2-.1-.3l-2-6a1 1 0 0 0-.9-.7h-3.835"/></svg><svg fill="none" viewBox="0 0 20 21" id="mining" xmlns="http://www.w3.org/2000/svg"><path d="M5.625 3.625h8.75l4.375 5L10 18 1.25 8.625l4.375-5Z"/><path d="M13.835 8.625 10 18 6.165 8.625l3.835-5 3.835 5ZM1.25 8.625h17.5"/></svg><svg fill="none" viewBox="0 0 14 2" id="minus-steps" xmlns="http://www.w3.org/2000/svg"><path d="M1.4 1h11.2" stroke="#2D6FD0" stroke-width="1.4" stroke-linecap="round" stroke-linejoin="round"/></svg><svg viewBox="0 0 32 32" id="odn-2" xmlns="http://www.w3.org/2000/svg"><path d="M20.99 18.235c.42-.42.48-1.02.12-1.62-.3-.48-.84-.72-1.44-.6-.239.06-.479.18-.719.36-1.859 1.26-4.378 1.2-6.237-.06l-.36-.18c-.659-.3-1.319-.18-1.678.42-.42.6-.36 1.26.18 1.8.12.12.24.18.3.3l.06.06c.839.659 1.858 1.079 3.178 1.259l-.78.78-2.039 2.038c-.18.18-.42.48-.42.9 0 .54.3 1.08.84 1.319.18.12.36.12.54.12.3 0 .66-.12.9-.42l2.338-2.339.06-.06s.06 0 .06.06c.48.54 1.02 1.02 1.499 1.56l.72.72c.3.299.54.419.9.419.539.06 1.139-.3 1.378-.84a1.2 1.2 0 0 0-.3-1.439c-.6-.6-1.199-1.26-1.858-1.859l-1.02-1.02c.54-.06 1.14-.18 1.68-.42.899-.299 1.558-.719 2.098-1.258Z"/><path d="M15.833 16.555c2.579 0 4.677-2.039 4.677-4.617 0-1.26-.48-2.459-1.379-3.359-.9-.9-2.039-1.379-3.238-1.379-2.579 0-4.618 2.1-4.678 4.618 0 1.26.48 2.399 1.38 3.298.84.96 1.978 1.44 3.238 1.44Zm-1.32-5.996c.36-.36.84-.54 1.32-.54 1.08 0 1.859.84 1.859 1.859 0 1.08-.84 1.859-1.86 1.859-1.079 0-1.858-.84-1.858-1.86 0-.479.18-.959.54-1.319Z"/><path d="M20.99 18.235c.42-.42.48-1.02.12-1.62-.3-.48-.84-.72-1.44-.6-.239.06-.479.18-.719.36-1.859 1.26-4.378 1.2-6.237-.06l-.36-.18c-.659-.3-1.319-.18-1.678.42-.42.6-.36 1.26.18 1.8.12.12.24.18.3.3l.06.06c.839.659 1.858 1.079 3.178 1.259l-.78.78-2.039 2.038c-.18.18-.42.48-.42.9 0 .54.3 1.08.84 1.319.18.12.36.12.54.12.3 0 .66-.12.9-.42l2.338-2.339.06-.06s.06 0 .06.06c.48.54 1.02 1.02 1.499 1.56l.72.72c.3.299.54.419.9.419.539.06 1.139-.3 1.378-.84a1.2 1.2 0 0 0-.3-1.439c-.6-.6-1.199-1.26-1.858-1.859l-1.02-1.02c.54-.06 1.14-.18 1.68-.42.899-.299 1.558-.719 2.098-1.258Z"/></svg><svg fill="none" viewBox="0 0 32 32" id="odnok" xmlns="http://www.w3.org/2000/svg"><rect width="32" height="32" rx="4" fill="#fff"/><path d="M20.99 18.235c.42-.42.48-1.02.12-1.62-.3-.48-.84-.72-1.44-.6-.239.06-.479.18-.719.36-1.859 1.26-4.378 1.2-6.237-.06l-.36-.18c-.659-.3-1.319-.18-1.678.42-.42.6-.36 1.26.18 1.8.12.12.24.18.3.3l.06.06c.839.659 1.858 1.079 3.178 1.259l-.78.78-2.039 2.038c-.18.18-.42.48-.42.9 0 .54.3 1.08.84 1.319.18.12.36.12.54.12.3 0 .66-.12.9-.42l2.338-2.339.06-.06s.06 0 .06.06c.48.54 1.02 1.02 1.499 1.56l.72.72c.3.299.54.419.9.419.539.06 1.139-.3 1.378-.84a1.2 1.2 0 0 0-.3-1.439c-.6-.6-1.199-1.26-1.858-1.859l-1.02-1.02c.54-.06 1.14-.18 1.68-.42.899-.299 1.558-.719 2.098-1.258Z" fill="#2F2F2F"/><path d="M15.833 16.555c2.579 0 4.677-2.039 4.677-4.617 0-1.26-.48-2.459-1.379-3.359-.9-.9-2.039-1.379-3.238-1.379-2.579 0-4.618 2.1-4.678 4.618 0 1.26.48 2.399 1.38 3.298.84.96 1.978 1.44 3.238 1.44Zm-1.32-5.996c.36-.36.84-.54 1.32-.54 1.08 0 1.859.84 1.859 1.859 0 1.08-.84 1.859-1.86 1.859-1.079 0-1.858-.84-1.858-1.86 0-.479.18-.959.54-1.319Z" fill="#2F2F2F"/><path d="M20.99 18.235c.42-.42.48-1.02.12-1.62-.3-.48-.84-.72-1.44-.6-.239.06-.479.18-.719.36-1.859 1.26-4.378 1.2-6.237-.06l-.36-.18c-.659-.3-1.319-.18-1.678.42-.42.6-.36 1.26.18 1.8.12.12.24.18.3.3l.06.06c.839.659 1.858 1.079 3.178 1.259l-.78.78-2.039 2.038c-.18.18-.42.48-.42.9 0 .54.3 1.08.84 1.319.18.12.36.12.54.12.3 0 .66-.12.9-.42l2.338-2.339.06-.06s.06 0 .06.06c.48.54 1.02 1.02 1.499 1.56l.72.72c.3.299.54.419.9.419.539.06 1.139-.3 1.378-.84a1.2 1.2 0 0 0-.3-1.439c-.6-.6-1.199-1.26-1.858-1.859l-1.02-1.02c.54-.06 1.14-.18 1.68-.42.899-.299 1.558-.719 2.098-1.258Z" fill="#2F2F2F"/></svg><svg fill="none" viewBox="0 0 20 21" id="other" xmlns="http://www.w3.org/2000/svg"><path d="M8.75 4.25h-5v5h5v-5ZM16.25 4.25h-5v5h5v-5ZM8.75 11.75h-5v5h5v-5ZM16.25 11.75h-5v5h5v-5Z"/></svg><svg fill="none" viewBox="0 0 20 21" id="plus" xmlns="http://www.w3.org/2000/svg"><path d="M3.75 10.5h12.5M10 4.25v12.5" stroke="#fff" stroke-width="1.5" stroke-linecap="round" stroke-linejoin="round"/></svg><svg fill="none" viewBox="0 0 14 14" id="plus-steps" xmlns="http://www.w3.org/2000/svg"><path d="M1.4 7h11.2M7 1.4v11.2" stroke="#2D6FD0" stroke-width="1.4" stroke-linecap="round" stroke-linejoin="round"/></svg><svg fill="none" viewBox="0 0 12 13" id="radio-fill" xmlns="http://www.w3.org/2000/svg"><circle cx="6" cy="6.5" r="6" fill="#2D6FD0"/></svg><svg fill="none" viewBox="0 0 20 21" id="road-construction" xmlns="http://www.w3.org/2000/svg"><path d="M1.25 9.875h17.5M17.5 14.875v1.875a.624.624 0 0 1-.625.625H15a.624.624 0 0 1-.625-.625v-1.875M5.625 14.875v1.875a.625.625 0 0 1-.625.625H3.125a.625.625 0 0 1-.625-.625v-1.875M5 12.375h1.25M13.75 12.375H15"/><path d="m17.5 9.875-2.335-5.254a.625.625 0 0 0-.571-.371H5.406a.625.625 0 0 0-.571.371L2.5 9.875v5h15v-5Z"/></svg><svg fill="none" viewBox="0 0 24 24" id="search" xmlns="http://www.w3.org/2000/svg"><path d="M10 17a7 7 0 1 0 0-14 7 7 0 0 0 0 14ZM15 15l6 6"/></svg><svg fill="none" viewBox="0 0 1920 362" id="slide-bg" xmlns="http://www.w3.org/2000/svg"><path transform="rotate(-90 0 362)" fill="url(#bfa)" fill-opacity=".8" d="M0 362h362v1920H0z"/><defs><linearGradient id="bfa" x1="0" y1="1322" x2="362" y2="1322" gradientUnits="userSpaceOnUse"><stop/><stop offset=".506" stop-opacity=".65"/><stop offset="1" stop-opacity="0"/></linearGradient></defs></svg><svg fill="none" viewBox="0 0 24 24" id="slider-next" xmlns="http://www.w3.org/2000/svg"><path d="m9 18 6-6-6-6" stroke="#fff" stroke-width="2" stroke-linecap="round" stroke-linejoin="round"/></svg><svg fill="none" viewBox="0 0 24 24" id="slider-prev" xmlns="http://www.w3.org/2000/svg"><path d="m15 18-6-6 6-6" stroke="#fff" stroke-width="2" stroke-linecap="round" stroke-linejoin="round"/></svg><svg fill="none" viewBox="0 0 32 32" id="tg" xmlns="http://www.w3.org/2000/svg"><rect width="32" height="32" rx="4" fill="#fff"/><path d="m22.4 10.081-2.404 12.552s-.337.87-1.26.453l-5.548-4.404-.026-.013c.75-.697 6.56-6.107 6.814-6.353.393-.38.149-.605-.308-.319l-8.583 5.645-3.31-1.154s-.522-.192-.572-.61c-.051-.417.588-.643.588-.643l13.5-5.484s1.109-.505 1.109.33Z" fill="#2F2F2F"/></svg><svg viewBox="0 0 32 32" id="tg-2" xmlns="http://www.w3.org/2000/svg"><path d="m22.4 10.081-2.404 12.552s-.337.87-1.26.453l-5.548-4.404-.026-.013c.75-.697 6.56-6.107 6.814-6.353.393-.38.149-.605-.308-.319l-8.583 5.645-3.31-1.154s-.522-.192-.572-.61c-.051-.417.588-.643.588-.643l13.5-5.484s1.109-.505 1.109.33Z"/></svg><svg fill="none" viewBox="0 0 20 21" id="tourism-sales" xmlns="http://www.w3.org/2000/svg"><path d="M1.875 17.375h11.25M1.322 11.466l2.945 2.761a2.5 2.5 0 0 0 2.967.338l11.829-6.878-1.457-1.78a2.5 2.5 0 0 0-3.202-.571l-3.466 2.039L6.25 5.812l-1.289.553a.625.625 0 0 0-.172 1.039l2.398 2.158L5 10.812l-2.188-.937-1.308.56a.626.626 0 0 0-.182 1.031Z"/></svg><svg fill="none" viewBox="0 0 20 21" id="trade-catering" xmlns="http://www.w3.org/2000/svg"><path d="M6.563 3v3.125M6.563 9.563V18M8.75 3l.625 3.75a2.813 2.813 0 0 1-5.625 0L4.375 3M15.938 13h-4.376s.938-8.75 4.376-10v15"/></svg><svg fill="none" viewBox="0 0 20 21" id="transport-communications-logistics" xmlns="http://www.w3.org/2000/svg"><path d="M18.75 9.875h-5V6.75h3.327a.625.625 0 0 1 .58.393l1.093 2.732ZM1.25 11.75h12.5M14.688 17.375a1.875 1.875 0 1 0 0-3.75 1.875 1.875 0 0 0 0 3.75ZM5.313 17.375a1.875 1.875 0 1 0 0-3.75 1.875 1.875 0 0 0 0 3.75ZM12.813 15.5H7.186"/><path d="M3.438 15.5H1.875a.625.625 0 0 1-.625-.625v-8.75a.625.625 0 0 1 .625-.625H13.75v8.376M13.75 13.876V9.875h5v5a.624.624 0 0 1-.625.625h-1.563"/></svg><svg fill="none" viewBox="0 0 32 32" id="vk" xmlns="http://www.w3.org/2000/svg"><rect width="32" height="32" rx="4" fill="#fff"/><path d="M16.786 21.6c-6.013 0-9.443-4.204-9.586-11.2h3.012c.099 5.135 2.32 7.31 4.079 7.758V10.4h2.836v4.429c1.737-.19 3.562-2.209 4.177-4.429h2.836a8.63 8.63 0 0 1-1.358 3.202 8.445 8.445 0 0 1-2.5 2.382 8.717 8.717 0 0 1 2.85 2.314A8.922 8.922 0 0 1 24.8 21.6h-3.122a5.552 5.552 0 0 0-1.683-2.701 5.38 5.38 0 0 0-2.868-1.301V21.6h-.341Z" fill="#2F2F2F"/></svg><svg viewBox="0 0 32 32" id="vk-2" xmlns="http://www.w3.org/2000/svg"><path d="M16.786 21.6c-6.013 0-9.443-4.204-9.586-11.2h3.012c.099 5.135 2.32 7.31 4.079 7.758V10.4h2.836v4.429c1.737-.19 3.562-2.209 4.177-4.429h2.836a8.63 8.63 0 0 1-1.358 3.202 8.445 8.445 0 0 1-2.5 2.382 8.717 8.717 0 0 1 2.85 2.314A8.922 8.922 0 0 1 24.8 21.6h-3.122a5.552 5.552 0 0 0-1.683-2.701 5.38 5.38 0 0 0-2.868-1.301V21.6h-.341Z"/></svg></svg>