<?xml version="1.0" encoding="utf-8"?><svg viewBox="0 0 278 268" xmlns="http://www.w3.org/2000/svg" xmlns:xlink="http://www.w3.org/1999/xlink"><style>:root>svg{display:none}:root>svg:target{display:block}</style><svg fill="none" viewBox="0 0 20 20" id="arrow-white-down" xmlns="http://www.w3.org/2000/svg"><path d="M15.833 7.5 10 13.333 4.167 7.5" stroke="#fff" stroke-width="1.5" stroke-linecap="round" stroke-linejoin="round"/></svg><svg fill="none" viewBox="0 0 278 268" id="gover-icon" xmlns="http://www.w3.org/2000/svg"><path d="m124.816 268 82.433-135.513 70.751.336v4.371L183.22 268h-58.404Zm82.433-132.487L124.816 0h58.404L278 130.806v4.371l-70.751.336ZM0 268l82.432-135.513 70.752.336v4.371L58.404 268H0Zm82.432-132.487L0 0h58.403l94.781 130.806v4.371l-70.752.336Z" fill="#F5F6F6" fill-opacity=".05"/></svg><svg fill="none" viewBox="0 0 258 64" id="logo" xmlns="http://www.w3.org/2000/svg"><path d="M47 28.746V17.468h1.587v8.7l6.637-8.7H56.7v11.278h-1.571v-8.684l-6.653 8.684H47ZM59.941 28.746v-8.539h1.54v3.625h4.84v-3.625h1.54v8.54h-1.54V25.17h-4.84v3.576h-1.54ZM70.853 28.746v-8.539h3.944c.994 0 1.774.194 2.34.58.578.376.866.913.866 1.611 0 .699-.272 1.241-.817 1.628-.535.376-1.246.564-2.133.564l.24-.42c1.016 0 1.77.189 2.261.565.492.375.738.929.738 1.66 0 .74-.278 1.32-.834 1.74-.545.407-1.384.611-2.517.611h-4.088Zm1.507-1.192h2.469c.641 0 1.122-.096 1.443-.29.32-.204.48-.526.48-.967 0-.45-.149-.778-.448-.982-.289-.215-.748-.323-1.379-.323H72.36v2.562Zm0-3.673h2.309c.588 0 1.031-.108 1.33-.323.31-.225.465-.537.465-.934 0-.408-.155-.714-.465-.918-.299-.204-.742-.306-1.33-.306H72.36v2.48ZM84.484 28.843c-.908 0-1.71-.188-2.405-.564a4.124 4.124 0 0 1-1.603-1.547c-.374-.655-.56-1.407-.56-2.255 0-.849.18-1.6.544-2.256a4.018 4.018 0 0 1 1.523-1.53c.652-.376 1.384-.564 2.197-.564.822 0 1.55.182 2.18.547.63.366 1.122.881 1.475 1.547.363.655.545 1.423.545 2.304 0 .065-.006.14-.016.226 0 .086-.006.166-.016.241h-7.23v-1.111h6.428l-.625.386c.01-.547-.102-1.036-.337-1.466a2.506 2.506 0 0 0-.978-.999c-.406-.247-.881-.37-1.426-.37-.535 0-1.01.123-1.427.37a2.481 2.481 0 0 0-.978 1.015c-.235.43-.353.924-.353 1.483v.257c0 .57.128 1.08.385 1.531.267.44.636.784 1.106 1.031.47.247 1.01.37 1.62.37.501 0 .956-.085 1.362-.257.417-.172.78-.43 1.09-.773l.85.998a3.71 3.71 0 0 1-1.443 1.032c-.567.236-1.203.354-1.908.354ZM94.47 28.843c-.865 0-1.64-.188-2.324-.564a4.153 4.153 0 0 1-1.587-1.547c-.385-.655-.577-1.407-.577-2.255 0-.849.192-1.6.577-2.256a4.037 4.037 0 0 1 1.587-1.53c.684-.376 1.459-.564 2.325-.564.769 0 1.453.155 2.051.467.61.3 1.08.752 1.411 1.353l-1.17.758a2.538 2.538 0 0 0-1.026-.919 2.756 2.756 0 0 0-1.282-.306c-.556 0-1.053.123-1.491.37a2.718 2.718 0 0 0-1.043 1.048c-.256.44-.384.967-.384 1.579s.128 1.144.384 1.595c.257.451.604.8 1.043 1.047.438.247.935.37 1.49.37.46 0 .888-.096 1.283-.29a2.663 2.663 0 0 0 1.026-.934l1.17.741a3.408 3.408 0 0 1-1.41 1.37c-.599.311-1.283.467-2.052.467ZM101.5 28.746v-7.588l.384.403h-3.495v-1.354h7.76v1.354h-3.479l.369-.403v7.588H101.5ZM107.722 28.746v-8.539h1.539v6.22l5.211-6.22h1.394v8.54h-1.539v-6.22l-5.194 6.22h-1.411ZM118.854 28.746v-8.539h1.539v7.186h4.649v-7.186h1.539v8.54h-7.727Zm7.614 1.982v-2.062l.385.08h-1.811v-1.353h2.885v3.335h-1.459ZM129.922 28.746v-8.539h1.539v6.22l5.21-6.22h1.395v8.54h-1.539v-6.22l-5.194 6.22h-1.411ZM144.692 28.843c-.855 0-1.613-.188-2.276-.564a4.186 4.186 0 0 1-1.571-1.547c-.385-.665-.577-1.417-.577-2.255 0-.849.192-1.6.577-2.256a4.067 4.067 0 0 1 1.571-1.53c.663-.376 1.421-.564 2.276-.564.845 0 1.598.188 2.261.564a3.929 3.929 0 0 1 1.571 1.53c.385.645.577 1.396.577 2.256 0 .848-.192 1.6-.577 2.255a4.04 4.04 0 0 1-1.571 1.547c-.663.376-1.416.564-2.261.564Zm0-1.353c.546 0 1.032-.124 1.459-.37a2.605 2.605 0 0 0 1.026-1.048c.246-.462.369-.994.369-1.595 0-.612-.123-1.139-.369-1.58a2.605 2.605 0 0 0-1.026-1.046 2.859 2.859 0 0 0-1.459-.371c-.545 0-1.031.123-1.458.37-.428.248-.77.597-1.026 1.048-.257.44-.385.967-.385 1.579 0 .601.128 1.133.385 1.595.256.451.598.8 1.026 1.047.427.247.913.37 1.458.37ZM151.323 28.746v-8.539h1.539v3.625h4.842v-3.625h1.539v8.54h-1.539V25.17h-4.842v3.576h-1.539ZM162.235 28.746v-8.539h1.539v3.625h4.842v-3.625h1.539v8.54h-1.539V25.17h-4.842v3.576h-1.539ZM181.548 28.746v-8.539h1.539v8.54h-1.539Zm-4.569-5.639c1.079.011 1.897.258 2.453.741.566.484.849 1.166.849 2.047 0 .923-.31 1.638-.929 2.143-.61.494-1.486.735-2.63.724l-3.575-.016v-8.539h1.539v2.884l2.293.016Zm-.369 4.48c.684.01 1.208-.13 1.571-.42.364-.29.545-.72.545-1.289 0-.558-.181-.966-.545-1.224-.352-.258-.876-.392-1.571-.403l-1.924-.032v3.351l1.924.016ZM186.079 28.746v-8.539h1.539v6.22l5.21-6.22h1.395v8.54h-1.539v-6.22l-5.194 6.22h-1.411Zm3.976-9.65c-.78 0-1.395-.189-1.844-.564-.438-.387-.662-.94-.673-1.66h1.042c.011.408.144.73.401.967.267.236.62.354 1.058.354.438 0 .791-.118 1.058-.354s.406-.559.417-.967h1.074c-.011.72-.241 1.273-.69 1.66-.448.375-1.063.564-1.843.564ZM201.516 28.746v-8.539h7.871v8.54h-1.539v-7.573l.369.387h-5.531l.369-.387v7.572h-1.539ZM216.004 28.843c-.855 0-1.614-.188-2.276-.564a4.179 4.179 0 0 1-1.571-1.547c-.385-.665-.578-1.417-.578-2.255 0-.849.193-1.6.578-2.256a4.06 4.06 0 0 1 1.571-1.53c.662-.376 1.421-.564 2.276-.564.844 0 1.598.188 2.26.564a3.925 3.925 0 0 1 1.572 1.53c.384.645.577 1.396.577 2.256 0 .848-.193 1.6-.577 2.255a4.036 4.036 0 0 1-1.572 1.547c-.662.376-1.416.564-2.26.564Zm0-1.353c.545 0 1.031-.124 1.459-.37.438-.248.78-.597 1.026-1.048.246-.462.369-.994.369-1.595 0-.612-.123-1.139-.369-1.58a2.611 2.611 0 0 0-1.026-1.046 2.864 2.864 0 0 0-1.459-.371c-.545 0-1.031.123-1.459.37a2.76 2.76 0 0 0-1.026 1.048c-.256.44-.385.967-.385 1.579 0 .601.129 1.133.385 1.595.257.451.599.8 1.026 1.047.428.247.914.37 1.459.37ZM227.14 28.843a3.97 3.97 0 0 1-1.94-.483c-.577-.333-1.042-.822-1.395-1.466-.342-.645-.513-1.45-.513-2.417 0-.967.166-1.773.497-2.417.342-.644.802-1.128 1.379-1.45a4.034 4.034 0 0 1 1.972-.483c.834 0 1.571.182 2.212.547a4.02 4.02 0 0 1 1.523 1.531c.374.645.561 1.402.561 2.272 0 .87-.187 1.632-.561 2.288a4.02 4.02 0 0 1-1.523 1.53c-.641.365-1.378.548-2.212.548Zm-4.505 3.03V20.206h1.475v2.304l-.096 1.982.16 1.982v5.397h-1.539Zm4.377-4.383c.545 0 1.031-.124 1.458-.37a2.607 2.607 0 0 0 1.027-1.048c.256-.462.384-.994.384-1.595 0-.612-.128-1.139-.384-1.58a2.607 2.607 0 0 0-1.027-1.046 2.857 2.857 0 0 0-1.458-.371c-.535 0-1.021.123-1.459.37-.428.248-.77.597-1.026 1.048-.246.44-.369.967-.369 1.579 0 .601.123 1.133.369 1.595.256.451.598.8 1.026 1.047.438.247.924.37 1.459.37ZM235.042 28.746v-7.588l.385.403h-3.495v-1.354h7.76v1.354h-3.479l.369-.403v7.588h-1.54ZM246.476 28.746v-1.804l-.081-.338v-3.078c0-.655-.192-1.16-.577-1.514-.374-.366-.94-.548-1.699-.548-.502 0-.994.086-1.475.258a3.675 3.675 0 0 0-1.218.66l-.642-1.16a4.548 4.548 0 0 1 1.571-.805 6.481 6.481 0 0 1 1.94-.29c1.165 0 2.063.284 2.694.854.63.569.945 1.439.945 2.61v5.155h-1.458Zm-2.79.097c-.631 0-1.186-.107-1.667-.322-.47-.215-.834-.51-1.09-.886a2.305 2.305 0 0 1-.385-1.305c0-.462.107-.881.321-1.257.224-.376.582-.677 1.074-.902.502-.226 1.175-.339 2.02-.339h2.693v1.112h-2.629c-.77 0-1.288.129-1.555.387-.268.258-.401.569-.401.934 0 .42.166.757.497 1.015.331.247.791.37 1.379.37.577 0 1.079-.128 1.507-.386.438-.258.753-.634.945-1.128l.305 1.064c-.203.505-.561.907-1.074 1.208-.513.29-1.16.435-1.94.435ZM249.295 28.73l.096-1.305.209.032c.064.011.122.017.176.017.342 0 .609-.119.801-.355.204-.236.353-.548.449-.934.096-.398.166-.843.209-1.338a35.1 35.1 0 0 0 .096-1.482l.144-3.158H258v8.54h-1.539v-7.638l.369.452h-4.361l.353-.468-.112 2.369a24.15 24.15 0 0 1-.177 2.11 7.97 7.97 0 0 1-.401 1.724c-.171.494-.411.881-.721 1.16-.299.28-.689.42-1.17.42-.139 0-.289-.017-.449-.049a5.687 5.687 0 0 1-.497-.097ZM51.383 44.702c-.63 0-1.213-.1-1.748-.3a4.23 4.23 0 0 1-1.39-.866 4.045 4.045 0 0 1-.922-1.304A4.098 4.098 0 0 1 47 40.593c0-.593.108-1.139.323-1.64.224-.5.531-.934.922-1.303.4-.37.867-.654 1.402-.855a4.788 4.788 0 0 1 1.748-.311c.607 0 1.178.1 1.713.3.535.192.986.485 1.353.877l-.563.543a3.062 3.062 0 0 0-1.138-.727 3.829 3.829 0 0 0-1.34-.231 3.8 3.8 0 0 0-1.402.254 3.241 3.241 0 0 0-1.126.704 3.3 3.3 0 0 0-.754 1.062c-.176.4-.264.842-.264 1.327s.088.931.264 1.339c.183.4.435.754.754 1.062.32.3.695.535 1.126.704.431.161.898.242 1.401.242.48 0 .926-.077 1.341-.23.416-.154.795-.4 1.138-.74l.563.543a3.504 3.504 0 0 1-1.353.889c-.535.2-1.11.3-1.725.3ZM59.898 44.633v-1.34l-.036-.218v-2.24c0-.515-.151-.912-.455-1.188-.295-.278-.738-.416-1.33-.416-.406 0-.794.065-1.16.196-.368.131-.68.304-.935.52l-.383-.612a3.36 3.36 0 0 1 1.15-.6c.447-.147.918-.22 1.413-.22.814 0 1.44.197 1.88.589.447.385.67.973.67 1.766v3.763h-.814Zm-2.168.057c-.47 0-.882-.073-1.233-.219a1.871 1.871 0 0 1-.79-.623 1.6 1.6 0 0 1-.276-.923c0-.316.076-.6.228-.855.16-.261.415-.469.766-.623.36-.162.838-.242 1.437-.242h2.168v.611h-2.144c-.607 0-1.03.104-1.27.312a.997.997 0 0 0-.347.773c0 .347.14.624.42.831.279.208.67.312 1.173.312.48 0 .89-.104 1.234-.311.351-.216.607-.524.766-.924l.192.566c-.16.4-.44.72-.839.958-.39.238-.886.358-1.485.358ZM66.222 44.69c-.543 0-1.034-.119-1.473-.357a2.771 2.771 0 0 1-1.054-1.05c-.256-.462-.384-1.024-.384-1.686 0-.662.128-1.22.384-1.674a2.592 2.592 0 0 1 1.042-1.05 3.06 3.06 0 0 1 1.485-.358c.598 0 1.133.131 1.604.393a2.78 2.78 0 0 1 1.126 1.085c.272.461.407.996.407 1.604 0 .616-.135 1.154-.407 1.616a2.882 2.882 0 0 1-1.126 1.085c-.47.262-1.006.392-1.604.392Zm-3.246 2.182v-8.299h.814v1.824l-.083 1.212.12 1.223v4.04h-.851Zm3.186-2.909c.447 0 .846-.096 1.197-.288.352-.2.63-.477.839-.831.207-.362.31-.778.31-1.247 0-.47-.103-.88-.31-1.235a2.246 2.246 0 0 0-.839-.831c-.351-.2-.75-.3-1.197-.3-.448 0-.85.1-1.21.3-.351.2-.63.477-.838.831-.2.354-.3.766-.3 1.235 0 .47.1.885.3 1.247.207.354.487.63.838.83.36.193.763.29 1.21.29ZM75.055 44.633v-1.34l-.036-.218v-2.24c0-.515-.151-.912-.455-1.188-.295-.278-.738-.416-1.33-.416-.406 0-.794.065-1.16.196-.368.131-.68.304-.935.52l-.383-.612a3.36 3.36 0 0 1 1.15-.6c.447-.147.918-.22 1.413-.22.814 0 1.44.197 1.88.589.447.385.67.973.67 1.766v3.763h-.814Zm-2.168.057c-.47 0-.882-.073-1.233-.219a1.871 1.871 0 0 1-.79-.623 1.6 1.6 0 0 1-.276-.923c0-.316.076-.6.228-.855.16-.261.415-.469.766-.623.36-.162.838-.242 1.437-.242h2.168v.611h-2.144c-.607 0-1.03.104-1.27.312a.997.997 0 0 0-.347.773c0 .347.14.624.42.831.279.208.67.312 1.173.312.48 0 .89-.104 1.234-.311.351-.216.606-.524.766-.924l.192.566c-.16.4-.44.72-.838.958-.392.238-.887.358-1.486.358ZM79.33 44.633v-5.564l.216.22h-2.599v-.716h5.617v.716h-2.599l.216-.22v5.564h-.85ZM86.088 44.69c-.607 0-1.154-.13-1.64-.392a3.057 3.057 0 0 1-1.138-1.096c-.28-.47-.42-1.005-.42-1.605 0-.608.14-1.143.42-1.604a2.97 2.97 0 0 1 1.137-1.085c.48-.262 1.026-.393 1.64-.393.624 0 1.175.131 1.654.393.487.261.866.623 1.137 1.085.28.461.42.996.42 1.604 0 .6-.14 1.135-.42 1.605-.271.461-.65.827-1.137 1.096-.487.262-1.038.392-1.653.392Zm0-.727c.455 0 .858-.096 1.21-.288.35-.2.626-.477.826-.831.207-.362.311-.778.311-1.247 0-.477-.104-.892-.311-1.246a2.08 2.08 0 0 0-.826-.82c-.352-.2-.751-.3-1.198-.3-.447 0-.846.1-1.198.3-.351.192-.63.466-.838.82-.208.354-.311.77-.311 1.246 0 .47.103.885.311 1.247.208.354.487.63.838.83.352.193.747.29 1.186.29ZM91.115 44.633v-6.06h2.778c.71 0 1.27.13 1.677.392.415.262.623.647.623 1.155 0 .492-.196.873-.587 1.142-.391.262-.906.393-1.545.393l.167-.242c.75 0 1.302.134 1.653.404.351.269.527.657.527 1.165 0 .523-.2.931-.599 1.224-.391.284-1.002.427-1.832.427h-2.862Zm.826-.647h2c.535 0 .938-.08 1.21-.242.279-.17.419-.439.419-.808 0-.37-.124-.639-.371-.808-.248-.17-.64-.254-1.174-.254H91.94v2.112Zm0-2.724h1.892c.487 0 .859-.088 1.114-.265.263-.177.395-.435.395-.773 0-.339-.132-.593-.395-.762-.255-.17-.627-.254-1.114-.254h-1.892v2.054ZM101.036 44.69c-.623 0-1.182-.13-1.677-.392a3.031 3.031 0 0 1-1.15-1.096c-.28-.47-.419-1.005-.419-1.605 0-.608.14-1.143.42-1.604.279-.462.662-.824 1.149-1.085.495-.262 1.054-.393 1.677-.393.534 0 1.017.1 1.449.3.431.2.77.5 1.018.9l-.635.416a1.975 1.975 0 0 0-.803-.68 2.468 2.468 0 0 0-1.041-.22c-.448 0-.851.1-1.21.3a2.14 2.14 0 0 0-.85.82c-.208.354-.312.77-.312 1.246 0 .477.104.893.312 1.247.207.354.49.63.85.83a2.52 2.52 0 0 0 1.21.29c.375 0 .722-.074 1.041-.22.32-.146.587-.37.803-.67l.635.416a2.42 2.42 0 0 1-1.018.9c-.432.2-.915.3-1.449.3ZM109.76 44.633l-2.587-3.001.706-.404 2.887 3.405h-1.006Zm-4.611 0v-6.06h.85v6.06h-.85Zm.587-2.701v-.704h2.024v.704h-2.024Zm2.215-.242-.79-.116 2.503-3.001h.922l-2.635 3.117ZM114.472 44.69c-.607 0-1.153-.13-1.641-.392a3.05 3.05 0 0 1-1.137-1.096c-.28-.47-.419-1.005-.419-1.605 0-.608.139-1.143.419-1.604a2.965 2.965 0 0 1 1.137-1.085c.48-.262 1.026-.393 1.641-.393.623 0 1.174.131 1.653.393.487.261.866.623 1.138 1.085.279.461.419.996.419 1.604 0 .6-.14 1.135-.419 1.605a2.947 2.947 0 0 1-1.138 1.096c-.487.262-1.038.392-1.653.392Zm0-.727a2.48 2.48 0 0 0 1.21-.288c.351-.2.626-.477.826-.831.208-.362.311-.778.311-1.247 0-.477-.103-.892-.311-1.246a2.083 2.083 0 0 0-.826-.82c-.352-.2-.751-.3-1.198-.3-.447 0-.846.1-1.197.3a2.161 2.161 0 0 0-.839.82c-.207.354-.311.77-.311 1.246 0 .47.104.885.311 1.247.208.354.487.63.839.83.351.193.746.29 1.185.29ZM119.499 44.633v-6.06h.85v4.813l4.204-4.813h.754v6.06h-.85v-4.825l-4.192 4.825h-.766Zm2.85-6.937c-.527 0-.954-.127-1.281-.381-.32-.262-.487-.635-.503-1.12h.611c.008.308.119.55.335.727.216.177.495.266.838.266.344 0 .623-.089.839-.266a.91.91 0 0 0 .347-.727h.611c-.008.485-.176.858-.503 1.12-.328.254-.759.38-1.294.38ZM133.465 44.69c-.607 0-1.153-.13-1.64-.392a3.046 3.046 0 0 1-1.138-1.096c-.28-.47-.419-1.005-.419-1.605 0-.608.139-1.143.419-1.604a2.96 2.96 0 0 1 1.138-1.085c.479-.262 1.025-.393 1.64-.393.623 0 1.174.131 1.653.393.487.261.866.623 1.138 1.085.279.461.419.996.419 1.604 0 .6-.14 1.135-.419 1.605a2.947 2.947 0 0 1-1.138 1.096c-.487.262-1.038.392-1.653.392Zm0-.727a2.48 2.48 0 0 0 1.21-.288c.351-.2.627-.477.826-.831.208-.362.311-.778.311-1.247 0-.477-.103-.892-.311-1.246a2.077 2.077 0 0 0-.826-.82c-.352-.2-.751-.3-1.198-.3-.447 0-.846.1-1.197.3a2.161 2.161 0 0 0-.839.82c-.207.354-.311.77-.311 1.246 0 .47.104.885.311 1.247.208.354.487.63.839.83.351.193.746.29 1.185.29ZM141.318 44.702c-.511 0-.966-.08-1.365-.242a2.606 2.606 0 0 1-1.006-.739 3.352 3.352 0 0 1-.635-1.223c-.143-.493-.215-1.062-.215-1.709 0-.577.056-1.081.167-1.512.112-.438.268-.816.468-1.131.199-.316.431-.581.694-.797.272-.223.563-.4.874-.53.32-.139.647-.243.982-.312l2.827-.635.143.762-2.658.577c-.168.038-.371.092-.611.162-.232.069-.471.173-.719.311a2.56 2.56 0 0 0-.67.577c-.208.247-.375.566-.503.958-.12.385-.18.866-.18 1.443 0 .123.004.223.012.3l.024.231c.016.077.028.193.036.346l-.371-.3c.088-.47.267-.877.539-1.223.271-.354.61-.627 1.018-.82.415-.2.874-.3 1.377-.3.583 0 1.102.123 1.557.37.455.238.81.573 1.066 1.004.263.43.395.93.395 1.5 0 .562-.136 1.066-.407 1.512a2.753 2.753 0 0 1-1.126 1.05c-.487.247-1.058.37-1.713.37Zm.096-.68c.447 0 .842-.097 1.186-.29.343-.2.611-.469.802-.807.2-.339.3-.72.3-1.143 0-.416-.1-.785-.3-1.108a2.027 2.027 0 0 0-.802-.762c-.344-.192-.743-.289-1.198-.289a2.46 2.46 0 0 0-1.185.277 2.033 2.033 0 0 0-.815.75 2.16 2.16 0 0 0-.287 1.12c0 .423.096.804.287 1.143.2.339.471.608.815.808.351.2.75.3 1.197.3ZM145.201 44.621l.06-.704c.056.008.108.02.156.035.056.008.104.011.144.011a.751.751 0 0 0 .611-.277c.159-.184.279-.43.359-.738.08-.308.136-.654.167-1.04.032-.392.06-.784.084-1.177l.108-2.158h4.611v6.06h-.85v-5.587l.215.243h-3.425l.204-.254-.096 1.754a17.234 17.234 0 0 1-.132 1.5 5.878 5.878 0 0 1-.275 1.259c-.12.361-.288.646-.503.854-.216.2-.491.3-.827.3-.096 0-.195-.008-.299-.023a7.187 7.187 0 0 1-.312-.058ZM157.822 44.633v-1.34l-.036-.218v-2.24c0-.515-.151-.912-.455-1.188-.295-.278-.738-.416-1.329-.416-.407 0-.795.065-1.162.196-.367.131-.679.304-.934.52l-.383-.612a3.355 3.355 0 0 1 1.149-.6c.448-.147.919-.22 1.414-.22.814 0 1.441.197 1.88.589.447.385.67.973.67 1.766v3.763h-.814Zm-2.168.057c-.471 0-.882-.073-1.233-.219-.343-.154-.607-.361-.79-.623a1.598 1.598 0 0 1-.276-.923c0-.316.076-.6.228-.855.159-.261.415-.469.766-.623.359-.162.838-.242 1.437-.242h2.168v.611h-2.144c-.607 0-1.03.104-1.269.312a.996.996 0 0 0-.348.773c0 .347.14.624.42.831.279.208.67.312 1.173.312.479 0 .89-.104 1.234-.311.351-.216.607-.524.766-.924l.192.566c-.16.4-.439.72-.838.958-.392.238-.887.358-1.486.358ZM163.535 44.69c-.623 0-1.182-.13-1.677-.392a3.036 3.036 0 0 1-1.15-1.096 3.08 3.08 0 0 1-.419-1.605c0-.608.14-1.143.419-1.604.28-.462.663-.824 1.15-1.085.495-.262 1.054-.393 1.677-.393a3.4 3.4 0 0 1 1.449.3c.431.2.77.5 1.018.9l-.635.416a1.979 1.979 0 0 0-.802-.68 2.476 2.476 0 0 0-1.042-.22c-.447 0-.851.1-1.21.3a2.137 2.137 0 0 0-.85.82c-.208.354-.311.77-.311 1.246 0 .477.103.893.311 1.247.207.354.491.63.85.83.359.193.763.29 1.21.29.375 0 .722-.074 1.042-.22a2.01 2.01 0 0 0 .802-.67l.635.416a2.42 2.42 0 0 1-1.018.9 3.4 3.4 0 0 1-1.449.3ZM168.729 44.633v-5.564l.215.22h-2.598v-.716h5.616v.716h-2.598l.215-.22v5.564h-.85ZM173.192 44.633v-6.06h.85v4.813l4.204-4.813H179v6.06h-.85v-4.825l-4.192 4.825h-.766Z" fill="#fff"/><path fill-rule="evenodd" clip-rule="evenodd" d="M17.798 38.733c-.113.426-.225.859-.31 1.292-.02.113-.041.22-.063.333-.02.1-.042.206-.077.305-.147.036-.28.085-.421.128.084.113.175.234.267.347v.036l.02.596c0 .163 0 .326-.013.482l-.021.234-.092.554-.042.028a4.682 4.682 0 0 0-.456.59 6.1 6.1 0 0 0-.218.361c-.232.454-.4.937-.52 1.426-.035.15-.07.305-.07.462v.056l.056.355c.176-.199.358-.397.54-.589.183-.191.366-.39.556-.575v.398c0 .716.02 1.433.049 2.15.014.468.021.936.028 1.404 0 .277.007.547.021.824l-.197.34c-.14.277-.267.568-.372.866l-.028.078.155.241c.105-.042.203-.07.28-.156l.036-.021c.07-.036.14-.071.217-.1.043.54.092 1.072.14 1.611.022.27.05.54.078.809l-.168.206-.092.142c-.098.17-.175.347-.224.539l-.015.07.19.313.415-.305c.035.355.077.71.112 1.064.028.34 0 .681-.05 1.022l-.041.213c-.021.092-.05.177-.078.27-.028.07-.063.148-.091.22l-.21.61-.113.418-.056.135c-.246.624-.436 1.277-.625 1.923.224-.291.45-.59.688-.873.063-.078.133-.156.197-.227v-.014c.14-.142.273-.284.414-.412l.105-.092v-.014c.106-.071.204-.142.323-.199l.113-.042c.049 0 .098-.015.154-.015.05 0 .099.015.148.022l.105.042c.19.085.351.213.506.348.428.383.843.773 1.257 1.164.176.17.344.34.52.518l-.302-.916a20.685 20.685 0 0 1-.436-.645c-.049-.071-.091-.142-.14-.213-.26-.497-.527-.987-.759-1.497a8.935 8.935 0 0 1-.232-.603 5.927 5.927 0 0 1-.09-.334l-.043-.227a2.646 2.646 0 0 1-.021-.334v-.163l.112-1.248h.113l.112.177.183-.596.077-.248.014-.043.169-.582.042-.12a1.55 1.55 0 0 1 .168-.32c.05-.07.099-.142.155-.206l.112-.113c-.049-.078-.098-.15-.147-.227-.169-.284-.33-.575-.492-.859.021-.12.042-.24.07-.361.007-.064.014-.128.014-.192.021-.376.035-.752.057-1.128l.056-.014c.098-.057.196-.114.295-.164l-.24-.638.183-.142.12-.135-.091-.135-.092-.397.148-.071.218-.142-.211-.177-.028-.036-.05-.12c-.014-.071-.014-.142-.02-.213l.042-.014.063-.029.147-.113-.077-.15-.084-.375.098-.05.14-.114-.07-.134a2.861 2.861 0 0 1-.056-.341l-.014-.199c.077-.05.162-.099.239-.156l-.134-.191c-.07-.121-.133-.249-.196-.376.126-.008.26-.029.386-.036l-.133-.227-.092-.213-.126-.546.204-.156-.246-.497.105-.106-.07-.17.056-.015c-.14-.255-.288-.51-.393-.78l-.063-.206c-.021-.064-.043-.12-.064-.185-.182-.51-.386-1.014-.555-1.525-.168-.525-.35-1.043-.47-1.582-.028-.15-.063-.305-.056-.462l.02-.127a1.11 1.11 0 0 0-.154-.093l-.042-.02-.063-.015H18.1l-.106.057-.042.085c-.042.177-.091.362-.14.54m-.92-1.902c-.38-.249-.759-.497-1.124-.767-.091-.07-.183-.135-.281-.205a2.183 2.183 0 0 0-.267-.178c-.133.071-.267.12-.407.178-.014-.142-.036-.284-.043-.426l-.02-.029-.4-.454a5.465 5.465 0 0 0-.345-.354l-.183-.164-.45-.354h-.048a3.813 3.813 0 0 1-.745-.135 3.856 3.856 0 0 1-.407-.128 7.728 7.728 0 0 1-1.377-.724c-.126-.092-.26-.184-.372-.298-.014-.014-.028-.028-.035-.042l-.21-.298c.266.035.54.064.807.092.267.028.54.057.815.071-.092-.092-.183-.192-.274-.29a63.375 63.375 0 0 1-1.447-1.64c-.31-.362-.632-.71-.948-1.064-.183-.206-.373-.412-.548-.625l-.38-.127a7.492 7.492 0 0 1-.87-.405l-.078-.042-.049-.284c.105-.036.204-.078.316-.064h.042c.078-.021.155-.043.232-.071-.337-.426-.667-.858-1.004-1.291a22.75 22.75 0 0 1-.499-.653l-.267-.05-.168-.05a2.224 2.224 0 0 1-.541-.255l-.063-.042-.078-.362.52-.036c-.218-.29-.428-.575-.646-.865-.218-.27-.47-.511-.745-.724l-.175-.135a1.67 1.67 0 0 0-.239-.149c-.07-.035-.147-.07-.218-.106l-.576-.32-.365-.24-.133-.065C1.98 22.364 1.39 21.995.8 21.64c.372.071.737.15 1.11.206l.301.043h.014c.197.028.394.042.59.05h.14l.015.014c.126-.015.253-.022.372-.057l.12-.043c.042-.028.084-.056.119-.085.035-.035.063-.07.098-.113l.05-.1c.084-.184.119-.383.14-.589.056-.56.098-1.12.133-1.681.014-.241.021-.476.029-.717l.407.88c.035.255.077.51.12.76.013.084.034.162.041.248.148.539.288 1.078.471 1.603.07.206.155.397.246.596.049.107.105.206.161.305l.127.192c.07.092.133.177.21.262l.12.12.941.867.084-.071-.035-.206c.21.12.281.163.548.326l.232.135.042.028.527.32.112.064c.112.056.225.099.344.127.085.021.169.043.253.05h.162c.014.1.028.192.049.277.07.319.147.638.232.957.098.072.196.15.302.22.049.043.098.086.147.135.274.27.54.54.822.802l.056-.021.337-.064.26.624.232-.014.182.021.022.156.203.355.162-.042.267-.036-.035.27v.042l.049.121c.035.064.084.113.126.17l.035-.014.063-.021h.19l.042.156.197.34.105-.02h.183l.042.141c.056.107.126.199.197.291l.119.156.281-.042.035.227c.028.134.07.276.12.404.098-.078.21-.149.316-.22l.056.255.077.213.28.49.26-.014.162.525h.155l.063.177.05-.028c.07.277.133.567.245.837.028.064.063.128.091.192.028.056.056.12.078.177.217.497.414 1 .639 1.49.232.497.456 1.008.737 1.483.077.128.162.27.274.376l.106.085a1.543 1.543 0 0 1-.05.17l-.02.043-.036.05-.07.056-.12.029-.09-.036c-.155-.106-.317-.205-.478-.312v.036Zm2.76.078a24.2 24.2 0 0 0 1.124-.767c.09-.07.182-.134.273-.205.085-.064.176-.128.267-.178.134.071.267.12.408.178.014-.142.035-.284.042-.426l.021-.029.4-.454c.113-.127.225-.24.345-.354l.182-.163.45-.355h.049c.253-.014.498-.071.744-.135a3.91 3.91 0 0 0 .408-.128c.484-.191.94-.44 1.376-.724.127-.092.26-.184.372-.297a.186.186 0 0 0 .036-.043l.21-.298c-.267.035-.54.064-.807.092-.267.029-.541.057-.815.071.091-.1.183-.191.274-.29.492-.54.976-1.086 1.447-1.64.309-.355.632-.71.948-1.064.183-.206.372-.412.548-.625l.379-.127c.302-.114.59-.256.87-.405l.078-.042.05-.284c-.106-.036-.204-.078-.317-.064h-.042a2.846 2.846 0 0 1-.232-.07c.337-.427.668-.86 1.005-1.292.168-.213.337-.433.498-.653l.267-.05.169-.05c.19-.063.372-.141.54-.255l.064-.042.077-.362-.52-.036c.218-.29.429-.574.646-.865.218-.27.471-.511.745-.724l.176-.135c.077-.057.154-.106.238-.149.07-.035.148-.07.218-.106l.576-.32.365-.24.134-.065c.618-.305 1.208-.674 1.798-1.029-.372.071-.738.15-1.11.206l-.302.043h-.014a5.51 5.51 0 0 1-.59.05h-.14l-.014.014c-.127-.014-.253-.022-.373-.057l-.12-.043a1.753 1.753 0 0 1-.119-.085c-.035-.035-.063-.07-.098-.113l-.05-.1a1.851 1.851 0 0 1-.14-.589 45.083 45.083 0 0 1-.133-1.681 24.866 24.866 0 0 1-.028-.717l-.407.88c-.035.256-.078.51-.12.76-.014.084-.035.162-.042.248-.148.539-.288 1.078-.47 1.603-.07.206-.155.397-.246.596a4.14 4.14 0 0 1-.162.305l-.126.192c-.07.092-.134.177-.211.262l-.12.12-.94.867-.085-.071.035-.206c-.21.12-.274.163-.548.326l-.231.135-.043.021-.526.32-.113.063a2.014 2.014 0 0 1-.597.178h-.161c-.014.1-.028.191-.05.277-.07.319-.147.638-.231.958-.099.07-.197.148-.302.22-.05.042-.099.085-.148.134-.274.27-.54.54-.821.802l-.057-.021-.337-.064-.26.631-.231-.014-.183.021-.021.157-.204.354-.161-.042-.267-.036.035.27v.042l-.05.121c-.034.064-.084.114-.126.17l-.035-.014-.063-.021h-.19l-.042.156-.196.34-.106-.02h-.182l-.043.141a2.103 2.103 0 0 1-.196.291l-.12.156-.28-.042-.036.227a2.68 2.68 0 0 1-.119.404c-.098-.078-.21-.149-.316-.22l-.056.256-.078.212-.28.49-.26-.014-.162.525h-.154l-.064.177-.049-.028c-.07.277-.133.568-.246.837-.028.064-.063.128-.09.192-.029.056-.057.12-.078.177-.218.497-.415 1-.64 1.49-.231.497-.456 1.008-.737 1.483-.077.128-.161.27-.274.376l-.105.085c.014.057.028.114.05.17l.02.043.035.05.07.056.12.029.091-.036c.155-.106.316-.205.478-.312l.007.036ZM37 17.092H0v41.629c0 1.32 1.117 2.398 2.48 2.398h12.396c1.91 0 3.076.901 3.603 2.88.681-1.965 2.15-2.88 3.905-2.88h11.673c1.616 0 2.929-1.277 2.929-2.831v-41.21l.014.014ZM25.883 13.136s-2.62-.608-6.981-.587c-4.354.021-7.349.806-7.349.806-.076.014-.194.41-.125.46.07.056 1.803.536 4.513.586 2.711.056 5.387-.071 7.141-.234 1.747-.162 2.85-.445 2.974-.572.035-.07.09-.43-.173-.46Zm4.173-10.649-3.147 8.826s.222.176.277.501c.056.318-.492.41-.492.41s-.125.537 0 .77c.125.234.291.248.291.446 0 .197-.02.41-.478.678-1.193.586-5.858.82-8.569.855-2.71.035-6.038-.41-6.884-.587-.839-.176-.839-.466-.825-.734.02-.269.312-.573.312-.573l-.035-.572s-.055-.035-.145-.035-.292-.128-.347-.36c-.055-.234.257-.552.257-.552L6.873 2.826h-.098A.766.766 0 0 1 6 2.07c0-.417.347-.756.776-.756.43 0 .777.34.777.756 0 .149-.042.29-.118.403.659.99 1.712 1.696 2.683 2.035.908.29 2.309.763 2.309.763s.332-1.01.457-1.448c0-.24-.042-.495-.097-.763a.63.63 0 0 1-.381-.446.621.621 0 0 1 .492-.741c.347-.071.686.14.756.473a.607.607 0 0 1-.153.551c.035.24.083.466.153.678.09.128.2.276.332.431a9.834 9.834 0 0 0 1.248 1.23s.479-.41 1.318-.876c.214-.12.402-.262.561-.41.61-.636 1.02-1.42 1.026-2.523a.754.754 0 0 1-.416-.67c0-.418.347-.757.777-.757.43 0 .776.34.776.756 0 .29-.166.544-.416.671 0 .679.153 1.237.416 1.71.166.226.367.453.603.65a7.042 7.042 0 0 0 1.976 1.23c.201-.106.749-.587 1.338-1.413.055-.078.104-.149.145-.226.056-.234.098-.48.111-.75a.621.621 0 0 1-.2-.536.64.64 0 0 1 .713-.537c.347.042.597.36.548.7a.612.612 0 0 1-.347.473c-.048.339-.048.657-.02.953.138.636.52 1.477.52 1.477s.332-.162.95-.41a8.465 8.465 0 0 1 1.386-.473c.957-.382 1.976-1.13 2.586-2.148a.716.716 0 0 1-.139-.396.767.767 0 0 1 .742-.791c.43-.021.79.304.811.72a.767.767 0 0 1-.742.792c-.069 0-.131 0-.194-.014l-.02.035.013.014Z" fill="#fff"/></svg><svg fill="none" viewBox="0 0 39 64" id="logo-sm" xmlns="http://www.w3.org/2000/svg"><path fill-rule="evenodd" clip-rule="evenodd" d="M18.76 38.935c-.119.423-.237.852-.326 1.282l-.067.33c-.022.099-.044.205-.081.303-.156.035-.296.084-.444.127.088.112.185.232.281.345v.035l.022.591c0 .162 0 .324-.015.479l-.022.232-.096.549-.044.028a4.707 4.707 0 0 0-.711.943c-.245.45-.422.93-.548 1.415a1.909 1.909 0 0 0-.074.457v.057l.06.352c.184-.197.377-.395.57-.584.192-.19.384-.388.584-.57v.394c0 .71.022 1.421.052 2.132.015.465.022.93.03 1.394 0 .274.007.542.022.816l-.208.338a7.011 7.011 0 0 0-.392.859l-.03.077.163.24c.111-.043.215-.07.296-.155l.038-.021c.073-.036.148-.07.229-.099.044.535.096 1.063.148 1.598.022.267.052.535.082.802l-.178.204-.096.141a2.048 2.048 0 0 0-.237.535l-.015.07.2.31.437-.303c.037.352.081.704.118 1.056.03.338 0 .676-.052 1.014l-.044.21c-.022.092-.052.177-.082.268l-.096.218-.222.606-.119.415-.059.134c-.259.62-.459 1.267-.659 1.907.237-.288.474-.584.726-.866.067-.077.14-.154.207-.225v-.014c.148-.14.289-.281.437-.408l.111-.092v-.014c.111-.07.215-.14.34-.197l.119-.042c.052 0 .104-.014.163-.014.052 0 .104.014.155.021l.111.042c.2.085.37.212.533.345.452.38.889.767 1.326 1.154.185.17.362.338.548.514l-.319-.908c-.155-.21-.31-.422-.459-.64-.052-.07-.096-.14-.148-.211-.274-.493-.555-.979-.8-1.485a8.5 8.5 0 0 1-.244-.599 5.547 5.547 0 0 1-.096-.33l-.045-.226a2.484 2.484 0 0 1-.022-.33v-.162l.119-1.24h.118l.119.177.192-.591.082-.247.014-.042c.06-.19.119-.38.178-.577l.044-.12c.045-.112.104-.211.178-.317.052-.07.104-.14.163-.204l.119-.112c-.052-.078-.104-.148-.156-.225-.178-.282-.348-.57-.518-.852.022-.12.044-.24.074-.36.007-.063.015-.126.015-.19.022-.372.037-.745.059-1.118l.06-.014c.103-.057.206-.113.31-.162l-.252-.634.193-.14.126-.134-.097-.134-.096-.394.156-.07.23-.141-.223-.176-.03-.035-.051-.12c-.015-.07-.015-.14-.023-.211l.045-.014.066-.028.156-.113-.081-.148-.09-.373.104-.05.148-.112-.074-.133c-.03-.113-.044-.226-.059-.338l-.015-.198c.082-.049.17-.098.252-.154l-.14-.19c-.075-.12-.141-.247-.208-.373.133-.007.274-.028.407-.036l-.14-.225-.097-.211-.133-.542.215-.155-.26-.492.112-.106-.074-.169.059-.014c-.148-.253-.304-.507-.415-.774l-.066-.204c-.023-.064-.045-.12-.067-.183-.192-.507-.407-1.007-.585-1.514-.178-.52-.37-1.034-.496-1.57-.03-.147-.066-.302-.059-.457l.022-.126a1.187 1.187 0 0 0-.163-.092l-.044-.021-.067-.014h-.096l-.111.056-.044.085c-.045.176-.097.359-.148.535m-.97-1.887c-.4-.246-.8-.492-1.185-.76-.096-.07-.192-.134-.296-.204a2.307 2.307 0 0 0-.281-.176c-.14.07-.282.12-.43.176-.014-.14-.037-.282-.044-.422l-.022-.029-.422-.45a5.605 5.605 0 0 0-.363-.352l-.193-.162-.473-.352h-.052a4.247 4.247 0 0 1-.785-.133 4.28 4.28 0 0 1-.43-.127 8.341 8.341 0 0 1-1.45-.718c-.134-.092-.274-.183-.393-.296-.014-.014-.03-.028-.037-.042l-.222-.295c.281.035.57.063.852.091.28.028.57.056.858.07-.096-.091-.192-.19-.288-.288a64.111 64.111 0 0 1-1.525-1.626c-.326-.359-.667-.704-1-1.056-.192-.204-.392-.408-.577-.62l-.4-.126a8.139 8.139 0 0 1-.918-.401l-.082-.042-.051-.282c.11-.035.214-.077.333-.063h.044a3.16 3.16 0 0 0 .245-.07c-.356-.423-.704-.852-1.06-1.282a22.97 22.97 0 0 1-.525-.647l-.281-.05-.178-.049a2.41 2.41 0 0 1-.57-.253l-.066-.042-.082-.36.548-.034-.681-.86a4.642 4.642 0 0 0-.785-.717l-.185-.134a1.79 1.79 0 0 0-.252-.148c-.074-.035-.155-.07-.23-.105l-.606-.317-.385-.24L2.74 23c-.652-.302-1.274-.668-1.896-1.02.392.07.777.148 1.17.204l.318.042h.015a6.2 6.2 0 0 0 .622.05h.148l.015.014c.133-.014.266-.022.392-.057l.126-.042c.044-.028.089-.056.126-.084.037-.036.066-.07.103-.113l.052-.099c.089-.183.126-.38.148-.584.06-.556.104-1.112.14-1.668.016-.24.023-.471.03-.71l.43.872c.037.253.081.507.126.753.014.084.037.162.044.246.156.535.304 1.07.496 1.591.074.204.163.394.26.591.051.106.11.204.17.303l.133.19c.074.091.14.176.222.26l.126.12.992.859.089-.07-.037-.205c.222.12.296.162.577.324l.244.134.045.028.555.317.118.063c.119.056.237.099.363.127.089.02.178.042.267.049h.17c.015.099.03.19.052.274.074.317.155.634.244.95.104.071.207.149.318.219.052.042.104.084.156.134.289.267.57.534.866.795l.06-.021.355-.063.274.619.244-.014.192.02.023.156.214.352.17-.043.282-.035-.037.268v.042l.052.12c.037.063.089.112.133.169l.037-.014.067-.022h.2l.044.155.207.338.111-.021h.193l.044.14c.06.106.133.198.207.29l.126.154.296-.042.037.225c.03.134.074.275.126.401.104-.077.222-.147.333-.218l.06.254.081.21.296.486.274-.014.17.521h.163l.067.176.052-.028c.074.274.14.563.259.83.03.064.066.127.096.19.03.057.06.12.081.176.23.493.437.993.674 1.479.244.492.481.999.777 1.47.082.127.17.268.29.374l.11.084c-.014.056-.03.113-.052.169l-.022.042-.037.05-.074.056-.126.028-.096-.035c-.163-.106-.333-.204-.503-.31v.035Zm2.91.078c.399-.247.799-.493 1.184-.76.096-.07.192-.134.288-.205.09-.063.185-.126.282-.175.14.07.281.12.43.175.014-.14.036-.281.043-.422l.023-.028.422-.45c.118-.127.237-.24.362-.352l.193-.162.474-.352h.052c.266-.014.525-.07.784-.134.148-.035.289-.077.43-.127.51-.19.992-.436 1.45-.718.134-.091.275-.183.393-.295.015-.014.03-.028.037-.042l.222-.296c-.281.035-.57.063-.851.091-.282.029-.57.057-.859.07.096-.098.192-.19.289-.288a64.281 64.281 0 0 0 1.525-1.626c.326-.352.666-.704 1-1.055.192-.204.392-.409.577-.62l.4-.127c.318-.112.621-.253.918-.4l.08-.043.053-.281c-.111-.036-.215-.078-.333-.064h-.045a3.162 3.162 0 0 1-.244-.07c.355-.422.703-.852 1.058-1.281.178-.211.356-.43.526-.648l.282-.049.177-.05c.2-.063.392-.14.57-.253l.067-.042.081-.359-.548-.035.681-.859c.23-.267.496-.506.785-.718l.185-.133c.082-.057.163-.106.252-.148.074-.035.156-.07.23-.106l.607-.316.385-.24.14-.063c.652-.303 1.274-.669 1.895-1.02-.392.07-.777.147-1.17.203-.103.015-.214.029-.318.043h-.014a6.172 6.172 0 0 1-.622.049h-.148l-.015.014c-.133-.014-.267-.021-.393-.056l-.125-.043a1.855 1.855 0 0 1-.126-.084c-.037-.035-.067-.07-.104-.113l-.052-.098a1.749 1.749 0 0 1-.148-.584 42.23 42.23 0 0 1-.14-1.668c-.015-.24-.023-.472-.03-.711l-.43.872c-.036.254-.08.507-.125.753-.015.085-.037.162-.045.247-.155.535-.303 1.07-.496 1.59a5.997 5.997 0 0 1-.259.592c-.052.105-.11.204-.17.302l-.133.19c-.074.092-.141.176-.222.26l-.126.12-.992.86-.09-.071.038-.204c-.222.12-.289.162-.578.323l-.244.134-.044.021-.556.317-.118.063a2.206 2.206 0 0 1-.363.127c-.089.021-.178.042-.266.05h-.17c-.015.098-.03.19-.052.274-.074.317-.156.633-.245.95-.103.07-.207.148-.318.218a2.573 2.573 0 0 0-.155.134c-.29.267-.57.535-.867.795l-.059-.02-.355-.064-.274.626-.244-.014-.193.021-.022.155-.215.352-.17-.042-.281-.035.037.267v.042l-.052.12c-.037.063-.09.113-.134.169l-.037-.014-.066-.021h-.2l-.044.155-.208.338-.11-.022h-.193l-.045.141c-.059.106-.133.197-.207.289l-.126.155-.296-.043-.037.226c-.03.133-.074.274-.126.4-.104-.077-.222-.147-.333-.217l-.06.253-.08.211-.297.486-.274-.014-.17.52h-.163l-.067.176-.051-.028c-.074.275-.14.563-.26.83-.029.064-.066.128-.096.19-.03.057-.059.12-.081.177-.23.493-.437.992-.674 1.478-.244.493-.481 1-.777 1.471-.082.127-.17.267-.289.373l-.11.084c.014.057.029.113.05.17l.023.042.037.049.074.056.126.028.096-.035c.163-.105.333-.204.504-.31l.007.036ZM39 17.468H0v41.295c0 1.31 1.177 2.379 2.613 2.379H15.68c2.014 0 3.243.894 3.798 2.858.718-1.95 2.265-2.858 4.116-2.858h12.304c1.703 0 3.087-1.267 3.087-2.808v-40.88l.015.014ZM27.38 12.759s-2.797-.59-7.451-.57c-4.647.021-7.844.783-7.844.783-.081.014-.207.398-.133.446.074.055 1.924.522 4.817.57 2.893.055 5.75-.069 7.622-.227 1.865-.158 3.041-.432 3.174-.556.037-.069.096-.418-.185-.446Zm4.455-10.343-3.36 8.572s.237.172.296.488c.06.308-.525.398-.525.398s-.133.521 0 .748c.133.226.31.24.31.432s-.021.398-.51.66c-1.273.569-6.252.795-9.146.83-2.893.034-6.445-.399-7.348-.57-.895-.172-.895-.453-.88-.714.022-.26.333-.556.333-.556l-.037-.556s-.06-.034-.156-.034-.31-.124-.37-.35c-.059-.227.274-.535.274-.535L7.09 2.745h-.103c-.46 0-.829-.33-.829-.734 0-.405.37-.734.829-.734.458 0 .828.329.828.734a.656.656 0 0 1-.125.391c.703.961 1.827 1.647 2.863 1.977.97.281 2.464.741 2.464.741s.356-.981.489-1.407c0-.233-.045-.48-.104-.741a.633.633 0 0 1-.407-.433c-.081-.329.156-.652.526-.72.37-.069.732.137.806.46a.554.554 0 0 1-.163.535c.037.233.09.453.163.659.096.123.215.268.355.419a10.14 10.14 0 0 0 1.332 1.194s.51-.398 1.406-.851c.23-.117.43-.254.6-.398.65-.618 1.087-1.38 1.095-2.45-.267-.124-.444-.371-.444-.653 0-.405.37-.734.829-.734.458 0 .828.33.828.734 0 .282-.177.529-.444.652 0 .66.163 1.202.444 1.661.178.22.393.44.644.632.88.693 1.584.988 2.109 1.194.215-.103.8-.57 1.428-1.373.06-.075.111-.144.155-.22.06-.226.104-.466.119-.727a.575.575 0 0 1-.215-.521c.052-.33.392-.563.762-.522.37.041.637.35.585.68a.603.603 0 0 1-.37.46c-.052.329-.052.638-.022.926.148.618.555 1.434.555 1.434s.355-.158 1.014-.398a9.667 9.667 0 0 1 1.48-.46c1.02-.37 2.108-1.098 2.76-2.086a.657.657 0 0 1-.148-.384c-.023-.405.333-.749.791-.77.46-.02.844.296.866.7.022.406-.333.749-.792.77-.074 0-.14 0-.207-.014l-.022.034.015.014Z" fill="#fff"/></svg><svg fill="none" viewBox="0 0 32 32" id="odnok" xmlns="http://www.w3.org/2000/svg"><rect width="32" height="32" rx="4" fill="#fff"/><path d="M20.99 18.235c.42-.42.48-1.02.12-1.62-.3-.48-.84-.72-1.44-.6-.239.06-.479.18-.719.36-1.859 1.26-4.378 1.2-6.237-.06l-.36-.18c-.659-.3-1.319-.18-1.678.42-.42.6-.36 1.26.18 1.8.12.12.24.18.3.3l.06.06c.839.659 1.858 1.079 3.178 1.259l-.78.78-2.039 2.038c-.18.18-.42.48-.42.9 0 .54.3 1.08.84 1.319.18.12.36.12.54.12.3 0 .66-.12.9-.42l2.338-2.339.06-.06s.06 0 .06.06c.48.54 1.02 1.02 1.499 1.56l.72.72c.3.299.54.419.9.419.539.06 1.139-.3 1.378-.84a1.2 1.2 0 0 0-.3-1.439c-.6-.6-1.199-1.26-1.858-1.859l-1.02-1.02c.54-.06 1.14-.18 1.68-.42.899-.299 1.558-.719 2.098-1.258Z" fill="#2F2F2F"/><path d="M15.833 16.555c2.579 0 4.677-2.039 4.677-4.617 0-1.26-.48-2.459-1.379-3.359-.9-.9-2.039-1.379-3.238-1.379-2.579 0-4.618 2.1-4.678 4.618 0 1.26.48 2.399 1.38 3.298.84.96 1.978 1.44 3.238 1.44Zm-1.32-5.996c.36-.36.84-.54 1.32-.54 1.08 0 1.859.84 1.859 1.859 0 1.08-.84 1.859-1.86 1.859-1.079 0-1.858-.84-1.858-1.86 0-.479.18-.959.54-1.319Z" fill="#2F2F2F"/><path d="M20.99 18.235c.42-.42.48-1.02.12-1.62-.3-.48-.84-.72-1.44-.6-.239.06-.479.18-.719.36-1.859 1.26-4.378 1.2-6.237-.06l-.36-.18c-.659-.3-1.319-.18-1.678.42-.42.6-.36 1.26.18 1.8.12.12.24.18.3.3l.06.06c.839.659 1.858 1.079 3.178 1.259l-.78.78-2.039 2.038c-.18.18-.42.48-.42.9 0 .54.3 1.08.84 1.319.18.12.36.12.54.12.3 0 .66-.12.9-.42l2.338-2.339.06-.06s.06 0 .06.06c.48.54 1.02 1.02 1.499 1.56l.72.72c.3.299.54.419.9.419.539.06 1.139-.3 1.378-.84a1.2 1.2 0 0 0-.3-1.439c-.6-.6-1.199-1.26-1.858-1.859l-1.02-1.02c.54-.06 1.14-.18 1.68-.42.899-.299 1.558-.719 2.098-1.258Z" fill="#2F2F2F"/></svg><svg fill="none" viewBox="0 0 32 32" id="tg" xmlns="http://www.w3.org/2000/svg"><rect width="32" height="32" rx="4" fill="#fff"/><path d="m22.4 10.081-2.404 12.552s-.337.87-1.26.453l-5.548-4.404-.026-.013c.75-.697 6.56-6.107 6.814-6.353.393-.38.149-.605-.308-.319l-8.583 5.645-3.31-1.154s-.522-.192-.572-.61c-.051-.417.588-.643.588-.643l13.5-5.484s1.109-.505 1.109.33Z" fill="#2F2F2F"/></svg><svg fill="none" viewBox="0 0 32 32" id="vk" xmlns="http://www.w3.org/2000/svg"><rect width="32" height="32" rx="4" fill="#fff"/><path d="M16.786 21.6c-6.013 0-9.443-4.204-9.586-11.2h3.012c.099 5.135 2.32 7.31 4.079 7.758V10.4h2.836v4.429c1.737-.19 3.562-2.209 4.177-4.429h2.836a8.63 8.63 0 0 1-1.358 3.202 8.445 8.445 0 0 1-2.5 2.382 8.717 8.717 0 0 1 2.85 2.314A8.922 8.922 0 0 1 24.8 21.6h-3.122a5.552 5.552 0 0 0-1.683-2.701 5.38 5.38 0 0 0-2.868-1.301V21.6h-.341Z" fill="#2F2F2F"/></svg></svg>