<svg width="39" height="66" viewBox="0 0 39 66" fill="none" xmlns="http://www.w3.org/2000/svg">
<path fill-rule="evenodd" clip-rule="evenodd" d="M18.7597 38.936C18.6412 39.3583 18.5228 39.7877 18.4339 40.217C18.4117 40.3296 18.3895 40.4352 18.3673 40.5478C18.3451 40.6464 18.3229 40.752 18.2859 40.8505C18.1304 40.8857 17.9897 40.935 17.8417 40.9772C17.9305 41.0898 18.0268 41.2095 18.123 41.3221V41.3573L18.1452 41.9485C18.1452 42.1104 18.1452 42.2723 18.1304 42.4271L18.1082 42.6594L18.012 43.2084L17.9675 43.2365C17.7899 43.4125 17.6344 43.6166 17.4863 43.8207C17.4049 43.9404 17.3309 44.053 17.2568 44.1797C17.0125 44.6302 16.8349 45.1088 16.709 45.5944C16.672 45.7422 16.635 45.8971 16.635 46.0519C16.635 46.073 16.635 46.0871 16.635 46.1082L16.6942 46.4602C16.8793 46.2631 17.0718 46.066 17.2642 45.876C17.4567 45.6859 17.6492 45.4888 17.8491 45.3058C17.8491 45.4325 17.8491 45.5663 17.8491 45.7C17.8491 46.4109 17.8713 47.1218 17.9009 47.8327C17.9157 48.2972 17.9231 48.7617 17.9305 49.2263C17.9305 49.5008 17.9379 49.7682 17.9527 50.0427L17.7454 50.3806C17.5974 50.6551 17.4641 50.9437 17.3531 51.2393L17.3235 51.3167L17.4863 51.556C17.5974 51.5138 17.701 51.4856 17.7825 51.4012L17.8195 51.3801C17.8935 51.3449 17.9675 51.3097 18.049 51.2815C18.0934 51.8164 18.1452 52.3443 18.197 52.8792C18.2192 53.1467 18.2489 53.4142 18.2785 53.6816L18.1008 53.8857L18.0046 54.0265C17.9009 54.1954 17.8195 54.3714 17.7677 54.5614L17.7528 54.6318L17.9527 54.9415L18.3895 54.6389C18.4265 54.9908 18.471 55.3427 18.508 55.6946C18.5376 56.0325 18.508 56.3703 18.4562 56.7082L18.4117 56.9193C18.3895 57.0108 18.3599 57.0953 18.3303 57.1868C18.3007 57.2572 18.2637 57.3346 18.2341 57.405L18.012 58.0103L17.8935 58.4256L17.8343 58.5593C17.5752 59.1787 17.3753 59.8262 17.1754 60.4667C17.4123 60.1781 17.6492 59.8825 17.9009 59.601C17.9675 59.5236 18.0416 59.4461 18.1082 59.3758V59.3617C18.2563 59.2209 18.3969 59.0802 18.545 58.9535L18.656 58.862V58.8479C18.7671 58.7775 18.8707 58.7071 18.9966 58.6508L19.115 58.6086C19.1669 58.6086 19.2187 58.5945 19.2779 58.5945C19.3297 58.5945 19.3815 58.6086 19.4334 58.6156L19.5444 58.6578C19.7443 58.7423 19.9146 58.869 20.0774 59.0027C20.529 59.3828 20.9658 59.7699 21.4026 60.157C21.5877 60.326 21.7654 60.4949 21.9505 60.6708L21.6321 59.7629C21.4767 59.5517 21.3212 59.3406 21.1731 59.1224C21.1213 59.052 21.0769 58.9816 21.0251 58.9112C20.7511 58.4185 20.4698 57.9329 20.2255 57.4261C20.1367 57.229 20.0552 57.0319 19.9812 56.8278C19.9442 56.7152 19.9146 56.6096 19.885 56.497L19.8405 56.2718C19.8257 56.1592 19.8183 56.0536 19.8183 55.941V55.7791L19.9368 54.5403H20.0552L20.1737 54.7163C20.2477 54.4911 20.2699 54.4207 20.3662 54.1251L20.4476 53.8787L20.4624 53.8365C20.5216 53.6464 20.5809 53.4564 20.6401 53.2593L20.6845 53.1397C20.7289 53.0271 20.7882 52.9285 20.8622 52.8229C20.914 52.7526 20.9658 52.6822 21.0251 52.6188L21.1435 52.5062C21.0917 52.4288 21.0399 52.3584 20.988 52.281C20.8104 51.9994 20.6401 51.7109 20.4698 51.4293C20.492 51.3097 20.5142 51.19 20.5438 51.0704C20.5513 51.007 20.5587 50.9437 20.5587 50.8803C20.5809 50.5073 20.5957 50.1342 20.6179 49.7612L20.6771 49.7471C20.7808 49.6908 20.8844 49.6345 20.988 49.5852L20.7363 48.9518L20.9288 48.811L21.0547 48.6773L20.9584 48.5435L20.8622 48.1494L21.0177 48.079L21.2472 47.9382L21.0251 47.7623L20.9954 47.7271L20.9436 47.6074C20.9288 47.537 20.9288 47.4667 20.9214 47.3963L20.9658 47.3822L21.0325 47.354L21.1879 47.2414L21.1065 47.0936L21.0177 46.7206L21.1213 46.6713L21.2694 46.5587L21.1953 46.425C21.1657 46.3123 21.1509 46.1997 21.1361 46.0871L21.1213 45.89C21.2027 45.8408 21.2916 45.7915 21.373 45.7352L21.2323 45.5452C21.1583 45.4255 21.0917 45.2988 21.0251 45.1721C21.1583 45.1651 21.299 45.144 21.4322 45.1369L21.2916 44.9117L21.1953 44.7005L21.0621 44.1586L21.2768 44.0037L21.0177 43.511L21.1287 43.4055L21.0547 43.2365L21.1139 43.2225C20.9658 42.9691 20.8104 42.7157 20.6993 42.4482C20.6771 42.3778 20.6549 42.3145 20.6327 42.2441C20.6105 42.1808 20.5883 42.1245 20.5661 42.0611C20.3736 41.5543 20.1589 41.0546 19.9812 40.5478C19.8035 40.027 19.611 39.5132 19.4852 38.9783C19.4556 38.8304 19.4186 38.6756 19.426 38.5208L19.4482 38.3941C19.3964 38.3589 19.3445 38.3307 19.2853 38.3026L19.2409 38.2814L19.1743 38.2674H19.078L18.967 38.3237L18.9226 38.4081C18.8781 38.5841 18.8263 38.7671 18.7745 38.9431M17.8047 37.0568C17.4049 36.8104 17.0051 36.5641 16.6202 36.2966C16.5239 36.2262 16.4277 36.1629 16.324 36.0925C16.2352 36.0291 16.139 35.9658 16.0427 35.9165C15.9021 35.9869 15.7614 36.0362 15.6133 36.0925C15.5985 35.9517 15.5763 35.8109 15.5689 35.6702L15.5467 35.642L15.1247 35.1916C15.0063 35.0649 14.8878 34.9522 14.762 34.8396L14.5695 34.6777L14.0957 34.3258H14.0438C13.7773 34.3117 13.5182 34.2554 13.2591 34.1921C13.111 34.1569 12.9704 34.1147 12.8297 34.0654C12.3189 33.8754 11.8377 33.629 11.3787 33.3475C11.2454 33.256 11.1048 33.1645 10.9863 33.0519C10.9715 33.0378 10.9567 33.0237 10.9493 33.0096L10.7272 32.714C11.0085 32.7492 11.2973 32.7774 11.5786 32.8055C11.8599 32.8337 12.1486 32.8618 12.4374 32.8759C12.3411 32.7844 12.2449 32.6859 12.1486 32.5873C11.6304 32.0524 11.1196 31.5104 10.6236 30.9614C10.2978 30.6025 9.95729 30.2576 9.62415 29.9057C9.43166 29.7015 9.23178 29.4974 9.0467 29.2863L8.64692 29.1596C8.32859 29.047 8.02506 28.9062 7.72893 28.7584L7.64749 28.7162L7.59567 28.4346C7.70672 28.3994 7.81036 28.3572 7.92882 28.3713H7.97323C8.05467 28.3502 8.1361 28.329 8.21754 28.3009C7.86219 27.8786 7.51424 27.4492 7.15888 27.0199C6.98121 26.8087 6.80353 26.5905 6.63326 26.3723L6.35194 26.3231L6.17426 26.2738C5.97437 26.2105 5.78189 26.133 5.60421 26.0204L5.53759 25.9782L5.45615 25.6192L6.00399 25.584C5.77449 25.2955 5.55239 25.0139 5.32289 24.7253C5.09339 24.4579 4.82688 24.2186 4.53816 24.0074L4.35308 23.8737C4.27164 23.8174 4.1902 23.7681 4.10137 23.7259C4.02733 23.6907 3.9459 23.6555 3.87187 23.6203L3.26481 23.3036L2.87984 23.0643L2.73918 23.0009C2.0877 22.6983 1.46583 22.3323 0.843964 21.9803C1.23633 22.0507 1.6213 22.1281 2.01367 22.1844C2.12472 22.1985 2.22836 22.2126 2.332 22.2267H2.34681C2.5541 22.2548 2.76139 22.2689 2.96868 22.2759H3.11674L3.13155 22.29C3.26481 22.2759 3.39806 22.2689 3.52392 22.2337L3.64977 22.1915C3.69419 22.1633 3.73861 22.1352 3.77563 22.107C3.81264 22.0718 3.84225 22.0366 3.87927 21.9944L3.93109 21.8959C4.01993 21.7129 4.05695 21.5158 4.07916 21.3117C4.13838 20.7556 4.1828 20.1996 4.21982 19.6436C4.23462 19.4042 4.24203 19.172 4.24943 18.9327L4.67882 19.8054C4.71583 20.0588 4.76025 20.3122 4.80467 20.5586C4.81948 20.643 4.84169 20.7204 4.84909 20.8049C5.00456 21.3398 5.15262 21.8748 5.3451 22.3956C5.41913 22.5997 5.50797 22.7898 5.60421 22.9868C5.65604 23.0924 5.71526 23.1909 5.77449 23.2895L5.90774 23.4795C5.98178 23.571 6.04841 23.6555 6.12984 23.74L6.25569 23.8596L7.24772 24.7183L7.33656 24.6479L7.29954 24.4438C7.52164 24.5635 7.59567 24.6057 7.87699 24.7676L8.1213 24.9013L8.16572 24.9295C8.3508 25.035 8.53588 25.1406 8.72096 25.2462L8.83941 25.3095C8.95786 25.3658 9.07631 25.4081 9.20216 25.4362C9.291 25.4573 9.37984 25.4785 9.46868 25.4855H9.63895C9.65376 25.584 9.66856 25.6755 9.69077 25.76C9.76481 26.0767 9.84624 26.3935 9.93508 26.7102C10.0387 26.7806 10.1424 26.858 10.2534 26.9284C10.3052 26.9706 10.3571 27.0128 10.4089 27.0621C10.6976 27.3296 10.9789 27.597 11.2751 27.8575L11.3343 27.8363C11.4527 27.8152 11.5712 27.7941 11.6896 27.773L11.9636 28.3924L12.2079 28.3783L12.4003 28.3994L12.4226 28.5543L12.6372 28.9062L12.8075 28.864L13.0888 28.8288L13.0518 29.0962V29.1385L13.1036 29.2581C13.1407 29.3215 13.1925 29.3707 13.2369 29.427L13.2739 29.413L13.3405 29.3918H13.5404L13.5849 29.5467L13.7921 29.8845L13.9032 29.8634H14.0957L14.1401 30.0042C14.1993 30.1098 14.2733 30.2013 14.3474 30.2928L14.4732 30.4476C14.5769 30.4335 14.6731 30.4195 14.7694 30.4054L14.8064 30.6306C14.836 30.7644 14.8804 30.9051 14.9322 31.0318C15.0359 30.9544 15.1543 30.884 15.2654 30.8136L15.3246 31.067L15.406 31.2782L15.7022 31.7638L15.9761 31.7497L16.1464 32.2706H16.3092L16.3759 32.4465L16.4277 32.4184C16.5017 32.6929 16.5683 32.9815 16.6868 33.2489C16.7164 33.3123 16.7534 33.3756 16.783 33.439C16.8126 33.4953 16.8423 33.5586 16.8645 33.6149C17.094 34.1076 17.3013 34.6074 17.5382 35.093C17.7825 35.5857 18.0194 36.0925 18.3155 36.5641C18.3969 36.6908 18.4858 36.8315 18.6042 36.9371L18.7153 37.0216C18.7005 37.0779 18.6856 37.1342 18.6634 37.1905L18.6412 37.2327L18.6042 37.282L18.5302 37.3383L18.4043 37.3664L18.3081 37.3313C18.1452 37.2257 17.9749 37.1271 17.8047 37.0216V37.0568ZM20.7141 37.1342C21.1139 36.8878 21.5137 36.6415 21.8986 36.374C21.9949 36.3036 22.0911 36.2403 22.1874 36.1699C22.2762 36.1066 22.3724 36.0432 22.4687 35.9939C22.6093 36.0643 22.75 36.1136 22.8981 36.1699C22.9129 36.0291 22.9351 35.8884 22.9425 35.7476L22.9647 35.7194L23.3867 35.269C23.5051 35.1423 23.6236 35.0297 23.7494 34.9171L23.9419 34.7552L24.4157 34.4032H24.4675C24.7341 34.3892 24.9932 34.3329 25.2523 34.2695C25.4003 34.2343 25.541 34.1921 25.6817 34.1428C26.1925 33.9528 26.6737 33.7064 27.1327 33.4249C27.2659 33.3334 27.4066 33.2419 27.5251 33.1293C27.5399 33.1152 27.5547 33.1011 27.5621 33.087L27.7842 32.7914C27.5028 32.8266 27.2141 32.8548 26.9328 32.8829C26.6515 32.9111 26.3628 32.9392 26.074 32.9533C26.1703 32.8548 26.2665 32.7633 26.3628 32.6647C26.881 32.1298 27.3918 31.5879 27.8878 31.0389C28.2136 30.6869 28.5541 30.335 28.8872 29.9831C29.0797 29.779 29.2796 29.5748 29.4647 29.3637L29.8645 29.237C30.1828 29.1244 30.4863 28.9836 30.7825 28.8358L30.8639 28.7936L30.9157 28.512C30.8047 28.4768 30.701 28.4346 30.5826 28.4487H30.5382C30.4567 28.4276 30.3753 28.4065 30.2938 28.3783C30.6492 27.956 30.9972 27.5267 31.3525 27.0973C31.5302 26.8862 31.7079 26.668 31.8781 26.4498L32.1595 26.4005L32.3371 26.3512C32.537 26.2879 32.7295 26.2105 32.9072 26.0978L32.9738 26.0556L33.0552 25.6966L32.5074 25.6615C32.7369 25.3729 32.959 25.0913 33.1885 24.8028C33.418 24.5353 33.6845 24.296 33.9732 24.0848L34.1583 23.9511C34.2397 23.8948 34.3212 23.8455 34.41 23.8033C34.4841 23.7681 34.5655 23.7329 34.6395 23.6977L35.2466 23.381L35.6315 23.1417L35.7722 23.0783C36.4237 22.7757 37.0456 22.4097 37.6674 22.0578C37.2751 22.1281 36.8901 22.2056 36.4977 22.2619C36.3941 22.2759 36.283 22.29 36.1794 22.3041H36.1646C35.9573 22.3323 35.75 22.3463 35.5427 22.3534H35.3946L35.3798 22.3674C35.2466 22.3534 35.1133 22.3463 34.9875 22.3111L34.8616 22.2689C34.8172 22.2408 34.7728 22.2126 34.7358 22.1844C34.6987 22.1493 34.6691 22.1141 34.6321 22.0718L34.5803 21.9733C34.4915 21.7903 34.4544 21.5932 34.4322 21.3891C34.373 20.8331 34.3286 20.277 34.2916 19.721C34.2768 19.4817 34.2694 19.2494 34.262 19.0101L33.8326 19.8829C33.7956 20.1363 33.7511 20.3896 33.7067 20.636C33.6919 20.7204 33.6697 20.7979 33.6623 20.8823C33.5068 21.4173 33.3588 21.9522 33.1663 22.473C33.0923 22.6771 33.0034 22.8672 32.9072 23.0643C32.8554 23.1698 32.7961 23.2684 32.7369 23.3669L32.6036 23.557C32.5296 23.6485 32.463 23.7329 32.3815 23.8174L32.2557 23.937L31.2637 24.7957L31.1748 24.7253L31.2118 24.5212C30.9897 24.6409 30.9231 24.6831 30.6344 24.845L30.3901 24.9787L30.3457 24.9998C30.1606 25.1054 29.9755 25.211 29.7904 25.3166L29.672 25.3799C29.5535 25.4362 29.4351 25.4714 29.3092 25.5066C29.2204 25.5277 29.1315 25.5488 29.0427 25.5559H28.8724C28.8576 25.6544 28.8428 25.7459 28.8206 25.8304C28.7466 26.1471 28.6651 26.4638 28.5763 26.7806C28.4727 26.851 28.369 26.9284 28.258 26.9988C28.2061 27.041 28.1543 27.0832 28.1025 27.1325C27.8138 27.4 27.5325 27.6674 27.2363 27.9278L27.1771 27.9067C27.0587 27.8856 26.9402 27.8645 26.8218 27.8434L26.5478 28.4698L26.3035 28.4557L26.111 28.4768L26.0888 28.6317L25.8741 28.9836L25.7039 28.9414L25.4226 28.9062L25.4596 29.1737V29.2159L25.4077 29.3355C25.3707 29.3989 25.3189 29.4482 25.2745 29.5045L25.2375 29.4904L25.1708 29.4693H24.971L24.9265 29.6241L24.7192 29.962L24.6082 29.9409H24.4157L24.3713 30.0816C24.3121 30.1872 24.238 30.2787 24.164 30.3702L24.0382 30.525C23.9419 30.511 23.8383 30.4969 23.742 30.4828L23.705 30.708C23.6754 30.8418 23.631 30.9825 23.5792 31.1092C23.4755 31.0318 23.3571 30.9614 23.246 30.891L23.1868 31.1444L23.1054 31.3556L22.8092 31.8412L22.5353 31.8272L22.365 32.348H22.2022L22.1355 32.524L22.0837 32.4958C22.0097 32.7703 21.9431 33.0589 21.8246 33.3264C21.795 33.3897 21.758 33.453 21.7284 33.5164C21.6987 33.5727 21.6691 33.636 21.6469 33.6924C21.4174 34.1851 21.2101 34.6848 20.9732 35.1704C20.7289 35.6631 20.492 36.1699 20.1959 36.6415C20.1145 36.7682 20.0256 36.9089 19.9072 37.0145L19.7961 37.099C19.8109 37.1553 19.8257 37.2116 19.8479 37.2679L19.8702 37.3101L19.9072 37.3594L19.9812 37.4157L20.1071 37.4439L20.2033 37.4087C20.3662 37.3031 20.5364 37.2046 20.7067 37.099L20.7141 37.1342ZM39 17.4687H0V58.7634C0 60.0726 1.17711 61.1424 2.61333 61.1424H15.68C17.6936 61.1424 18.9226 62.0363 19.4778 64C20.1959 62.0504 21.7432 61.1424 23.594 61.1424H35.8981C37.6008 61.1424 38.9852 59.8755 38.9852 58.3341V17.4546L39 17.4687Z" fill="white"/>
<path fill-rule="evenodd" clip-rule="evenodd" d="M27.3801 12.759C27.3801 12.759 24.583 12.1688 19.9286 12.1894C15.2816 12.21 12.085 12.9718 12.085 12.9718C12.0036 12.9855 11.8778 13.3699 11.9518 13.4179C12.0258 13.4728 13.8757 13.9395 16.769 13.9876C19.6622 14.0425 22.5185 13.919 24.3906 13.7611C26.2554 13.6032 27.4319 13.3287 27.5651 13.2052C27.6021 13.1365 27.6613 12.7865 27.3801 12.759ZM31.8347 2.41591L28.4753 10.9883C28.4753 10.9883 28.712 11.1599 28.7712 11.4756C28.8304 11.7844 28.2459 11.8737 28.2459 11.8737C28.2459 11.8737 28.1127 12.3953 28.2459 12.6218C28.3791 12.8483 28.5567 12.862 28.5567 13.0542C28.5567 13.2463 28.5345 13.4522 28.0461 13.7131C26.7733 14.2827 21.7933 14.5092 18.9001 14.5435C16.0068 14.5778 12.455 14.1454 11.5522 13.9739C10.6568 13.8023 10.6568 13.5209 10.6716 13.2601C10.6938 12.9993 11.0046 12.7041 11.0046 12.7041L10.9676 12.1482C10.9676 12.1482 10.9084 12.1139 10.8122 12.1139C10.716 12.1139 10.5014 11.9903 10.4422 11.7639C10.3831 11.5374 10.716 11.2285 10.716 11.2285L7.0902 2.74536C7.0902 2.74536 7.0236 2.74536 6.9866 2.74536C6.52782 2.74536 6.15784 2.41591 6.15784 2.01097C6.15784 1.60603 6.52782 1.27659 6.9866 1.27659C7.44538 1.27659 7.81536 1.60603 7.81536 2.01097C7.81536 2.1551 7.77097 2.29237 7.68957 2.40219C8.39254 3.36306 9.51729 4.0494 10.5532 4.37884C11.5226 4.66024 13.0173 5.12009 13.0173 5.12009C13.0173 5.12009 13.3725 4.13862 13.5057 3.71309C13.5057 3.47974 13.4613 3.23266 13.4021 2.97185C13.2023 2.89635 13.0469 2.74536 12.9951 2.53945C12.9137 2.21001 13.1505 1.88743 13.5205 1.8188C13.8905 1.75016 14.2531 1.95607 14.3271 2.27865C14.3789 2.47768 14.3049 2.67672 14.1643 2.81399C14.2013 3.04735 14.2531 3.26697 14.3271 3.47288C14.4233 3.59642 14.5417 3.74055 14.6823 3.89154C15.363 4.61906 16.0142 5.08577 16.0142 5.08577C16.0142 5.08577 16.5248 4.6877 17.4201 4.23471C17.6495 4.11803 17.8493 3.98077 18.0195 3.83664C18.6707 3.21893 19.1073 2.45709 19.1147 1.3864C18.8483 1.26286 18.6707 1.01578 18.6707 0.734383C18.6707 0.329443 19.0407 0 19.4994 0C19.9582 0 20.3282 0.329443 20.3282 0.734383C20.3282 1.01578 20.1506 1.26286 19.8842 1.3864C19.8842 2.04529 20.047 2.5875 20.3282 3.04735C20.5058 3.26697 20.7204 3.4866 20.972 3.67878C21.8525 4.37198 22.5555 4.66711 23.0809 4.87301C23.2955 4.77006 23.8801 4.30335 24.509 3.50033C24.5682 3.42483 24.62 3.3562 24.6644 3.2807C24.7236 3.05421 24.768 2.81399 24.7828 2.55318C24.6274 2.42278 24.5386 2.2306 24.5682 2.03156C24.62 1.70212 24.9604 1.46877 25.3304 1.50995C25.7004 1.55113 25.9668 1.85998 25.915 2.18942C25.8854 2.39532 25.7448 2.56004 25.545 2.64927C25.4932 2.97871 25.4932 3.28756 25.5228 3.57583C25.6708 4.19353 26.0778 5.01028 26.0778 5.01028C26.0778 5.01028 26.4329 4.85242 27.0915 4.6122C27.7723 4.34453 28.2163 4.23471 28.5715 4.15235C29.5926 3.78173 30.6804 3.05421 31.3315 2.06588C31.2427 1.95607 31.1909 1.82566 31.1835 1.68153C31.1613 1.27659 31.5165 0.933421 31.9753 0.912831C32.4341 0.892241 32.8189 1.20796 32.8411 1.6129C32.8633 2.01784 32.5081 2.36101 32.0493 2.3816C31.9753 2.3816 31.9087 2.3816 31.8421 2.36787L31.8199 2.40219L31.8347 2.41591Z" fill="white"/>
</svg>
