<svg width="235" height="66" viewBox="0 0 235 66" fill="none" xmlns="http://www.w3.org/2000/svg">
<path d="M47 30.1525V19H48.5357V27.4791L55.0145 19H56.2623V30.1525H54.7266V21.6418L48.2478 30.1525H47Z" fill="white"/>
<path d="M58.7924 30.1525V22.4328H60.4081V25.5492H64.2954V22.4328H65.9111V30.1525H64.2954V26.8147H60.4081V30.1525H58.7924Z" fill="white"/>
<path d="M68.3219 30.1525V22.4328H72.3051C73.265 22.4328 73.9635 22.6121 74.4008 22.9706C74.8487 23.3186 75.0726 23.8143 75.0726 24.4576C75.0726 24.8584 74.9553 25.2117 74.7207 25.5175C74.4967 25.8128 74.1875 26.029 73.7929 26.1661C74.2834 26.2821 74.662 26.5036 74.9287 26.8305C75.1953 27.1574 75.3286 27.5476 75.3286 28.0011C75.3286 28.6655 75.078 29.1928 74.5767 29.5831C74.0755 29.9627 73.361 30.1525 72.4331 30.1525H68.3219ZM69.8416 25.7073H72.1932C72.6304 25.7073 72.9664 25.6072 73.201 25.4068C73.4463 25.2064 73.5689 24.9322 73.5689 24.5842C73.5689 24.2256 73.4463 23.9514 73.201 23.7616C72.9664 23.5718 72.6304 23.4768 72.1932 23.4768H69.8416V25.7073ZM69.8416 29.1243H72.3371C73.3396 29.1243 73.8409 28.7235 73.8409 27.922C73.8409 27.1311 73.3396 26.7356 72.3371 26.7356H69.8416V29.1243Z" fill="white"/>
<path d="M80.8902 30.2949C79.6104 30.2949 78.6026 29.9416 77.8667 29.235C77.1309 28.5179 76.7629 27.5424 76.7629 26.3085C76.7629 25.5175 76.9229 24.8215 77.2429 24.2203C77.5735 23.6087 78.0267 23.1341 78.6026 22.7966C79.1785 22.4591 79.8397 22.2904 80.5862 22.2904C81.6634 22.2904 82.5112 22.6331 83.1297 23.3186C83.7483 23.9936 84.0576 24.9269 84.0576 26.1186V26.6565H78.3306C78.448 28.2595 79.3065 29.061 80.9062 29.061C81.3541 29.061 81.7913 28.9925 82.2179 28.8554C82.6552 28.7183 83.0658 28.4915 83.4497 28.1751L83.9296 29.2825C83.5777 29.5989 83.1244 29.8467 82.5699 30.026C82.0153 30.2053 81.4554 30.2949 80.8902 30.2949ZM80.6502 23.4136C79.9783 23.4136 79.4451 23.6192 79.0505 24.0305C78.6559 24.4418 78.416 24.9902 78.3306 25.6757H82.6978C82.6658 24.9586 82.4739 24.4049 82.1219 24.0147C81.77 23.6139 81.2794 23.4136 80.6502 23.4136Z" fill="white"/>
<path d="M89.4302 30.2949C88.6303 30.2949 87.9371 30.1314 87.3506 29.8045C86.7747 29.467 86.3268 28.9977 86.0068 28.3966C85.6869 27.7849 85.5269 27.0678 85.5269 26.2452C85.5269 25.0218 85.8789 24.0569 86.5827 23.3503C87.2866 22.6437 88.2358 22.2904 89.4302 22.2904C89.9208 22.2904 90.406 22.3748 90.8859 22.5435C91.3658 22.7122 91.7604 22.9443 92.0697 23.2395L91.5578 24.3627C91.2592 24.0885 90.9286 23.8881 90.566 23.7616C90.2141 23.6245 89.8781 23.5559 89.5582 23.5559C88.801 23.5559 88.2144 23.7932 87.7985 24.2678C87.3932 24.7318 87.1906 25.3962 87.1906 26.261C87.1906 27.1258 87.3932 27.806 87.7985 28.3017C88.2144 28.7868 88.801 29.0294 89.5582 29.0294C89.8781 29.0294 90.2141 28.9661 90.566 28.8395C90.9286 28.7024 91.2592 28.4968 91.5578 28.2226L92.0697 29.3616C91.7604 29.6463 91.3605 29.8731 90.8699 30.0418C90.39 30.2105 89.9101 30.2949 89.4302 30.2949Z" fill="white"/>
<path d="M95.2614 30.1525V23.7141H92.5099V22.4328H99.6445V23.7141H96.8771V30.1525H95.2614Z" fill="white"/>
<path d="M100.941 30.1525V22.4328H102.413V28.0328L106.636 22.4328H107.995V30.1525H106.524V24.5684L102.301 30.1525H100.941Z" fill="white"/>
<path d="M117.174 32.209V30.1525H110.423V22.4328H112.039V28.887H115.686V22.4328H117.302V28.887H118.55V32.209H117.174Z" fill="white"/>
<path d="M120.172 30.1525V22.4328H121.643V28.0328L125.867 22.4328H127.226V30.1525H125.755V24.5684L121.531 30.1525H120.172Z" fill="white"/>
<path d="M133.062 30.2949C132.272 30.2949 131.59 30.1314 131.014 29.8045C130.438 29.4776 129.99 29.0188 129.67 28.4282C129.361 27.8271 129.206 27.1153 129.206 26.2927C129.206 25.4701 129.361 24.7635 129.67 24.1729C129.99 23.5718 130.438 23.1077 131.014 22.7808C131.59 22.4539 132.272 22.2904 133.062 22.2904C133.829 22.2904 134.501 22.4539 135.077 22.7808C135.653 23.1077 136.101 23.5718 136.421 24.1729C136.741 24.7635 136.901 25.4701 136.901 26.2927C136.901 27.1153 136.741 27.8271 136.421 28.4282C136.101 29.0188 135.653 29.4776 135.077 29.8045C134.501 30.1314 133.829 30.2949 133.062 30.2949ZM133.062 29.061C133.723 29.061 134.256 28.8237 134.661 28.3492C135.067 27.8746 135.269 27.1891 135.269 26.2927C135.269 25.3962 135.067 24.716 134.661 24.252C134.256 23.7774 133.723 23.5401 133.062 23.5401C132.39 23.5401 131.851 23.7774 131.446 24.252C131.041 24.716 130.838 25.3962 130.838 26.2927C130.838 27.1891 131.041 27.8746 131.446 28.3492C131.851 28.8237 132.39 29.061 133.062 29.061Z" fill="white"/>
<path d="M138.887 30.1525V22.4328H140.503V25.5492H144.39V22.4328H146.006V30.1525H144.39V26.8147H140.503V30.1525H138.887Z" fill="white"/>
<path d="M148.416 30.1525V22.4328H150.032V25.5492H153.919V22.4328H155.535V30.1525H153.919V26.8147H150.032V30.1525H148.416Z" fill="white"/>
<path d="M157.946 30.1525V22.4328H159.561V25.1062H161.785C162.788 25.1062 163.55 25.3224 164.073 25.7548C164.595 26.1766 164.856 26.7936 164.856 27.6056C164.856 28.3861 164.585 29.0083 164.041 29.4723C163.497 29.9258 162.745 30.1525 161.785 30.1525H157.946ZM165.912 30.1525V22.4328H167.528V30.1525H165.912ZM159.561 29.061H161.577C162.132 29.061 162.564 28.945 162.873 28.713C163.182 28.4704 163.337 28.1013 163.337 27.6056C163.337 27.1205 163.182 26.7672 162.873 26.5458C162.564 26.3137 162.132 26.1977 161.577 26.1977H159.561V29.061Z" fill="white"/>
<path d="M169.959 30.1525V22.4328H171.431V28.0328L175.654 22.4328H177.014V30.1525H175.542V24.5684L171.319 30.1525H169.959ZM173.479 21.452C172.785 21.452 172.188 21.2727 171.687 20.9141C171.196 20.545 170.855 20.0124 170.663 19.3164L171.543 19.0158C171.735 19.5326 171.985 19.9122 172.295 20.1548C172.615 20.3974 173.015 20.5186 173.494 20.5186C173.985 20.5186 174.38 20.4026 174.678 20.1706C174.988 19.9386 175.259 19.5589 175.494 19.0316L176.342 19.3164C176.086 20.0652 175.707 20.6083 175.206 20.9458C174.705 21.2832 174.129 21.452 173.479 21.452Z" fill="white"/>
<path d="M183.644 30.1525V22.4328H190.715V30.1525H189.099V23.7141H185.26V30.1525H183.644Z" fill="white"/>
<path d="M196.534 30.2949C195.745 30.2949 195.062 30.1314 194.486 29.8045C193.911 29.4776 193.463 29.0188 193.143 28.4282C192.833 27.8271 192.679 27.1153 192.679 26.2927C192.679 25.4701 192.833 24.7635 193.143 24.1729C193.463 23.5718 193.911 23.1077 194.486 22.7808C195.062 22.4539 195.745 22.2904 196.534 22.2904C197.302 22.2904 197.974 22.4539 198.55 22.7808C199.126 23.1077 199.573 23.5718 199.893 24.1729C200.213 24.7635 200.373 25.4701 200.373 26.2927C200.373 27.1153 200.213 27.8271 199.893 28.4282C199.573 29.0188 199.126 29.4776 198.55 29.8045C197.974 30.1314 197.302 30.2949 196.534 30.2949ZM196.534 29.061C197.195 29.061 197.729 28.8237 198.134 28.3492C198.539 27.8746 198.742 27.1891 198.742 26.2927C198.742 25.3962 198.539 24.716 198.134 24.252C197.729 23.7774 197.195 23.5401 196.534 23.5401C195.862 23.5401 195.324 23.7774 194.918 24.252C194.513 24.716 194.31 25.3962 194.31 26.2927C194.31 27.1891 194.513 27.8746 194.918 28.3492C195.324 28.8237 195.862 29.061 196.534 29.061Z" fill="white"/>
<path d="M202.375 33V22.4328H203.959V23.7458C204.183 23.3028 204.524 22.9495 204.983 22.6859C205.441 22.4222 205.969 22.2904 206.567 22.2904C207.26 22.2904 207.862 22.4539 208.374 22.7808C208.897 23.1077 209.297 23.5718 209.574 24.1729C209.862 24.7635 210.006 25.4701 210.006 26.2927C210.006 27.1153 209.862 27.8271 209.574 28.4282C209.297 29.0294 208.897 29.4934 208.374 29.8203C207.862 30.1367 207.26 30.2949 206.567 30.2949C205.991 30.2949 205.473 30.1736 205.015 29.9311C204.567 29.678 204.226 29.3352 203.991 28.9028V33H202.375ZM206.167 29.061C206.839 29.061 207.372 28.8237 207.766 28.3492C208.172 27.8746 208.374 27.1891 208.374 26.2927C208.374 25.3962 208.172 24.716 207.766 24.252C207.372 23.7774 206.839 23.5401 206.167 23.5401C205.495 23.5401 204.956 23.7774 204.551 24.252C204.156 24.716 203.959 25.3962 203.959 26.2927C203.959 27.1891 204.156 27.8746 204.551 28.3492C204.956 28.8237 205.495 29.061 206.167 29.061Z" fill="white"/>
<path d="M213.614 30.1525V23.7141H210.863V22.4328H217.997V23.7141H215.23V30.1525H213.614Z" fill="white"/>
<path d="M221.805 30.2949C221.261 30.2949 220.776 30.1895 220.349 29.9785C219.923 29.7676 219.582 29.4829 219.326 29.1243C219.08 28.7657 218.958 28.3597 218.958 27.9062C218.958 27.3367 219.102 26.8885 219.39 26.5616C219.688 26.2347 220.174 25.9974 220.845 25.8497C221.528 25.7021 222.445 25.6282 223.597 25.6282H224.141V25.2169C224.141 24.6158 224.013 24.1834 223.757 23.9198C223.501 23.6561 223.08 23.5243 222.493 23.5243C222.045 23.5243 221.597 23.5928 221.149 23.7299C220.701 23.8565 220.243 24.0621 219.774 24.3469L219.278 23.2237C219.683 22.939 220.19 22.7122 220.797 22.5435C221.405 22.3748 221.987 22.2904 222.541 22.2904C223.608 22.2904 224.397 22.5435 224.909 23.0497C225.421 23.5454 225.676 24.3258 225.676 25.391V30.1525H224.157V28.8712C223.965 29.3141 223.666 29.6621 223.261 29.9153C222.856 30.1684 222.37 30.2949 221.805 30.2949ZM222.125 29.1559C222.701 29.1559 223.181 28.9556 223.565 28.5548C223.949 28.154 224.141 27.6478 224.141 27.0362V26.609H223.613C222.834 26.609 222.221 26.646 221.773 26.7198C221.336 26.7936 221.021 26.9202 220.829 27.0994C220.648 27.2682 220.557 27.5055 220.557 27.8113C220.557 28.2121 220.696 28.539 220.973 28.7921C221.251 29.0347 221.635 29.1559 222.125 29.1559Z" fill="white"/>
<path d="M227.737 30.3582L227.193 29.0927C227.663 28.9028 228.031 28.6444 228.297 28.3175C228.564 27.98 228.756 27.516 228.873 26.9254C228.99 26.3243 229.049 25.5492 229.049 24.6V22.4328H235V30.1525H233.384V23.7141H230.553V24.6475C230.553 25.8075 230.457 26.7725 230.265 27.5424C230.073 28.3122 229.769 28.9239 229.353 29.3774C228.948 29.8203 228.409 30.1473 227.737 30.3582Z" fill="white"/>
<path d="M50.9818 45.91C50.1478 45.91 49.434 45.7307 48.8405 45.3722C48.2471 45.0137 47.7899 44.5044 47.4692 43.8444C47.1564 43.1844 47 42.3981 47 41.4856C47 40.5811 47.1564 39.7989 47.4692 39.1389C47.7899 38.4789 48.2471 37.9696 48.8405 37.6111C49.434 37.2526 50.1478 37.0733 50.9818 37.0733C51.5673 37.0733 52.1046 37.167 52.5938 37.3544C53.091 37.5419 53.5121 37.8148 53.8569 38.1733L53.472 38.9922C53.103 38.6419 52.7181 38.3893 52.3171 38.2344C51.9241 38.0715 51.4871 37.99 51.0059 37.99C50.0515 37.99 49.3217 38.2956 48.8165 38.9067C48.3112 39.5178 48.0586 40.3774 48.0586 41.4856C48.0586 42.6019 48.3112 43.4656 48.8165 44.0767C49.3217 44.6878 50.0515 44.9933 51.0059 44.9933C51.4871 44.9933 51.9241 44.9159 52.3171 44.7611C52.7181 44.5981 53.103 44.3415 53.472 43.9911L53.8569 44.81C53.5121 45.1604 53.091 45.4333 52.5938 45.6289C52.1046 45.8163 51.5673 45.91 50.9818 45.91Z" fill="white"/>
<path d="M57.0578 45.91C56.6568 45.91 56.2959 45.8326 55.9752 45.6778C55.6624 45.5148 55.4138 45.2948 55.2293 45.0178C55.0449 44.7407 54.9526 44.4311 54.9526 44.0889C54.9526 43.657 55.0609 43.3148 55.2774 43.0622C55.502 42.8096 55.8669 42.6304 56.3721 42.5244C56.8854 42.4104 57.5831 42.3533 58.4653 42.3533H58.8502V41.9744C58.8502 41.4693 58.746 41.1067 58.5375 40.8867C58.337 40.6585 58.0122 40.5444 57.5631 40.5444C57.2102 40.5444 56.8694 40.5974 56.5406 40.7033C56.2117 40.8011 55.8749 40.9641 55.5301 41.1922L55.1932 40.4711C55.498 40.2511 55.8669 40.0759 56.3 39.9456C56.741 39.8152 57.1621 39.75 57.5631 39.75C58.3169 39.75 58.8743 39.9374 59.2352 40.3122C59.6041 40.687 59.7886 41.2696 59.7886 42.06V45.8H58.8743V44.7733C58.7219 45.1237 58.4853 45.4007 58.1646 45.6044C57.8518 45.8081 57.4829 45.91 57.0578 45.91ZM57.2142 45.1644C57.6954 45.1644 58.0884 44.9974 58.3931 44.6633C58.6979 44.3211 58.8502 43.8893 58.8502 43.3678V43.0011H58.4773C57.8277 43.0011 57.3145 43.0337 56.9375 43.0989C56.5686 43.1559 56.308 43.2619 56.1556 43.4167C56.0112 43.5633 55.9391 43.767 55.9391 44.0278C55.9391 44.3619 56.0513 44.6348 56.2759 44.8467C56.5085 45.0585 56.8212 45.1644 57.2142 45.1644Z" fill="white"/>
<path d="M61.702 48V39.86H62.6524V40.9233C62.8288 40.5567 63.0894 40.2715 63.4343 40.0678C63.7872 39.8559 64.1962 39.75 64.6613 39.75C65.1826 39.75 65.6357 39.8763 66.0207 40.1289C66.4136 40.3733 66.7144 40.7278 66.9229 41.1922C67.1394 41.6485 67.2477 42.1944 67.2477 42.83C67.2477 43.4574 67.1394 44.0033 66.9229 44.4678C66.7144 44.9241 66.4136 45.2785 66.0207 45.5311C65.6357 45.7837 65.1826 45.91 64.6613 45.91C64.2122 45.91 63.8112 45.8081 63.4584 45.6044C63.1055 45.4007 62.8448 45.1196 62.6764 44.7611V48H61.702ZM64.4568 45.1156C65.0022 45.1156 65.4392 44.92 65.7681 44.5289C66.0969 44.1296 66.2613 43.5633 66.2613 42.83C66.2613 42.0885 66.0969 41.5222 65.7681 41.1311C65.4392 40.74 65.0022 40.5444 64.4568 40.5444C63.9115 40.5444 63.4744 40.74 63.1456 41.1311C62.8168 41.5222 62.6524 42.0885 62.6524 42.83C62.6524 43.5633 62.8168 44.1296 63.1456 44.5289C63.4744 44.92 63.9115 45.1156 64.4568 45.1156Z" fill="white"/>
<path d="M70.6734 45.91C70.2724 45.91 69.9115 45.8326 69.5908 45.6778C69.278 45.5148 69.0294 45.2948 68.8449 45.0178C68.6605 44.7407 68.5682 44.4311 68.5682 44.0889C68.5682 43.657 68.6765 43.3148 68.893 43.0622C69.1176 42.8096 69.4825 42.6304 69.9877 42.5244C70.501 42.4104 71.1987 42.3533 72.0809 42.3533H72.4658V41.9744C72.4658 41.4693 72.3616 41.1067 72.1531 40.8867C71.9526 40.6585 71.6278 40.5444 71.1787 40.5444C70.8258 40.5444 70.485 40.5974 70.1562 40.7033C69.8273 40.8011 69.4905 40.9641 69.1457 41.1922L68.8088 40.4711C69.1136 40.2511 69.4825 40.0759 69.9156 39.9456C70.3566 39.8152 70.7777 39.75 71.1787 39.75C71.9325 39.75 72.4899 39.9374 72.8508 40.3122C73.2197 40.687 73.4042 41.2696 73.4042 42.06V45.8H72.4899V44.7733C72.3375 45.1237 72.1009 45.4007 71.7802 45.6044C71.4674 45.8081 71.0985 45.91 70.6734 45.91ZM70.8298 45.1644C71.311 45.1644 71.704 44.9974 72.0087 44.6633C72.3135 44.3211 72.4658 43.8893 72.4658 43.3678V43.0011H72.0929C71.4433 43.0011 70.9301 43.0337 70.5531 43.0989C70.1842 43.1559 69.9236 43.2619 69.7712 43.4167C69.6268 43.5633 69.5547 43.767 69.5547 44.0278C69.5547 44.3619 69.6669 44.6348 69.8915 44.8467C70.1241 45.0585 70.4368 45.1644 70.8298 45.1644Z" fill="white"/>
<path d="M76.5206 45.8V40.6544H74.4034V39.86H79.6242V40.6544H77.495V45.8H76.5206Z" fill="white"/>
<path d="M83.0693 45.91C82.4999 45.91 82.0067 45.7837 81.5897 45.5311C81.1727 45.2785 80.8479 44.9241 80.6153 44.4678C80.3907 44.0033 80.2785 43.4574 80.2785 42.83C80.2785 42.2026 80.3907 41.6607 80.6153 41.2044C80.8479 40.74 81.1727 40.3815 81.5897 40.1289C82.0067 39.8763 82.4999 39.75 83.0693 39.75C83.6307 39.75 84.1199 39.8763 84.5369 40.1289C84.962 40.3815 85.2868 40.74 85.5113 41.2044C85.7439 41.6607 85.8602 42.2026 85.8602 42.83C85.8602 43.4574 85.7439 44.0033 85.5113 44.4678C85.2868 44.9241 84.962 45.2785 84.5369 45.5311C84.1199 45.7837 83.6307 45.91 83.0693 45.91ZM83.0693 45.1156C83.6147 45.1156 84.0518 44.92 84.3806 44.5289C84.7094 44.1296 84.8738 43.5633 84.8738 42.83C84.8738 42.0885 84.7094 41.5222 84.3806 41.1311C84.0518 40.74 83.6147 40.5444 83.0693 40.5444C82.516 40.5444 82.0749 40.74 81.7461 41.1311C81.4253 41.5222 81.2649 42.0885 81.2649 42.83C81.2649 43.5633 81.4253 44.1296 81.7461 44.5289C82.0749 44.92 82.516 45.1156 83.0693 45.1156Z" fill="white"/>
<path d="M87.441 45.8V39.86H90.292C90.9817 39.86 91.491 39.9944 91.8198 40.2633C92.1486 40.5241 92.313 40.9111 92.313 41.4244C92.313 41.7341 92.2248 42.003 92.0483 42.2311C91.8799 42.4593 91.6474 42.6263 91.3506 42.7322C91.7115 42.8219 91.9922 42.993 92.1927 43.2456C92.4012 43.4981 92.5055 43.8037 92.5055 44.1622C92.5055 44.6674 92.321 45.0667 91.9521 45.36C91.5832 45.6533 91.0619 45.8 90.3882 45.8H87.441ZM88.3673 42.4389H90.2439C90.6128 42.4389 90.8975 42.3574 91.098 42.1944C91.2985 42.0233 91.3987 41.783 91.3987 41.4733C91.3987 41.1719 91.2985 40.9396 91.098 40.7767C90.8975 40.6137 90.6128 40.5322 90.2439 40.5322H88.3673V42.4389ZM88.3673 45.1278H90.3522C90.7531 45.1278 91.0579 45.0422 91.2664 44.8711C91.4749 44.7 91.5792 44.4474 91.5792 44.1133C91.5792 43.7874 91.4749 43.5389 91.2664 43.3678C91.0579 43.1967 90.7531 43.1111 90.3522 43.1111H88.3673V45.1278Z" fill="white"/>
<path d="M96.5098 45.91C95.9244 45.91 95.4192 45.7837 94.9941 45.5311C94.5691 45.2704 94.2402 44.9078 94.0077 44.4433C93.7831 43.9707 93.6708 43.4207 93.6708 42.7933C93.6708 41.8481 93.9235 41.1067 94.4287 40.5689C94.934 40.023 95.6277 39.75 96.5098 39.75C96.8707 39.75 97.2276 39.8152 97.5805 39.9456C97.9333 40.0759 98.2261 40.2593 98.4586 40.4956L98.1218 41.2167C97.8892 40.9885 97.6326 40.8215 97.3519 40.7156C97.0792 40.6096 96.8186 40.5567 96.57 40.5567C95.9605 40.5567 95.4913 40.7522 95.1625 41.1433C94.8337 41.5263 94.6693 42.0804 94.6693 42.8056C94.6693 43.5144 94.8337 44.0767 95.1625 44.4922C95.4913 44.8996 95.9605 45.1033 96.57 45.1033C96.8186 45.1033 97.0792 45.0504 97.3519 44.9444C97.6326 44.8385 97.8892 44.6674 98.1218 44.4311L98.4586 45.1522C98.2261 45.3885 97.9293 45.5759 97.5685 45.7144C97.2156 45.8448 96.8627 45.91 96.5098 45.91Z" fill="white"/>
<path d="M99.7056 45.8V39.86H100.68V42.3411H101.775L103.687 39.86H104.758L102.725 42.5367C102.934 42.6181 103.122 42.7526 103.29 42.94C103.459 43.1274 103.647 43.3963 103.856 43.7467L105.059 45.8H104.012L102.954 44.0033C102.753 43.653 102.561 43.4207 102.376 43.3067C102.192 43.1926 101.931 43.1356 101.594 43.1356H100.68V45.8H99.7056Z" fill="white"/>
<path d="M108.48 45.91C107.91 45.91 107.417 45.7837 107 45.5311C106.583 45.2785 106.258 44.9241 106.026 44.4678C105.801 44.0033 105.689 43.4574 105.689 42.83C105.689 42.2026 105.801 41.6607 106.026 41.2044C106.258 40.74 106.583 40.3815 107 40.1289C107.417 39.8763 107.91 39.75 108.48 39.75C109.041 39.75 109.53 39.8763 109.947 40.1289C110.372 40.3815 110.697 40.74 110.922 41.2044C111.154 41.6607 111.271 42.2026 111.271 42.83C111.271 43.4574 111.154 44.0033 110.922 44.4678C110.697 44.9241 110.372 45.2785 109.947 45.5311C109.53 45.7837 109.041 45.91 108.48 45.91ZM108.48 45.1156C109.025 45.1156 109.462 44.92 109.791 44.5289C110.12 44.1296 110.284 43.5633 110.284 42.83C110.284 42.0885 110.12 41.5222 109.791 41.1311C109.462 40.74 109.025 40.5444 108.48 40.5444C107.926 40.5444 107.485 40.74 107.156 41.1311C106.836 41.5222 106.675 42.0885 106.675 42.83C106.675 43.5633 106.836 44.1296 107.156 44.5289C107.485 44.92 107.926 45.1156 108.48 45.1156Z" fill="white"/>
<path d="M112.851 45.8V39.86H113.741V44.4556L117.122 39.86H117.952V45.8H117.062V41.2044L113.681 45.8H112.851ZM115.402 39.09C114.92 39.09 114.495 38.9596 114.126 38.6989C113.758 38.43 113.497 38.0267 113.344 37.4889L113.91 37.2689C114.054 37.6844 114.247 37.99 114.487 38.1856C114.736 38.373 115.041 38.4667 115.402 38.4667C115.77 38.4667 116.071 38.377 116.304 38.1978C116.544 38.0185 116.761 37.713 116.953 37.2811L117.507 37.4889C117.29 38.0674 116.998 38.4789 116.629 38.7233C116.26 38.9678 115.851 39.09 115.402 39.09Z" fill="white"/>
<path d="M125.408 45.91C124.839 45.91 124.345 45.7837 123.928 45.5311C123.511 45.2785 123.187 44.9241 122.954 44.4678C122.729 44.0033 122.617 43.4574 122.617 42.83C122.617 42.2026 122.729 41.6607 122.954 41.2044C123.187 40.74 123.511 40.3815 123.928 40.1289C124.345 39.8763 124.839 39.75 125.408 39.75C125.969 39.75 126.459 39.8763 126.876 40.1289C127.301 40.3815 127.626 40.74 127.85 41.2044C128.083 41.6607 128.199 42.2026 128.199 42.83C128.199 43.4574 128.083 44.0033 127.85 44.4678C127.626 44.9241 127.301 45.2785 126.876 45.5311C126.459 45.7837 125.969 45.91 125.408 45.91ZM125.408 45.1156C125.953 45.1156 126.391 44.92 126.719 44.5289C127.048 44.1296 127.213 43.5633 127.213 42.83C127.213 42.0885 127.048 41.5222 126.719 41.1311C126.391 40.74 125.953 40.5444 125.408 40.5444C124.855 40.5444 124.414 40.74 124.085 41.1311C123.764 41.5222 123.604 42.0885 123.604 42.83C123.604 43.5633 123.764 44.1296 124.085 44.5289C124.414 44.92 124.855 45.1156 125.408 45.1156Z" fill="white"/>
<path d="M132.246 45.91C131.38 45.91 130.694 45.6207 130.189 45.0422C129.684 44.4637 129.431 43.6244 129.431 42.5244V41.6078C129.431 40.4263 129.663 39.53 130.129 38.9189C130.594 38.2996 131.299 37.8596 132.246 37.5989L134.327 37L134.652 37.8189L132.318 38.4544C131.668 38.6337 131.179 38.9556 130.85 39.42C130.53 39.8763 130.369 40.4385 130.369 41.1067V41.1311C130.554 40.7319 130.826 40.4181 131.187 40.19C131.548 39.9537 131.973 39.8356 132.462 39.8356C132.968 39.8356 133.413 39.9578 133.798 40.2022C134.183 40.4467 134.479 40.797 134.688 41.2533C134.904 41.7015 135.013 42.2311 135.013 42.8422C135.013 43.4615 134.896 44.0033 134.664 44.4678C134.439 44.9241 134.118 45.2785 133.701 45.5311C133.292 45.7837 132.807 45.91 132.246 45.91ZM132.21 45.1156C132.779 45.1156 133.224 44.9241 133.545 44.5411C133.866 44.15 134.026 43.5919 134.026 42.8667C134.026 42.1578 133.866 41.6078 133.545 41.2167C133.224 40.8256 132.783 40.63 132.222 40.63C131.66 40.63 131.219 40.8215 130.898 41.2044C130.578 41.5874 130.417 42.113 130.417 42.7811C130.417 43.547 130.574 44.1296 130.886 44.5289C131.199 44.92 131.64 45.1156 132.21 45.1156Z" fill="white"/>
<path d="M136.151 45.9344L135.79 45.1522C136.151 44.9974 136.436 44.7815 136.644 44.5044C136.853 44.2193 136.997 43.8281 137.077 43.3311C137.166 42.8341 137.21 42.1822 137.21 41.3756V39.86H141.456V45.8H140.482V40.6544H138.124V41.4122C138.124 42.3411 138.056 43.107 137.919 43.71C137.791 44.313 137.583 44.7896 137.294 45.14C137.005 45.4904 136.624 45.7552 136.151 45.9344Z" fill="white"/>
<path d="M145.236 45.91C144.835 45.91 144.474 45.8326 144.153 45.6778C143.841 45.5148 143.592 45.2948 143.408 45.0178C143.223 44.7407 143.131 44.4311 143.131 44.0889C143.131 43.657 143.239 43.3148 143.456 43.0622C143.68 42.8096 144.045 42.6304 144.55 42.5244C145.064 42.4104 145.761 42.3533 146.644 42.3533H147.029V41.9744C147.029 41.4693 146.924 41.1067 146.716 40.8867C146.515 40.6585 146.191 40.5444 145.741 40.5444C145.389 40.5444 145.048 40.5974 144.719 40.7033C144.39 40.8011 144.053 40.9641 143.708 41.1922L143.372 40.4711C143.676 40.2511 144.045 40.0759 144.478 39.9456C144.919 39.8152 145.34 39.75 145.741 39.75C146.495 39.75 147.053 39.9374 147.414 40.3122C147.782 40.687 147.967 41.2696 147.967 42.06V45.8H147.053V44.7733C146.9 45.1237 146.664 45.4007 146.343 45.6044C146.03 45.8081 145.661 45.91 145.236 45.91ZM145.393 45.1644C145.874 45.1644 146.267 44.9974 146.571 44.6633C146.876 44.3211 147.029 43.8893 147.029 43.3678V43.0011H146.656C146.006 43.0011 145.493 43.0337 145.116 43.0989C144.747 43.1559 144.486 43.2619 144.334 43.4167C144.19 43.5633 144.117 43.767 144.117 44.0278C144.117 44.3619 144.23 44.6348 144.454 44.8467C144.687 45.0585 145 45.1644 145.393 45.1644Z" fill="white"/>
<path d="M152.358 45.91C151.773 45.91 151.268 45.7837 150.843 45.5311C150.418 45.2704 150.089 44.9078 149.856 44.4433C149.632 43.9707 149.519 43.4207 149.519 42.7933C149.519 41.8481 149.772 41.1067 150.277 40.5689C150.783 40.023 151.476 39.75 152.358 39.75C152.719 39.75 153.076 39.8152 153.429 39.9456C153.782 40.0759 154.075 40.2593 154.307 40.4956L153.97 41.2167C153.738 40.9885 153.481 40.8215 153.201 40.7156C152.928 40.6096 152.667 40.5567 152.419 40.5567C151.809 40.5567 151.34 40.7522 151.011 41.1433C150.682 41.5263 150.518 42.0804 150.518 42.8056C150.518 43.5144 150.682 44.0767 151.011 44.4922C151.34 44.8996 151.809 45.1033 152.419 45.1033C152.667 45.1033 152.928 45.0504 153.201 44.9444C153.481 44.8385 153.738 44.6674 153.97 44.4311L154.307 45.1522C154.075 45.3885 153.778 45.5759 153.417 45.7144C153.064 45.8448 152.711 45.91 152.358 45.91Z" fill="white"/>
<path d="M156.769 45.8V40.6544H154.652V39.86H159.873V40.6544H157.744V45.8H156.769Z" fill="white"/>
<path d="M160.899 45.8V39.86H161.79V44.4556L165.17 39.86H166V45.8H165.11V41.2044L161.729 45.8H160.899Z" fill="white"/>
<path fill-rule="evenodd" clip-rule="evenodd" d="M18.7597 38.936C18.6412 39.3583 18.5228 39.7877 18.4339 40.217C18.4117 40.3296 18.3895 40.4352 18.3673 40.5478C18.3451 40.6464 18.3229 40.752 18.2859 40.8505C18.1304 40.8857 17.9897 40.935 17.8417 40.9772C17.9305 41.0898 18.0268 41.2095 18.123 41.3221V41.3573L18.1452 41.9485C18.1452 42.1104 18.1452 42.2723 18.1304 42.4271L18.1082 42.6594L18.012 43.2084L17.9675 43.2365C17.7899 43.4125 17.6344 43.6166 17.4863 43.8207C17.4049 43.9404 17.3309 44.053 17.2568 44.1797C17.0125 44.6302 16.8349 45.1088 16.709 45.5944C16.672 45.7422 16.635 45.8971 16.635 46.0519C16.635 46.073 16.635 46.0871 16.635 46.1082L16.6942 46.4602C16.8793 46.2631 17.0718 46.066 17.2642 45.876C17.4567 45.6859 17.6492 45.4888 17.8491 45.3058C17.8491 45.4325 17.8491 45.5663 17.8491 45.7C17.8491 46.4109 17.8713 47.1218 17.9009 47.8327C17.9157 48.2972 17.9231 48.7617 17.9305 49.2263C17.9305 49.5008 17.9379 49.7682 17.9527 50.0427L17.7454 50.3806C17.5974 50.6551 17.4641 50.9437 17.3531 51.2393L17.3235 51.3167L17.4863 51.556C17.5974 51.5138 17.701 51.4856 17.7825 51.4012L17.8195 51.3801C17.8935 51.3449 17.9675 51.3097 18.049 51.2815C18.0934 51.8164 18.1452 52.3443 18.197 52.8792C18.2192 53.1467 18.2489 53.4142 18.2785 53.6816L18.1008 53.8857L18.0046 54.0265C17.9009 54.1954 17.8195 54.3714 17.7677 54.5614L17.7528 54.6318L17.9527 54.9415L18.3895 54.6389C18.4265 54.9908 18.471 55.3427 18.508 55.6946C18.5376 56.0325 18.508 56.3703 18.4562 56.7082L18.4117 56.9193C18.3895 57.0108 18.3599 57.0953 18.3303 57.1868C18.3007 57.2572 18.2637 57.3346 18.2341 57.405L18.012 58.0103L17.8935 58.4256L17.8343 58.5593C17.5752 59.1787 17.3753 59.8262 17.1754 60.4667C17.4123 60.1781 17.6492 59.8825 17.9009 59.601C17.9675 59.5236 18.0416 59.4461 18.1082 59.3758V59.3617C18.2563 59.2209 18.3969 59.0802 18.545 58.9535L18.656 58.862V58.8479C18.7671 58.7775 18.8707 58.7071 18.9966 58.6508L19.115 58.6086C19.1669 58.6086 19.2187 58.5945 19.2779 58.5945C19.3297 58.5945 19.3815 58.6086 19.4334 58.6156L19.5444 58.6578C19.7443 58.7423 19.9146 58.869 20.0774 59.0027C20.529 59.3828 20.9658 59.7699 21.4026 60.157C21.5877 60.326 21.7654 60.4949 21.9505 60.6708L21.6321 59.7629C21.4767 59.5517 21.3212 59.3406 21.1731 59.1224C21.1213 59.052 21.0769 58.9816 21.0251 58.9112C20.7511 58.4185 20.4698 57.9329 20.2255 57.4261C20.1367 57.229 20.0552 57.0319 19.9812 56.8278C19.9442 56.7152 19.9146 56.6096 19.885 56.497L19.8405 56.2718C19.8257 56.1592 19.8183 56.0536 19.8183 55.941V55.7791L19.9368 54.5403H20.0552L20.1737 54.7163C20.2477 54.4911 20.2699 54.4207 20.3662 54.1251L20.4476 53.8787L20.4624 53.8365C20.5216 53.6464 20.5809 53.4564 20.6401 53.2593L20.6845 53.1397C20.7289 53.0271 20.7882 52.9285 20.8622 52.8229C20.914 52.7526 20.9658 52.6822 21.0251 52.6188L21.1435 52.5062C21.0917 52.4288 21.0399 52.3584 20.988 52.281C20.8104 51.9994 20.6401 51.7109 20.4698 51.4293C20.492 51.3097 20.5142 51.19 20.5438 51.0704C20.5513 51.007 20.5587 50.9437 20.5587 50.8803C20.5809 50.5073 20.5957 50.1342 20.6179 49.7612L20.6771 49.7471C20.7808 49.6908 20.8844 49.6345 20.988 49.5852L20.7363 48.9518L20.9288 48.811L21.0547 48.6773L20.9584 48.5435L20.8622 48.1494L21.0177 48.079L21.2472 47.9382L21.0251 47.7623L20.9954 47.7271L20.9436 47.6074C20.9288 47.537 20.9288 47.4667 20.9214 47.3963L20.9658 47.3822L21.0325 47.354L21.1879 47.2414L21.1065 47.0936L21.0177 46.7206L21.1213 46.6713L21.2694 46.5587L21.1953 46.425C21.1657 46.3123 21.1509 46.1997 21.1361 46.0871L21.1213 45.89C21.2027 45.8408 21.2916 45.7915 21.373 45.7352L21.2323 45.5452C21.1583 45.4255 21.0917 45.2988 21.0251 45.1721C21.1583 45.1651 21.299 45.144 21.4322 45.1369L21.2916 44.9117L21.1953 44.7005L21.0621 44.1586L21.2768 44.0037L21.0177 43.511L21.1287 43.4055L21.0547 43.2365L21.1139 43.2225C20.9658 42.9691 20.8104 42.7157 20.6993 42.4482C20.6771 42.3778 20.6549 42.3145 20.6327 42.2441C20.6105 42.1808 20.5883 42.1245 20.5661 42.0611C20.3736 41.5543 20.1589 41.0546 19.9812 40.5478C19.8035 40.027 19.611 39.5132 19.4852 38.9783C19.4556 38.8304 19.4186 38.6756 19.426 38.5208L19.4482 38.3941C19.3964 38.3589 19.3445 38.3307 19.2853 38.3026L19.2409 38.2814L19.1743 38.2674H19.078L18.967 38.3237L18.9226 38.4081C18.8781 38.5841 18.8263 38.7671 18.7745 38.9431M17.8047 37.0568C17.4049 36.8104 17.0051 36.5641 16.6202 36.2966C16.5239 36.2262 16.4277 36.1629 16.324 36.0925C16.2352 36.0291 16.139 35.9658 16.0427 35.9165C15.9021 35.9869 15.7614 36.0362 15.6133 36.0925C15.5985 35.9517 15.5763 35.8109 15.5689 35.6702L15.5467 35.642L15.1247 35.1916C15.0063 35.0649 14.8878 34.9522 14.762 34.8396L14.5695 34.6777L14.0957 34.3258H14.0438C13.7773 34.3117 13.5182 34.2554 13.2591 34.1921C13.111 34.1569 12.9704 34.1147 12.8297 34.0654C12.3189 33.8754 11.8377 33.629 11.3787 33.3475C11.2454 33.256 11.1048 33.1645 10.9863 33.0519C10.9715 33.0378 10.9567 33.0237 10.9493 33.0096L10.7272 32.714C11.0085 32.7492 11.2973 32.7774 11.5786 32.8055C11.8599 32.8337 12.1486 32.8618 12.4374 32.8759C12.3411 32.7844 12.2449 32.6859 12.1486 32.5873C11.6304 32.0524 11.1196 31.5104 10.6236 30.9614C10.2978 30.6025 9.95729 30.2576 9.62415 29.9057C9.43166 29.7015 9.23178 29.4974 9.0467 29.2863L8.64692 29.1596C8.32859 29.047 8.02506 28.9062 7.72893 28.7584L7.64749 28.7162L7.59567 28.4346C7.70672 28.3994 7.81036 28.3572 7.92882 28.3713H7.97323C8.05467 28.3502 8.1361 28.329 8.21754 28.3009C7.86219 27.8786 7.51424 27.4492 7.15888 27.0199C6.98121 26.8087 6.80353 26.5905 6.63326 26.3723L6.35194 26.3231L6.17426 26.2738C5.97437 26.2105 5.78189 26.133 5.60421 26.0204L5.53759 25.9782L5.45615 25.6192L6.00399 25.584C5.77449 25.2955 5.55239 25.0139 5.32289 24.7253C5.09339 24.4579 4.82688 24.2186 4.53816 24.0074L4.35308 23.8737C4.27164 23.8174 4.19021 23.7681 4.10137 23.7259C4.02733 23.6907 3.9459 23.6555 3.87187 23.6203L3.26481 23.3036L2.87984 23.0643L2.73918 23.0009C2.0877 22.6983 1.46583 22.3323 0.843964 21.9803C1.23633 22.0507 1.6213 22.1281 2.01367 22.1844C2.12472 22.1985 2.22836 22.2126 2.332 22.2267H2.34681C2.5541 22.2548 2.76139 22.2689 2.96868 22.2759H3.11674L3.13155 22.29C3.26481 22.2759 3.39806 22.2689 3.52392 22.2337L3.64977 22.1915C3.69419 22.1633 3.73861 22.1352 3.77563 22.107C3.81264 22.0718 3.84225 22.0366 3.87927 21.9944L3.93109 21.8959C4.01993 21.7129 4.05695 21.5158 4.07916 21.3117C4.13838 20.7556 4.1828 20.1996 4.21982 19.6436C4.23462 19.4042 4.24203 19.172 4.24943 18.9327L4.67882 19.8054C4.71583 20.0588 4.76025 20.3122 4.80467 20.5586C4.81948 20.643 4.84169 20.7204 4.84909 20.8049C5.00456 21.3398 5.15262 21.8748 5.3451 22.3956C5.41913 22.5997 5.50797 22.7898 5.60421 22.9868C5.65604 23.0924 5.71526 23.1909 5.77449 23.2895L5.90774 23.4795C5.98178 23.571 6.04841 23.6555 6.12984 23.74L6.25569 23.8596L7.24772 24.7183L7.33656 24.6479L7.29954 24.4438C7.52164 24.5635 7.59567 24.6057 7.87699 24.7676L8.1213 24.9013L8.16572 24.9295C8.3508 25.035 8.53588 25.1406 8.72096 25.2462L8.83941 25.3095C8.95786 25.3658 9.07631 25.4081 9.20216 25.4362C9.291 25.4573 9.37984 25.4785 9.46868 25.4855H9.63895C9.65376 25.584 9.66856 25.6755 9.69077 25.76C9.76481 26.0767 9.84624 26.3935 9.93508 26.7102C10.0387 26.7806 10.1424 26.858 10.2534 26.9284C10.3052 26.9706 10.3571 27.0128 10.4089 27.0621C10.6976 27.3296 10.9789 27.597 11.2751 27.8575L11.3343 27.8363C11.4527 27.8152 11.5712 27.7941 11.6896 27.773L11.9636 28.3924L12.2079 28.3783L12.4003 28.3994L12.4226 28.5543L12.6372 28.9062L12.8075 28.864L13.0888 28.8288L13.0518 29.0962V29.1385L13.1036 29.2581C13.1407 29.3215 13.1925 29.3707 13.2369 29.427L13.2739 29.413L13.3405 29.3918H13.5404L13.5849 29.5467L13.7921 29.8845L13.9032 29.8634H14.0957L14.1401 30.0042C14.1993 30.1098 14.2733 30.2013 14.3474 30.2928L14.4732 30.4476C14.5769 30.4335 14.6731 30.4195 14.7694 30.4054L14.8064 30.6306C14.836 30.7644 14.8804 30.9051 14.9322 31.0318C15.0359 30.9544 15.1543 30.884 15.2654 30.8136L15.3246 31.067L15.406 31.2782L15.7022 31.7638L15.9761 31.7497L16.1464 32.2706H16.3092L16.3759 32.4465L16.4277 32.4184C16.5017 32.6929 16.5683 32.9815 16.6868 33.2489C16.7164 33.3123 16.7534 33.3756 16.783 33.439C16.8126 33.4953 16.8423 33.5586 16.8645 33.6149C17.094 34.1076 17.3013 34.6074 17.5382 35.093C17.7825 35.5857 18.0194 36.0925 18.3155 36.5641C18.3969 36.6908 18.4858 36.8315 18.6042 36.9371L18.7153 37.0216C18.7005 37.0779 18.6856 37.1342 18.6634 37.1905L18.6412 37.2327L18.6042 37.282L18.5302 37.3383L18.4043 37.3664L18.3081 37.3313C18.1452 37.2257 17.9749 37.1271 17.8047 37.0216V37.0568ZM20.7141 37.1342C21.1139 36.8878 21.5137 36.6415 21.8986 36.374C21.9949 36.3036 22.0911 36.2403 22.1874 36.1699C22.2762 36.1066 22.3724 36.0432 22.4687 35.9939C22.6093 36.0643 22.75 36.1136 22.8981 36.1699C22.9129 36.0291 22.9351 35.8884 22.9425 35.7476L22.9647 35.7194L23.3867 35.269C23.5051 35.1423 23.6236 35.0297 23.7494 34.9171L23.9419 34.7552L24.4157 34.4032H24.4675C24.7341 34.3892 24.9932 34.3329 25.2523 34.2695C25.4003 34.2343 25.541 34.1921 25.6817 34.1428C26.1925 33.9528 26.6737 33.7064 27.1327 33.4249C27.2659 33.3334 27.4066 33.2419 27.5251 33.1293C27.5399 33.1152 27.5547 33.1011 27.5621 33.087L27.7842 32.7914C27.5028 32.8266 27.2141 32.8548 26.9328 32.8829C26.6515 32.9111 26.3628 32.9392 26.074 32.9533C26.1703 32.8548 26.2665 32.7633 26.3628 32.6647C26.881 32.1298 27.3918 31.5879 27.8878 31.0389C28.2136 30.6869 28.5541 30.335 28.8872 29.9831C29.0797 29.779 29.2796 29.5749 29.4647 29.3637L29.8645 29.237C30.1828 29.1244 30.4863 28.9836 30.7825 28.8358L30.8639 28.7936L30.9157 28.512C30.8047 28.4768 30.701 28.4346 30.5826 28.4487H30.5382C30.4567 28.4276 30.3753 28.4065 30.2938 28.3783C30.6492 27.956 30.9972 27.5267 31.3525 27.0973C31.5302 26.8862 31.7079 26.668 31.8781 26.4498L32.1595 26.4005L32.3371 26.3512C32.537 26.2879 32.7295 26.2105 32.9072 26.0978L32.9738 26.0556L33.0552 25.6966L32.5074 25.6615C32.7369 25.3729 32.959 25.0913 33.1885 24.8028C33.418 24.5353 33.6845 24.296 33.9732 24.0848L34.1583 23.9511C34.2397 23.8948 34.3212 23.8455 34.41 23.8033C34.4841 23.7681 34.5655 23.7329 34.6395 23.6977L35.2466 23.381L35.6315 23.1417L35.7722 23.0783C36.4237 22.7757 37.0456 22.4097 37.6674 22.0578C37.2751 22.1281 36.8901 22.2056 36.4977 22.2619C36.3941 22.2759 36.283 22.29 36.1794 22.3041H36.1646C35.9573 22.3323 35.75 22.3463 35.5427 22.3534H35.3946L35.3798 22.3674C35.2466 22.3534 35.1133 22.3463 34.9875 22.3111L34.8616 22.2689C34.8172 22.2408 34.7728 22.2126 34.7358 22.1844C34.6987 22.1493 34.6691 22.1141 34.6321 22.0718L34.5803 21.9733C34.4915 21.7903 34.4544 21.5932 34.4322 21.3891C34.373 20.8331 34.3286 20.277 34.2916 19.721C34.2768 19.4817 34.2694 19.2494 34.262 19.0101L33.8326 19.8829C33.7956 20.1363 33.7511 20.3896 33.7067 20.636C33.6919 20.7204 33.6697 20.7979 33.6623 20.8823C33.5068 21.4173 33.3588 21.9522 33.1663 22.473C33.0923 22.6771 33.0034 22.8672 32.9072 23.0643C32.8554 23.1698 32.7961 23.2684 32.7369 23.3669L32.6036 23.557C32.5296 23.6485 32.463 23.7329 32.3815 23.8174L32.2557 23.937L31.2637 24.7957L31.1748 24.7253L31.2118 24.5212C30.9897 24.6409 30.9231 24.6831 30.6344 24.845L30.3901 24.9787L30.3457 24.9998C30.1606 25.1054 29.9755 25.211 29.7904 25.3166L29.672 25.3799C29.5535 25.4362 29.4351 25.4714 29.3092 25.5066C29.2204 25.5277 29.1315 25.5488 29.0427 25.5559H28.8724C28.8576 25.6544 28.8428 25.7459 28.8206 25.8304C28.7466 26.1471 28.6651 26.4638 28.5763 26.7806C28.4727 26.851 28.369 26.9284 28.258 26.9988C28.2061 27.041 28.1543 27.0832 28.1025 27.1325C27.8138 27.4 27.5325 27.6674 27.2363 27.9278L27.1771 27.9067C27.0587 27.8856 26.9402 27.8645 26.8218 27.8434L26.5478 28.4698L26.3035 28.4557L26.111 28.4768L26.0888 28.6317L25.8741 28.9836L25.7039 28.9414L25.4226 28.9062L25.4596 29.1737V29.2159L25.4077 29.3355C25.3707 29.3989 25.3189 29.4482 25.2745 29.5045L25.2375 29.4904L25.1708 29.4693H24.971L24.9265 29.6241L24.7192 29.962L24.6082 29.9409H24.4157L24.3713 30.0816C24.3121 30.1872 24.238 30.2787 24.164 30.3702L24.0382 30.525C23.9419 30.511 23.8383 30.4969 23.742 30.4828L23.705 30.708C23.6754 30.8418 23.631 30.9825 23.5792 31.1092C23.4755 31.0318 23.3571 30.9614 23.246 30.891L23.1868 31.1444L23.1054 31.3556L22.8092 31.8412L22.5353 31.8272L22.365 32.348H22.2022L22.1355 32.524L22.0837 32.4958C22.0097 32.7703 21.9431 33.0589 21.8246 33.3264C21.795 33.3897 21.758 33.453 21.7284 33.5164C21.6987 33.5727 21.6691 33.636 21.6469 33.6924C21.4174 34.1851 21.2101 34.6848 20.9732 35.1704C20.7289 35.6631 20.492 36.1699 20.1959 36.6415C20.1145 36.7682 20.0256 36.9089 19.9072 37.0145L19.7961 37.099C19.8109 37.1553 19.8257 37.2116 19.8479 37.2679L19.8702 37.3101L19.9072 37.3594L19.9812 37.4157L20.1071 37.4439L20.2033 37.4087C20.3662 37.3031 20.5364 37.2046 20.7067 37.099L20.7141 37.1342ZM39 17.4687H0V58.7634C0 60.0726 1.17711 61.1424 2.61333 61.1424H15.68C17.6936 61.1424 18.9226 62.0363 19.4778 64C20.1959 62.0504 21.7432 61.1424 23.594 61.1424H35.8981C37.6008 61.1424 38.9852 59.8755 38.9852 58.3341V17.4546L39 17.4687Z" fill="white"/>
<path fill-rule="evenodd" clip-rule="evenodd" d="M27.3801 12.759C27.3801 12.759 24.583 12.1688 19.9286 12.1894C15.2816 12.21 12.085 12.9718 12.085 12.9718C12.0036 12.9855 11.8778 13.3699 11.9518 13.4179C12.0258 13.4728 13.8757 13.9395 16.769 13.9876C19.6622 14.0425 22.5185 13.919 24.3906 13.7611C26.2554 13.6032 27.4319 13.3287 27.5651 13.2052C27.6021 13.1365 27.6613 12.7865 27.3801 12.759ZM31.8347 2.41591L28.4753 10.9883C28.4753 10.9883 28.712 11.1599 28.7712 11.4756C28.8304 11.7844 28.2459 11.8737 28.2459 11.8737C28.2459 11.8737 28.1127 12.3953 28.2459 12.6218C28.3791 12.8483 28.5567 12.862 28.5567 13.0542C28.5567 13.2463 28.5345 13.4522 28.0461 13.7131C26.7733 14.2827 21.7933 14.5092 18.9001 14.5435C16.0068 14.5778 12.455 14.1454 11.5522 13.9739C10.6568 13.8023 10.6568 13.5209 10.6716 13.2601C10.6938 12.9993 11.0046 12.7041 11.0046 12.7041L10.9676 12.1482C10.9676 12.1482 10.9084 12.1139 10.8122 12.1139C10.716 12.1139 10.5014 11.9903 10.4422 11.7639C10.3831 11.5374 10.716 11.2285 10.716 11.2285L7.0902 2.74536C7.0902 2.74536 7.0236 2.74536 6.9866 2.74536C6.52782 2.74536 6.15784 2.41591 6.15784 2.01097C6.15784 1.60603 6.52782 1.27659 6.9866 1.27659C7.44538 1.27659 7.81536 1.60603 7.81536 2.01097C7.81536 2.1551 7.77097 2.29237 7.68957 2.40219C8.39254 3.36306 9.51729 4.0494 10.5532 4.37884C11.5226 4.66024 13.0173 5.12009 13.0173 5.12009C13.0173 5.12009 13.3725 4.13862 13.5057 3.71309C13.5057 3.47974 13.4613 3.23266 13.4021 2.97185C13.2023 2.89635 13.0469 2.74536 12.9951 2.53945C12.9137 2.21001 13.1505 1.88743 13.5205 1.8188C13.8905 1.75016 14.2531 1.95607 14.3271 2.27865C14.3789 2.47768 14.3049 2.67672 14.1643 2.81399C14.2013 3.04735 14.2531 3.26697 14.3271 3.47288C14.4233 3.59642 14.5417 3.74055 14.6823 3.89154C15.363 4.61906 16.0142 5.08577 16.0142 5.08577C16.0142 5.08577 16.5248 4.6877 17.4201 4.23471C17.6495 4.11803 17.8493 3.98077 18.0195 3.83664C18.6707 3.21893 19.1073 2.45709 19.1147 1.3864C18.8483 1.26286 18.6707 1.01578 18.6707 0.734383C18.6707 0.329443 19.0407 0 19.4994 0C19.9582 0 20.3282 0.329443 20.3282 0.734383C20.3282 1.01578 20.1506 1.26286 19.8842 1.3864C19.8842 2.04529 20.047 2.5875 20.3282 3.04735C20.5058 3.26697 20.7204 3.4866 20.972 3.67878C21.8525 4.37198 22.5555 4.66711 23.0809 4.87301C23.2955 4.77006 23.8801 4.30335 24.509 3.50033C24.5682 3.42483 24.62 3.3562 24.6644 3.2807C24.7236 3.05421 24.768 2.81399 24.7828 2.55318C24.6274 2.42278 24.5386 2.2306 24.5682 2.03156C24.62 1.70212 24.9604 1.46877 25.3304 1.50995C25.7004 1.55113 25.9668 1.85998 25.915 2.18942C25.8854 2.39532 25.7448 2.56004 25.545 2.64927C25.4932 2.97871 25.4932 3.28756 25.5228 3.57583C25.6708 4.19353 26.0778 5.01028 26.0778 5.01028C26.0778 5.01028 26.4329 4.85242 27.0915 4.6122C27.7723 4.34453 28.2163 4.23471 28.5715 4.15235C29.5926 3.78173 30.6804 3.05421 31.3315 2.06588C31.2427 1.95607 31.1909 1.82566 31.1835 1.68153C31.1613 1.27659 31.5165 0.933421 31.9753 0.912831C32.4341 0.892241 32.8189 1.20796 32.8411 1.6129C32.8633 2.01784 32.5081 2.36101 32.0493 2.3816C31.9753 2.3816 31.9087 2.3816 31.8421 2.36787L31.8199 2.40219L31.8347 2.41591Z" fill="white"/>
</svg>
