<svg width="39" height="64" viewBox="0 0 39 64" fill="none" xmlns="http://www.w3.org/2000/svg">
<path fill-rule="evenodd" clip-rule="evenodd" d="M18.7597 38.9355C18.6412 39.3578 18.5228 39.7872 18.4339 40.2165C18.4117 40.3292 18.3895 40.4347 18.3673 40.5473C18.3451 40.6459 18.3229 40.7515 18.2859 40.85C18.1304 40.8852 17.9897 40.9345 17.8417 40.9767C17.9305 41.0893 18.0268 41.209 18.123 41.3216V41.3568L18.1452 41.948C18.1452 42.1099 18.1452 42.2718 18.1304 42.4266L18.1082 42.6589L18.012 43.2079L17.9675 43.236C17.7899 43.412 17.6344 43.6161 17.4863 43.8202C17.4049 43.9399 17.3309 44.0525 17.2568 44.1792C17.0125 44.6297 16.8349 45.1083 16.709 45.5939C16.672 45.7417 16.635 45.8966 16.635 46.0514C16.635 46.0726 16.635 46.0866 16.635 46.1077L16.6942 46.4597C16.8793 46.2626 17.0718 46.0655 17.2642 45.8755C17.4567 45.6854 17.6492 45.4884 17.8491 45.3054C17.8491 45.4321 17.8491 45.5658 17.8491 45.6995C17.8491 46.4104 17.8713 47.1213 17.9009 47.8322C17.9157 48.2967 17.9231 48.7613 17.9305 49.2258C17.9305 49.5003 17.9379 49.7677 17.9527 50.0423L17.7454 50.3801C17.5974 50.6546 17.4641 50.9432 17.3531 51.2388L17.3235 51.3162L17.4863 51.5555C17.5974 51.5133 17.701 51.4851 17.7825 51.4007L17.8195 51.3796C17.8935 51.3444 17.9675 51.3092 18.049 51.281C18.0934 51.8159 18.1452 52.3438 18.197 52.8788C18.2192 53.1462 18.2489 53.4137 18.2785 53.6811L18.1008 53.8853L18.0046 54.026C17.9009 54.195 17.8195 54.3709 17.7677 54.561L17.7528 54.6313L17.9527 54.941L18.3895 54.6384C18.4265 54.9903 18.471 55.3422 18.508 55.6941C18.5376 56.032 18.508 56.3698 18.4562 56.7077L18.4117 56.9188C18.3895 57.0103 18.3599 57.0948 18.3303 57.1863C18.3007 57.2567 18.2637 57.3341 18.2341 57.4045L18.012 58.0098L17.8935 58.4251L17.8343 58.5588C17.5752 59.1782 17.3753 59.8257 17.1754 60.4662C17.4123 60.1777 17.6492 59.882 17.9009 59.6005C17.9675 59.5231 18.0416 59.4457 18.1082 59.3753V59.3612C18.2563 59.2204 18.3969 59.0797 18.545 58.953L18.656 58.8615V58.8474C18.7671 58.777 18.8707 58.7066 18.9966 58.6503L19.115 58.6081C19.1669 58.6081 19.2187 58.594 19.2779 58.594C19.3297 58.594 19.3815 58.6081 19.4334 58.6151L19.5444 58.6573C19.7443 58.7418 19.9146 58.8685 20.0774 59.0022C20.529 59.3823 20.9658 59.7694 21.4026 60.1565C21.5877 60.3255 21.7654 60.4944 21.9505 60.6704L21.6321 59.7624C21.4767 59.5512 21.3212 59.3401 21.1731 59.1219C21.1213 59.0515 21.0769 58.9811 21.0251 58.9107C20.7511 58.418 20.4698 57.9324 20.2255 57.4256C20.1367 57.2285 20.0552 57.0315 19.9812 56.8273C19.9442 56.7147 19.9146 56.6092 19.885 56.4965L19.8405 56.2713C19.8257 56.1587 19.8183 56.0531 19.8183 55.9405V55.7786L19.9368 54.5398H20.0552L20.1737 54.7158C20.2477 54.4906 20.2699 54.4202 20.3662 54.1246L20.4476 53.8782L20.4624 53.836C20.5216 53.646 20.5809 53.4559 20.6401 53.2588L20.6845 53.1392C20.7289 53.0266 20.7882 52.928 20.8622 52.8225C20.914 52.7521 20.9658 52.6817 21.0251 52.6183L21.1435 52.5057C21.0917 52.4283 21.0399 52.3579 20.988 52.2805C20.8104 51.9989 20.6401 51.7104 20.4698 51.4288C20.492 51.3092 20.5142 51.1895 20.5438 51.0699C20.5513 51.0065 20.5587 50.9432 20.5587 50.8798C20.5809 50.5068 20.5957 50.1338 20.6179 49.7607L20.6771 49.7466C20.7808 49.6903 20.8844 49.634 20.988 49.5848L20.7363 48.9513L20.9288 48.8105L21.0547 48.6768L20.9584 48.5431L20.8622 48.1489L21.0177 48.0785L21.2472 47.9377L21.0251 47.7618L20.9954 47.7266L20.9436 47.6069C20.9288 47.5366 20.9288 47.4662 20.9214 47.3958L20.9658 47.3817L21.0325 47.3536L21.1879 47.2409L21.1065 47.0931L21.0177 46.7201L21.1213 46.6708L21.2694 46.5582L21.1953 46.4245C21.1657 46.3119 21.1509 46.1992 21.1361 46.0866L21.1213 45.8895C21.2027 45.8403 21.2916 45.791 21.373 45.7347L21.2323 45.5447C21.1583 45.425 21.0917 45.2983 21.0251 45.1716C21.1583 45.1646 21.299 45.1435 21.4322 45.1364L21.2916 44.9112L21.1953 44.7L21.0621 44.1581L21.2768 44.0032L21.0177 43.5105L21.1287 43.405L21.0547 43.236L21.1139 43.222C20.9658 42.9686 20.8104 42.7152 20.6993 42.4477C20.6771 42.3774 20.6549 42.314 20.6327 42.2436C20.6105 42.1803 20.5883 42.124 20.5661 42.0606C20.3736 41.5538 20.1589 41.0541 19.9812 40.5473C19.8035 40.0265 19.611 39.5127 19.4852 38.9778C19.4556 38.83 19.4186 38.6751 19.426 38.5203L19.4482 38.3936C19.3964 38.3584 19.3445 38.3302 19.2853 38.3021L19.2409 38.281L19.1743 38.2669H19.078L18.967 38.3232L18.9226 38.4076C18.8781 38.5836 18.8263 38.7666 18.7745 38.9426M17.8047 37.0563C17.4049 36.8099 17.0051 36.5636 16.6202 36.2961C16.5239 36.2257 16.4277 36.1624 16.324 36.092C16.2352 36.0286 16.139 35.9653 16.0427 35.916C15.9021 35.9864 15.7614 36.0357 15.6133 36.092C15.5985 35.9512 15.5763 35.8105 15.5689 35.6697L15.5467 35.6415L15.1247 35.1911C15.0063 35.0644 14.8878 34.9518 14.762 34.8391L14.5695 34.6773L14.0957 34.3253H14.0438C13.7773 34.3113 13.5182 34.2549 13.2591 34.1916C13.111 34.1564 12.9704 34.1142 12.8297 34.0649C12.3189 33.8749 11.8377 33.6285 11.3787 33.347C11.2454 33.2555 11.1048 33.164 10.9863 33.0514C10.9715 33.0373 10.9567 33.0232 10.9493 33.0091L10.7272 32.7135C11.0085 32.7487 11.2973 32.7769 11.5786 32.805C11.8599 32.8332 12.1486 32.8613 12.4374 32.8754C12.3411 32.7839 12.2449 32.6854 12.1486 32.5868C11.6304 32.0519 11.1196 31.5099 10.6236 30.9609C10.2978 30.602 9.95729 30.2571 9.62415 29.9052C9.43166 29.7011 9.23178 29.4969 9.0467 29.2858L8.64692 29.1591C8.32859 29.0465 8.02506 28.9057 7.72893 28.7579L7.64749 28.7157L7.59567 28.4341C7.70672 28.3989 7.81036 28.3567 7.92882 28.3708H7.97323C8.05467 28.3497 8.1361 28.3286 8.21754 28.3004C7.86219 27.8781 7.51424 27.4487 7.15888 27.0194C6.98121 26.8082 6.80353 26.59 6.63326 26.3719L6.35194 26.3226L6.17426 26.2733C5.97437 26.21 5.78189 26.1325 5.60421 26.0199L5.53759 25.9777L5.45615 25.6187L6.00399 25.5835C5.77449 25.295 5.55239 25.0134 5.32289 24.7249C5.09339 24.4574 4.82688 24.2181 4.53816 24.0069L4.35308 23.8732C4.27164 23.8169 4.1902 23.7676 4.10137 23.7254C4.02733 23.6902 3.9459 23.655 3.87187 23.6198L3.26481 23.3031L2.87984 23.0638L2.73918 23.0004C2.0877 22.6978 1.46583 22.3318 0.843964 21.9798C1.23633 22.0502 1.6213 22.1277 2.01367 22.184C2.12472 22.198 2.22836 22.2121 2.332 22.2262H2.34681C2.5541 22.2543 2.76139 22.2684 2.96868 22.2755H3.11674L3.13155 22.2895C3.26481 22.2755 3.39806 22.2684 3.52392 22.2332L3.64977 22.191C3.69419 22.1628 3.73861 22.1347 3.77563 22.1065C3.81264 22.0713 3.84225 22.0362 3.87927 21.9939L3.93109 21.8954C4.01993 21.7124 4.05695 21.5153 4.07916 21.3112C4.13838 20.7551 4.1828 20.1991 4.21982 19.6431C4.23462 19.4038 4.24203 19.1715 4.24943 18.9322L4.67882 19.805C4.71583 20.0583 4.76025 20.3117 4.80467 20.5581C4.81948 20.6425 4.84169 20.72 4.84909 20.8044C5.00456 21.3393 5.15262 21.8743 5.3451 22.3951C5.41913 22.5992 5.50797 22.7893 5.60421 22.9863C5.65604 23.0919 5.71526 23.1905 5.77449 23.289L5.90774 23.479C5.98178 23.5705 6.04841 23.655 6.12984 23.7395L6.25569 23.8591L7.24772 24.7178L7.33656 24.6474L7.29954 24.4433C7.52164 24.563 7.59567 24.6052 7.87699 24.7671L8.1213 24.9008L8.16572 24.929C8.3508 25.0345 8.53588 25.1401 8.72096 25.2457L8.83941 25.309C8.95786 25.3654 9.07631 25.4076 9.20216 25.4357C9.291 25.4569 9.37984 25.478 9.46868 25.485H9.63895C9.65376 25.5835 9.66856 25.675 9.69077 25.7595C9.76481 26.0762 9.84624 26.393 9.93508 26.7097C10.0387 26.7801 10.1424 26.8575 10.2534 26.9279C10.3052 26.9701 10.3571 27.0124 10.4089 27.0616C10.6976 27.3291 10.9789 27.5965 11.2751 27.857L11.3343 27.8359C11.4527 27.8147 11.5712 27.7936 11.6896 27.7725L11.9636 28.3919L12.2079 28.3778L12.4003 28.3989L12.4226 28.5538L12.6372 28.9057L12.8075 28.8635L13.0888 28.8283L13.0518 29.0957V29.138L13.1036 29.2576C13.1407 29.321 13.1925 29.3702 13.2369 29.4266L13.2739 29.4125L13.3405 29.3914H13.5404L13.5849 29.5462L13.7921 29.8841L13.9032 29.8629H14.0957L14.1401 30.0037C14.1993 30.1093 14.2733 30.2008 14.3474 30.2923L14.4732 30.4471C14.5769 30.4331 14.6731 30.419 14.7694 30.4049L14.8064 30.6301C14.836 30.7639 14.8804 30.9046 14.9322 31.0313C15.0359 30.9539 15.1543 30.8835 15.2654 30.8131L15.3246 31.0665L15.406 31.2777L15.7022 31.7633L15.9761 31.7493L16.1464 32.2701H16.3092L16.3759 32.4461L16.4277 32.4179C16.5017 32.6924 16.5683 32.981 16.6868 33.2484C16.7164 33.3118 16.7534 33.3751 16.783 33.4385C16.8126 33.4948 16.8423 33.5581 16.8645 33.6144C17.094 34.1071 17.3013 34.6069 17.5382 35.0925C17.7825 35.5852 18.0194 36.092 18.3155 36.5636C18.3969 36.6903 18.4858 36.831 18.6042 36.9366L18.7153 37.0211C18.7005 37.0774 18.6856 37.1337 18.6634 37.19L18.6412 37.2322L18.6042 37.2815L18.5302 37.3378L18.4043 37.366L18.3081 37.3308C18.1452 37.2252 17.9749 37.1266 17.8047 37.0211V37.0563ZM20.7141 37.1337C21.1139 36.8873 21.5137 36.641 21.8986 36.3735C21.9949 36.3031 22.0911 36.2398 22.1874 36.1694C22.2762 36.1061 22.3724 36.0427 22.4687 35.9935C22.6093 36.0638 22.75 36.1131 22.8981 36.1694C22.9129 36.0286 22.9351 35.8879 22.9425 35.7471L22.9647 35.719L23.3867 35.2685C23.5051 35.1418 23.6236 35.0292 23.7494 34.9166L23.9419 34.7547L24.4157 34.4028H24.4675C24.7341 34.3887 24.9932 34.3324 25.2523 34.269C25.4003 34.2338 25.541 34.1916 25.6817 34.1423C26.1925 33.9523 26.6737 33.7059 27.1327 33.4244C27.2659 33.3329 27.4066 33.2414 27.5251 33.1288C27.5399 33.1147 27.5547 33.1006 27.5621 33.0866L27.7842 32.7909C27.5028 32.8261 27.2141 32.8543 26.9328 32.8824C26.6515 32.9106 26.3628 32.9388 26.074 32.9528C26.1703 32.8543 26.2665 32.7628 26.3628 32.6643C26.881 32.1293 27.3918 31.5874 27.8878 31.0384C28.2136 30.6864 28.5541 30.3345 28.8872 29.9826C29.0797 29.7785 29.2796 29.5744 29.4647 29.3632L29.8645 29.2365C30.1828 29.1239 30.4863 28.9831 30.7825 28.8353L30.8639 28.7931L30.9157 28.5115C30.8047 28.4764 30.701 28.4341 30.5826 28.4482H30.5382C30.4567 28.4271 30.3753 28.406 30.2938 28.3778C30.6492 27.9555 30.9972 27.5262 31.3525 27.0968C31.5302 26.8857 31.7079 26.6675 31.8781 26.4493L32.1595 26.4L32.3371 26.3507C32.537 26.2874 32.7295 26.21 32.9072 26.0974L32.9738 26.0551L33.0552 25.6962L32.5074 25.661C32.7369 25.3724 32.959 25.0908 33.1885 24.8023C33.418 24.5348 33.6845 24.2955 33.9732 24.0843L34.1583 23.9506C34.2397 23.8943 34.3212 23.845 34.41 23.8028C34.4841 23.7676 34.5655 23.7324 34.6395 23.6972L35.2466 23.3805L35.6315 23.1412L35.7722 23.0778C36.4237 22.7752 37.0456 22.4092 37.6674 22.0573C37.2751 22.1277 36.8901 22.2051 36.4977 22.2614C36.3941 22.2755 36.283 22.2895 36.1794 22.3036H36.1646C35.9573 22.3318 35.75 22.3458 35.5427 22.3529H35.3946L35.3798 22.367C35.2466 22.3529 35.1133 22.3458 34.9875 22.3107L34.8616 22.2684C34.8172 22.2403 34.7728 22.2121 34.7358 22.184C34.6987 22.1488 34.6691 22.1136 34.6321 22.0713L34.5803 21.9728C34.4915 21.7898 34.4544 21.5927 34.4322 21.3886C34.373 20.8326 34.3286 20.2765 34.2916 19.7205C34.2768 19.4812 34.2694 19.2489 34.262 19.0096L33.8326 19.8824C33.7956 20.1358 33.7511 20.3891 33.7067 20.6355C33.6919 20.72 33.6697 20.7974 33.6623 20.8818C33.5068 21.4168 33.3588 21.9517 33.1663 22.4725C33.0923 22.6767 33.0034 22.8667 32.9072 23.0638C32.8554 23.1693 32.7961 23.2679 32.7369 23.3664L32.6036 23.5565C32.5296 23.648 32.463 23.7324 32.3815 23.8169L32.2557 23.9365L31.2637 24.7952L31.1748 24.7249L31.2118 24.5207C30.9897 24.6404 30.9231 24.6826 30.6344 24.8445L30.3901 24.9782L30.3457 24.9994C30.1606 25.1049 29.9755 25.2105 29.7904 25.3161L29.672 25.3794C29.5535 25.4357 29.4351 25.4709 29.3092 25.5061C29.2204 25.5272 29.1315 25.5484 29.0427 25.5554H28.8724C28.8576 25.6539 28.8428 25.7454 28.8206 25.8299C28.7466 26.1466 28.6651 26.4634 28.5763 26.7801C28.4727 26.8505 28.369 26.9279 28.258 26.9983C28.2061 27.0405 28.1543 27.0827 28.1025 27.132C27.8138 27.3995 27.5325 27.6669 27.2363 27.9274L27.1771 27.9062C27.0587 27.8851 26.9402 27.864 26.8218 27.8429L26.5478 28.4693L26.3035 28.4552L26.111 28.4764L26.0888 28.6312L25.8741 28.9831L25.7039 28.9409L25.4226 28.9057L25.4596 29.1732V29.2154L25.4077 29.3351C25.3707 29.3984 25.3189 29.4477 25.2745 29.504L25.2375 29.4899L25.1708 29.4688H24.971L24.9265 29.6236L24.7192 29.9615L24.6082 29.9404H24.4157L24.3713 30.0811C24.3121 30.1867 24.238 30.2782 24.164 30.3697L24.0382 30.5246C23.9419 30.5105 23.8383 30.4964 23.742 30.4823L23.705 30.7076C23.6754 30.8413 23.631 30.9821 23.5792 31.1087C23.4755 31.0313 23.3571 30.9609 23.246 30.8906L23.1868 31.1439L23.1054 31.3551L22.8092 31.8407L22.5353 31.8267L22.365 32.3475H22.2022L22.1355 32.5235L22.0837 32.4953C22.0097 32.7698 21.9431 33.0584 21.8246 33.3259C21.795 33.3892 21.758 33.4526 21.7284 33.5159C21.6987 33.5722 21.6691 33.6356 21.6469 33.6919C21.4174 34.1846 21.2101 34.6843 20.9732 35.17C20.7289 35.6626 20.492 36.1694 20.1959 36.641C20.1145 36.7677 20.0256 36.9085 19.9072 37.014L19.7961 37.0985C19.8109 37.1548 19.8257 37.2111 19.8479 37.2674L19.8702 37.3096L19.9072 37.3589L19.9812 37.4152L20.1071 37.4434L20.2033 37.4082C20.3662 37.3026 20.5364 37.2041 20.7067 37.0985L20.7141 37.1337ZM39 17.4682H0V58.7629C0 60.0721 1.17711 61.1419 2.61333 61.1419H15.68C17.6936 61.1419 18.9226 62.0358 19.4778 63.9996C20.1959 62.0499 21.7432 61.1419 23.594 61.1419H35.8981C37.6008 61.1419 38.9852 59.875 38.9852 58.3336V17.4541L39 17.4682Z" fill="white"/>
<path fill-rule="evenodd" clip-rule="evenodd" d="M27.3802 12.759C27.3802 12.759 24.5831 12.1688 19.9288 12.1894C15.2818 12.21 12.0851 12.9718 12.0851 12.9718C12.0037 12.9855 11.8779 13.3699 11.9519 13.4179C12.0259 13.4728 13.8758 13.9395 16.7691 13.9876C19.6624 14.0425 22.5186 13.919 24.3908 13.7611C26.2555 13.6032 27.432 13.3287 27.5652 13.2052C27.6022 13.1365 27.6614 12.7865 27.3802 12.759ZM31.8348 2.41591L28.4754 10.9883C28.4754 10.9883 28.7122 11.1599 28.7714 11.4756C28.8306 11.7844 28.246 11.8737 28.246 11.8737C28.246 11.8737 28.1128 12.3953 28.246 12.6218C28.3792 12.8483 28.5568 12.862 28.5568 13.0542C28.5568 13.2463 28.5346 13.4522 28.0462 13.7131C26.7734 14.2827 21.7935 14.5092 18.9002 14.5435C16.0069 14.5778 12.4551 14.1454 11.5523 13.9739C10.657 13.8023 10.657 13.5209 10.6718 13.2601C10.694 12.9993 11.0047 12.7041 11.0047 12.7041L10.9677 12.1482C10.9677 12.1482 10.9085 12.1139 10.8124 12.1139C10.7162 12.1139 10.5016 11.9903 10.4424 11.7639C10.3832 11.5374 10.7162 11.2285 10.7162 11.2285L7.09032 2.74536C7.09032 2.74536 7.02372 2.74536 6.98672 2.74536C6.52794 2.74536 6.15796 2.41591 6.15796 2.01097C6.15796 1.60603 6.52794 1.27659 6.98672 1.27659C7.4455 1.27659 7.81549 1.60603 7.81549 2.01097C7.81549 2.1551 7.77109 2.29237 7.68969 2.40219C8.39266 3.36306 9.51741 4.0494 10.5534 4.37884C11.5227 4.66024 13.0175 5.12009 13.0175 5.12009C13.0175 5.12009 13.3726 4.13862 13.5058 3.71309C13.5058 3.47974 13.4614 3.23266 13.4022 2.97185C13.2024 2.89635 13.0471 2.74536 12.9953 2.53945C12.9139 2.21001 13.1507 1.88743 13.5206 1.8188C13.8906 1.75016 14.2532 1.95607 14.3272 2.27865C14.379 2.47768 14.305 2.67672 14.1644 2.81399C14.2014 3.04735 14.2532 3.26697 14.3272 3.47288C14.4234 3.59642 14.5418 3.74055 14.6824 3.89154C15.3632 4.61906 16.0143 5.08577 16.0143 5.08577C16.0143 5.08577 16.5249 4.6877 17.4203 4.23471C17.6497 4.11803 17.8494 3.98077 18.0196 3.83664C18.6708 3.21893 19.1074 2.45709 19.1148 1.3864C18.8484 1.26286 18.6708 1.01578 18.6708 0.734383C18.6708 0.329443 19.0408 0 19.4996 0C19.9584 0 20.3283 0.329443 20.3283 0.734383C20.3283 1.01578 20.1507 1.26286 19.8844 1.3864C19.8844 2.04529 20.0471 2.5875 20.3283 3.04735C20.5059 3.26697 20.7205 3.4866 20.9721 3.67878C21.8527 4.37198 22.5556 4.66711 23.081 4.87301C23.2956 4.77006 23.8802 4.30335 24.5091 3.50033C24.5683 3.42483 24.6201 3.3562 24.6645 3.2807C24.7237 3.05421 24.7681 2.81399 24.7829 2.55318C24.6275 2.42278 24.5387 2.2306 24.5683 2.03156C24.6201 1.70212 24.9605 1.46877 25.3305 1.50995C25.7005 1.55113 25.9669 1.85998 25.9151 2.18942C25.8855 2.39532 25.7449 2.56004 25.5451 2.64927C25.4933 2.97871 25.4933 3.28756 25.5229 3.57583C25.6709 4.19353 26.0779 5.01028 26.0779 5.01028C26.0779 5.01028 26.4331 4.85242 27.0916 4.6122C27.7724 4.34453 28.2164 4.23471 28.5716 4.15235C29.5927 3.78173 30.6805 3.05421 31.3316 2.06588C31.2429 1.95607 31.1911 1.82566 31.1837 1.68153C31.1615 1.27659 31.5166 0.933421 31.9754 0.912831C32.4342 0.892241 32.819 1.20796 32.8412 1.6129C32.8634 2.01784 32.5082 2.36101 32.0494 2.3816C31.9754 2.3816 31.9088 2.3816 31.8422 2.36787L31.82 2.40219L31.8348 2.41591Z" fill="white"/>
</svg>
