<svg width="20" height="20" viewBox="0 0 20 20" xmlns="http://www.w3.org/2000/svg">
<path fill-rule="evenodd" clip-rule="evenodd" d="M1.75 5.00002C1.75 4.12557 2.45888 3.41669 3.33333 3.41669H16.6667C17.5411 3.41669 18.25 4.12557 18.25 5.00002V15C18.25 15.8745 17.5411 16.5834 16.6667 16.5834H3.33333C2.45888 16.5834 1.75 15.8745 1.75 15V5.00002ZM3.33333 4.91669C3.28731 4.91669 3.25 4.954 3.25 5.00002V15C3.25 15.046 3.28731 15.0834 3.33333 15.0834H16.6667C16.7127 15.0834 16.75 15.046 16.75 15V5.00002C16.75 4.954 16.7127 4.91669 16.6667 4.91669H3.33333Z" />
<path fill-rule="evenodd" clip-rule="evenodd" d="M1.90182 4.54762C2.15165 4.21723 2.62201 4.15193 2.9524 4.40176L10.2012 9.88308L17.0313 4.41452C17.3546 4.15563 17.8266 4.20788 18.0855 4.53123C18.3444 4.85457 18.2921 5.32656 17.9688 5.58545L10.6831 11.4188C10.4151 11.6333 10.0358 11.6386 9.76197 11.4315L2.04768 5.5982C1.71729 5.34837 1.65199 4.87801 1.90182 4.54762Z"/>
</svg>
