<svg width="20" height="21" viewBox="0 0 20 21" fill="none" xmlns="http://www.w3.org/2000/svg">
<path d="M12.7059 2.5V9.88461L17.5629 15.5092C17.7995 15.7816 17.9468 16.1091 17.9881 16.4542C18.0294 16.7993 17.9628 17.148 17.7961 17.4603C17.6295 17.7725 17.3694 18.0357 17.0457 18.2196C16.7221 18.4035 16.348 18.5007 15.9664 18.5H4.03359C3.652 18.5007 3.27791 18.4035 2.95427 18.2196C2.63063 18.0357 2.37054 17.7725 2.20385 17.4603C2.03717 17.148 1.97064 16.7993 2.0119 16.4542C2.05316 16.1091 2.20054 15.7816 2.43713 15.5092L7.29414 9.88461V2.5M5.26475 2.5H14.7352" stroke-width="1.5" stroke-linecap="round" stroke-linejoin="round"/>
</svg>
