<svg width="20" height="21" viewBox="0 0 20 21" fill="none" xmlns="http://www.w3.org/2000/svg">
<path d="M14.4525 3.39656L11.1742 6.67483L11.6162 8.88454L13.8259 9.32648L17.1041 6.04821L17.1045 6.04807C17.5102 7.00591 17.6073 8.06642 17.3821 9.082C17.1569 10.0976 16.6207 11.0177 15.8481 11.7142C15.0755 12.4108 14.1049 12.8491 13.0715 12.9682C12.0381 13.0874 10.9933 12.8813 10.0825 12.3788L10.0826 12.3787L5.70086 17.4515C5.34916 17.8028 4.87236 18 4.37526 17.9999C3.87816 17.9998 3.40147 17.8022 3.04997 17.4507C2.69847 17.0992 2.50093 16.6225 2.50079 16.1254C2.50065 15.6283 2.69791 15.1515 3.04921 14.7998L8.12198 10.4182L8.12187 10.4182C7.61937 9.50739 7.41334 8.46256 7.53245 7.42917C7.65157 6.39577 8.08992 5.42522 8.78647 4.65261C9.48302 3.88001 10.4031 3.3438 11.4187 3.11861C12.4343 2.89342 13.4948 2.99047 14.4526 3.39624L14.4525 3.39656Z" stroke-width="1.5" stroke-linecap="round" stroke-linejoin="round"/>
</svg>
