<svg width="20" height="20" viewBox="0 0 20 20" xmlns="http://www.w3.org/2000/svg">
<path fill-rule="evenodd" clip-rule="evenodd" d="M9.46983 6.96967C9.76273 6.67678 10.2376 6.67678 10.5305 6.96967L13.0305 9.46967C13.1711 9.61032 13.2502 9.80109 13.2502 10C13.2502 10.1989 13.1711 10.3897 13.0305 10.5303L10.5305 13.0303C10.2376 13.3232 9.76273 13.3232 9.46983 13.0303C9.17694 12.7374 9.17694 12.2626 9.46983 11.9697L10.6895 10.75L3.3335 10.75C2.91928 10.75 2.5835 10.4142 2.5835 10C2.5835 9.58579 2.91928 9.25 3.3335 9.25L10.6895 9.25L9.46983 8.03033C9.17694 7.73744 9.17694 7.26256 9.46983 6.96967Z" />
<path fill-rule="evenodd" clip-rule="evenodd" d="M6.75 4.16671C6.75 3.29226 7.45888 2.58337 8.33333 2.58337H15.8333C16.7078 2.58337 17.4167 3.29226 17.4167 4.16671V15.8334C17.4167 16.7078 16.7078 17.4167 15.8333 17.4167H8.33333C7.45888 17.4167 6.75 16.7078 6.75 15.8334V14.1667C6.75 13.7525 7.08579 13.4167 7.5 13.4167C7.91421 13.4167 8.25 13.7525 8.25 14.1667V15.8334C8.25 15.8794 8.28731 15.9167 8.33333 15.9167H15.8333C15.8794 15.9167 15.9167 15.8794 15.9167 15.8334V4.16671C15.9167 4.12068 15.8794 4.08337 15.8333 4.08337H8.33333C8.28731 4.08337 8.25 4.12068 8.25 4.16671V5.83337C8.25 6.24759 7.91421 6.58337 7.5 6.58337C7.08579 6.58337 6.75 6.24759 6.75 5.83337V4.16671Z" />
</svg>
