<svg width="40" height="40" viewBox="0 0 40 40" fill="none" xmlns="http://www.w3.org/2000/svg">
<path d="M0 4C0 1.79086 1.79086 0 4 0H36C38.2091 0 40 1.79086 40 4V36C40 38.2091 38.2091 40 36 40H4C1.79086 40 0 38.2091 0 36V4Z" fill="#FFCA38"/>
<path d="M38.5607 31.7943C39.4727 32.5543 40 33.6801 40 34.8672V35.9999C40 38.2091 38.2091 39.9999 36 39.9999H4C1.79086 39.9999 0 38.2091 0 35.9999V34.4109C0 33.2238 0.527258 32.098 1.43918 31.338L17.78 17.7199C18.3261 17.2647 19.0146 17.0154 19.7256 17.0154C20.4366 17.0154 21.1251 17.2647 21.6712 17.7199L38.5607 31.7943Z" fill="#FFDC7C"/>
<path d="M40 6.77083C40 7.91217 39.5124 8.99914 38.6601 9.75815L22.0175 24.5775C20.8675 25.6025 19.1313 25.605 17.98 24.5825L1.34601 9.83116C0.489967 9.07201 0 7.98262 0 6.83845V4C0 1.79086 1.79086 0 4 0H36C38.2091 0 40 1.79086 40 4V6.77083Z" fill="url(#paint0_linear_3702_165127)"/>
<path d="M40 6.77083C40 7.91217 39.5124 8.99914 38.6601 9.75815L22.0175 24.5775C20.8675 25.6025 19.1313 25.605 17.98 24.5825L1.34601 9.83116C0.489967 9.07201 0 7.98262 0 6.83845V4C0 1.79086 1.79086 0 4 0H36C38.2091 0 40 1.79086 40 4V6.77083Z" fill="url(#paint1_linear_3702_165127)" fill-opacity="0.5"/>
<defs>
<linearGradient id="paint0_linear_3702_165127" x1="49.4787" y1="-25.2237" x2="16.3037" y2="19.19" gradientUnits="userSpaceOnUse">
<stop stop-color="#FFDA3E"/>
<stop offset="1" stop-color="#FC4714"/>
</linearGradient>
<linearGradient id="paint1_linear_3702_165127" x1="47.7937" y1="-3.1325" x2="20.0675" y2="21.9213" gradientUnits="userSpaceOnUse">
<stop stop-color="white"/>
<stop offset="1" stop-color="white" stop-opacity="0"/>
</linearGradient>
</defs>
</svg>
