<svg width="20" height="21" viewBox="0 0 20 21" fill="none" xmlns="http://www.w3.org/2000/svg">
<path d="M2.5 10.5H5.625L6.875 8.625L9.375 12.375L10.625 10.5H12.5" stroke-width="1.5" stroke-linecap="round" stroke-linejoin="round"/>
<path d="M2.19643 7.9995C2.19052 7.89588 2.18754 7.79188 2.1875 7.68751C2.18766 6.74855 2.51301 5.83863 3.10824 5.11244C3.70347 4.38626 4.53183 3.88863 5.45249 3.70418C6.37315 3.51972 7.32928 3.65982 8.15832 4.10066C8.98736 4.54149 9.63814 5.25585 10 6.12227L9.99999 6.12228C10.3619 5.25585 11.0126 4.54149 11.8417 4.10066C12.6707 3.65983 13.6268 3.51973 14.5475 3.70418C15.4682 3.88863 16.2965 4.38625 16.8918 5.11244C17.487 5.83863 17.8123 6.74855 17.8125 7.68751C17.8125 13 10 17.375 10 17.375C10 17.375 6.87932 15.6274 4.58262 13.0001" stroke-width="1.5" stroke-linecap="round" stroke-linejoin="round"/>
</svg>
