<svg width="20" height="21" viewBox="0 0 20 21" fill="none" xmlns="http://www.w3.org/2000/svg">
<path d="M11.2492 17.9983V3.62329C11.2492 3.45753 11.1833 3.29856 11.0661 3.18135C10.9489 3.06414 10.7899 2.99829 10.6242 2.99829H3.12418C2.95842 2.99829 2.79944 3.06414 2.68223 3.18135C2.56502 3.29856 2.49918 3.45753 2.49918 3.62329V17.9983" stroke-width="1.5" stroke-linecap="round" stroke-linejoin="round"/>
<path d="M17.4992 17.9983V8.62329C17.4992 8.45753 17.4334 8.29856 17.3161 8.18135C17.1989 8.06414 17.04 7.99829 16.8742 7.99829H11.2492" stroke-width="1.5" stroke-linecap="round" stroke-linejoin="round"/>
<path d="M4.99918 6.12329H7.49918" stroke-width="1.5" stroke-linecap="round" stroke-linejoin="round"/>
<path d="M6.24918 12.3733H8.74918" stroke-width="1.5" stroke-linecap="round" stroke-linejoin="round"/>
<path d="M4.99918 15.4983H7.49918" stroke-width="1.5" stroke-linecap="round" stroke-linejoin="round"/>
<path d="M13.7492 14.2483H14.9992" stroke-width="1.5" stroke-linecap="round" stroke-linejoin="round"/>
<path d="M13.7492 11.1233H14.9992" stroke-width="1.5" stroke-linecap="round" stroke-linejoin="round"/>
</svg>
