<svg width="40" height="40" viewBox="0 0 40 40" fill="none" xmlns="http://www.w3.org/2000/svg">
<rect width="40" height="40" rx="4" fill="#005FF9"/>
<path fill-rule="evenodd" clip-rule="evenodd" d="M8.33337 19.9669C8.33337 13.5522 13.5669 8.33337 19.9999 8.33337C26.4328 8.33337 31.6664 13.5522 31.6664 19.9669C31.6664 20.8757 31.5906 21.6114 31.4207 22.3498L31.4182 22.362C31.4178 22.3642 31.3334 22.7046 31.2869 22.8531C30.9985 23.7727 30.4765 24.5386 29.7771 25.068C29.0989 25.5814 28.2579 25.8643 27.4092 25.8643C27.3044 25.8643 27.1988 25.8601 27.0954 25.8518C25.8902 25.7553 24.8305 25.1229 24.1807 24.1144C23.0631 25.235 21.5803 25.8515 19.9999 25.8515C16.746 25.8515 14.0987 23.2117 14.0987 19.9669C14.0987 16.7222 16.746 14.0825 19.9999 14.0825C23.2538 14.0825 25.901 16.7222 25.901 19.9669V21.8639C25.9059 22.9707 26.6507 23.4231 27.2871 23.4743C27.9202 23.523 28.7627 23.1553 29.0562 21.9551C29.201 21.2969 29.2745 20.6278 29.2745 19.9669C29.2745 14.8673 25.1139 10.7185 19.9999 10.7185C14.8858 10.7185 10.7253 14.8673 10.7253 19.9669C10.7253 25.0666 14.8858 29.2155 19.9999 29.2155C21.78 29.2155 23.5114 28.7085 25.0067 27.7493L25.0334 27.7321L26.6051 29.5542L26.5714 29.5772C24.6291 30.9009 22.3567 31.6006 19.9999 31.6006C13.5669 31.6006 8.33337 26.3818 8.33337 19.9669ZM19.9999 23.4664C21.9348 23.4664 23.5091 21.8965 23.5091 19.9669C23.5091 18.0374 21.9348 16.4677 19.9999 16.4677C18.0648 16.4677 16.4906 18.0374 16.4906 19.9669C16.4906 21.8965 18.0648 23.4664 19.9999 23.4664Z" fill="#FF9E00"/>
</svg>
