<svg width="20" height="21" viewBox="0 0 20 21" fill="none" xmlns="http://www.w3.org/2000/svg">
<path d="M10.0742 10.5L9.99121 18.5321" stroke-width="1.5" stroke-linecap="round" stroke-linejoin="round"/>
<path d="M17.1787 14.1979V6.80226C17.1787 6.69158 17.1493 6.58288 17.0935 6.48728C17.0378 6.39169 16.9576 6.31262 16.8612 6.25815L10.2987 2.54892C10.2049 2.49589 10.099 2.46802 9.99121 2.46802C9.88344 2.46802 9.7775 2.49589 9.68367 2.54892L3.12117 6.25815C3.02482 6.31262 2.94466 6.39169 2.88888 6.48728C2.8331 6.58288 2.80371 6.69158 2.80371 6.80226V14.1979C2.80371 14.3086 2.8331 14.4173 2.88888 14.5129C2.94466 14.6085 3.02482 14.6876 3.12117 14.742L9.68367 18.4513C9.7775 18.5043 9.88344 18.5322 9.99121 18.5322C10.099 18.5322 10.2049 18.5043 10.2987 18.4513L16.8612 14.742C16.9576 14.6876 17.0378 14.6085 17.0935 14.5129C17.1493 14.4173 17.1787 14.3086 17.1787 14.1979V14.1979Z" stroke-width="1.5" stroke-linecap="round" stroke-linejoin="round"/>
<path d="M17.0931 6.48719L10.0741 10.5007L2.8898 6.48633" stroke-width="1.5" stroke-linecap="round" stroke-linejoin="round"/>
<path d="M13.8296 12.1022V8.35216L6.58121 4.302" stroke-width="1.5" stroke-linecap="round" stroke-linejoin="round"/>
</svg>
