<svg width="32" height="32" viewBox="0 0 32 32" xmlns="http://www.w3.org/2000/svg">
<path d="M20.9901 18.2345C21.4099 17.8147 21.4699 17.215 21.1101 16.6153C20.8102 16.1356 20.2705 15.8957 19.6708 16.0156C19.431 16.0756 19.1911 16.1955 18.9512 16.3754C17.0922 17.6348 14.5735 17.5748 12.7144 16.3155C12.5945 16.2555 12.4746 16.1955 12.3546 16.1356C11.695 15.8357 11.0353 15.9557 10.6755 16.5553C10.2557 17.155 10.3157 17.8147 10.8554 18.3544C10.9753 18.4743 11.0953 18.5343 11.1553 18.6542L11.2152 18.7142C12.0548 19.3739 13.0743 19.7937 14.3936 19.9736L13.614 20.7532C12.9543 21.4128 12.2347 22.1324 11.575 22.7921C11.3951 22.972 11.1553 23.2718 11.1553 23.6916C11.1553 24.2313 11.4551 24.7711 11.9948 25.0109C12.1747 25.1309 12.3546 25.1309 12.5345 25.1309C12.8344 25.1309 13.1942 25.0109 13.4341 24.7111C14.3336 23.8116 15.0532 23.0919 15.7729 22.3723C15.8328 22.3123 15.8328 22.3123 15.8328 22.3123C15.8328 22.3123 15.8928 22.3123 15.8928 22.3723C16.3725 22.912 16.9123 23.3918 17.392 23.9315C17.6319 24.1714 17.8718 24.4113 18.1116 24.6511C18.4115 24.951 18.6514 25.0709 19.0112 25.0709C19.5509 25.1309 20.1506 24.7711 20.3905 24.2313C20.6303 23.7516 20.5104 23.1519 20.0906 22.7921C19.4909 22.1924 18.8912 21.5327 18.2316 20.9331L17.2121 19.9136C17.7518 19.8536 18.3515 19.7337 18.8912 19.4938C19.7908 19.194 20.4504 18.7742 20.9901 18.2345Z" />
<path d="M15.8328 16.5553C18.4115 16.5553 20.5104 14.5164 20.5104 11.9377C20.5104 10.6784 20.0306 9.47901 19.1311 8.57948C18.2316 7.67995 17.0922 7.2002 15.8928 7.2002C13.3141 7.2002 11.2752 9.2991 11.2152 11.8178C11.2152 13.0771 11.695 14.2165 12.5945 15.1161C13.4341 16.0756 14.5735 16.5553 15.8328 16.5553ZM14.5135 10.5585C14.8733 10.1986 15.3531 10.0187 15.8328 10.0187C16.9123 10.0187 17.6919 10.8583 17.6919 11.8778C17.6919 12.9572 16.8523 13.7368 15.8328 13.7368C14.7534 13.7368 13.9738 12.8972 13.9738 11.8778C13.9738 11.398 14.1537 10.9183 14.5135 10.5585Z" />
<path d="M20.9901 18.2345C21.4099 17.8147 21.4699 17.215 21.1101 16.6153C20.8102 16.1356 20.2705 15.8957 19.6708 16.0156C19.431 16.0756 19.1911 16.1955 18.9512 16.3754C17.0922 17.6348 14.5735 17.5748 12.7144 16.3155C12.5945 16.2555 12.4746 16.1955 12.3546 16.1356C11.695 15.8357 11.0353 15.9557 10.6755 16.5553C10.2557 17.155 10.3157 17.8147 10.8554 18.3544C10.9753 18.4743 11.0953 18.5343 11.1553 18.6542L11.2152 18.7142C12.0548 19.3739 13.0743 19.7937 14.3936 19.9736L13.614 20.7532C12.9543 21.4128 12.2347 22.1324 11.575 22.7921C11.3951 22.972 11.1553 23.2718 11.1553 23.6916C11.1553 24.2313 11.4551 24.7711 11.9948 25.0109C12.1747 25.1309 12.3546 25.1309 12.5345 25.1309C12.8344 25.1309 13.1942 25.0109 13.4341 24.7111C14.3336 23.8116 15.0532 23.0919 15.7729 22.3723C15.8328 22.3123 15.8328 22.3123 15.8328 22.3123C15.8328 22.3123 15.8928 22.3123 15.8928 22.3723C16.3725 22.912 16.9123 23.3918 17.392 23.9315C17.6319 24.1714 17.8718 24.4113 18.1116 24.6511C18.4115 24.951 18.6514 25.0709 19.0112 25.0709C19.5509 25.1309 20.1506 24.7711 20.3905 24.2313C20.6303 23.7516 20.5104 23.1519 20.0906 22.7921C19.4909 22.1924 18.8912 21.5327 18.2316 20.9331L17.2121 19.9136C17.7518 19.8536 18.3515 19.7337 18.8912 19.4938C19.7908 19.194 20.4504 18.7742 20.9901 18.2345Z" />
</svg>
