<svg width="20" height="20" viewBox="0 0 20 20" xmlns="http://www.w3.org/2000/svg">
<path fill-rule="evenodd" clip-rule="evenodd" d="M0.916504 16.6667C0.916504 16.2525 1.25229 15.9167 1.6665 15.9167H18.3332C18.7474 15.9167 19.0832 16.2525 19.0832 16.6667C19.0832 17.0809 18.7474 17.4167 18.3332 17.4167H1.6665C1.25229 17.4167 0.916504 17.0809 0.916504 16.6667Z" />
<path fill-rule="evenodd" clip-rule="evenodd" d="M5.0835 8.33331C5.0835 7.9191 5.41928 7.58331 5.8335 7.58331H9.16683C9.58104 7.58331 9.91683 7.9191 9.91683 8.33331C9.91683 8.74753 9.58104 9.08331 9.16683 9.08331H5.8335C5.41928 9.08331 5.0835 8.74753 5.0835 8.33331Z" />
<path fill-rule="evenodd" clip-rule="evenodd" d="M10.9165 8.33333C10.9165 7.45888 11.6254 6.75 12.4998 6.75H15.8332C16.7076 6.75 17.4165 7.45888 17.4165 8.33333V16.6667C17.4165 17.0809 17.0807 17.4167 16.6665 17.4167H11.6665C11.2523 17.4167 10.9165 17.0809 10.9165 16.6667V8.33333ZM12.4998 8.25C12.4538 8.25 12.4165 8.28731 12.4165 8.33333V15.9167H15.9165V8.33333C15.9165 8.28731 15.8792 8.25 15.8332 8.25H12.4998Z" />
<path fill-rule="evenodd" clip-rule="evenodd" d="M5.0835 5.83331C5.0835 5.4191 5.41928 5.08331 5.8335 5.08331L9.16683 5.08331C9.58104 5.08331 9.91683 5.4191 9.91683 5.83331C9.91683 6.24753 9.58104 6.58331 9.16683 6.58331L5.8335 6.58331C5.41928 6.58331 5.0835 6.24753 5.0835 5.83331Z" />
<path fill-rule="evenodd" clip-rule="evenodd" d="M2.5835 3.33333C2.5835 2.45888 3.29238 1.75 4.16683 1.75H10.8335C11.7079 1.75 12.4168 2.45888 12.4168 3.33333V16.6667C12.4168 17.0809 12.081 17.4167 11.6668 17.4167H3.3335C2.91928 17.4167 2.5835 17.0809 2.5835 16.6667V3.33333ZM4.16683 3.25C4.12081 3.25 4.0835 3.28731 4.0835 3.33333V15.9167H10.9168V3.33333C10.9168 3.28731 10.8795 3.25 10.8335 3.25H4.16683Z" />
</svg>
