<svg width="20" height="20" viewBox="0 0 20 20" xmlns="http://www.w3.org/2000/svg">
<path fill-rule="evenodd" clip-rule="evenodd" d="M10 3.25C6.27208 3.25 3.25 6.27208 3.25 10C3.25 13.7279 6.27208 16.75 10 16.75C13.7279 16.75 16.75 13.7279 16.75 10C16.75 6.27208 13.7279 3.25 10 3.25ZM1.75 10C1.75 5.44365 5.44365 1.75 10 1.75C14.5563 1.75 18.25 5.44365 18.25 10C18.25 14.5563 14.5563 18.25 10 18.25C5.44365 18.25 1.75 14.5563 1.75 10Z" />
<path fill-rule="evenodd" clip-rule="evenodd" d="M10 14.9167C8.49496 14.9167 7.14343 15.5699 6.21159 16.6106C5.93528 16.9192 5.46113 16.9454 5.15254 16.6691C4.84395 16.3928 4.81778 15.9186 5.09409 15.61C6.29844 14.2649 8.05068 13.4167 10 13.4167C11.9494 13.4167 13.7016 14.2649 14.906 15.61C15.1823 15.9186 15.1561 16.3928 14.8475 16.6691C14.5389 16.9454 14.0648 16.9192 13.7885 16.6106C12.8566 15.5699 11.5051 14.9167 10 14.9167Z" />
<path fill-rule="evenodd" clip-rule="evenodd" d="M10 7.41675C9.0335 7.41675 8.25 8.20025 8.25 9.16675C8.25 10.1332 9.0335 10.9167 10 10.9167C10.9665 10.9167 11.75 10.1332 11.75 9.16675C11.75 8.20025 10.9665 7.41675 10 7.41675ZM6.75 9.16675C6.75 7.37182 8.20507 5.91675 10 5.91675C11.7949 5.91675 13.25 7.37182 13.25 9.16675C13.25 10.9617 11.7949 12.4167 10 12.4167C8.20507 12.4167 6.75 10.9617 6.75 9.16675Z" />
</svg>
