<svg width="288" height="402" viewBox="0 0 288 402" fill="none" xmlns="http://www.w3.org/2000/svg">
<g clip-path="url(#clip0_962_94707)">
<path fill-rule="evenodd" clip-rule="evenodd" d="M130.544 175.24H137.023L133.799 196.01L130.544 175.24Z" fill="#4F86D8"/>
<path fill-rule="evenodd" clip-rule="evenodd" d="M137.023 175.24H143.501L140.262 196.01L137.023 175.24Z" fill="#4F86D8"/>
<path fill-rule="evenodd" clip-rule="evenodd" d="M143.501 175.24H149.98L146.725 196.01L143.501 175.24Z" fill="#4F86D8"/>
<path fill-rule="evenodd" clip-rule="evenodd" d="M151.275 175.24H157.754L154.53 196.01L151.275 175.24Z" fill="#4F86D8"/>
<path fill-rule="evenodd" clip-rule="evenodd" d="M157.754 175.24H164.232L160.993 196.01L157.754 175.24Z" fill="#4F86D8"/>
<path fill-rule="evenodd" clip-rule="evenodd" d="M164.232 175.24H170.71L167.456 196.01L164.232 175.24Z" fill="#4F86D8"/>
<path fill-rule="evenodd" clip-rule="evenodd" d="M172.006 175.24H178.485L175.261 196.01L172.006 175.24Z" fill="#4F86D8"/>
<path fill-rule="evenodd" clip-rule="evenodd" d="M178.484 175.24H184.963L181.724 196.01L178.484 175.24Z" fill="#4F86D8"/>
<path fill-rule="evenodd" clip-rule="evenodd" d="M184.963 175.24H191.441L188.187 196.01L184.963 175.24Z" fill="#4F86D8"/>
<path fill-rule="evenodd" clip-rule="evenodd" d="M192.737 175.24H199.215L195.976 196.01L192.737 175.24Z" fill="#4F86D8"/>
<path fill-rule="evenodd" clip-rule="evenodd" d="M254.929 212.885H258.816L256.873 220.673L254.929 212.885Z" fill="#4F86D8"/>
<path fill-rule="evenodd" clip-rule="evenodd" d="M258.816 212.885H262.703L260.76 220.673L258.816 212.885Z" fill="#4F86D8"/>
<path fill-rule="evenodd" clip-rule="evenodd" d="M262.704 212.885H266.591L264.631 220.673L262.704 212.885Z" fill="#4F86D8"/>
<path fill-rule="evenodd" clip-rule="evenodd" d="M266.59 212.885H270.477L268.534 220.673L266.59 212.885Z" fill="#4F86D8"/>
<path fill-rule="evenodd" clip-rule="evenodd" d="M270.478 212.885H274.365L272.421 220.673L270.478 212.885Z" fill="#4F86D8"/>
<path fill-rule="evenodd" clip-rule="evenodd" d="M274.365 212.885H278.252L276.292 220.673L274.365 212.885Z" fill="#4F86D8"/>
<path fill-rule="evenodd" clip-rule="evenodd" d="M279.547 212.885H283.434L281.491 220.673L279.547 212.885Z" fill="#4F86D8"/>
<path fill-rule="evenodd" clip-rule="evenodd" d="M283.434 212.885H287.321L285.393 220.673L283.434 212.885Z" fill="#4F86D8"/>
<path d="M236.79 147.981H199.215V150.577H236.79V147.981Z" fill="#4F86D8"/>
<path fill-rule="evenodd" clip-rule="evenodd" d="M130.548 173.942H200.511V380.336H129.249V173.942H130.548ZM197.913 176.556H131.847V377.722H197.913V176.556Z" fill="#4F86D8"/>
<path fill-rule="evenodd" clip-rule="evenodd" d="M236.794 116.827H306.756V380.337H235.494V116.827H236.794ZM304.189 119.44H238.094V377.724H304.189V119.44Z" fill="#4F86D8"/>
<path fill-rule="evenodd" clip-rule="evenodd" d="M232.93 116.827H238.086V132.404H231.607V116.827H232.93ZM235.475 119.434H234.252V129.797H235.475V119.434Z" fill="#4F86D8"/>
<path fill-rule="evenodd" clip-rule="evenodd" d="M276.949 116.827H282.139V132.404H275.66V116.827H276.982H276.949ZM279.494 119.434H278.271V129.797H279.494V119.434Z" fill="#4F86D8"/>
<path fill-rule="evenodd" clip-rule="evenodd" d="M261.434 116.827H266.591V132.404H260.112V116.827H261.434ZM263.98 119.434H262.757V129.797H263.98V119.434Z" fill="#4F86D8"/>
<path fill-rule="evenodd" clip-rule="evenodd" d="M247.182 116.827H252.338V132.404H245.86V116.827H247.182ZM249.727 119.434H248.504V129.797H249.727V119.434Z" fill="#4F86D8"/>
<path fill-rule="evenodd" clip-rule="evenodd" d="M231.593 118.963C229.655 116.497 226.306 113.866 222.2 111.597C218.424 109.526 214.056 107.816 209.59 106.895L201.807 105.317L209.688 104.331C216.355 103.476 222.135 102.588 226.995 101.01C231.691 99.4973 235.468 97.3272 238.259 94.0062C245.911 84.8653 266.831 16.2431 270.213 5.09652L271.757 0L273.333 5.09652C276.748 16.3089 297.635 84.8325 305.287 93.9733C308.078 97.2943 311.855 99.4315 316.551 100.977C321.378 102.555 327.191 103.476 333.858 104.298L341.74 105.284L333.956 106.863C329.49 107.783 325.122 109.493 321.346 111.565C317.241 113.8 313.924 116.464 311.953 118.93L311.559 119.423H231.987L231.593 118.93V118.963ZM223.481 109.329C227.586 111.597 231.035 114.294 233.235 116.858H310.344C312.544 114.294 315.993 111.597 320.098 109.329C322.331 108.112 324.761 106.994 327.323 106.073C323.053 105.416 319.211 104.627 315.763 103.509C310.607 101.832 306.403 99.4315 303.283 95.716C295.829 86.8382 277.077 26.3375 271.79 9.00934C266.469 26.3375 247.717 86.8382 240.296 95.716C237.176 99.4644 232.972 101.832 227.816 103.509C224.401 104.627 220.526 105.416 216.256 106.073C218.818 106.994 221.248 108.079 223.481 109.329Z" fill="#4F86D8"/>
<path d="M332.67 103.846H209.581V106.442H332.67V103.846Z" fill="#4F86D8"/>
<path fill-rule="evenodd" clip-rule="evenodd" d="M256.214 142.789H287.322V175.241H254.93V142.789H256.246H256.214ZM284.688 145.424H257.53V172.605H284.688V145.424Z" fill="#4F86D8"/>
<path fill-rule="evenodd" clip-rule="evenodd" d="M271.126 175.241C266.649 175.241 262.6 173.427 259.67 170.492C256.74 167.556 254.93 163.5 254.93 159.015C254.93 154.529 256.74 150.473 259.67 147.538C262.6 144.603 266.649 142.789 271.126 142.789C275.603 142.789 279.652 144.603 282.581 147.538C285.511 150.473 287.322 154.529 287.322 159.015C287.322 163.5 285.511 167.556 282.581 170.492C279.652 173.427 275.603 175.241 271.126 175.241ZM261.513 168.612C263.982 171.085 267.373 172.602 271.126 172.602C274.878 172.602 278.269 171.085 280.738 168.612C283.207 166.138 284.721 162.741 284.721 158.982C284.721 155.222 283.207 151.825 280.738 149.352C278.302 146.878 274.878 145.361 271.126 145.361C267.373 145.361 263.982 146.878 261.513 149.352C259.045 151.825 257.53 155.222 257.53 158.982C257.53 162.741 259.045 166.138 261.513 168.612Z" fill="#4F86D8"/>
<path fill-rule="evenodd" clip-rule="evenodd" d="M256.245 151.875H287.321V166.154H254.929V151.875H256.245ZM284.69 154.477H257.56V163.552H284.69V154.477Z" fill="#4F86D8"/>
<path fill-rule="evenodd" clip-rule="evenodd" d="M263.999 173.923V142.789H278.251V175.241H263.999V173.923ZM266.596 145.424V172.605H275.654V145.424H266.596Z" fill="#4F86D8"/>
<path fill-rule="evenodd" clip-rule="evenodd" d="M151.321 247.849H159.036V229.09C159.036 228.688 158.711 228.286 158.158 227.951C157.409 227.482 156.367 227.214 155.195 227.214C154.023 227.214 152.981 227.515 152.233 227.951C151.679 228.286 151.354 228.688 151.354 229.09V247.849H151.321ZM160.339 250.529H148.684V229.123C148.684 227.75 149.498 226.544 150.833 225.706C151.972 225.003 153.502 224.567 155.162 224.567C156.823 224.567 158.353 225.003 159.492 225.706C160.827 226.544 161.641 227.75 161.641 229.123V250.529H160.339Z" fill="#4F86D8"/>
<path fill-rule="evenodd" clip-rule="evenodd" d="M169.461 247.849H177.176V229.09C177.176 228.688 176.851 228.286 176.297 227.951C175.548 227.482 174.507 227.214 173.335 227.214C172.163 227.214 171.121 227.515 170.372 227.951C169.819 228.286 169.493 228.688 169.493 229.09V247.849H169.461ZM178.478 250.529H166.824V229.123C166.824 227.75 167.638 226.544 168.972 225.706C170.112 225.003 171.642 224.567 173.302 224.567C174.962 224.567 176.492 225.003 177.632 225.706C178.967 226.544 179.78 227.75 179.78 229.123V250.529H178.478Z" fill="#4F86D8"/>
<path fill-rule="evenodd" clip-rule="evenodd" d="M147.38 250.462H181.117V230.325C181.117 226.065 179.599 223.169 177.081 221.305C173.982 219.009 169.397 218.143 164.232 218.143C159.067 218.143 154.482 219.009 151.415 221.305C148.897 223.169 147.38 226.065 147.38 230.325V250.462ZM182.408 253.125H144.797V230.325C144.797 225.1 146.734 221.505 149.898 219.142C153.481 216.479 158.615 215.481 164.232 215.481C169.849 215.481 174.983 216.479 178.566 219.142C181.73 221.505 183.667 225.1 183.667 230.325V253.125H182.376H182.408Z" fill="#4F86D8"/>
<path fill-rule="evenodd" clip-rule="evenodd" d="M146.577 250.529L164.249 266.498L181.887 250.529L183.667 252.392L164.249 270L144.797 252.392L146.577 250.529Z" fill="#4F86D8"/>
<path fill-rule="evenodd" clip-rule="evenodd" d="M150.041 371.252H178.423V348.78C178.423 344.954 176.832 341.484 174.245 338.988C171.659 336.458 168.111 334.902 164.232 334.902C160.353 334.902 156.772 336.458 154.219 338.988C151.632 341.517 150.041 344.986 150.041 348.78V371.252ZM179.749 373.846H147.388V348.78C147.388 344.241 149.278 340.122 152.329 337.139C155.379 334.156 159.59 332.308 164.232 332.308C168.874 332.308 173.085 334.156 176.135 337.139C179.186 340.122 181.076 344.241 181.076 348.78V373.846H179.749Z" fill="#4F86D8"/>
<path fill-rule="evenodd" clip-rule="evenodd" d="M144.806 377.741H184.986V349.864C184.986 346.749 184.271 343.828 183.003 341.2C181.67 338.474 179.752 336.072 177.379 334.19C176.371 333.411 175.169 332.665 173.868 331.886C170.91 330.069 167.562 328.024 164.896 324.325C162.231 328.024 158.882 330.069 155.891 331.886C154.591 332.665 153.388 333.411 152.381 334.19C150.007 336.072 148.09 338.474 146.757 341.2C145.489 343.828 144.774 346.781 144.774 349.864V377.741H144.806ZM164.896 380.337H142.206V349.864C142.206 346.36 143.018 343.05 144.449 340.064C145.944 336.981 148.122 334.287 150.788 332.146C151.893 331.269 153.193 330.491 154.559 329.647C157.712 327.732 161.32 325.525 163.791 321.274L164.896 319.327L166.001 321.274C168.472 325.525 172.08 327.732 175.201 329.647C176.567 330.491 177.834 331.269 178.972 332.146C181.638 334.255 183.816 336.981 185.311 340.064C186.742 343.05 187.554 346.36 187.554 349.864V380.337H164.864H164.896Z" fill="#4F86D8"/>
<path d="M186.259 347.885H143.501V350.481H186.259V347.885Z" fill="#4F86D8"/>
<path d="M165.528 334.904H162.937V350.481H165.528V334.904Z" fill="#4F86D8"/>
<path fill-rule="evenodd" clip-rule="evenodd" d="M257.582 371.252H285.964V348.78C285.964 344.954 284.373 341.484 281.786 338.988C279.2 336.458 275.652 334.902 271.773 334.902C267.894 334.902 264.313 336.458 261.76 338.988C259.206 341.517 257.582 344.986 257.582 348.78V371.252ZM287.29 373.846H254.929V348.78C254.929 344.241 256.819 340.122 259.87 337.139C262.92 334.156 267.131 332.308 271.773 332.308C276.415 332.308 280.626 334.156 283.676 337.139C286.727 340.122 288.617 344.241 288.617 348.78V373.846H287.29Z" fill="#4F86D8"/>
<path fill-rule="evenodd" clip-rule="evenodd" d="M251.052 377.741H291.232V349.864C291.232 346.749 290.517 343.828 289.249 341.2C287.916 338.474 285.998 336.072 283.625 334.19C282.617 333.411 281.414 332.665 280.114 331.886C277.156 330.069 273.775 328.024 271.109 324.325C268.444 328.024 265.095 330.069 262.137 331.886C260.837 332.665 259.634 333.411 258.626 334.19C256.253 336.072 254.335 338.474 253.002 341.2C251.734 343.828 251.019 346.781 251.019 349.864V377.741H251.052ZM271.142 380.337H248.451V349.864C248.451 346.36 249.264 343.05 250.694 340.064C252.19 336.981 254.368 334.287 257.033 332.146C258.139 331.269 259.439 330.491 260.804 329.647C263.957 327.732 267.566 325.525 270.004 321.274L271.109 319.327L272.215 321.274C274.685 325.525 278.293 327.732 281.447 329.647C282.812 330.491 284.08 331.269 285.218 332.146C287.883 334.255 290.061 336.981 291.557 340.064C292.987 343.05 293.8 346.36 293.8 349.864V380.337H271.109H271.142Z" fill="#4F86D8"/>
<path d="M292.504 347.885H249.747V350.481H292.504V347.885Z" fill="#4F86D8"/>
<path d="M271.773 334.904H269.182V350.481H271.773V334.904Z" fill="#4F86D8"/>
<path fill-rule="evenodd" clip-rule="evenodd" d="M164.88 279.087C167.18 279.087 169.311 280.002 170.833 281.474C172.355 282.945 173.302 284.973 173.302 287.229V308.942H156.458V287.229C156.458 285.005 157.405 282.945 158.927 281.474C160.449 280.002 162.546 279.087 164.88 279.087ZM168.905 283.338C167.856 282.324 166.436 281.703 164.88 281.703C163.324 281.703 161.904 282.324 160.855 283.338C159.806 284.351 159.164 285.725 159.164 287.229V306.326H170.562V287.229C170.562 285.725 169.92 284.319 168.871 283.338H168.905Z" fill="#4F86D8"/>
<path fill-rule="evenodd" clip-rule="evenodd" d="M271.126 279.087C273.425 279.087 275.556 280.002 277.078 281.474C278.6 282.945 279.547 284.973 279.547 287.229V308.942H262.704V287.229C262.704 285.005 263.651 282.945 265.173 281.474C266.695 280.002 268.792 279.087 271.126 279.087ZM275.15 283.338C274.102 282.324 272.681 281.703 271.126 281.703C269.57 281.703 268.149 282.324 267.101 283.338C266.052 284.351 265.409 285.725 265.409 287.229V306.326H276.808V287.229C276.808 285.725 276.165 284.319 275.117 283.338H275.15Z" fill="#4F86D8"/>
<path fill-rule="evenodd" clip-rule="evenodd" d="M199.204 181.731H238.086V380.336H197.92V181.731H199.237H199.204ZM235.452 184.342H200.521V377.725H235.452V184.342Z" fill="#4F86D8"/>
<path fill-rule="evenodd" clip-rule="evenodd" d="M129.139 175.95C127.447 173.532 124.551 170.886 121.004 168.664C117.75 166.606 113.976 164.939 110.104 164.024L103.335 162.456L110.201 161.476C115.961 160.659 121.004 159.744 125.202 158.176C129.269 156.673 132.523 154.549 134.931 151.282C140.235 144.061 149.606 98.6765 154.422 75.3474C155.853 68.4859 156.862 63.5194 157.285 61.9511L158.587 57.1154L168.674 97.5983H176.06L181.299 79.791L200.106 151.772C200.79 154.353 202.449 156.346 205.28 157.882C208.274 159.515 212.569 160.659 218.263 161.508L225.129 162.489L218.361 164.057C214.489 164.939 210.714 166.638 207.46 168.697C203.914 170.919 201.018 173.532 199.326 175.983L198.935 176.538H170.659V138.506H158.164V176.538H129.464L129.074 175.983L129.139 175.95ZM122.371 166.475C125.95 168.697 128.944 171.376 130.831 173.925H155.626V135.892H173.327V173.925H197.666C199.586 171.376 202.579 168.729 206.126 166.475C208.144 165.201 210.356 164.057 212.666 163.142C209.152 162.358 206.289 161.41 204.044 160.169C200.562 158.274 198.48 155.758 197.601 152.425L181.169 89.4952L178.012 100.245H166.656L158.619 67.9958L156.96 75.9355C152.111 99.4607 142.643 145.204 137.013 152.883C134.28 156.607 130.603 159.025 126.08 160.692C123.087 161.803 119.703 162.587 115.993 163.24C118.238 164.155 120.386 165.266 122.371 166.508V166.475Z" fill="#4F86D8"/>
<path fill-rule="evenodd" clip-rule="evenodd" d="M109.814 160.961H156.834V163.557H109.814V160.961ZM172.091 160.961H218.651V163.557H172.091V160.961Z" fill="#4F86D8"/>
<path fill-rule="evenodd" clip-rule="evenodd" d="M200.399 214.066H235.64V205.213H200.399V214.066ZM236.863 216.779H197.92V202.5H238.086V216.779H236.863Z" fill="#4F86D8"/>
<path fill-rule="evenodd" clip-rule="evenodd" d="M218.002 279.087C220.302 279.087 222.433 280.002 223.955 281.474C225.477 282.945 226.424 284.973 226.424 287.229V308.942H209.581V287.229C209.581 285.005 210.528 282.945 212.05 281.474C213.572 280.002 215.669 279.087 218.002 279.087ZM222.027 283.338C220.979 282.324 219.558 281.703 218.002 281.703C216.447 281.703 214.992 282.324 213.977 283.305C212.929 284.319 212.286 285.692 212.286 287.196V306.294H223.685V287.196C223.685 285.692 223.042 284.286 221.994 283.305L222.027 283.338Z" fill="#4F86D8"/>
<path fill-rule="evenodd" clip-rule="evenodd" d="M200.707 319.322H235.332V308.915H200.707V319.322ZM236.709 321.923H197.92V306.346H238.086V321.923H236.709Z" fill="#4F86D8"/>
<path fill-rule="evenodd" clip-rule="evenodd" d="M214.925 221.971H221.08C222.535 221.971 223.888 222.56 224.868 223.475C225.849 224.424 226.424 225.699 226.424 227.138V251.827H209.581V227.138C209.581 225.732 210.189 224.424 211.136 223.508C212.117 222.56 213.436 221.971 214.925 221.971ZM221.08 224.587H214.925C214.214 224.587 213.538 224.882 213.064 225.339C212.591 225.797 212.286 226.451 212.286 227.138V249.211H223.685V227.138C223.685 226.451 223.38 225.797 222.907 225.339C222.433 224.882 221.757 224.587 221.047 224.587H221.08Z" fill="#4F86D8"/>
<path fill-rule="evenodd" clip-rule="evenodd" d="M204.398 285.566L218.019 262.211L231.607 285.566L229.309 286.875L218.019 267.478L206.696 286.875L204.398 285.566Z" fill="#4F86D8"/>
<path fill-rule="evenodd" clip-rule="evenodd" d="M156.496 135H173.302V175.24H155.163V135H156.496ZM170.635 137.588H157.83V172.653H170.635V137.588Z" fill="#4F86D8"/>
<path d="M172.006 150.577H156.458V153.173H172.006V150.577Z" fill="#4F86D8"/>
<path d="M165.528 136.298H162.937V173.942H165.528V136.298Z" fill="#4F86D8"/>
<path fill-rule="evenodd" clip-rule="evenodd" d="M266.591 221.971C267.967 221.971 269.679 223.546 270.954 225.547C272.129 227.352 273.069 229.616 273.069 231.223V251.827H260.112V231.223C260.112 229.583 261.052 227.352 262.227 225.547C263.503 223.546 265.214 221.971 266.591 221.971ZM268.705 226.925C267.866 225.613 266.994 224.596 266.591 224.596C266.188 224.596 265.315 225.646 264.476 226.925C263.536 228.369 262.798 230.108 262.798 231.223V249.202H270.384V231.223C270.384 230.108 269.645 228.369 268.705 226.925Z" fill="#4F86D8"/>
<path fill-rule="evenodd" clip-rule="evenodd" d="M275.66 221.971C277.036 221.971 278.748 223.546 280.024 225.547C281.199 227.385 282.138 229.616 282.138 231.223V251.827H269.182V231.223C269.182 229.616 270.121 227.352 271.296 225.547C272.572 223.546 274.284 221.971 275.66 221.971ZM277.775 226.925C276.936 225.613 276.063 224.596 275.66 224.596C275.257 224.596 274.384 225.646 273.545 226.925C272.605 228.369 271.867 230.108 271.867 231.223V249.202H279.453V231.223C279.453 230.108 278.715 228.369 277.775 226.925Z" fill="#4F86D8"/>
<path fill-rule="evenodd" clip-rule="evenodd" d="M254.943 211.586H288.617V251.827H253.634V211.586H254.943ZM285.999 214.214H256.252V249.199H285.999V214.214Z" fill="#4F86D8"/>
<path fill-rule="evenodd" clip-rule="evenodd" d="M252.398 260.907H291.148V251.833H252.398V260.907ZM292.474 263.51H249.747V249.231H293.8V263.51H292.474Z" fill="#4F86D8"/>
<path fill-rule="evenodd" clip-rule="evenodd" d="M271.125 214.183H244.564L251.568 211.663C256.127 209.994 259.761 207.54 262.734 204.431C265.707 201.322 268.02 197.591 269.936 193.435L271.125 190.817L272.315 193.435C274.231 197.591 276.543 201.322 279.517 204.431C282.49 207.507 286.091 209.994 290.683 211.663L297.687 214.183H271.125ZM257.911 211.565H284.373C281.829 210.059 279.583 208.259 277.634 206.231C275.024 203.514 272.942 200.406 271.158 196.969C269.374 200.406 267.26 203.547 264.683 206.231C262.734 208.259 260.488 210.059 257.944 211.565H257.911Z" fill="#4F86D8"/>
<path fill-rule="evenodd" clip-rule="evenodd" d="M146.577 250.529L164.249 266.498L181.887 250.529L183.667 252.392L164.249 270L144.797 252.392L146.577 250.529Z" fill="#4F86D8"/>
<path fill-rule="evenodd" clip-rule="evenodd" d="M250.971 260.913L270.494 272.084L290.016 260.913L291.208 263.339L270.494 275.192L249.747 263.339L250.971 260.913Z" fill="#4F86D8"/>
<path fill-rule="evenodd" clip-rule="evenodd" d="M206.983 377.681H227.759V356.004C227.759 353.083 226.596 350.394 224.722 348.468C222.848 346.543 220.23 345.348 217.387 345.348C214.544 345.348 211.926 346.543 210.052 348.468C208.178 350.394 207.015 353.083 207.015 356.004V377.681H206.983ZM229.051 380.336H204.398V356.004C204.398 352.352 205.852 348.999 208.211 346.609C210.569 344.186 213.8 342.692 217.355 342.692C220.909 342.692 224.172 344.186 226.499 346.609C228.857 349.033 230.311 352.352 230.311 356.004V380.336H229.019H229.051Z" fill="#4F86D8"/>
<path fill-rule="evenodd" clip-rule="evenodd" d="M206.983 377.713H227.759V356.263C227.759 353.836 227.371 351.541 226.66 349.474C225.949 347.375 224.916 345.539 223.655 344.096C223.138 343.505 222.492 342.948 221.781 342.325C220.327 341.078 218.712 339.668 217.355 337.339C215.965 339.635 214.35 341.046 212.928 342.325C212.25 342.915 211.603 343.473 211.086 344.096C209.826 345.539 208.792 347.375 208.081 349.474C207.371 351.541 206.983 353.836 206.983 356.263V377.713ZM217.355 380.337H204.398V356.263C204.398 353.541 204.85 350.95 205.626 348.622C206.466 346.195 207.661 344.03 209.148 342.357C209.762 341.636 210.505 341.013 211.248 340.357C212.928 338.914 214.867 337.208 216.159 333.961L217.355 331.01L218.55 333.961C219.875 337.208 221.781 338.881 223.462 340.357C224.237 341.013 224.948 341.636 225.562 342.357C227.048 344.063 228.244 346.195 229.084 348.622C229.859 350.95 230.311 353.541 230.311 356.263V380.337H217.355Z" fill="#4F86D8"/>
<path d="M229.016 355.673H205.694V358.269H229.016V355.673Z" fill="#4F86D8"/>
<path d="M218.65 343.99H216.059V355.673H218.65V343.99Z" fill="#4F86D8"/>
<path d="M160.345 31.1539H157.754V62.3077H160.345V31.1539Z" fill="#4F86D8"/>
<path d="M182.372 53.2211H179.78V84.375H182.372V53.2211Z" fill="#4F86D8"/>
<path fill-rule="evenodd" clip-rule="evenodd" d="M199.206 181.731H238.086V205.096H197.92V181.731H199.206ZM235.547 184.281H200.492V202.546H235.547V184.281Z" fill="#4F86D8"/>
<path fill-rule="evenodd" clip-rule="evenodd" d="M199.236 196.01H238.086V205.096H197.92V196.01H199.236ZM235.421 198.516H200.552V202.59H235.421V198.516Z" fill="#4F86D8"/>
<path fill-rule="evenodd" clip-rule="evenodd" d="M275.66 221.971C277.036 221.971 278.748 223.546 280.024 225.547C281.199 227.385 282.138 229.616 282.138 231.223V251.827H269.182V231.223C269.182 229.616 270.121 227.352 271.296 225.547C272.572 223.546 274.284 221.971 275.66 221.971ZM277.775 226.925C276.936 225.613 276.063 224.596 275.66 224.596C275.257 224.596 274.384 225.646 273.545 226.925C272.605 228.369 271.867 230.108 271.867 231.223V249.202H279.453V231.223C279.453 230.108 278.715 228.369 277.775 226.925Z" fill="#4F86D8"/>
<path fill-rule="evenodd" clip-rule="evenodd" d="M270.477 72.6923C271.82 72.6923 273.532 74.1202 274.808 75.9375C276.016 77.5926 276.956 79.6695 276.956 81.1947V99.9519H263.999V81.1947C263.999 79.7019 264.939 77.625 266.147 75.9375C267.423 74.1202 269.135 72.6923 270.477 72.6923ZM272.626 77.3979C271.787 76.2296 270.914 75.2885 270.477 75.2885C270.041 75.2885 269.168 76.2296 268.329 77.3979C267.389 78.6959 266.684 80.1887 266.684 81.1623V97.3233H274.27V81.1623C274.27 80.1887 273.532 78.6635 272.626 77.3979Z" fill="#4F86D8"/>
<path d="M42.4385 279.087H39.8472V284.279H42.4385V279.087Z" fill="#4F86D8"/>
<path fill-rule="evenodd" clip-rule="evenodd" d="M21.7075 247.933H41.1426V260.914C37.5186 253.165 30.2384 248.067 21.7075 247.933Z" fill="#4F86D8"/>
<path fill-rule="evenodd" clip-rule="evenodd" d="M-8.09277 247.933H11.3424C2.77935 248.067 -4.46873 253.132 -8.09277 260.914V247.933Z" fill="#4F86D8"/>
<path fill-rule="evenodd" clip-rule="evenodd" d="M63.1614 218.144H46.3329V231.025H63.1614V218.144ZM45.0334 215.481H65.7604V233.654H43.7339V215.481H45.0334Z" fill="#4F86D8"/>
<path fill-rule="evenodd" clip-rule="evenodd" d="M39.8202 316.731H-6.79736V281.003C-6.79736 274.42 -4.08626 268.399 0.244872 264.066C4.576 259.732 10.5933 257.019 17.1726 257.019C23.752 257.019 29.7693 259.732 34.1004 264.066C38.4316 268.399 41.1426 274.42 41.1426 281.003V316.731H39.8202ZM-4.15239 314.084H38.4977V281.003C38.4977 275.148 36.0841 269.789 32.2489 265.918C28.4137 262.048 23.0577 259.633 17.2057 259.633C11.3537 259.633 5.99764 262.048 2.12938 265.918C-1.73888 269.789 -4.11934 275.115 -4.11934 281.003V314.084H-4.15239Z" fill="#4F86D8"/>
<path fill-rule="evenodd" clip-rule="evenodd" d="M28.2342 315.433H3.56836V283.125C3.56836 279.495 5.04 276.222 7.37541 273.857C9.71082 271.491 12.974 270 16.5251 270C20.0762 270 23.3394 271.491 25.6748 273.857C28.0102 276.222 29.4819 279.528 29.4819 283.125V315.433H28.2022H28.2342ZM6.12773 312.84H26.9545V283.125C26.9545 280.208 25.7708 277.583 23.8833 275.671C21.9957 273.759 19.4044 272.56 16.5251 272.56C13.6458 272.56 11.0545 273.759 9.16695 275.671C7.27943 277.583 6.09575 280.208 6.09575 283.125V312.84H6.12773Z" fill="#4F86D8"/>
<path d="M39.8472 280.385H-5.50146V282.981H39.8472V280.385Z" fill="#4F86D8"/>
<path d="M17.8204 258.318H15.229V271.298H17.8204V258.318Z" fill="#4F86D8"/>
<path d="M31.8654 263.127L23.0034 272.596L24.896 274.37L33.758 264.9L31.8654 263.127Z" fill="#4F86D8"/>
<path fill-rule="evenodd" clip-rule="evenodd" d="M2.84944 263.51L11.342 272.225L9.46909 273.894L0.976562 265.21L2.84944 263.51Z" fill="#4F86D8"/>
<path fill-rule="evenodd" clip-rule="evenodd" d="M-9.38867 279.054C-9.38867 271.586 -6.31774 264.78 -1.39763 259.823C3.52248 254.9 10.3248 251.827 17.8205 251.827C25.3163 251.827 32.0855 254.9 37.0386 259.823C41.9588 264.747 45.0297 271.553 45.0297 279.054H42.388C42.388 272.313 39.6143 266.167 35.1895 261.707C30.7647 257.246 24.5898 254.504 17.8535 254.504C11.1173 254.504 4.9754 257.279 0.517586 261.74C-3.94023 266.2 -6.68099 272.346 -6.68099 279.087H-9.32262L-9.38867 279.054Z" fill="#4F86D8"/>
<path fill-rule="evenodd" clip-rule="evenodd" d="M41.4047 280.322H40.8514V283.044H41.4047V280.322ZM39.6868 277.789H43.734V285.577H38.5513V277.789H39.7159H39.6868Z" fill="#4F86D8"/>
<path fill-rule="evenodd" clip-rule="evenodd" d="M21.7395 246.635H42.4383V262.212H40.3557L40.0032 261.476C38.273 257.799 35.6776 254.757 32.5055 252.652C29.4615 250.613 25.8409 249.409 21.9639 249.309H21.7075V246.635H21.7395ZM39.875 249.309H32.0569C32.6657 249.643 33.2745 250.011 33.8833 250.412C36.1903 251.95 38.2089 253.888 39.9071 256.195V249.309H39.875Z" fill="#4F86D8"/>
<path fill-rule="evenodd" clip-rule="evenodd" d="M-8.10505 246.635H11.3421V249.235H11.1175C7.20241 249.333 3.60818 250.503 0.559531 252.453C-2.61748 254.501 -5.21685 257.459 -6.94977 261.067L-9.38867 266.106V246.635H-8.10505ZM1.0088 249.235H-6.82138V255.932C-5.15264 253.689 -3.13092 251.803 -0.820361 250.308C-0.242722 249.918 0.367001 249.593 0.976731 249.268L1.0088 249.235Z" fill="#4F86D8"/>
<path fill-rule="evenodd" clip-rule="evenodd" d="M38.4977 332.344H-4.15239V369.949H38.4977V332.344ZM-5.47485 329.712H41.1426V372.548H-6.79736V329.712H-5.47485Z" fill="#4F86D8"/>
<path fill-rule="evenodd" clip-rule="evenodd" d="M80.3668 233.649H-32.0828L-30.5388 237.617H78.9542V236.465C78.9542 236.209 79.0199 235.985 79.1513 235.793L80.3668 233.649ZM-33.9882 231.09H82.6007C82.7978 231.09 83.0277 231.154 83.2248 231.25C83.849 231.602 84.079 232.37 83.7505 232.978L81.5823 236.785V238.865C81.5823 239.568 80.991 240.144 80.2683 240.144H-31.4587C-31.9843 240.144 -32.4771 239.824 -32.6742 239.313L-35.1709 232.882C-35.2366 232.722 -35.3022 232.53 -35.3022 232.338C-35.3022 231.634 -34.7109 231.058 -33.9882 231.058V231.09Z" fill="#4F86D8"/>
<path fill-rule="evenodd" clip-rule="evenodd" d="M63.1519 325.754H-30.1024V329.775H63.1519V325.754ZM-31.4067 323.221H65.7604V332.308H-32.7109V323.221H-31.4067Z" fill="#4F86D8"/>
<path d="M45.0297 219.375H-11.98V221.971H45.0297V219.375Z" fill="#4F86D8"/>
<path fill-rule="evenodd" clip-rule="evenodd" d="M64.4499 220.673C67.0437 220.673 69.7655 221.13 72.4234 222.044C74.9211 222.892 77.3228 224.165 79.5004 225.894L80.0127 226.286V233.954H63.201V220.673H64.4819H64.4499ZM71.5908 224.491C69.6375 223.806 67.6521 223.414 65.7307 223.316V231.344H77.4189V227.558C75.6257 226.221 73.6403 225.209 71.5908 224.524V224.491ZM79.9807 239.273V380.337H63.1689V237.968H79.9807V239.273ZM77.4189 377.726V240.578H65.7307V377.726H77.4189Z" fill="#4F86D8"/>
<path fill-rule="evenodd" clip-rule="evenodd" d="M64.4523 323.221C66.8585 323.221 69.2648 323.221 71.671 323.385C74.0773 323.516 76.4835 323.713 78.8898 324.04L80.0127 324.171V333.606L78.5369 333.377C76.1948 333.016 73.8527 332.82 71.5427 332.722C69.2648 332.623 66.8585 332.591 64.4523 332.591H63.1689V323.221H64.4523ZM71.5427 325.973C69.5856 325.875 67.6606 325.809 65.7356 325.809V329.97C67.6606 329.97 69.6177 330.003 71.639 330.101C73.564 330.199 75.521 330.33 77.446 330.592V326.465C75.489 326.235 73.4998 326.071 71.5106 325.973H71.5427Z" fill="#4F86D8"/>
<path fill-rule="evenodd" clip-rule="evenodd" d="M63.1519 332.34H-30.1024V377.709H63.1519V332.34ZM-31.4067 329.712H65.7604V380.337H-32.7109V329.712H-31.4067Z" fill="#4F86D8"/>
<path d="M808.183 377.74H-499.154V380.337H808.183V377.74Z" fill="#4F86D8"/>
<path d="M924.793 401.106H135.727V403.702H924.793V401.106Z" fill="#4F86D8"/>
</g>
<defs>
<clipPath id="clip0_962_94707">
<rect width="535" height="405" fill="white" transform="translate(-137)"/>
</clipPath>
</defs>
</svg>
