<svg width="20" height="21" viewBox="0 0 20 21" fill="none" xmlns="http://www.w3.org/2000/svg">
<path d="M1.25 9.875H18.75"  stroke-width="1.5" stroke-linecap="round" stroke-linejoin="round"/>
<path d="M17.5 14.875V16.75C17.5 16.9158 17.4342 17.0747 17.3169 17.1919C17.1997 17.3092 17.0408 17.375 16.875 17.375H15C14.8342 17.375 14.6753 17.3092 14.5581 17.1919C14.4408 17.0747 14.375 16.9158 14.375 16.75V14.875"  stroke-width="1.5" stroke-linecap="round" stroke-linejoin="round"/>
<path d="M5.625 14.875V16.75C5.625 16.9158 5.55915 17.0747 5.44194 17.1919C5.32473 17.3092 5.16576 17.375 5 17.375H3.125C2.95924 17.375 2.80027 17.3092 2.68306 17.1919C2.56585 17.0747 2.5 16.9158 2.5 16.75V14.875"  stroke-width="1.5" stroke-linecap="round" stroke-linejoin="round"/>
<path d="M5 12.375H6.25"  stroke-width="1.5" stroke-linecap="round" stroke-linejoin="round"/>
<path d="M13.75 12.375H15"  stroke-width="1.5" stroke-linecap="round" stroke-linejoin="round"/>
<path d="M17.5 9.875L15.165 4.62116C15.1159 4.51069 15.0358 4.41682 14.9344 4.35094C14.833 4.28506 14.7147 4.25 14.5938 4.25H5.40617C5.28527 4.25 5.16697 4.28506 5.0656 4.35094C4.96423 4.41682 4.88414 4.51069 4.83504 4.62116L2.5 9.875V14.875H17.5V9.875Z"  stroke-width="1.5" stroke-linecap="round" stroke-linejoin="round"/>
</svg>
