<svg width="20" height="20" viewBox="0 0 20 20" xmlns="http://www.w3.org/2000/svg">
<path fill-rule="evenodd" clip-rule="evenodd" d="M9.99984 7.41669C8.5731 7.41669 7.4165 8.57328 7.4165 10C7.4165 11.4268 8.5731 12.5834 9.99984 12.5834C11.4266 12.5834 12.5832 11.4268 12.5832 10C12.5832 8.57328 11.4266 7.41669 9.99984 7.41669ZM5.9165 10C5.9165 7.74486 7.74467 5.91669 9.99984 5.91669C12.255 5.91669 14.0832 7.74486 14.0832 10C14.0832 12.2552 12.255 14.0834 9.99984 14.0834C7.74467 14.0834 5.9165 12.2552 5.9165 10Z" />
<path fill-rule="evenodd" clip-rule="evenodd" d="M7.43021 2.77116C7.40419 2.75554 7.37174 2.7553 7.34549 2.77054L5.07217 4.08995C5.04605 4.10511 5.03017 4.13322 5.03068 4.16342L5.05565 5.64751C5.06302 6.08564 4.95113 6.51753 4.73195 6.89697L4.09442 6.5287L4.73195 6.89697L4.67788 6.99058L4.02844 6.61543L4.67788 6.99058C4.45858 7.37022 4.14013 7.68305 3.75665 7.89557L2.46091 8.61362C2.43435 8.62834 2.4179 8.65634 2.41797 8.6867L2.42393 11.3132C2.424 11.3434 2.44038 11.3712 2.46676 11.3859L3.75627 12.1032C4.14107 12.3173 4.46006 12.6324 4.6788 13.0146L4.73674 13.1158C4.95284 13.4933 5.06302 13.9222 5.05568 14.3571L5.03074 15.8347C5.03023 15.865 5.0462 15.8932 5.07245 15.9083L7.35298 17.2225C7.37917 17.2376 7.41147 17.2373 7.4374 17.2218L8.7033 16.4638C9.07845 16.2392 9.50753 16.1205 9.94479 16.1205H10.0545C10.4928 16.1205 10.9227 16.2397 11.2984 16.4652L12.5702 17.2287C12.5962 17.2443 12.6286 17.2446 12.6549 17.2293L14.9282 15.9099C14.9543 15.8948 14.9702 15.8666 14.9697 15.8364L14.9447 14.3524C14.9374 13.9142 15.0492 13.4823 15.2684 13.1029C15.2684 13.1029 15.2684 13.1029 15.2684 13.1029L15.3225 13.0093L15.9719 13.3844L15.3225 13.0093C15.5418 12.6296 15.8602 12.3168 16.2437 12.1043L17.5395 11.3862C17.566 11.3715 17.5825 11.3435 17.5824 11.3132L17.5764 8.68664C17.5764 8.65647 17.56 8.62868 17.5336 8.61401L16.241 7.89492C15.859 7.68243 15.5419 7.37033 15.3232 6.99185L15.9727 6.6167L15.3232 6.99184L15.2684 6.89697C15.0492 6.51753 14.9374 6.08564 14.9447 5.64751L14.9697 4.16516C14.9702 4.13487 14.9542 4.10668 14.9279 4.09156L12.6474 2.77739C12.6212 2.7623 12.5889 2.76257 12.563 2.77809L11.2971 3.53608C10.9219 3.76071 10.4928 3.87935 10.0556 3.87935H9.94583C9.50762 3.87935 9.07765 3.7602 8.70194 3.53464L7.43021 2.77116ZM6.59254 1.47321C7.09126 1.18376 7.70791 1.18832 8.20229 1.48512L9.47401 2.2486C9.61652 2.33415 9.77961 2.37935 9.94583 2.37935H10.0556C10.2214 2.37935 10.3842 2.33435 10.5265 2.24914L11.7924 1.49116C12.285 1.19617 12.8988 1.19103 13.3963 1.47773L15.6769 2.7919C16.1757 3.07932 16.4791 3.61481 16.4694 4.1904L16.4445 5.67275C16.4417 5.83893 16.4842 6.00275 16.5673 6.14668L16.6221 6.24156C16.705 6.38512 16.8253 6.5035 16.9702 6.5841L16.6056 7.23951L16.9702 6.5841L18.2628 7.30319C18.7639 7.58195 19.0751 8.10984 19.0764 8.68324L19.0824 11.3098C19.0837 11.8867 18.7711 12.4186 18.2665 12.6983L16.9708 13.4163C16.8253 13.4969 16.7045 13.6156 16.6214 13.7596L16.5673 13.8532L16.5673 13.8532C16.4842 13.9971 16.4417 14.1609 16.4445 14.3271L16.4695 15.8112C16.4791 16.385 16.1775 16.9192 15.6812 17.2072L13.4078 18.5267C12.9091 18.8161 12.2925 18.8115 11.7981 18.5147L10.5264 17.7513C10.3839 17.6657 10.2208 17.6205 10.0545 17.6205H9.94479C9.77893 17.6205 9.61618 17.6655 9.47388 17.7507L8.20798 18.5087C7.71532 18.8037 7.10157 18.8088 6.60405 18.5221L4.32352 17.208C3.82472 16.9205 3.52123 16.385 3.53095 15.8094L3.5559 14.3318C3.55868 14.1668 3.51689 14.0041 3.43492 13.8609L3.37698 13.7597L3.84569 13.4914L3.37698 13.7597C3.29401 13.6148 3.17301 13.4952 3.02706 13.414L1.73754 12.6967L2.09663 12.0512L1.73754 12.6967C1.23646 12.4179 0.925241 11.89 0.923939 11.3166L0.917973 8.69011C0.916662 8.11321 1.22923 7.58125 1.73384 7.30162L3.02958 6.58356C3.17503 6.50295 3.29583 6.38429 3.37901 6.24029L3.99572 6.59653L3.37901 6.24029L3.43308 6.14668L4.08252 6.52182L3.43308 6.14668C3.51622 6.00275 3.55866 5.83893 3.55586 5.67275L3.53089 4.18866C3.52124 3.61483 3.82285 3.0807 4.31922 2.79262L6.59254 1.47321Z" />
</svg>
