<svg width="20" height="21" viewBox="0 0 20 21" fill="none" xmlns="http://www.w3.org/2000/svg">
<path d="M1.875 17.375H13.125"  stroke-width="1.5" stroke-linecap="round" stroke-linejoin="round"/>
<path d="M1.32241 11.4663L4.26737 14.2272C4.65974 14.595 5.16028 14.8265 5.69467 14.8873C6.22906 14.9481 6.76881 14.8349 7.23377 14.5646L19.0625 7.68743L17.6063 5.90763C17.2285 5.44591 16.6981 5.13449 16.1108 5.02964C15.5235 4.92479 14.9181 5.03341 14.4038 5.33589L10.9375 7.37493L6.24998 5.81243L4.961 6.36485C4.86456 6.40618 4.78008 6.47112 4.71535 6.55369C4.65061 6.63625 4.60771 6.73379 4.59058 6.8373C4.57345 6.94081 4.58266 7.04697 4.61736 7.14598C4.65205 7.245 4.71111 7.33369 4.78909 7.40387L7.18748 9.56243L4.99998 10.8124L2.81248 9.87493L1.50368 10.4358C1.40823 10.4768 1.32448 10.5408 1.26 10.6222C1.19551 10.7036 1.15232 10.7998 1.13433 10.902C1.11634 11.0043 1.12411 11.1094 1.15695 11.208C1.18979 11.3065 1.24666 11.3952 1.32241 11.4663V11.4663Z"  stroke-width="1.5" stroke-linecap="round" stroke-linejoin="round"/>
</svg>
