<svg width="20" height="21" viewBox="0 0 20 21" fill="none" xmlns="http://www.w3.org/2000/svg">
<path d="M18.75 9.875H13.75V6.75H17.0769C17.2018 6.75 17.3238 6.78743 17.4272 6.85746C17.5307 6.92749 17.6108 7.0269 17.6572 7.14288L18.75 9.875Z"  stroke-width="1.5" stroke-linecap="round" stroke-linejoin="round"/>
<path d="M1.25 11.75H13.75"  stroke-width="1.5" stroke-linecap="round" stroke-linejoin="round"/>
<path d="M14.6875 17.375C15.723 17.375 16.5625 16.5355 16.5625 15.5C16.5625 14.4645 15.723 13.625 14.6875 13.625C13.652 13.625 12.8125 14.4645 12.8125 15.5C12.8125 16.5355 13.652 17.375 14.6875 17.375Z"  stroke-width="1.5" stroke-miterlimit="10"/>
<path d="M5.3125 17.375C6.34803 17.375 7.1875 16.5355 7.1875 15.5C7.1875 14.4645 6.34803 13.625 5.3125 13.625C4.27697 13.625 3.4375 14.4645 3.4375 15.5C3.4375 16.5355 4.27697 17.375 5.3125 17.375Z"  stroke-width="1.5" stroke-miterlimit="10"/>
<path d="M12.8125 15.5H7.1875"  stroke-width="1.5" stroke-linecap="round" stroke-linejoin="round"/>
<path d="M3.4375 15.5H1.875C1.70924 15.5 1.55027 15.4342 1.43306 15.3169C1.31585 15.1997 1.25 15.0408 1.25 14.875V6.125C1.25 5.95924 1.31585 5.80027 1.43306 5.68306C1.55027 5.56585 1.70924 5.5 1.875 5.5H13.75V13.8762"  stroke-width="1.5" stroke-linecap="round" stroke-linejoin="round"/>
<path d="M13.75 13.8762V9.875H18.75V14.875C18.75 15.0408 18.6842 15.1997 18.5669 15.3169C18.4497 15.4342 18.2908 15.5 18.125 15.5H16.5625"  stroke-width="1.5" stroke-linecap="round" stroke-linejoin="round"/>
</svg>
