<svg width="258" height="64" viewBox="0 0 258 64" fill="none" xmlns="http://www.w3.org/2000/svg">
<path d="M47 28.7464V17.4682H48.5871V26.1685L55.2241 17.4682H56.699V28.7464H55.1279V20.0622L48.4749 28.7464H47Z" fill="white"/>
<path d="M59.9412 28.7464V20.2072H61.4803V23.8323H66.3217V20.2072H67.8608V28.7464H66.3217V25.1696H61.4803V28.7464H59.9412Z" fill="white"/>
<path d="M70.8532 28.7464V20.2072H74.797C75.7909 20.2072 76.5711 20.4005 77.1376 20.7872C77.7147 21.1632 78.0033 21.7002 78.0033 22.3984C78.0033 23.0966 77.7307 23.639 77.1857 24.0257C76.6513 24.4016 75.9405 24.5896 75.0535 24.5896L75.2939 24.1707C76.3093 24.1707 77.0627 24.3586 77.5544 24.7346C78.046 25.1105 78.2918 25.6637 78.2918 26.3941C78.2918 27.1352 78.0139 27.7153 77.4582 28.1342C76.9131 28.5423 76.0741 28.7464 74.9413 28.7464H70.8532ZM72.3602 27.5541H74.829C75.4703 27.5541 75.9512 27.4575 76.2719 27.2641C76.5925 27.06 76.7528 26.7378 76.7528 26.2974C76.7528 25.8463 76.6032 25.5187 76.3039 25.3146C76.0154 25.0998 75.5558 24.9924 74.9252 24.9924H72.3602V27.5541ZM72.3602 23.8807H74.6687C75.2565 23.8807 75.7001 23.7733 75.9993 23.5584C76.3093 23.3329 76.4642 23.0214 76.4642 22.624C76.4642 22.2158 76.3093 21.9097 75.9993 21.7056C75.7001 21.5015 75.2565 21.3995 74.6687 21.3995H72.3602V23.8807Z" fill="white"/>
<path d="M84.4841 28.8431C83.5756 28.8431 82.7741 28.6551 82.0794 28.2792C81.3954 27.9032 80.861 27.3876 80.4762 26.7324C80.1022 26.0772 79.9151 25.3253 79.9151 24.4768C79.9151 23.6282 80.0968 22.8764 80.4602 22.2212C80.8343 21.5659 81.3419 21.0557 81.9832 20.6905C82.6351 20.3146 83.3672 20.1266 84.1795 20.1266C85.0024 20.1266 85.7292 20.3092 86.3598 20.6744C86.9903 21.0396 87.482 21.5552 87.8346 22.2212C88.198 22.8764 88.3797 23.6444 88.3797 24.5251C88.3797 24.5896 88.3744 24.6648 88.3637 24.7507C88.3637 24.8366 88.3583 24.9172 88.3477 24.9924H81.1175V23.8807H87.5461L86.9209 24.2673C86.9315 23.7195 86.8193 23.2308 86.5842 22.8012C86.3491 22.3715 86.0231 22.0386 85.6063 21.8023C85.2001 21.5552 84.7246 21.4317 84.1795 21.4317C83.6451 21.4317 83.1695 21.5552 82.7527 21.8023C82.3359 22.0386 82.0099 22.3769 81.7748 22.8173C81.5396 23.2469 81.4221 23.741 81.4221 24.2996V24.5574C81.4221 25.1266 81.5503 25.6368 81.8068 26.088C82.074 26.5284 82.4427 26.8721 82.913 27.1191C83.3833 27.3662 83.923 27.4897 84.5322 27.4897C85.0345 27.4897 85.4887 27.4038 85.8948 27.2319C86.3117 27.06 86.675 26.8023 86.985 26.4585L87.8346 27.4575C87.4499 27.9086 86.9689 28.2523 86.3918 28.4886C85.8254 28.7249 85.1895 28.8431 84.4841 28.8431Z" fill="white"/>
<path d="M94.4705 28.8431C93.6048 28.8431 92.83 28.6551 92.146 28.2792C91.4726 27.9032 90.9436 27.3876 90.5589 26.7324C90.1741 26.0772 89.9817 25.3253 89.9817 24.4768C89.9817 23.6282 90.1741 22.8764 90.5589 22.2212C90.9436 21.5659 91.4726 21.0557 92.146 20.6905C92.83 20.3146 93.6048 20.1266 94.4705 20.1266C95.24 20.1266 95.924 20.2824 96.5225 20.5939C97.1317 20.8946 97.602 21.3458 97.9333 21.9473L96.763 22.7045C96.4851 22.2856 96.1431 21.9795 95.737 21.7861C95.3416 21.5821 94.9141 21.48 94.4545 21.48C93.8987 21.48 93.4018 21.6035 92.9636 21.8506C92.5254 22.0976 92.178 22.4467 91.9215 22.8978C91.665 23.3382 91.5368 23.8646 91.5368 24.4768C91.5368 25.089 91.665 25.6207 91.9215 26.0719C92.178 26.523 92.5254 26.8721 92.9636 27.1191C93.4018 27.3662 93.8987 27.4897 94.4545 27.4897C94.9141 27.4897 95.3416 27.393 95.737 27.1997C96.1431 26.9956 96.4851 26.6841 96.763 26.2652L97.9333 27.0063C97.602 27.5971 97.1317 28.0536 96.5225 28.3758C95.924 28.6873 95.24 28.8431 94.4705 28.8431Z" fill="white"/>
<path d="M101.5 28.7464V21.1578L101.884 21.5606H98.3895V20.2072H106.149V21.5606H102.67L103.039 21.1578V28.7464H101.5Z" fill="white"/>
<path d="M107.722 28.7464V20.2072H109.261V26.4263L114.472 20.2072H115.866V28.7464H114.327V22.5273L109.133 28.7464H107.722Z" fill="white"/>
<path d="M118.854 28.7464V20.2072H120.393V27.393H125.042V20.2072H126.581V28.7464H118.854ZM126.468 30.7281V28.6658L126.853 28.7464H125.042V27.393H127.927V30.7281H126.468Z" fill="white"/>
<path d="M129.922 28.7464V20.2072H131.461V26.4263L136.671 20.2072H138.066V28.7464H136.527V22.5273L131.333 28.7464H129.922Z" fill="white"/>
<path d="M144.692 28.8431C143.837 28.8431 143.079 28.6551 142.416 28.2792C141.753 27.9032 141.23 27.3876 140.845 26.7324C140.46 26.0665 140.268 25.3146 140.268 24.4768C140.268 23.6282 140.46 22.8764 140.845 22.2212C141.23 21.5659 141.753 21.0557 142.416 20.6905C143.079 20.3146 143.837 20.1266 144.692 20.1266C145.537 20.1266 146.29 20.3146 146.953 20.6905C147.626 21.0557 148.15 21.5659 148.524 22.2212C148.909 22.8656 149.101 23.6175 149.101 24.4768C149.101 25.3253 148.909 26.0772 148.524 26.7324C148.15 27.3876 147.626 27.9032 146.953 28.2792C146.29 28.6551 145.537 28.8431 144.692 28.8431ZM144.692 27.4897C145.238 27.4897 145.724 27.3662 146.151 27.1191C146.589 26.8721 146.932 26.523 147.177 26.0719C147.423 25.61 147.546 25.0783 147.546 24.4768C147.546 23.8646 147.423 23.3382 147.177 22.8978C146.932 22.4467 146.589 22.0976 146.151 21.8506C145.724 21.6035 145.238 21.48 144.692 21.48C144.147 21.48 143.661 21.6035 143.234 21.8506C142.806 22.0976 142.464 22.4467 142.208 22.8978C141.951 23.3382 141.823 23.8646 141.823 24.4768C141.823 25.0783 141.951 25.61 142.208 26.0719C142.464 26.523 142.806 26.8721 143.234 27.1191C143.661 27.3662 144.147 27.4897 144.692 27.4897Z" fill="white"/>
<path d="M151.323 28.7464V20.2072H152.862V23.8323H157.704V20.2072H159.243V28.7464H157.704V25.1696H152.862V28.7464H151.323Z" fill="white"/>
<path d="M162.235 28.7464V20.2072H163.774V23.8323H168.616V20.2072H170.155V28.7464H168.616V25.1696H163.774V28.7464H162.235Z" fill="white"/>
<path d="M181.548 28.7464V20.2072H183.087V28.7464H181.548ZM176.979 23.1073C178.058 23.118 178.876 23.3651 179.432 23.8484C179.998 24.3318 180.281 25.0139 180.281 25.8946C180.281 26.8184 179.971 27.5327 179.352 28.0375C178.742 28.5316 177.866 28.7733 176.722 28.7625L173.147 28.7464V20.2072H174.686V23.0912L176.979 23.1073ZM176.61 27.5864C177.294 27.5971 177.818 27.4575 178.181 27.1675C178.545 26.8774 178.726 26.4478 178.726 25.8785C178.726 25.32 178.545 24.9118 178.181 24.654C177.829 24.3962 177.305 24.262 176.61 24.2512L174.686 24.219V27.5702L176.61 27.5864Z" fill="white"/>
<path d="M186.079 28.7464V20.2072H187.618V26.4263L192.828 20.2072H194.223V28.7464H192.684V22.5273L187.49 28.7464H186.079ZM190.055 19.0955C189.275 19.0955 188.66 18.9075 188.211 18.5316C187.773 18.1449 187.549 17.5917 187.538 16.8721H188.58C188.591 17.2802 188.724 17.6025 188.981 17.8388C189.248 18.0751 189.601 18.1932 190.039 18.1932C190.477 18.1932 190.83 18.0751 191.097 17.8388C191.364 17.6025 191.503 17.2802 191.514 16.8721H192.588C192.577 17.5917 192.347 18.1449 191.898 18.5316C191.45 18.9075 190.835 19.0955 190.055 19.0955Z" fill="white"/>
<path d="M201.516 28.7464V20.2072H209.387V28.7464H207.848V21.1739L208.217 21.5606H202.686L203.055 21.1739V28.7464H201.516Z" fill="white"/>
<path d="M216.004 28.8431C215.149 28.8431 214.39 28.6551 213.728 28.2792C213.065 27.9032 212.541 27.3876 212.157 26.7324C211.772 26.0665 211.579 25.3146 211.579 24.4768C211.579 23.6282 211.772 22.8764 212.157 22.2212C212.541 21.5659 213.065 21.0557 213.728 20.6905C214.39 20.3146 215.149 20.1266 216.004 20.1266C216.848 20.1266 217.602 20.3146 218.264 20.6905C218.938 21.0557 219.462 21.5659 219.836 22.2212C220.22 22.8656 220.413 23.6175 220.413 24.4768C220.413 25.3253 220.22 26.0772 219.836 26.7324C219.462 27.3876 218.938 27.9032 218.264 28.2792C217.602 28.6551 216.848 28.8431 216.004 28.8431ZM216.004 27.4897C216.549 27.4897 217.035 27.3662 217.463 27.1191C217.901 26.8721 218.243 26.523 218.489 26.0719C218.735 25.61 218.858 25.0783 218.858 24.4768C218.858 23.8646 218.735 23.3382 218.489 22.8978C218.243 22.4467 217.901 22.0976 217.463 21.8506C217.035 21.6035 216.549 21.48 216.004 21.48C215.459 21.48 214.973 21.6035 214.545 21.8506C214.118 22.0976 213.776 22.4467 213.519 22.8978C213.263 23.3382 213.134 23.8646 213.134 24.4768C213.134 25.0783 213.263 25.61 213.519 26.0719C213.776 26.523 214.118 26.8721 214.545 27.1191C214.973 27.3662 215.459 27.4897 216.004 27.4897Z" fill="white"/>
<path d="M227.14 28.8431C226.435 28.8431 225.788 28.682 225.2 28.3597C224.623 28.0267 224.158 27.538 223.805 26.8936C223.463 26.2491 223.292 25.4435 223.292 24.4768C223.292 23.5101 223.458 22.7045 223.789 22.06C224.131 21.4156 224.591 20.9322 225.168 20.61C225.756 20.2878 226.413 20.1266 227.14 20.1266C227.974 20.1266 228.711 20.3092 229.352 20.6744C229.993 21.0396 230.501 21.5498 230.875 22.205C231.249 22.8495 231.436 23.6068 231.436 24.4768C231.436 25.3468 231.249 26.1094 230.875 26.7647C230.501 27.4199 229.993 27.9301 229.352 28.2953C228.711 28.6605 227.974 28.8431 227.14 28.8431ZM222.635 31.8721V20.2072H224.11V22.5112L224.014 24.4929L224.174 26.4746V31.8721H222.635ZM227.012 27.4897C227.557 27.4897 228.043 27.3662 228.47 27.1191C228.909 26.8721 229.251 26.523 229.497 26.0719C229.753 25.61 229.881 25.0783 229.881 24.4768C229.881 23.8646 229.753 23.3382 229.497 22.8978C229.251 22.4467 228.909 22.0976 228.47 21.8506C228.043 21.6035 227.557 21.48 227.012 21.48C226.477 21.48 225.991 21.6035 225.553 21.8506C225.125 22.0976 224.783 22.4467 224.527 22.8978C224.281 23.3382 224.158 23.8646 224.158 24.4768C224.158 25.0783 224.281 25.61 224.527 26.0719C224.783 26.523 225.125 26.8721 225.553 27.1191C225.991 27.3662 226.477 27.4897 227.012 27.4897Z" fill="white"/>
<path d="M235.042 28.7464V21.1578L235.427 21.5606H231.932V20.2072H239.692V21.5606H236.213L236.582 21.1578V28.7464H235.042Z" fill="white"/>
<path d="M246.476 28.7464V26.9419L246.395 26.6035V23.5262C246.395 22.871 246.203 22.3662 245.818 22.0117C245.444 21.6465 244.878 21.4639 244.119 21.4639C243.617 21.4639 243.125 21.5498 242.644 21.7217C242.163 21.8828 241.757 22.103 241.426 22.3823L240.784 21.2222C241.223 20.8678 241.746 20.5992 242.355 20.4166C242.975 20.2233 243.622 20.1266 244.295 20.1266C245.46 20.1266 246.358 20.4113 246.989 20.9806C247.619 21.5498 247.934 22.4199 247.934 23.5907V28.7464H246.476ZM243.686 28.8431C243.055 28.8431 242.5 28.7357 242.019 28.5208C241.549 28.306 241.185 28.0106 240.929 27.6347C240.672 27.248 240.544 26.813 240.544 26.3296C240.544 25.8678 240.651 25.4489 240.865 25.0729C241.089 24.697 241.447 24.3962 241.939 24.1707C242.441 23.9451 243.114 23.8323 243.959 23.8323H246.652V24.944H244.023C243.253 24.944 242.735 25.0729 242.468 25.3307C242.2 25.5885 242.067 25.9 242.067 26.2652C242.067 26.6841 242.233 27.0224 242.564 27.2802C242.895 27.5273 243.355 27.6508 243.943 27.6508C244.52 27.6508 245.022 27.5219 245.45 27.2641C245.888 27.0063 246.203 26.6304 246.395 26.1363L246.7 27.1997C246.497 27.7045 246.139 28.1073 245.626 28.4081C245.113 28.6981 244.466 28.8431 243.686 28.8431Z" fill="white"/>
<path d="M249.295 28.7303L249.391 27.4252C249.466 27.436 249.535 27.4467 249.6 27.4575C249.664 27.4682 249.722 27.4736 249.776 27.4736C250.118 27.4736 250.385 27.3554 250.577 27.1191C250.781 26.8828 250.93 26.5713 251.026 26.1846C251.122 25.7872 251.192 25.3415 251.235 24.8474C251.277 24.3533 251.31 23.8592 251.331 23.3651L251.475 20.2072H258V28.7464H256.461V21.1094L256.83 21.5606H252.469L252.822 21.0933L252.71 23.4618C252.678 24.2136 252.619 24.9172 252.533 25.5724C252.448 26.2276 252.314 26.8023 252.132 27.2963C251.961 27.7904 251.721 28.1771 251.411 28.4564C251.112 28.7357 250.722 28.8753 250.241 28.8753C250.102 28.8753 249.952 28.8592 249.792 28.827C249.642 28.8055 249.477 28.7733 249.295 28.7303Z" fill="white"/>
<path d="M51.3832 44.7021C50.7524 44.7021 50.1696 44.602 49.6347 44.402C49.0998 44.1942 48.6367 43.9056 48.2455 43.5363C47.8543 43.1669 47.5469 42.7322 47.3233 42.232C47.1078 41.7318 47 41.1855 47 40.593C47 40.0004 47.1078 39.4541 47.3233 38.9539C47.5469 38.4537 47.8543 38.019 48.2455 37.6496C48.6447 37.2803 49.1117 36.9955 49.6467 36.7955C50.1816 36.5877 50.7644 36.4838 51.3952 36.4838C52.0019 36.4838 52.5728 36.5839 53.1077 36.7839C53.6426 36.9763 54.0937 37.2687 54.461 37.6612L53.8981 38.2037C53.5548 37.8651 53.1756 37.6227 52.7604 37.4765C52.3452 37.3226 51.8981 37.2456 51.4191 37.2456C50.9161 37.2456 50.4491 37.3303 50.0179 37.4996C49.5868 37.6612 49.2115 37.8959 48.8922 38.2037C48.5728 38.5038 48.3213 38.8577 48.1377 39.2656C47.9621 39.6657 47.8742 40.1082 47.8742 40.593C47.8742 41.0777 47.9621 41.524 48.1377 41.9319C48.3213 42.332 48.5728 42.686 48.8922 42.9938C49.2115 43.2939 49.5868 43.5286 50.0179 43.6979C50.4491 43.8595 50.9161 43.9403 51.4191 43.9403C51.8981 43.9403 52.3452 43.8633 52.7604 43.7094C53.1756 43.5555 53.5548 43.3093 53.8981 42.9707L54.461 43.5132C54.0937 43.9056 53.6426 44.2019 53.1077 44.402C52.5728 44.602 51.9979 44.7021 51.3832 44.7021Z" fill="white"/>
<path d="M59.8981 44.6328V43.2939L59.8622 43.0746V40.8353C59.8622 40.3198 59.7105 39.9235 59.4071 39.6465C59.1117 39.3694 58.6686 39.2309 58.0778 39.2309C57.6706 39.2309 57.2834 39.2963 56.9161 39.4272C56.5489 39.558 56.2375 39.7311 55.982 39.9466L55.5988 39.3348C55.9181 39.0732 56.3014 38.8731 56.7485 38.7346C57.1956 38.5884 57.6666 38.5153 58.1616 38.5153C58.976 38.5153 59.6027 38.7115 60.0418 39.104C60.4889 39.4887 60.7125 40.0774 60.7125 40.87V44.6328H59.8981ZM57.7305 44.6905C57.2594 44.6905 56.8483 44.6174 56.497 44.4712C56.1537 44.3173 55.8902 44.1096 55.7066 43.8479C55.5229 43.5786 55.4311 43.2708 55.4311 42.9245C55.4311 42.609 55.507 42.3243 55.6587 42.0704C55.8183 41.8088 56.0738 41.601 56.4251 41.4471C56.7844 41.2855 57.2634 41.2047 57.8622 41.2047H60.0299V41.8165H57.8862C57.2794 41.8165 56.8563 41.9203 56.6167 42.1281C56.3852 42.3359 56.2694 42.5937 56.2694 42.9015C56.2694 43.2477 56.4092 43.5247 56.6886 43.7325C56.968 43.9403 57.3592 44.0442 57.8622 44.0442C58.3413 44.0442 58.7524 43.9403 59.0957 43.7325C59.447 43.5171 59.7025 43.2093 59.8622 42.8091L60.0538 43.3747C59.8941 43.7748 59.6147 44.0942 59.2155 44.3327C58.8243 44.5713 58.3293 44.6905 57.7305 44.6905Z" fill="white"/>
<path d="M66.2215 44.6905C65.6786 44.6905 65.1876 44.5713 64.7485 44.3327C64.3093 44.0865 63.9581 43.7364 63.6946 43.2824C63.4391 42.8207 63.3114 42.2589 63.3114 41.5971C63.3114 40.9354 63.4391 40.3775 63.6946 39.9235C63.9501 39.4618 64.2974 39.1117 64.7365 38.8731C65.1756 38.6346 65.6706 38.5153 66.2215 38.5153C66.8203 38.5153 67.3552 38.6461 67.8263 38.9077C68.3053 39.1617 68.6805 39.5233 68.952 39.9927C69.2235 40.4544 69.3592 40.9892 69.3592 41.5971C69.3592 42.2127 69.2235 42.7514 68.952 43.2131C68.6805 43.6748 68.3053 44.0365 67.8263 44.2981C67.3552 44.5597 66.8203 44.6905 66.2215 44.6905ZM62.976 46.8721V38.573H63.7904V40.3967L63.7066 41.6087L63.8263 42.8322V46.8721H62.976ZM66.1616 43.9634C66.6087 43.9634 67.0079 43.8672 67.3592 43.6748C67.7105 43.4747 67.9899 43.1977 68.1975 42.8437C68.4051 42.4821 68.5089 42.0665 68.5089 41.5971C68.5089 41.1278 68.4051 40.7161 68.1975 40.3621C67.9899 40.0081 67.7105 39.7311 67.3592 39.531C67.0079 39.331 66.6087 39.2309 66.1616 39.2309C65.7145 39.2309 65.3113 39.331 64.9521 39.531C64.6008 39.7311 64.3213 40.0081 64.1137 40.3621C63.9141 40.7161 63.8143 41.1278 63.8143 41.5971C63.8143 42.0665 63.9141 42.4821 64.1137 42.8437C64.3213 43.1977 64.6008 43.4747 64.9521 43.6748C65.3113 43.8672 65.7145 43.9634 66.1616 43.9634Z" fill="white"/>
<path d="M75.0551 44.6328V43.2939L75.0192 43.0746V40.8353C75.0192 40.3198 74.8675 39.9235 74.5641 39.6465C74.2687 39.3694 73.8256 39.2309 73.2348 39.2309C72.8276 39.2309 72.4404 39.2963 72.0731 39.4272C71.7059 39.558 71.3945 39.7311 71.139 39.9466L70.7558 39.3348C71.0751 39.0732 71.4584 38.8731 71.9055 38.7346C72.3526 38.5884 72.8236 38.5153 73.3186 38.5153C74.133 38.5153 74.7597 38.7115 75.1988 39.104C75.6459 39.4887 75.8695 40.0774 75.8695 40.87V44.6328H75.0551ZM72.8875 44.6905C72.4164 44.6905 72.0053 44.6174 71.654 44.4712C71.3107 44.3173 71.0472 44.1096 70.8636 43.8479C70.6799 43.5786 70.5881 43.2708 70.5881 42.9245C70.5881 42.609 70.664 42.3243 70.8157 42.0704C70.9753 41.8088 71.2308 41.601 71.5821 41.4471C71.9414 41.2855 72.4204 41.2047 73.0192 41.2047H75.1869V41.8165H73.0432C72.4364 41.8165 72.0132 41.9203 71.7737 42.1281C71.5422 42.3359 71.4264 42.5937 71.4264 42.9015C71.4264 43.2477 71.5661 43.5247 71.8456 43.7325C72.125 43.9403 72.5162 44.0442 73.0192 44.0442C73.4983 44.0442 73.9094 43.9403 74.2527 43.7325C74.604 43.5171 74.8595 43.2093 75.0192 42.8091L75.2108 43.3747C75.0511 43.7748 74.7717 44.0942 74.3725 44.3327C73.9813 44.5713 73.4863 44.6905 72.8875 44.6905Z" fill="white"/>
<path d="M79.3306 44.6328V39.0693L79.5462 39.2886H76.9474V38.573H82.5641V39.2886H79.9653L80.1809 39.0693V44.6328H79.3306Z" fill="white"/>
<path d="M86.0879 44.6905C85.4811 44.6905 84.9342 44.5597 84.4472 44.2981C83.9682 44.0288 83.589 43.6633 83.3095 43.2016C83.0301 42.7322 82.8904 42.1974 82.8904 41.5971C82.8904 40.9892 83.0301 40.4544 83.3095 39.9927C83.589 39.531 83.9682 39.1694 84.4472 38.9077C84.9263 38.6461 85.4732 38.5153 86.0879 38.5153C86.7107 38.5153 87.2616 38.6461 87.7406 38.9077C88.2276 39.1694 88.6068 39.531 88.8783 39.9927C89.1577 40.4544 89.2975 40.9892 89.2975 41.5971C89.2975 42.1974 89.1577 42.7322 88.8783 43.2016C88.6068 43.6633 88.2276 44.0288 87.7406 44.2981C87.2536 44.5597 86.7027 44.6905 86.0879 44.6905ZM86.0879 43.9634C86.543 43.9634 86.9462 43.8672 87.2975 43.6748C87.6488 43.4747 87.9242 43.1977 88.1238 42.8437C88.3314 42.4821 88.4352 42.0665 88.4352 41.5971C88.4352 41.1201 88.3314 40.7045 88.1238 40.3506C87.9242 39.9966 87.6488 39.7234 87.2975 39.531C86.9462 39.331 86.547 39.2309 86.0999 39.2309C85.6528 39.2309 85.2536 39.331 84.9023 39.531C84.551 39.7234 84.2716 39.9966 84.064 40.3506C83.8564 40.7045 83.7526 41.1201 83.7526 41.5971C83.7526 42.0665 83.8564 42.4821 84.064 42.8437C84.2716 43.1977 84.551 43.4747 84.9023 43.6748C85.2536 43.8672 85.6488 43.9634 86.0879 43.9634Z" fill="white"/>
<path d="M91.1147 44.6328V38.573H93.8931C94.6037 38.573 95.1626 38.7038 95.5697 38.9655C95.9849 39.2271 96.1925 39.6118 96.1925 40.1197C96.1925 40.6122 95.9969 40.9931 95.6057 41.2624C95.2145 41.524 94.6995 41.6549 94.0608 41.6549L94.2284 41.4125C94.9789 41.4125 95.5298 41.5471 95.8811 41.8165C96.2324 42.0858 96.4081 42.4744 96.4081 42.9822C96.4081 43.5055 96.2085 43.9133 95.8093 44.2058C95.418 44.4905 94.8073 44.6328 93.9769 44.6328H91.1147ZM91.941 43.9864H93.941C94.4759 43.9864 94.8791 43.9056 95.1506 43.7441C95.43 43.5748 95.5697 43.3054 95.5697 42.9361C95.5697 42.5667 95.446 42.2974 95.1985 42.1281C94.951 41.9588 94.5598 41.8742 94.0248 41.8742H91.941V43.9864ZM91.941 41.2624H93.8332C94.3203 41.2624 94.6915 41.1739 94.947 40.9969C95.2105 40.82 95.3422 40.5622 95.3422 40.2236C95.3422 39.885 95.2105 39.6311 94.947 39.4618C94.6915 39.2925 94.3203 39.2079 93.8332 39.2079H91.941V41.2624Z" fill="white"/>
<path d="M101.036 44.6905C100.413 44.6905 99.8539 44.5597 99.3589 44.2981C98.8719 44.0288 98.4886 43.6633 98.2092 43.2016C97.9298 42.7322 97.7901 42.1974 97.7901 41.5971C97.7901 40.9892 97.9298 40.4544 98.2092 39.9927C98.4886 39.531 98.8719 39.1694 99.3589 38.9077C99.8539 38.6461 100.413 38.5153 101.036 38.5153C101.57 38.5153 102.053 38.6153 102.485 38.8154C102.916 39.0155 103.255 39.3156 103.503 39.7157L102.868 40.1313C102.652 39.8235 102.385 39.5964 102.065 39.4502C101.746 39.304 101.399 39.2309 101.024 39.2309C100.576 39.2309 100.173 39.331 99.814 39.531C99.4547 39.7234 99.1713 39.9966 98.9637 40.3506C98.7561 40.7045 98.6523 41.1201 98.6523 41.5971C98.6523 42.0742 98.7561 42.4898 98.9637 42.8437C99.1713 43.1977 99.4547 43.4747 99.814 43.6748C100.173 43.8672 100.576 43.9634 101.024 43.9634C101.399 43.9634 101.746 43.8903 102.065 43.7441C102.385 43.5978 102.652 43.3747 102.868 43.0746L103.503 43.4901C103.255 43.8826 102.916 44.1827 102.485 44.3904C102.053 44.5905 101.57 44.6905 101.036 44.6905Z" fill="white"/>
<path d="M109.76 44.6328L107.173 41.6318L107.879 41.2278L110.766 44.6328H109.76ZM105.149 44.6328V38.573H105.999V44.6328H105.149ZM105.736 41.9319V41.2278H107.76V41.9319H105.736ZM107.951 41.6895L107.161 41.5741L109.664 38.573H110.586L107.951 41.6895Z" fill="white"/>
<path d="M114.472 44.6905C113.865 44.6905 113.319 44.5597 112.831 44.2981C112.352 44.0288 111.973 43.6633 111.694 43.2016C111.414 42.7322 111.275 42.1974 111.275 41.5971C111.275 40.9892 111.414 40.4544 111.694 39.9927C111.973 39.531 112.352 39.1694 112.831 38.9077C113.311 38.6461 113.857 38.5153 114.472 38.5153C115.095 38.5153 115.646 38.6461 116.125 38.9077C116.612 39.1694 116.991 39.531 117.263 39.9927C117.542 40.4544 117.682 40.9892 117.682 41.5971C117.682 42.1974 117.542 42.7322 117.263 43.2016C116.991 43.6633 116.612 44.0288 116.125 44.2981C115.638 44.5597 115.087 44.6905 114.472 44.6905ZM114.472 43.9634C114.927 43.9634 115.33 43.8672 115.682 43.6748C116.033 43.4747 116.308 43.1977 116.508 42.8437C116.716 42.4821 116.819 42.0665 116.819 41.5971C116.819 41.1201 116.716 40.7045 116.508 40.3506C116.308 39.9966 116.033 39.7234 115.682 39.531C115.33 39.331 114.931 39.2309 114.484 39.2309C114.037 39.2309 113.638 39.331 113.287 39.531C112.935 39.7234 112.656 39.9966 112.448 40.3506C112.241 40.7045 112.137 41.1201 112.137 41.5971C112.137 42.0665 112.241 42.4821 112.448 42.8437C112.656 43.1977 112.935 43.4747 113.287 43.6748C113.638 43.8672 114.033 43.9634 114.472 43.9634Z" fill="white"/>
<path d="M119.499 44.6328V38.573H120.349V43.3862L124.553 38.573H125.307V44.6328H124.457V39.8081L120.265 44.6328H119.499ZM122.349 37.6958C121.822 37.6958 121.395 37.5688 121.068 37.3149C120.748 37.0533 120.581 36.68 120.565 36.1953H121.176C121.184 36.5031 121.295 36.7455 121.511 36.9224C121.727 37.0994 122.006 37.1879 122.349 37.1879C122.693 37.1879 122.972 37.0994 123.188 36.9224C123.411 36.7455 123.527 36.5031 123.535 36.1953H124.146C124.138 36.68 123.97 37.0533 123.643 37.3149C123.315 37.5688 122.884 37.6958 122.349 37.6958Z" fill="white"/>
<path d="M133.465 44.6905C132.858 44.6905 132.312 44.5597 131.825 44.2981C131.345 44.0288 130.966 43.6633 130.687 43.2016C130.407 42.7322 130.268 42.1974 130.268 41.5971C130.268 40.9892 130.407 40.4544 130.687 39.9927C130.966 39.531 131.345 39.1694 131.825 38.9077C132.304 38.6461 132.85 38.5153 133.465 38.5153C134.088 38.5153 134.639 38.6461 135.118 38.9077C135.605 39.1694 135.984 39.531 136.256 39.9927C136.535 40.4544 136.675 40.9892 136.675 41.5971C136.675 42.1974 136.535 42.7322 136.256 43.2016C135.984 43.6633 135.605 44.0288 135.118 44.2981C134.631 44.5597 134.08 44.6905 133.465 44.6905ZM133.465 43.9634C133.92 43.9634 134.323 43.8672 134.675 43.6748C135.026 43.4747 135.302 43.1977 135.501 42.8437C135.709 42.4821 135.812 42.0665 135.812 41.5971C135.812 41.1201 135.709 40.7045 135.501 40.3506C135.302 39.9966 135.026 39.7234 134.675 39.531C134.323 39.331 133.924 39.2309 133.477 39.2309C133.03 39.2309 132.631 39.331 132.28 39.531C131.928 39.7234 131.649 39.9966 131.441 40.3506C131.234 40.7045 131.13 41.1201 131.13 41.5971C131.13 42.0665 131.234 42.4821 131.441 42.8437C131.649 43.1977 131.928 43.4747 132.28 43.6748C132.631 43.8672 133.026 43.9634 133.465 43.9634Z" fill="white"/>
<path d="M141.318 44.7021C140.807 44.7021 140.352 44.6213 139.953 44.4597C139.562 44.2981 139.227 44.0519 138.947 43.721C138.668 43.3901 138.456 42.9822 138.312 42.4975C138.169 42.005 138.097 41.4356 138.097 40.7892C138.097 40.212 138.153 39.708 138.264 39.2771C138.376 38.8385 138.532 38.4614 138.732 38.1459C138.931 37.8304 139.163 37.565 139.426 37.3495C139.698 37.1264 139.989 36.9494 140.3 36.8186C140.62 36.68 140.947 36.5762 141.282 36.5069L144.109 35.8721L144.252 36.6339L141.594 37.211C141.426 37.2495 141.223 37.3033 140.983 37.3726C140.751 37.4419 140.512 37.5457 140.264 37.6842C140.025 37.8228 139.801 38.0151 139.594 38.2614C139.386 38.5076 139.219 38.8269 139.091 39.2194C138.971 39.6041 138.911 40.0851 138.911 40.6622C138.911 40.7853 138.915 40.8854 138.923 40.9623C138.931 41.0316 138.939 41.1085 138.947 41.1932C138.963 41.2701 138.975 41.3855 138.983 41.5394L138.612 41.2393C138.7 40.7699 138.879 40.3621 139.151 40.0158C139.422 39.6619 139.761 39.3887 140.169 39.1963C140.584 38.9962 141.043 38.8962 141.546 38.8962C142.129 38.8962 142.648 39.0193 143.103 39.2656C143.558 39.5041 143.913 39.8388 144.169 40.2698C144.432 40.7007 144.564 41.2009 144.564 41.7703C144.564 42.332 144.428 42.836 144.157 43.2824C143.893 43.7287 143.518 44.0788 143.031 44.3327C142.544 44.579 141.973 44.7021 141.318 44.7021ZM141.414 44.0211C141.861 44.0211 142.256 43.9249 142.6 43.7325C142.943 43.5324 143.211 43.2631 143.402 42.9245C143.602 42.586 143.702 42.2051 143.702 41.7818C143.702 41.3663 143.602 40.9969 143.402 40.6737C143.211 40.3506 142.943 40.0966 142.6 39.9119C142.256 39.7196 141.857 39.6234 141.402 39.6234C140.955 39.6234 140.56 39.7157 140.217 39.9004C139.873 40.0774 139.602 40.3275 139.402 40.6507C139.211 40.9739 139.115 41.3471 139.115 41.7703C139.115 42.1935 139.211 42.5744 139.402 42.913C139.602 43.2516 139.873 43.5209 140.217 43.721C140.568 43.921 140.967 44.0211 141.414 44.0211Z" fill="white"/>
<path d="M145.201 44.6213L145.261 43.9172C145.317 43.9249 145.369 43.9364 145.417 43.9518C145.473 43.9595 145.521 43.9634 145.561 43.9634C145.816 43.9634 146.02 43.871 146.172 43.6863C146.331 43.5017 146.451 43.2554 146.531 42.9476C146.611 42.6398 146.667 42.2935 146.698 41.9088C146.73 41.5164 146.758 41.1239 146.782 40.7315L146.89 38.573H151.501V44.6328H150.651V39.0463L150.866 39.2886H147.441L147.645 39.0347L147.549 40.7892C147.525 41.3124 147.481 41.8126 147.417 42.2897C147.361 42.7668 147.269 43.1862 147.142 43.5478C147.022 43.9095 146.854 44.1942 146.639 44.402C146.423 44.602 146.148 44.7021 145.812 44.7021C145.716 44.7021 145.617 44.6944 145.513 44.679C145.417 44.6636 145.313 44.6444 145.201 44.6213Z" fill="white"/>
<path d="M157.822 44.6328V43.2939L157.786 43.0746V40.8353C157.786 40.3198 157.635 39.9235 157.331 39.6465C157.036 39.3694 156.593 39.2309 156.002 39.2309C155.595 39.2309 155.207 39.2963 154.84 39.4272C154.473 39.558 154.161 39.7311 153.906 39.9466L153.523 39.3348C153.842 39.0732 154.225 38.8731 154.672 38.7346C155.12 38.5884 155.591 38.5153 156.086 38.5153C156.9 38.5153 157.527 38.7115 157.966 39.104C158.413 39.4887 158.636 40.0774 158.636 40.87V44.6328H157.822ZM155.654 44.6905C155.183 44.6905 154.772 44.6174 154.421 44.4712C154.078 44.3173 153.814 44.1096 153.631 43.8479C153.447 43.5786 153.355 43.2708 153.355 42.9245C153.355 42.609 153.431 42.3243 153.583 42.0704C153.742 41.8088 153.998 41.601 154.349 41.4471C154.708 41.2855 155.187 41.2047 155.786 41.2047H157.954V41.8165H155.81C155.203 41.8165 154.78 41.9203 154.541 42.1281C154.309 42.3359 154.193 42.5937 154.193 42.9015C154.193 43.2477 154.333 43.5247 154.613 43.7325C154.892 43.9403 155.283 44.0442 155.786 44.0442C156.265 44.0442 156.676 43.9403 157.02 43.7325C157.371 43.5171 157.627 43.2093 157.786 42.8091L157.978 43.3747C157.818 43.7748 157.539 44.0942 157.14 44.3327C156.748 44.5713 156.253 44.6905 155.654 44.6905Z" fill="white"/>
<path d="M163.535 44.6905C162.912 44.6905 162.353 44.5597 161.858 44.2981C161.371 44.0288 160.988 43.6633 160.708 43.2016C160.429 42.7322 160.289 42.1974 160.289 41.5971C160.289 40.9892 160.429 40.4544 160.708 39.9927C160.988 39.531 161.371 39.1694 161.858 38.9077C162.353 38.6461 162.912 38.5153 163.535 38.5153C164.07 38.5153 164.553 38.6153 164.984 38.8154C165.415 39.0155 165.754 39.3156 166.002 39.7157L165.367 40.1313C165.151 39.8235 164.884 39.5964 164.565 39.4502C164.245 39.304 163.898 39.2309 163.523 39.2309C163.076 39.2309 162.672 39.331 162.313 39.531C161.954 39.7234 161.67 39.9966 161.463 40.3506C161.255 40.7045 161.152 41.1201 161.152 41.5971C161.152 42.0742 161.255 42.4898 161.463 42.8437C161.67 43.1977 161.954 43.4747 162.313 43.6748C162.672 43.8672 163.076 43.9634 163.523 43.9634C163.898 43.9634 164.245 43.8903 164.565 43.7441C164.884 43.5978 165.151 43.3747 165.367 43.0746L166.002 43.4901C165.754 43.8826 165.415 44.1827 164.984 44.3904C164.553 44.5905 164.07 44.6905 163.535 44.6905Z" fill="white"/>
<path d="M168.729 44.6328V39.0693L168.944 39.2886H166.346V38.573H171.962V39.2886H169.364L169.579 39.0693V44.6328H168.729Z" fill="white"/>
<path d="M173.192 44.6328V38.573H174.042V43.3862L178.246 38.573H179V44.6328H178.15V39.8081L173.958 44.6328H173.192Z" fill="white"/>
<path fill-rule="evenodd" clip-rule="evenodd" d="M17.7976 38.7331C17.6853 39.1588 17.5729 39.5916 17.4886 40.0245C17.4675 40.138 17.4465 40.2444 17.4254 40.3579C17.4043 40.4573 17.3833 40.5637 17.3481 40.663C17.2006 40.6985 17.0672 40.7482 16.9267 40.7908C17.011 40.9043 17.1023 41.0249 17.1936 41.1384V41.1739L17.2147 41.7699C17.2147 41.9331 17.2147 42.0963 17.2006 42.2524L17.1796 42.4865L17.0883 43.04L17.0461 43.0684C16.8776 43.2457 16.7301 43.4515 16.5896 43.6573C16.5123 43.7779 16.4421 43.8914 16.3719 44.0191C16.1401 44.4732 15.9715 44.9557 15.8521 45.4453C15.817 45.5943 15.7819 45.7504 15.7819 45.9065C15.7819 45.9278 15.7819 45.942 15.7819 45.9633L15.8381 46.318C16.0137 46.1194 16.1963 45.9207 16.3789 45.7291C16.5615 45.5375 16.7441 45.3389 16.9338 45.1544C16.9338 45.2821 16.9338 45.4169 16.9338 45.5517C16.9338 46.2684 16.9548 46.985 16.9829 47.7016C16.997 48.1699 17.004 48.6382 17.011 49.1065C17.011 49.3832 17.018 49.6528 17.0321 49.9296L16.8354 50.2701C16.695 50.5469 16.5685 50.8378 16.4632 51.1358L16.4351 51.2138L16.5896 51.4551C16.695 51.4125 16.7933 51.3841 16.8705 51.299L16.9057 51.2777C16.9759 51.2422 17.0461 51.2067 17.1234 51.1783C17.1655 51.7176 17.2147 52.2497 17.2639 52.789C17.2849 53.0586 17.313 53.3282 17.3411 53.5979L17.1726 53.8036L17.0812 53.9455C16.9829 54.1158 16.9057 54.2932 16.8565 54.4848L16.8424 54.5557L17.0321 54.8679L17.4465 54.5628C17.4816 54.9176 17.5237 55.2724 17.5588 55.6271C17.5869 55.9677 17.5588 56.3083 17.5097 56.6488L17.4675 56.8617C17.4465 56.954 17.4184 57.0391 17.3903 57.1313C17.3622 57.2023 17.3271 57.2803 17.299 57.3513L17.0883 57.9615L16.9759 58.3801L16.9197 58.5149C16.6739 59.1393 16.4842 59.7921 16.2946 60.4378C16.5194 60.1469 16.7441 59.8489 16.9829 59.565C17.0461 59.487 17.1164 59.4089 17.1796 59.338V59.3238C17.32 59.1819 17.4535 59.04 17.594 58.9123L17.6993 58.82V58.8058C17.8047 58.7349 17.903 58.6639 18.0224 58.6072L18.1348 58.5646C18.1839 58.5646 18.2331 58.5504 18.2893 58.5504C18.3385 58.5504 18.3876 58.5646 18.4368 58.5717L18.5421 58.6143C18.7318 58.6994 18.8933 58.8271 19.0478 58.9619C19.4763 59.3451 19.8907 59.7353 20.305 60.1256C20.4806 60.2959 20.6492 60.4661 20.8248 60.6435L20.5228 59.7282C20.3753 59.5154 20.2278 59.3025 20.0873 59.0826C20.0382 59.0116 19.996 58.9406 19.9468 58.8697C19.687 58.373 19.4201 57.8834 19.1883 57.3726C19.104 57.1739 19.0268 56.9752 18.9565 56.7695C18.9214 56.6559 18.8933 56.5495 18.8652 56.436L18.8231 56.2089C18.809 56.0954 18.802 55.989 18.802 55.8755V55.7123L18.9144 54.4635H19.0268L19.1391 54.6409C19.2094 54.4138 19.2304 54.3429 19.3218 54.0449L19.399 53.7965L19.4131 53.7539C19.4692 53.5624 19.5254 53.3708 19.5816 53.1721L19.6238 53.0515C19.6659 52.938 19.7221 52.8387 19.7923 52.7322C19.8415 52.6613 19.8907 52.5903 19.9468 52.5265L20.0592 52.4129C20.0101 52.3349 19.9609 52.2639 19.9117 52.1859C19.7432 51.9021 19.5816 51.6112 19.4201 51.3273C19.4412 51.2067 19.4622 51.0861 19.4903 50.9655C19.4973 50.9016 19.5044 50.8378 19.5044 50.7739C19.5254 50.3979 19.5395 50.0218 19.5606 49.6457L19.6167 49.6316C19.7151 49.5748 19.8134 49.518 19.9117 49.4684L19.6729 48.8298L19.8555 48.6879L19.9749 48.5531L19.8836 48.4183L19.7923 48.0209L19.9398 47.95L20.1576 47.8081L19.9468 47.6307L19.9188 47.5952L19.8696 47.4746C19.8555 47.4036 19.8555 47.3327 19.8485 47.2617L19.8907 47.2475L19.9539 47.2191L20.1014 47.1056L20.0241 46.9566L19.9398 46.5806L20.0382 46.5309L20.1786 46.4174L20.1084 46.2826C20.0803 46.169 20.0662 46.0555 20.0522 45.942L20.0382 45.7433C20.1154 45.6936 20.1997 45.644 20.277 45.5872L20.1435 45.3956C20.0733 45.275 20.0101 45.1473 19.9468 45.0196C20.0733 45.0125 20.2067 44.9912 20.3331 44.9841L20.1997 44.7571L20.1084 44.5442L19.982 43.9979L20.1856 43.8418L19.9398 43.3451L20.0452 43.2387L19.9749 43.0684L20.0311 43.0542C19.8907 42.7987 19.7432 42.5433 19.6378 42.2737C19.6167 42.2027 19.5957 42.1389 19.5746 42.0679C19.5535 42.0041 19.5325 41.9473 19.5114 41.8834C19.3288 41.3726 19.1251 40.8688 18.9565 40.3579C18.788 39.8329 18.6054 39.3149 18.486 38.7757C18.4579 38.6267 18.4227 38.4706 18.4298 38.3145L18.4508 38.1868C18.4017 38.1513 18.3525 38.1229 18.2963 38.0945L18.2542 38.0732L18.191 38.0591H18.0997L17.9943 38.1158L17.9522 38.201C17.91 38.3783 17.8609 38.5628 17.8117 38.7402M16.8916 36.8387C16.5123 36.5903 16.1331 36.342 15.7678 36.0724C15.6765 36.0014 15.5852 35.9375 15.4869 35.8666C15.4026 35.8027 15.3113 35.7389 15.22 35.6892C15.0866 35.7602 14.9531 35.8098 14.8126 35.8666C14.7986 35.7247 14.7775 35.5828 14.7705 35.4409L14.7494 35.4125L14.3491 34.9584C14.2367 34.8307 14.1243 34.7171 14.0049 34.6036L13.8223 34.4404L13.3728 34.0857H13.3237C13.0708 34.0715 12.825 34.0147 12.5792 33.9508C12.4387 33.9154 12.3052 33.8728 12.1718 33.8231C11.6872 33.6316 11.2306 33.3832 10.7952 33.0994C10.6688 33.0072 10.5353 32.9149 10.4229 32.8014C10.4089 32.7872 10.3948 32.773 10.3878 32.7588L10.1771 32.4608C10.444 32.4963 10.7179 32.5247 10.9848 32.5531C11.2517 32.5814 11.5256 32.6098 11.7995 32.624C11.7082 32.5318 11.6169 32.4324 11.5256 32.3331C11.034 31.7939 10.5494 31.2475 10.0788 30.6941C9.76974 30.3322 9.44666 29.9846 9.1306 29.6298C8.94799 29.424 8.75835 29.2183 8.58276 29.0054L8.20349 28.8777C7.90148 28.7642 7.61352 28.6222 7.33257 28.4732L7.25531 28.4307L7.20615 28.1469C7.3115 28.1114 7.40983 28.0688 7.52221 28.083H7.56435C7.64161 28.0617 7.71887 28.0404 7.79613 28.012C7.459 27.5863 7.12889 27.1535 6.79176 26.7207C6.6232 26.5078 6.45463 26.2879 6.29309 26.0679L6.0262 26.0183L5.85763 25.9686C5.668 25.9047 5.48538 25.8267 5.31682 25.7132L5.25361 25.6706L5.17635 25.3087L5.69609 25.2732C5.47836 24.9823 5.26765 24.6985 5.04992 24.4076C4.83219 24.138 4.57935 23.8967 4.30543 23.6839L4.12984 23.5491C4.05258 23.4923 3.97532 23.4426 3.89104 23.4001C3.8208 23.3646 3.74355 23.3291 3.67331 23.2936L3.09738 22.9744L2.73216 22.7331L2.59871 22.6693C1.98064 22.3642 1.39066 21.9952 0.800683 21.6404C1.17293 21.7114 1.53815 21.7894 1.9104 21.8462C2.01576 21.8604 2.11409 21.8746 2.21241 21.8888H2.22646C2.42312 21.9171 2.61978 21.9313 2.81644 21.9384H2.95691L2.97096 21.9526C3.09738 21.9384 3.2238 21.9313 3.3432 21.8959L3.4626 21.8533C3.50475 21.8249 3.54689 21.7965 3.582 21.7681C3.61712 21.7327 3.64522 21.6972 3.68033 21.6546L3.7295 21.5553C3.81378 21.3708 3.8489 21.1721 3.86997 20.9664C3.92616 20.4058 3.9683 19.8453 4.00342 19.2848C4.01746 19.0435 4.02449 18.8094 4.03151 18.5681L4.43888 19.448C4.47399 19.7034 4.51614 19.9588 4.55828 20.2072C4.57232 20.2923 4.59339 20.3704 4.60042 20.4555C4.74791 20.9948 4.88838 21.534 5.07099 22.0591C5.14123 22.2648 5.22551 22.4564 5.31682 22.6551C5.36598 22.7615 5.42217 22.8608 5.47836 22.9602L5.60478 23.1517C5.67502 23.244 5.73823 23.3291 5.81549 23.4143L5.93489 23.5349L6.87604 24.4005L6.96033 24.3296L6.92521 24.1238C7.13591 24.2444 7.20615 24.287 7.47304 24.4502L7.70482 24.585L7.74696 24.6134C7.92255 24.7198 8.09814 24.8262 8.27373 24.9327L8.3861 24.9965C8.49848 25.0533 8.61086 25.0959 8.73026 25.1242C8.81454 25.1455 8.89882 25.1668 8.98311 25.1739H9.14465C9.15869 25.2732 9.17274 25.3655 9.19381 25.4506C9.26405 25.7699 9.34131 26.0892 9.42559 26.4085C9.52392 26.4795 9.62225 26.5575 9.7276 26.6285C9.77677 26.671 9.82593 26.7136 9.8751 26.7633C10.149 27.0329 10.4159 27.3025 10.6968 27.565L10.753 27.5438C10.8654 27.5225 10.9778 27.5012 11.0902 27.4799L11.35 28.1043L11.5818 28.0901L11.7644 28.1114L11.7855 28.2675L11.9892 28.6222L12.1507 28.5797L12.4176 28.5442L12.3825 28.8138V28.8564L12.4317 28.977C12.4668 29.0409 12.5159 29.0905 12.5581 29.1473L12.5932 29.1331L12.6564 29.1118H12.8461L12.8882 29.2679L13.0849 29.6085L13.1902 29.5872H13.3728L13.415 29.7291C13.4711 29.8356 13.5414 29.9278 13.6116 30.02L13.731 30.1761C13.8293 30.1619 13.9207 30.1477 14.012 30.1336L14.0471 30.3606C14.0752 30.4954 14.1173 30.6373 14.1665 30.765C14.2648 30.687 14.3772 30.616 14.4825 30.5451L14.5387 30.8005L14.616 31.0134L14.8969 31.503L15.1568 31.4888L15.3183 32.0138H15.4729L15.5361 32.1912L15.5852 32.1628C15.6555 32.4395 15.7187 32.7304 15.8311 33.0001C15.8591 33.0639 15.8943 33.1278 15.9224 33.1916C15.9505 33.2484 15.9785 33.3123 15.9996 33.369C16.2174 33.8657 16.414 34.3695 16.6388 34.8591C16.8705 35.3557 17.0953 35.8666 17.3762 36.342C17.4535 36.4697 17.5378 36.6116 17.6502 36.718L17.7555 36.8032C17.7415 36.8599 17.7274 36.9167 17.7063 36.9735L17.6853 37.016L17.6502 37.0657L17.5799 37.1225L17.4605 37.1508L17.3692 37.1154C17.2147 37.0089 17.0532 36.9096 16.8916 36.8032V36.8387ZM19.6519 36.9167C20.0311 36.6684 20.4104 36.42 20.7756 36.1504C20.8669 36.0795 20.9582 36.0156 21.0495 35.9446C21.1338 35.8808 21.2251 35.8169 21.3164 35.7673C21.4499 35.8382 21.5833 35.8879 21.7238 35.9446C21.7379 35.8027 21.7589 35.6608 21.7659 35.5189L21.787 35.4905L22.1874 35.0364C22.2997 34.9087 22.4121 34.7952 22.5315 34.6817L22.7141 34.5185L23.1636 34.1637H23.2128C23.4656 34.1495 23.7115 34.0928 23.9573 34.0289C24.0978 33.9934 24.2312 33.9508 24.3647 33.9012C24.8493 33.7096 25.3058 33.4613 25.7413 33.1775C25.8677 33.0852 26.0011 32.993 26.1135 32.8795C26.1276 32.8653 26.1416 32.8511 26.1486 32.8369L26.3593 32.5389C26.0924 32.5744 25.8185 32.6027 25.5516 32.6311C25.2847 32.6595 25.0108 32.6879 24.7369 32.7021C24.8282 32.6027 24.9195 32.5105 25.0108 32.4112C25.5025 31.8719 25.9871 31.3256 26.4577 30.7721C26.7667 30.4174 27.0898 30.0626 27.4058 29.7078C27.5885 29.5021 27.7781 29.2963 27.9537 29.0834L28.333 28.9557C28.635 28.8422 28.9229 28.7003 29.2039 28.5513L29.2811 28.5087L29.3303 28.2249C29.2249 28.1894 29.1266 28.1469 29.0142 28.161H28.9721C28.8948 28.1398 28.8176 28.1185 28.7403 28.0901C29.0774 27.6644 29.4076 27.2316 29.7447 26.7987C29.9132 26.5859 30.0818 26.3659 30.2434 26.146L30.5103 26.0963L30.6788 26.0466C30.8685 25.9828 31.0511 25.9047 31.2196 25.7912L31.2828 25.7486L31.3601 25.3868L30.8404 25.3513C31.0581 25.0604 31.2688 24.7766 31.4865 24.4857C31.7043 24.216 31.9571 23.9748 32.231 23.7619L32.4066 23.6271C32.4839 23.5704 32.5611 23.5207 32.6454 23.4781C32.7156 23.4426 32.7929 23.4072 32.8631 23.3717L33.4391 23.0524L33.8043 22.8112L33.9377 22.7473C34.5558 22.4422 35.1458 22.0732 35.7358 21.7185C35.3635 21.7894 34.9983 21.8675 34.626 21.9242C34.5277 21.9384 34.4224 21.9526 34.324 21.9668H34.31C34.1133 21.9952 33.9167 22.0094 33.72 22.0165H33.5795L33.5655 22.0307C33.4391 22.0165 33.3126 22.0094 33.1932 21.9739L33.0738 21.9313C33.0317 21.903 32.9896 21.8746 32.9544 21.8462C32.9193 21.8107 32.8912 21.7752 32.8561 21.7327L32.8069 21.6333C32.7227 21.4489 32.6875 21.2502 32.6665 21.0444C32.6103 20.4839 32.5681 19.9234 32.533 19.3628C32.519 19.1216 32.512 18.8874 32.5049 18.6462L32.0976 19.526C32.0625 19.7815 32.0203 20.0369 31.9782 20.2852C31.9641 20.3704 31.9431 20.4484 31.936 20.5336C31.7885 21.0728 31.6481 21.612 31.4655 22.1371C31.3952 22.3429 31.3109 22.5344 31.2196 22.7331C31.1705 22.8395 31.1143 22.9389 31.0581 23.0382L30.9317 23.2298C30.8614 23.322 30.7982 23.4072 30.721 23.4923L30.6016 23.6129L29.6604 24.4786L29.5761 24.4076L29.6112 24.2018C29.4005 24.3225 29.3373 24.365 29.0634 24.5282L28.8316 24.663L28.7895 24.6843C28.6139 24.7908 28.4383 24.8972 28.2627 25.0036L28.1503 25.0675C28.038 25.1242 27.9256 25.1597 27.8062 25.1952C27.7219 25.2165 27.6376 25.2378 27.5533 25.2449H27.3918C27.3778 25.3442 27.3637 25.4364 27.3426 25.5216C27.2724 25.8409 27.1951 26.1602 27.1109 26.4795C27.0125 26.5504 26.9142 26.6285 26.8088 26.6994C26.7597 26.742 26.7105 26.7846 26.6614 26.8342C26.3874 27.1038 26.1205 27.3735 25.8396 27.636L25.7834 27.6147C25.671 27.5934 25.5587 27.5721 25.4463 27.5509L25.1864 28.1823L24.9546 28.1681L24.772 28.1894L24.7509 28.3455L24.5473 28.7003L24.3857 28.6577L24.1188 28.6222L24.1539 28.8919V28.9344L24.1048 29.0551C24.0697 29.1189 24.0205 29.1686 23.9784 29.2254L23.9432 29.2112L23.88 29.1899H23.6904L23.6483 29.346L23.4516 29.6865L23.3462 29.6653H23.1636L23.1215 29.8072C23.0653 29.9136 22.9951 30.0058 22.9248 30.0981L22.8054 30.2542C22.7141 30.24 22.6158 30.2258 22.5245 30.2116L22.4894 30.4387C22.4613 30.5735 22.4191 30.7154 22.37 30.8431C22.2716 30.765 22.1593 30.6941 22.0539 30.6231L21.9977 30.8786L21.9205 31.0914L21.6395 31.581L21.3797 31.5668L21.2181 32.0919H21.0636L21.0004 32.2693L20.9512 32.2409C20.881 32.5176 20.8178 32.8085 20.7054 33.0781C20.6773 33.142 20.6422 33.2058 20.6141 33.2697C20.586 33.3265 20.5579 33.3903 20.5368 33.4471C20.3191 33.9438 20.1224 34.4475 19.8977 34.9371C19.6659 35.4338 19.4412 35.9446 19.1602 36.42C19.083 36.5477 18.9987 36.6897 18.8863 36.7961L18.7809 36.8812C18.795 36.938 18.809 36.9948 18.8301 37.0515L18.8512 37.0941L18.8863 37.1438L18.9565 37.2005L19.0759 37.2289L19.1672 37.1934C19.3218 37.087 19.4833 36.9877 19.6448 36.8812L19.6519 36.9167ZM37 17.0923H0V58.7207C0 60.0404 1.11674 61.1189 2.47931 61.1189H14.8759C16.7863 61.1189 17.9522 62.02 18.4789 63.9996C19.1602 62.0342 20.6281 61.1189 22.384 61.1189H34.0571C35.6726 61.1189 36.986 59.8418 36.986 58.2879V17.0781L37 17.0923Z" fill="white"/>
<path fill-rule="evenodd" clip-rule="evenodd" d="M25.8828 13.1358C25.8828 13.1358 23.2623 12.5281 18.9016 12.5493C14.5479 12.5705 11.553 13.3548 11.553 13.3548C11.4768 13.369 11.3589 13.7647 11.4283 13.8141C11.4976 13.8707 13.2307 14.3511 15.9414 14.4006C18.6521 14.4571 21.3281 14.33 23.082 14.1674C24.829 14.0049 25.9313 13.7223 26.0561 13.5951C26.0908 13.5244 26.1462 13.1641 25.8828 13.1358ZM30.0562 2.48725L26.9088 11.3127C26.9088 11.3127 27.1307 11.4894 27.1861 11.8144C27.2416 12.1324 26.6939 12.2243 26.6939 12.2243C26.6939 12.2243 26.5691 12.7613 26.6939 12.9945C26.8187 13.2276 26.9851 13.2418 26.9851 13.4396C26.9851 13.6375 26.9643 13.8495 26.5067 14.118C25.3143 14.7044 20.6487 14.9376 17.938 14.973C15.2273 15.0083 11.8997 14.5631 11.0539 14.3865C10.215 14.2098 10.215 13.9201 10.2289 13.6516C10.2497 13.3831 10.5409 13.0793 10.5409 13.0793L10.5062 12.5069C10.5062 12.5069 10.4508 12.4716 10.3606 12.4716C10.2705 12.4716 10.0695 12.3444 10.014 12.1112C9.95853 11.878 10.2705 11.5601 10.2705 11.5601L6.87351 2.82642C6.87351 2.82642 6.81112 2.82642 6.77645 2.82642C6.34663 2.82642 6 2.48725 6 2.07035C6 1.65346 6.34663 1.31429 6.77645 1.31429C7.20628 1.31429 7.55291 1.65346 7.55291 2.07035C7.55291 2.21874 7.51131 2.36006 7.43505 2.47312C8.09366 3.46236 9.14742 4.16897 10.118 4.50814C11.0262 4.79785 12.4266 5.27127 12.4266 5.27127C12.4266 5.27127 12.7593 4.26083 12.8841 3.82273C12.8841 3.58249 12.8425 3.32811 12.787 3.0596C12.5999 2.98187 12.4543 2.82642 12.4058 2.61444C12.3295 2.27527 12.5513 1.94316 12.898 1.8725C13.2446 1.80184 13.5843 2.01382 13.6536 2.34593C13.7022 2.55084 13.6328 2.75576 13.5011 2.89708C13.5358 3.13733 13.5843 3.36344 13.6536 3.57542C13.7438 3.70261 13.8547 3.851 13.9864 4.00645C14.6242 4.75545 15.2343 5.23594 15.2343 5.23594C15.2343 5.23594 15.7126 4.82611 16.5515 4.35975C16.7664 4.23963 16.9536 4.09831 17.113 3.94992C17.7231 3.31398 18.1321 2.52965 18.139 1.42734C17.8895 1.30015 17.7231 1.04578 17.7231 0.756067C17.7231 0.33917 18.0697 0 18.4995 0C18.9294 0 19.276 0.33917 19.276 0.756067C19.276 1.04578 19.1096 1.30015 18.86 1.42734C18.86 2.10568 19.0126 2.6639 19.276 3.13733C19.4424 3.36344 19.6434 3.58955 19.8791 3.7874C20.7041 4.50107 21.3627 4.80491 21.8549 5.0169C22.056 4.91091 22.6037 4.43041 23.1929 3.60369C23.2484 3.52596 23.2969 3.4553 23.3385 3.37757C23.394 3.14439 23.4356 2.89708 23.4494 2.62857C23.3039 2.49432 23.2207 2.29647 23.2484 2.09155C23.2969 1.75238 23.6158 1.51213 23.9625 1.55453C24.3091 1.59693 24.5587 1.9149 24.5101 2.25407C24.4824 2.46605 24.3507 2.63564 24.1635 2.7275C24.115 3.06667 24.115 3.38464 24.1427 3.68141C24.2814 4.31736 24.6626 5.15822 24.6626 5.15822C24.6626 5.15822 24.9954 4.9957 25.6124 4.74839C26.2502 4.47281 26.6662 4.35975 26.9989 4.27496C27.9557 3.89339 28.9747 3.14439 29.5848 2.12688C29.5016 2.01382 29.4531 1.87957 29.4462 1.73118C29.4254 1.31429 29.7581 0.960983 30.188 0.939785C30.6178 0.918587 30.9783 1.24362 30.9991 1.66052C31.0199 2.07742 30.6871 2.43072 30.2573 2.45192C30.188 2.45192 30.1256 2.45192 30.0632 2.43779L30.0424 2.47312L30.0562 2.48725Z" fill="white"/>
</svg>
